G04 Layer_Physical_Order=1*
G04 Layer_Color=255*
%FSLAX44Y44*%
%MOMM*%
G71*
G01*
G75*
G04:AMPARAMS|DCode=10|XSize=0.9mm|YSize=0.8mm|CornerRadius=0.08mm|HoleSize=0mm|Usage=FLASHONLY|Rotation=90.000|XOffset=0mm|YOffset=0mm|HoleType=Round|Shape=RoundedRectangle|*
%AMROUNDEDRECTD10*
21,1,0.9000,0.6400,0,0,90.0*
21,1,0.7400,0.8000,0,0,90.0*
1,1,0.1600,0.3200,0.3700*
1,1,0.1600,0.3200,-0.3700*
1,1,0.1600,-0.3200,-0.3700*
1,1,0.1600,-0.3200,0.3700*
%
%ADD10ROUNDEDRECTD10*%
G04:AMPARAMS|DCode=11|XSize=0.9mm|YSize=0.8mm|CornerRadius=0.08mm|HoleSize=0mm|Usage=FLASHONLY|Rotation=0.000|XOffset=0mm|YOffset=0mm|HoleType=Round|Shape=RoundedRectangle|*
%AMROUNDEDRECTD11*
21,1,0.9000,0.6400,0,0,0.0*
21,1,0.7400,0.8000,0,0,0.0*
1,1,0.1600,0.3700,-0.3200*
1,1,0.1600,-0.3700,-0.3200*
1,1,0.1600,-0.3700,0.3200*
1,1,0.1600,0.3700,0.3200*
%
%ADD11ROUNDEDRECTD11*%
%ADD12R,1.4500X0.3000*%
%ADD13R,0.3000X1.4500*%
%ADD14O,0.2500X0.9000*%
%ADD15O,0.9000X0.2500*%
%ADD16R,3.0000X3.0000*%
%ADD17R,0.6500X1.1000*%
%ADD18R,1.0000X1.6000*%
%ADD19R,1.9000X2.9000*%
%ADD20R,1.3800X0.4000*%
%ADD21R,1.3800X0.4500*%
%ADD22C,0.2500*%
%ADD23C,0.3000*%
%ADD24C,0.2000*%
%ADD25C,0.1500*%
%ADD26C,1.5000*%
%ADD27R,1.5000X1.5000*%
%ADD28R,1.5000X1.5000*%
%ADD29O,2.0000X1.1000*%
%ADD30O,1.8000X1.1000*%
%ADD31O,1.8000X0.9500*%
%ADD32C,6.0000*%
%ADD33C,0.8000*%
G36*
X570488Y261181D02*
X569913Y261043D01*
X565182Y259083D01*
X560814Y256407D01*
X556920Y253080D01*
X553593Y249186D01*
X550917Y244818D01*
X548957Y240086D01*
X547761Y235106D01*
X547459Y231270D01*
X580000D01*
Y230000D01*
X581270D01*
Y197459D01*
X585106Y197761D01*
X590087Y198957D01*
X594818Y200917D01*
X599186Y203593D01*
X603080Y206920D01*
X606407Y210814D01*
X609083Y215182D01*
X611043Y219914D01*
X611181Y220488D01*
X612451Y220338D01*
Y140618D01*
X599050D01*
X598853Y140578D01*
X598653D01*
X597092Y140268D01*
X597092D01*
X596357Y139963D01*
X595034Y139079D01*
X594471Y138517D01*
X593587Y137194D01*
X593283Y136459D01*
X592972Y134898D01*
Y134102D01*
X592972Y134102D01*
X593283Y132542D01*
Y132541D01*
X593587Y131806D01*
X594471Y130483D01*
X595034Y129921D01*
X595290Y129749D01*
X595599Y128042D01*
X595455Y127840D01*
X590550D01*
X589560Y127643D01*
X588719Y127081D01*
X588158Y126241D01*
X587961Y125250D01*
Y112020D01*
X600051D01*
Y109480D01*
X587961D01*
Y96250D01*
X588158Y95259D01*
X588719Y94419D01*
X589560Y93857D01*
X590550Y93660D01*
X595455D01*
X595599Y93457D01*
X595290Y91751D01*
X595034Y91579D01*
X594471Y91017D01*
X593587Y89694D01*
X593283Y88959D01*
X592972Y87398D01*
Y86602D01*
X592972Y86602D01*
X593283Y85042D01*
Y85041D01*
X593587Y84306D01*
X594471Y82983D01*
X595034Y82421D01*
X596357Y81537D01*
X597092Y81232D01*
X598653Y80922D01*
X598854D01*
X599050Y80882D01*
X612451D01*
Y9662D01*
X611181Y9512D01*
X611043Y10086D01*
X609083Y14819D01*
X606407Y19186D01*
X603080Y23080D01*
X599186Y26407D01*
X594818Y29083D01*
X590087Y31043D01*
X585106Y32239D01*
X581270Y32541D01*
Y0D01*
X580000D01*
Y-1270D01*
X547459D01*
X547761Y-5106D01*
X548957Y-10086D01*
X550917Y-14819D01*
X553593Y-19186D01*
X556920Y-23080D01*
X560814Y-26407D01*
X565182Y-29083D01*
X569913Y-31043D01*
X570488Y-31181D01*
X570338Y-32451D01*
X9662D01*
X9512Y-31181D01*
X10086Y-31043D01*
X14819Y-29083D01*
X19186Y-26407D01*
X23080Y-23080D01*
X26407Y-19186D01*
X29083Y-14819D01*
X31043Y-10086D01*
X32239Y-5106D01*
X32541Y-1270D01*
X0D01*
Y0D01*
X-1270D01*
Y32541D01*
X-5106Y32239D01*
X-10086Y31043D01*
X-14819Y29083D01*
X-19186Y26407D01*
X-23080Y23080D01*
X-26407Y19186D01*
X-29083Y14819D01*
X-31043Y10086D01*
X-31181Y9512D01*
X-32451Y9662D01*
Y220338D01*
X-31181Y220488D01*
X-31043Y219914D01*
X-29083Y215182D01*
X-26407Y210814D01*
X-23080Y206920D01*
X-19186Y203593D01*
X-14819Y200917D01*
X-10086Y198957D01*
X-5106Y197761D01*
X-1270Y197459D01*
Y230000D01*
X0D01*
Y231270D01*
X32541D01*
X32239Y235106D01*
X31043Y240086D01*
X29083Y244818D01*
X26407Y249186D01*
X23080Y253080D01*
X19186Y256407D01*
X14819Y259083D01*
X10086Y261043D01*
X9512Y261181D01*
X9662Y262451D01*
X570338D01*
X570488Y261181D01*
D02*
G37*
%LPC*%
G36*
X542730Y149355D02*
X540300D01*
X538997Y149096D01*
X537892Y148358D01*
X537154Y147253D01*
X536895Y145950D01*
Y144020D01*
X542730D01*
Y149355D01*
D02*
G37*
G36*
X79250Y157039D02*
X72750D01*
X71970Y156884D01*
X71308Y156442D01*
X70866Y155780D01*
X70711Y155000D01*
Y144000D01*
X70866Y143220D01*
X71308Y142558D01*
X71970Y142116D01*
X72750Y141961D01*
X79250D01*
X80030Y142116D01*
X80692Y142558D01*
X81134Y143220D01*
X81289Y144000D01*
Y155000D01*
X81134Y155780D01*
X80692Y156442D01*
X80030Y156884D01*
X79250Y157039D01*
D02*
G37*
G36*
X547700Y149355D02*
X545270D01*
Y144020D01*
X551105D01*
Y145950D01*
X550846Y147253D01*
X550108Y148358D01*
X549003Y149096D01*
X547700Y149355D01*
D02*
G37*
G36*
X606493Y151480D02*
X595321D01*
Y144641D01*
X598550D01*
X600649Y144917D01*
X602605Y145727D01*
X604285Y147016D01*
X605573Y148695D01*
X606384Y150651D01*
X606493Y151480D01*
D02*
G37*
G36*
X592780D02*
X581608D01*
X581717Y150651D01*
X582528Y148695D01*
X583816Y147016D01*
X585496Y145727D01*
X587452Y144917D01*
X589551Y144641D01*
X592780D01*
Y151480D01*
D02*
G37*
G36*
X512450Y141855D02*
X510020D01*
Y136520D01*
X515855D01*
Y138450D01*
X515596Y139753D01*
X514858Y140858D01*
X513753Y141596D01*
X512450Y141855D01*
D02*
G37*
G36*
X372700Y137105D02*
X370770D01*
Y131270D01*
X376105D01*
Y133700D01*
X375846Y135003D01*
X375108Y136108D01*
X374003Y136846D01*
X372700Y137105D01*
D02*
G37*
G36*
X-14500Y148082D02*
X-16980Y147755D01*
X-19291Y146798D01*
X-21275Y145275D01*
X-22798Y143291D01*
X-23756Y140980D01*
X-24082Y138500D01*
X-23756Y136020D01*
X-22798Y133709D01*
X-21275Y131725D01*
X-19291Y130202D01*
X-16980Y129244D01*
X-14500Y128918D01*
X-12020Y129244D01*
X-9709Y130202D01*
X-7724Y131725D01*
X-6202Y133709D01*
X-5245Y136020D01*
X-4918Y138500D01*
X-5245Y140980D01*
X-6202Y143291D01*
X-7724Y145275D01*
X-9709Y146798D01*
X-12020Y147755D01*
X-14500Y148082D01*
D02*
G37*
G36*
X562780Y140103D02*
X559800D01*
X557897Y139852D01*
X556124Y139118D01*
X554601Y137949D01*
X553433Y136426D01*
X552698Y134653D01*
X552615Y134020D01*
X562780D01*
Y140103D01*
D02*
G37*
G36*
X507480Y141855D02*
X505050D01*
X503747Y141596D01*
X502642Y140858D01*
X501904Y139753D01*
X501645Y138450D01*
Y136520D01*
X507480D01*
Y141855D01*
D02*
G37*
G36*
X568301Y140103D02*
X565321D01*
Y134020D01*
X575486D01*
X575403Y134653D01*
X574668Y136426D01*
X573500Y137949D01*
X571977Y139118D01*
X570204Y139852D01*
X568301Y140103D01*
D02*
G37*
G36*
X592780Y160859D02*
X589551D01*
X587452Y160583D01*
X585496Y159773D01*
X583816Y158484D01*
X582528Y156805D01*
X581717Y154849D01*
X581608Y154020D01*
X592780D01*
Y160859D01*
D02*
G37*
G36*
X473450Y170355D02*
X471020D01*
Y165020D01*
X476855D01*
Y166950D01*
X476596Y168253D01*
X475858Y169358D01*
X474753Y170096D01*
X473450Y170355D01*
D02*
G37*
G36*
X468480D02*
X466050D01*
X464747Y170096D01*
X463642Y169358D01*
X462904Y168253D01*
X462645Y166950D01*
Y165020D01*
X468480D01*
Y170355D01*
D02*
G37*
G36*
X255230Y186855D02*
X252800D01*
X251497Y186596D01*
X250392Y185858D01*
X249654Y184753D01*
X249395Y183450D01*
Y181520D01*
X255230D01*
Y186855D01*
D02*
G37*
G36*
X94700Y200355D02*
X92770D01*
Y194520D01*
X98105D01*
Y196950D01*
X97846Y198253D01*
X97108Y199358D01*
X96003Y200096D01*
X94700Y200355D01*
D02*
G37*
G36*
X260200Y186855D02*
X257770D01*
Y181520D01*
X263605D01*
Y183450D01*
X263346Y184753D01*
X262608Y185858D01*
X261503Y186596D01*
X260200Y186855D01*
D02*
G37*
G36*
X116700Y164105D02*
X114270D01*
Y158770D01*
X120105D01*
Y160700D01*
X119846Y162003D01*
X119108Y163108D01*
X118003Y163846D01*
X116700Y164105D01*
D02*
G37*
G36*
X-14500Y173432D02*
X-16980Y173105D01*
X-19291Y172148D01*
X-21275Y170625D01*
X-22798Y168641D01*
X-23756Y166330D01*
X-24082Y163850D01*
X-23756Y161370D01*
X-22798Y159059D01*
X-21275Y157074D01*
X-19291Y155552D01*
X-16980Y154594D01*
X-14500Y154268D01*
X-12020Y154594D01*
X-9709Y155552D01*
X-7724Y157074D01*
X-6202Y159059D01*
X-5245Y161370D01*
X-4918Y163850D01*
X-5245Y166330D01*
X-6202Y168641D01*
X-7724Y170625D01*
X-9709Y172148D01*
X-12020Y173105D01*
X-14500Y173432D01*
D02*
G37*
G36*
X598550Y160859D02*
X595321D01*
Y154020D01*
X606493D01*
X606384Y154849D01*
X605573Y156805D01*
X604285Y158484D01*
X602605Y159773D01*
X600649Y160583D01*
X598550Y160859D01*
D02*
G37*
G36*
X128480Y163855D02*
X126050D01*
X124747Y163596D01*
X123642Y162858D01*
X122904Y161753D01*
X122645Y160450D01*
Y158520D01*
X128480D01*
Y163855D01*
D02*
G37*
G36*
X111730Y164105D02*
X109300D01*
X107997Y163846D01*
X106892Y163108D01*
X106154Y162003D01*
X105895Y160700D01*
Y158770D01*
X111730D01*
Y164105D01*
D02*
G37*
G36*
X133450Y163855D02*
X131020D01*
Y158520D01*
X136855D01*
Y160450D01*
X136596Y161753D01*
X135858Y162858D01*
X134753Y163596D01*
X133450Y163855D01*
D02*
G37*
G36*
X376105Y128730D02*
X370770D01*
Y122895D01*
X372700D01*
X374003Y123154D01*
X375108Y123892D01*
X375846Y124997D01*
X376105Y126300D01*
Y128730D01*
D02*
G37*
G36*
X1270Y32541D02*
Y1270D01*
X32541D01*
X32239Y5106D01*
X31043Y10086D01*
X29083Y14819D01*
X26407Y19186D01*
X23080Y23080D01*
X19186Y26407D01*
X14819Y29083D01*
X10086Y31043D01*
X5106Y32239D01*
X1270Y32541D01*
D02*
G37*
G36*
X239480Y6855D02*
X237550D01*
X236247Y6596D01*
X235142Y5858D01*
X234404Y4753D01*
X234145Y3450D01*
Y1020D01*
X239480D01*
Y6855D01*
D02*
G37*
G36*
X197377Y19247D02*
X68750D01*
Y584D01*
X197377D01*
Y19247D01*
D02*
G37*
G36*
X238730Y40480D02*
X233395D01*
Y38050D01*
X233654Y36747D01*
X234392Y35642D01*
X235497Y34904D01*
X236800Y34645D01*
X238730D01*
Y40480D01*
D02*
G37*
G36*
X301450Y7605D02*
X299520D01*
Y1770D01*
X304855D01*
Y4200D01*
X304596Y5503D01*
X303858Y6608D01*
X302753Y7346D01*
X301450Y7605D01*
D02*
G37*
G36*
X578730Y32541D02*
X574894Y32239D01*
X569913Y31043D01*
X565182Y29083D01*
X560814Y26407D01*
X556920Y23080D01*
X553593Y19186D01*
X550917Y14819D01*
X548957Y10086D01*
X547761Y5106D01*
X547459Y1270D01*
X578730D01*
Y32541D01*
D02*
G37*
G36*
X239480Y-1520D02*
X234145D01*
Y-3950D01*
X234404Y-5253D01*
X235142Y-6358D01*
X236247Y-7096D01*
X237550Y-7355D01*
X239480D01*
Y-1520D01*
D02*
G37*
G36*
X152250Y-7753D02*
X68750D01*
Y-24750D01*
X152250D01*
Y-7753D01*
D02*
G37*
G36*
X229105Y-6770D02*
X222000D01*
X214895D01*
Y-8700D01*
X215154Y-10003D01*
X215500Y-10521D01*
Y-17750D01*
X215500D01*
X215544Y-17803D01*
X215445Y-18300D01*
Y-24700D01*
X215662Y-25793D01*
X216281Y-26719D01*
X217208Y-27338D01*
X218300Y-27555D01*
X225700D01*
X226793Y-27338D01*
X227719Y-26719D01*
X228328Y-26598D01*
X228409Y-26652D01*
X230750Y-27118D01*
X233091Y-26652D01*
X235076Y-25326D01*
X236402Y-23341D01*
X236868Y-21000D01*
X236402Y-18659D01*
X235076Y-16674D01*
X233091Y-15348D01*
X230750Y-14883D01*
X229482Y-15135D01*
X228500Y-14329D01*
Y-10521D01*
X228846Y-10003D01*
X229105Y-8700D01*
Y-6770D01*
D02*
G37*
G36*
X225700Y1105D02*
X223270D01*
Y-4230D01*
X229105D01*
Y-2300D01*
X228846Y-997D01*
X228108Y108D01*
X227003Y846D01*
X225700Y1105D01*
D02*
G37*
G36*
X220730D02*
X218300D01*
X216997Y846D01*
X215892Y108D01*
X215154Y-997D01*
X214895Y-2300D01*
Y-4230D01*
X220730D01*
Y1105D01*
D02*
G37*
G36*
X304855Y-770D02*
X299520D01*
Y-6605D01*
X301450D01*
X302753Y-6346D01*
X303858Y-5608D01*
X304596Y-4503D01*
X304855Y-3200D01*
Y-770D01*
D02*
G37*
G36*
X575493Y87480D02*
X565321D01*
Y80641D01*
X567551D01*
X569649Y80917D01*
X571605Y81727D01*
X573285Y83016D01*
X574573Y84695D01*
X575383Y86651D01*
X575493Y87480D01*
D02*
G37*
G36*
X562780D02*
X552608D01*
X552718Y86651D01*
X553528Y84695D01*
X554816Y83016D01*
X556496Y81727D01*
X558452Y80917D01*
X560550Y80641D01*
X562780D01*
Y87480D01*
D02*
G37*
G36*
X-4541Y86430D02*
X-13230D01*
Y77741D01*
X-11879Y77918D01*
X-9437Y78930D01*
X-7339Y80539D01*
X-5730Y82637D01*
X-4718Y85079D01*
X-4541Y86430D01*
D02*
G37*
G36*
X194730Y97105D02*
X192300D01*
X190997Y96846D01*
X189892Y96108D01*
X189154Y95003D01*
X188895Y93700D01*
Y91770D01*
X194730D01*
Y97105D01*
D02*
G37*
G36*
X-13230Y97659D02*
Y88970D01*
X-4541D01*
X-4718Y90321D01*
X-5730Y92763D01*
X-7339Y94861D01*
X-9437Y96470D01*
X-11879Y97482D01*
X-13230Y97659D01*
D02*
G37*
G36*
X-15770D02*
X-17121Y97482D01*
X-19563Y96470D01*
X-21661Y94861D01*
X-23270Y92763D01*
X-24282Y90321D01*
X-24459Y88970D01*
X-15770D01*
Y97659D01*
D02*
G37*
G36*
X606493Y67480D02*
X595321D01*
Y60641D01*
X598550D01*
X600649Y60917D01*
X602605Y61727D01*
X604285Y63016D01*
X605573Y64695D01*
X606384Y66651D01*
X606493Y67480D01*
D02*
G37*
G36*
X592780D02*
X581608D01*
X581717Y66651D01*
X582528Y64695D01*
X583816Y63016D01*
X585496Y61727D01*
X587452Y60917D01*
X589551Y60641D01*
X592780D01*
Y67480D01*
D02*
G37*
G36*
X238730Y48855D02*
X236800D01*
X235497Y48596D01*
X234392Y47858D01*
X233654Y46753D01*
X233395Y45450D01*
Y43020D01*
X238730D01*
Y48855D01*
D02*
G37*
G36*
X-15770Y86430D02*
X-24459D01*
X-24282Y85079D01*
X-23270Y82637D01*
X-21661Y80539D01*
X-19563Y78930D01*
X-17121Y77918D01*
X-15770Y77741D01*
Y86430D01*
D02*
G37*
G36*
X598550Y76859D02*
X595321D01*
Y70020D01*
X606493D01*
X606384Y70849D01*
X605573Y72805D01*
X604285Y74484D01*
X602605Y75773D01*
X600649Y76583D01*
X598550Y76859D01*
D02*
G37*
G36*
X592780D02*
X589551D01*
X587452Y76583D01*
X585496Y75773D01*
X583816Y74484D01*
X582528Y72805D01*
X581717Y70849D01*
X581608Y70020D01*
X592780D01*
Y76859D01*
D02*
G37*
G36*
X32541Y228730D02*
X1270D01*
Y197459D01*
X5106Y197761D01*
X10086Y198957D01*
X14819Y200917D01*
X19186Y203593D01*
X23080Y206920D01*
X26407Y210814D01*
X29083Y215182D01*
X31043Y219914D01*
X32239Y224894D01*
X32541Y228730D01*
D02*
G37*
G36*
X302700Y252282D02*
X300220Y251956D01*
X297909Y250998D01*
X295925Y249475D01*
X294402Y247491D01*
X293445Y245180D01*
X293118Y242700D01*
X293445Y240220D01*
X294402Y237909D01*
X295925Y235924D01*
X297909Y234402D01*
X300220Y233444D01*
X302700Y233118D01*
X305180Y233444D01*
X307491Y234402D01*
X309475Y235924D01*
X310998Y237909D01*
X311956Y240220D01*
X312282Y242700D01*
X311956Y245180D01*
X310998Y247491D01*
X309475Y249475D01*
X307491Y250998D01*
X305180Y251956D01*
X302700Y252282D01*
D02*
G37*
G36*
X465059Y241430D02*
X456370D01*
Y232741D01*
X457721Y232918D01*
X460163Y233930D01*
X462261Y235539D01*
X463870Y237637D01*
X464882Y240079D01*
X465059Y241430D01*
D02*
G37*
G36*
X453830D02*
X445141D01*
X445318Y240079D01*
X446330Y237637D01*
X447939Y235539D01*
X450037Y233930D01*
X452479Y232918D01*
X453830Y232741D01*
Y241430D01*
D02*
G37*
G36*
X378900Y252282D02*
X376420Y251956D01*
X374109Y250998D01*
X372125Y249475D01*
X370602Y247491D01*
X369645Y245180D01*
X369318Y242700D01*
X369645Y240220D01*
X370602Y237909D01*
X372125Y235924D01*
X374109Y234402D01*
X376420Y233444D01*
X378900Y233118D01*
X381380Y233444D01*
X383691Y234402D01*
X385676Y235924D01*
X387198Y237909D01*
X388156Y240220D01*
X388482Y242700D01*
X388156Y245180D01*
X387198Y247491D01*
X385676Y249475D01*
X383691Y250998D01*
X381380Y251956D01*
X378900Y252282D01*
D02*
G37*
G36*
X353500D02*
X351020Y251956D01*
X348709Y250998D01*
X346725Y249475D01*
X345202Y247491D01*
X344244Y245180D01*
X343918Y242700D01*
X344244Y240220D01*
X345202Y237909D01*
X346725Y235924D01*
X348709Y234402D01*
X351020Y233444D01*
X353500Y233118D01*
X355980Y233444D01*
X358291Y234402D01*
X360275Y235924D01*
X361798Y237909D01*
X362756Y240220D01*
X363082Y242700D01*
X362756Y245180D01*
X361798Y247491D01*
X360275Y249475D01*
X358291Y250998D01*
X355980Y251956D01*
X353500Y252282D01*
D02*
G37*
G36*
X328100D02*
X325620Y251956D01*
X323309Y250998D01*
X321325Y249475D01*
X319802Y247491D01*
X318845Y245180D01*
X318518Y242700D01*
X318845Y240220D01*
X319802Y237909D01*
X321325Y235924D01*
X323309Y234402D01*
X325620Y233444D01*
X328100Y233118D01*
X330580Y233444D01*
X332891Y234402D01*
X334875Y235924D01*
X336398Y237909D01*
X337355Y240220D01*
X337682Y242700D01*
X337355Y245180D01*
X336398Y247491D01*
X334875Y249475D01*
X332891Y250998D01*
X330580Y251956D01*
X328100Y252282D01*
D02*
G37*
G36*
X453830Y252659D02*
X452479Y252482D01*
X450037Y251470D01*
X447939Y249861D01*
X446330Y247763D01*
X445318Y245321D01*
X445141Y243970D01*
X453830D01*
Y252659D01*
D02*
G37*
G36*
X456370D02*
Y243970D01*
X465059D01*
X464882Y245321D01*
X463870Y247763D01*
X462261Y249861D01*
X460163Y251470D01*
X457721Y252482D01*
X456370Y252659D01*
D02*
G37*
G36*
X175999Y260309D02*
X175999Y260309D01*
X139450D01*
X139450Y260309D01*
X138279Y260076D01*
X137287Y259413D01*
X129112Y251238D01*
X127380Y251956D01*
X124900Y252282D01*
X122420Y251956D01*
X120109Y250998D01*
X118125Y249475D01*
X116602Y247491D01*
X115645Y245180D01*
X115318Y242700D01*
X115645Y240220D01*
X116602Y237909D01*
X118125Y235924D01*
X120109Y234402D01*
X122420Y233444D01*
X124900Y233118D01*
X127380Y233444D01*
X129691Y234402D01*
X131676Y235924D01*
X133198Y237909D01*
X134156Y240220D01*
X134482Y242700D01*
X134156Y245180D01*
X133438Y246912D01*
X140717Y254191D01*
X174425D01*
X175101Y253355D01*
X174655Y252144D01*
X173220Y251956D01*
X170909Y250998D01*
X168925Y249475D01*
X167402Y247491D01*
X166444Y245180D01*
X166118Y242700D01*
X166444Y240220D01*
X167402Y237909D01*
X168925Y235924D01*
X170909Y234402D01*
X173220Y233444D01*
X175700Y233118D01*
X178180Y233444D01*
X180491Y234402D01*
X182475Y235924D01*
X183998Y237909D01*
X184956Y240220D01*
X185182Y241945D01*
X186523Y242400D01*
X187541Y241382D01*
Y238351D01*
X187541Y238351D01*
X187774Y237180D01*
X188437Y236188D01*
X192193Y232432D01*
X191707Y231259D01*
X166017D01*
X158788Y238488D01*
X159505Y240220D01*
X159832Y242700D01*
X159505Y245180D01*
X158548Y247491D01*
X157025Y249475D01*
X155041Y250998D01*
X152730Y251956D01*
X150250Y252282D01*
X147770Y251956D01*
X145459Y250998D01*
X143475Y249475D01*
X141952Y247491D01*
X140995Y245180D01*
X140668Y242700D01*
X140995Y240220D01*
X141952Y237909D01*
X143475Y235924D01*
X145459Y234402D01*
X147770Y233444D01*
X150250Y233118D01*
X152730Y233444D01*
X154462Y234162D01*
X162587Y226037D01*
X162587Y226037D01*
X163579Y225374D01*
X164750Y225141D01*
X168424D01*
X168768Y223871D01*
X167402Y222091D01*
X166444Y219780D01*
X166118Y217300D01*
X166444Y214820D01*
X167402Y212509D01*
X168925Y210525D01*
X170909Y209002D01*
X173220Y208044D01*
X175700Y207718D01*
X178180Y208044D01*
X180491Y209002D01*
X182475Y210525D01*
X183998Y212509D01*
X184956Y214820D01*
X185282Y217300D01*
X184956Y219780D01*
X183998Y222091D01*
X182632Y223871D01*
X182976Y225141D01*
X193824D01*
X194168Y223871D01*
X192802Y222091D01*
X191845Y219780D01*
X191518Y217300D01*
X191845Y214820D01*
X192802Y212509D01*
X194325Y210525D01*
X196309Y209002D01*
X198620Y208044D01*
X201100Y207718D01*
X203580Y208044D01*
X205891Y209002D01*
X207875Y210525D01*
X209398Y212509D01*
X210355Y214820D01*
X210682Y217300D01*
X210355Y219780D01*
X209398Y222091D01*
X208032Y223871D01*
X208376Y225141D01*
X219224D01*
X219568Y223871D01*
X218202Y222091D01*
X217244Y219780D01*
X216918Y217300D01*
X217244Y214820D01*
X218202Y212509D01*
X219725Y210525D01*
X221709Y209002D01*
X224020Y208044D01*
X226500Y207718D01*
X228980Y208044D01*
X230137Y208524D01*
X244574Y194087D01*
X244574Y194087D01*
X245567Y193424D01*
X246737Y193191D01*
X259733D01*
X276941Y175983D01*
Y168263D01*
X275821Y167664D01*
X275091Y168152D01*
X272750Y168617D01*
X270409Y168152D01*
X268424Y166826D01*
X267098Y164841D01*
X266632Y162500D01*
X267098Y160159D01*
X268424Y158174D01*
X270409Y156848D01*
X271942Y156543D01*
Y154401D01*
X271500Y154039D01*
X268500D01*
X268130Y153966D01*
X267491Y154392D01*
X266500Y154590D01*
X266270D01*
Y144750D01*
X263730D01*
Y154590D01*
X263500D01*
X263314Y154743D01*
Y164750D01*
X263062Y166018D01*
X263055Y166028D01*
Y167450D01*
X262956Y167946D01*
X263000Y168000D01*
X263000D01*
Y175229D01*
X263346Y175747D01*
X263605Y177050D01*
Y178980D01*
X256500D01*
X249395D01*
Y177050D01*
X249654Y175747D01*
X250000Y175229D01*
Y168000D01*
X250000D01*
X250044Y167946D01*
X249945Y167450D01*
Y161050D01*
X250163Y159958D01*
X250781Y159031D01*
X251707Y158413D01*
X252800Y158195D01*
X256686D01*
Y153569D01*
X215750D01*
X214384Y153297D01*
X213227Y152523D01*
X203477Y142773D01*
X202703Y141616D01*
X202431Y140250D01*
Y97419D01*
X201161Y96740D01*
X201003Y96846D01*
X199700Y97105D01*
X197270D01*
Y90500D01*
X196000D01*
Y89230D01*
X188895D01*
Y88948D01*
X187625Y88422D01*
X136305Y139742D01*
Y144450D01*
X136206Y144946D01*
X136250Y145000D01*
X136250D01*
Y152229D01*
X136596Y152747D01*
X136855Y154050D01*
Y155980D01*
X129750D01*
X122645D01*
Y154050D01*
X122904Y152747D01*
X123250Y152229D01*
Y145069D01*
X119500D01*
Y152479D01*
X119846Y152997D01*
X120105Y154300D01*
Y156230D01*
X105895D01*
Y154300D01*
X106154Y152997D01*
X106500Y152479D01*
Y145069D01*
X104478D01*
X100289Y149257D01*
Y155000D01*
X100134Y155780D01*
X99692Y156442D01*
X99030Y156884D01*
X98250Y157039D01*
X91750D01*
X90970Y156884D01*
X90308Y156442D01*
X89866Y155780D01*
X89711Y155000D01*
Y149257D01*
X23423Y82970D01*
X22250Y83456D01*
Y90500D01*
X22250D01*
X22246Y90505D01*
X22305Y90800D01*
Y97200D01*
X22088Y98293D01*
X21469Y99219D01*
X20543Y99838D01*
X19450Y100055D01*
X14021D01*
X-1187Y115263D01*
X-2180Y115926D01*
X-3350Y116159D01*
X-3350Y116159D01*
X-5484D01*
X-6202Y117891D01*
X-7724Y119875D01*
X-9709Y121398D01*
X-12020Y122355D01*
X-14500Y122682D01*
X-16980Y122355D01*
X-19291Y121398D01*
X-21275Y119875D01*
X-22798Y117891D01*
X-23756Y115580D01*
X-24082Y113100D01*
X-23756Y110620D01*
X-22798Y108309D01*
X-21275Y106325D01*
X-19291Y104802D01*
X-16980Y103845D01*
X-14500Y103518D01*
X-12020Y103845D01*
X-9709Y104802D01*
X-7724Y106325D01*
X-6202Y108309D01*
X-5686Y109555D01*
X-4311Y109735D01*
X9195Y96229D01*
Y90800D01*
X9254Y90505D01*
X9250Y90500D01*
X9250D01*
Y81750D01*
X9250D01*
X9294Y81697D01*
X9195Y81200D01*
Y76492D01*
X-1428Y65869D01*
X-4961D01*
Y69800D01*
X-5116Y70580D01*
X-5558Y71242D01*
X-6220Y71684D01*
X-7000Y71839D01*
X-22000D01*
X-22780Y71684D01*
X-23442Y71242D01*
X-23884Y70580D01*
X-24039Y69800D01*
Y54800D01*
X-23884Y54020D01*
X-23442Y53358D01*
X-22780Y52916D01*
X-22000Y52761D01*
X-7000D01*
X-6220Y52916D01*
X-5558Y53358D01*
X-5116Y54020D01*
X-4961Y54800D01*
Y58731D01*
X50D01*
X1416Y59003D01*
X2573Y59777D01*
X14742Y71945D01*
X19450D01*
X20543Y72162D01*
X21469Y72781D01*
X22088Y73707D01*
X22232Y74431D01*
X23500D01*
X24866Y74703D01*
X26023Y75477D01*
X92507Y141961D01*
X97492D01*
X100477Y138977D01*
X101634Y138203D01*
X103000Y137931D01*
X106518D01*
X106663Y137207D01*
X107281Y136281D01*
X108208Y135662D01*
X109300Y135445D01*
X116700D01*
X117793Y135662D01*
X118719Y136281D01*
X119338Y137207D01*
X119481Y137931D01*
X123219D01*
X123413Y136958D01*
X124031Y136031D01*
X124958Y135413D01*
X126050Y135195D01*
X130758D01*
X189445Y76508D01*
Y71300D01*
X189662Y70208D01*
X190281Y69281D01*
X191208Y68662D01*
X192300Y68445D01*
X199700D01*
X200793Y68662D01*
X201719Y69281D01*
X202337Y70208D01*
X202481Y70931D01*
X207519D01*
X207663Y70208D01*
X208281Y69281D01*
X209207Y68662D01*
X210300Y68445D01*
X217700D01*
X218792Y68662D01*
X219719Y69281D01*
X220338Y70208D01*
X220555Y71300D01*
Y71686D01*
X233377D01*
X241245Y63819D01*
X241007Y62625D01*
X241473Y60284D01*
X242799Y58299D01*
X244784Y56973D01*
X247125Y56507D01*
X248319Y56745D01*
X255489Y49575D01*
X254963Y48305D01*
X252800D01*
X252304Y48206D01*
X252250Y48250D01*
Y48250D01*
X245021D01*
X244503Y48596D01*
X243200Y48855D01*
X241270D01*
Y41750D01*
Y34645D01*
X243200D01*
X244503Y34904D01*
X245021Y35250D01*
X252250D01*
Y35250D01*
X252304Y35294D01*
X252800Y35195D01*
X259200D01*
X259666Y35288D01*
X260292Y34117D01*
X258983Y32809D01*
X249500D01*
X248330Y32576D01*
X247337Y31913D01*
X247337Y31913D01*
X246245Y30820D01*
X244750Y31117D01*
X242409Y30652D01*
X240424Y29326D01*
X239098Y27341D01*
X238633Y25000D01*
X239098Y22659D01*
X240424Y20674D01*
X242409Y19348D01*
X244750Y18882D01*
X247091Y19348D01*
X249076Y20674D01*
X249191Y20846D01*
X250461Y20461D01*
Y8500D01*
X250616Y7720D01*
X250749Y7520D01*
X250156Y6250D01*
X245771D01*
X245253Y6596D01*
X243950Y6855D01*
X242020D01*
Y-250D01*
Y-7355D01*
X243950D01*
X245253Y-7096D01*
X245771Y-6750D01*
X253000D01*
Y-6750D01*
X253053Y-6706D01*
X253550Y-6805D01*
X259950D01*
X261042Y-6587D01*
X261969Y-5969D01*
X262588Y-5042D01*
X262805Y-3950D01*
Y3450D01*
X262588Y4543D01*
X262154Y5191D01*
X262396Y6077D01*
X262691Y6499D01*
X263280Y6616D01*
X263942Y7058D01*
X264384Y7720D01*
X264539Y8500D01*
Y19213D01*
X270768Y25443D01*
X271942Y24957D01*
Y24000D01*
X271942Y24000D01*
X272174Y22829D01*
X272838Y21837D01*
X275461Y19213D01*
Y8500D01*
X275616Y7720D01*
X276058Y7058D01*
X276117Y7019D01*
X276501Y5544D01*
X276467Y5374D01*
X276413Y5293D01*
X276195Y4200D01*
Y-3200D01*
X276413Y-4293D01*
X277031Y-5219D01*
X277957Y-5838D01*
X279050Y-6055D01*
X285450D01*
X285946Y-5956D01*
X286000Y-6000D01*
Y-6000D01*
X293229D01*
X293747Y-6346D01*
X295050Y-6605D01*
X296980D01*
Y500D01*
Y7605D01*
X295050D01*
X293747Y7346D01*
X293229Y7000D01*
X290431D01*
X290221Y7144D01*
X289493Y8270D01*
X289539Y8500D01*
Y24500D01*
X289384Y25280D01*
X288942Y25942D01*
X288280Y26384D01*
X287500Y26539D01*
X278059D01*
Y34277D01*
X279329Y34850D01*
X279997Y34404D01*
X281300Y34145D01*
X283230D01*
Y41250D01*
X285770D01*
Y34145D01*
X287700D01*
X289003Y34404D01*
X289521Y34750D01*
X293829D01*
X294635Y33768D01*
X294382Y32500D01*
X294848Y30159D01*
X296174Y28174D01*
X298159Y26848D01*
X300500Y26382D01*
X302841Y26848D01*
X304826Y28174D01*
X306152Y30159D01*
X306618Y32500D01*
X306152Y34841D01*
X305712Y35499D01*
X305719Y35531D01*
X306338Y36458D01*
X306555Y37550D01*
Y43573D01*
X307825Y44099D01*
X312191Y39733D01*
Y-10483D01*
X304483Y-18191D01*
X283422D01*
X282576Y-16924D01*
X280591Y-15598D01*
X278250Y-15132D01*
X275909Y-15598D01*
X273924Y-16924D01*
X272598Y-18909D01*
X272132Y-21250D01*
X272598Y-23591D01*
X273924Y-25576D01*
X275909Y-26902D01*
X278250Y-27367D01*
X280591Y-26902D01*
X282576Y-25576D01*
X283422Y-24309D01*
X305750D01*
X305750Y-24309D01*
X306921Y-24076D01*
X307913Y-23413D01*
X317413Y-13913D01*
X318076Y-12921D01*
X318309Y-11750D01*
Y41000D01*
X318309Y41000D01*
X318076Y42171D01*
X317413Y43162D01*
X317414Y43165D01*
X318039Y44333D01*
X318750Y44191D01*
X318750Y44191D01*
X442500D01*
X442500Y44191D01*
X443671Y44424D01*
X444663Y45087D01*
X469169Y69593D01*
X470547Y69175D01*
X470848Y67659D01*
X472174Y65674D01*
X474159Y64348D01*
X476500Y63882D01*
X478841Y64348D01*
X480826Y65674D01*
X482152Y67659D01*
X482618Y70000D01*
X482152Y72341D01*
X480826Y74326D01*
X478841Y75652D01*
X478059Y75807D01*
Y77477D01*
X479329Y78320D01*
X480000Y78186D01*
X481268Y78439D01*
X482343Y79157D01*
X482657D01*
X483732Y78439D01*
X485000Y78186D01*
X486268Y78439D01*
X487343Y79157D01*
X488061Y80232D01*
X488314Y81500D01*
Y88000D01*
X488061Y89268D01*
X487343Y90343D01*
X487702Y91048D01*
X488407Y91407D01*
X489482Y90689D01*
X490750Y90436D01*
X497250D01*
X498518Y90689D01*
X499593Y91407D01*
X500311Y92482D01*
X500564Y93750D01*
X500311Y95018D01*
X499593Y96093D01*
Y96407D01*
X500311Y97482D01*
X500564Y98750D01*
X500311Y100018D01*
X499905Y100627D01*
X499982Y101018D01*
X500820Y102271D01*
X500862Y102480D01*
X494000D01*
Y105020D01*
X501153D01*
X501752Y105946D01*
X555750D01*
X556823Y106160D01*
X557733Y106767D01*
X558863Y107898D01*
X560112Y107779D01*
X560846Y106676D01*
X560811Y106500D01*
Y102000D01*
X560885Y101630D01*
X560458Y100991D01*
X560261Y100000D01*
Y96821D01*
X558452Y96583D01*
X556496Y95773D01*
X554816Y94484D01*
X553528Y92805D01*
X552718Y90849D01*
X552608Y90020D01*
X575493D01*
X575383Y90849D01*
X575056Y91640D01*
X575904Y92910D01*
X576651D01*
X577642Y93107D01*
X578482Y93669D01*
X579043Y94509D01*
X579240Y95500D01*
Y96480D01*
X569751D01*
Y99020D01*
X579240D01*
Y100000D01*
X579043Y100991D01*
X578616Y101630D01*
X578690Y102000D01*
Y106500D01*
X578535Y107280D01*
X578388Y107500D01*
X578535Y107720D01*
X578690Y108500D01*
Y113000D01*
X578535Y113780D01*
X578388Y114000D01*
X578535Y114220D01*
X578690Y115000D01*
Y119500D01*
X578535Y120280D01*
X578304Y120625D01*
X578535Y120970D01*
X578690Y121750D01*
Y125750D01*
X578535Y126530D01*
X578092Y127192D01*
X577431Y127634D01*
X576651Y127789D01*
X575118D01*
X574557Y128928D01*
X574668Y129073D01*
X575403Y130847D01*
X575486Y131480D01*
X552615D01*
X552698Y130847D01*
X553433Y129073D01*
X554196Y128079D01*
X553570Y126809D01*
X550555D01*
Y129950D01*
X550496Y130245D01*
X550500Y130250D01*
X550500D01*
Y137729D01*
X550846Y138247D01*
X551105Y139550D01*
Y141480D01*
X536895D01*
Y139550D01*
X537154Y138247D01*
X537500Y137729D01*
Y130250D01*
X536413Y129809D01*
X532500D01*
Y131500D01*
X532500D01*
X532456Y131553D01*
X532555Y132050D01*
Y138450D01*
X532337Y139543D01*
X531719Y140469D01*
X531559Y141270D01*
X531652Y141409D01*
X532118Y143750D01*
X531652Y146091D01*
X530326Y148076D01*
X528341Y149402D01*
X526000Y149867D01*
X523659Y149402D01*
X523475Y149279D01*
X522355Y149878D01*
Y153950D01*
X522096Y155253D01*
X521358Y156358D01*
X520253Y157096D01*
X518950Y157355D01*
X517020D01*
Y150250D01*
Y143145D01*
X518950D01*
X519082Y143171D01*
X520138Y142465D01*
X520348Y141409D01*
X520441Y141270D01*
X520281Y140469D01*
X519663Y139543D01*
X519445Y138450D01*
Y132050D01*
X519544Y131553D01*
X519500Y131500D01*
X519500D01*
Y129809D01*
X516497D01*
X516214Y130104D01*
X515662Y131079D01*
X515855Y132050D01*
Y133980D01*
X501645D01*
Y132050D01*
X501838Y131079D01*
X501286Y130104D01*
X501003Y129809D01*
X498267D01*
X491184Y136892D01*
Y137358D01*
X497521Y143695D01*
X502950D01*
X503245Y143754D01*
X503250Y143750D01*
Y143750D01*
X510729D01*
X511247Y143404D01*
X512550Y143145D01*
X514480D01*
Y150250D01*
Y157355D01*
X512550D01*
X511247Y157096D01*
X510729Y156750D01*
X503250D01*
Y156750D01*
X503245Y156746D01*
X502950Y156805D01*
X496550D01*
X495457Y156587D01*
X494531Y155969D01*
X493913Y155042D01*
X493695Y153950D01*
Y148521D01*
X488599Y143424D01*
X487245Y143867D01*
X486902Y145591D01*
X485576Y147576D01*
X483591Y148902D01*
X481250Y149368D01*
X478909Y148902D01*
X477575Y148011D01*
X476305Y148689D01*
Y150950D01*
X476246Y151245D01*
X476250Y151250D01*
X476250D01*
Y158729D01*
X476596Y159247D01*
X476855Y160550D01*
Y162480D01*
X462645D01*
Y160550D01*
X462904Y159247D01*
X463250Y158729D01*
Y151250D01*
X463250D01*
X463254Y151245D01*
X463195Y150950D01*
Y144550D01*
X463413Y143457D01*
X464031Y142531D01*
X464958Y141912D01*
X466050Y141695D01*
X466691D01*
Y140190D01*
X465421Y139230D01*
X465000Y139314D01*
X463732Y139061D01*
X462657Y138343D01*
X462343D01*
X461268Y139061D01*
X460000Y139314D01*
X458732Y139061D01*
X457657Y138343D01*
X457343D01*
X456268Y139061D01*
X455000Y139314D01*
X453732Y139061D01*
X452657Y138343D01*
X451939Y137268D01*
X451686Y136000D01*
Y129500D01*
X451939Y128232D01*
X452657Y127157D01*
X452297Y126453D01*
X451593Y126093D01*
X450518Y126811D01*
X449250Y127064D01*
X442750D01*
X441482Y126811D01*
X440407Y126093D01*
X439689Y125018D01*
X439436Y123750D01*
X439689Y122482D01*
X440407Y121407D01*
Y121093D01*
X439689Y120018D01*
X439436Y118750D01*
X439689Y117482D01*
X440407Y116407D01*
Y116093D01*
X439689Y115018D01*
X439436Y113750D01*
X439689Y112482D01*
X439846Y112246D01*
X440331Y111250D01*
X439846Y110254D01*
X439689Y110018D01*
X439436Y108750D01*
X439689Y107482D01*
X439846Y107246D01*
X440331Y106250D01*
X439846Y105254D01*
X439689Y105018D01*
X439436Y103750D01*
X439689Y102482D01*
X440407Y101407D01*
Y101093D01*
X439689Y100018D01*
X439436Y98750D01*
X439689Y97482D01*
X440407Y96407D01*
Y96093D01*
X439689Y95018D01*
X439436Y93750D01*
X439689Y92482D01*
X440407Y91407D01*
X441482Y90689D01*
X442750Y90436D01*
X449250D01*
X450518Y90689D01*
X451593Y91407D01*
X452297Y91047D01*
X452657Y90343D01*
X451939Y89268D01*
X451686Y88000D01*
Y81500D01*
X451939Y80232D01*
X452657Y79157D01*
X453732Y78439D01*
X455000Y78186D01*
X456268Y78439D01*
X457343Y79157D01*
X457657D01*
X458732Y78439D01*
X460000Y78186D01*
X461268Y78439D01*
X462343Y79157D01*
X462657D01*
X463732Y78439D01*
X465000Y78186D01*
X465671Y78320D01*
X466941Y77477D01*
Y76017D01*
X453790Y62866D01*
X452412Y63284D01*
X452152Y64591D01*
X450826Y66576D01*
X448841Y67902D01*
X446500Y68368D01*
X444159Y67902D01*
X442174Y66576D01*
X441328Y65309D01*
X350517D01*
X338968Y76858D01*
X338884Y77280D01*
X338737Y77500D01*
X338884Y77720D01*
X339039Y78500D01*
Y81441D01*
X364147D01*
X365409Y80598D01*
X367750Y80133D01*
X370091Y80598D01*
X372076Y81924D01*
X373402Y83909D01*
X373867Y86250D01*
X373402Y88591D01*
X372076Y90576D01*
X370091Y91902D01*
X367750Y92367D01*
X365409Y91902D01*
X364701Y91429D01*
X363558Y92192D01*
X363867Y93750D01*
X363402Y96091D01*
X362076Y98076D01*
X360091Y99402D01*
X357750Y99867D01*
X355409Y99402D01*
X353424Y98076D01*
X353146Y97659D01*
X351949Y98154D01*
X352118Y99000D01*
X351652Y101341D01*
X350596Y102921D01*
X351142Y104191D01*
X362328D01*
X363174Y102924D01*
X365159Y101598D01*
X367500Y101132D01*
X369841Y101598D01*
X371826Y102924D01*
X373152Y104909D01*
X373618Y107250D01*
X373152Y109591D01*
X372430Y110671D01*
X373109Y111941D01*
X383500D01*
X383500Y111941D01*
X384670Y112174D01*
X385663Y112837D01*
X468017Y195191D01*
X486850D01*
X486850Y195191D01*
X488021Y195424D01*
X489013Y196087D01*
X501688Y208762D01*
X503420Y208044D01*
X505900Y207718D01*
X508380Y208044D01*
X510691Y209002D01*
X512676Y210525D01*
X514198Y212509D01*
X515155Y214820D01*
X515482Y217300D01*
X515155Y219780D01*
X514198Y222091D01*
X512676Y224075D01*
X510691Y225598D01*
X508380Y226556D01*
X505900Y226882D01*
X503420Y226556D01*
X501109Y225598D01*
X499125Y224075D01*
X497602Y222091D01*
X496645Y219780D01*
X496318Y217300D01*
X496645Y214820D01*
X497362Y213088D01*
X485583Y201309D01*
X466750D01*
X466750Y201309D01*
X465579Y201076D01*
X464587Y200413D01*
X382233Y118059D01*
X339402D01*
X339039Y118500D01*
Y121500D01*
X338966Y121870D01*
X339393Y122509D01*
X339590Y123500D01*
Y123730D01*
X329750D01*
Y126270D01*
X339590D01*
Y126431D01*
X347445D01*
Y126300D01*
X347662Y125208D01*
X348281Y124281D01*
X349207Y123663D01*
X350300Y123445D01*
X356700D01*
X357196Y123544D01*
X357250Y123500D01*
Y123500D01*
X364479D01*
X364997Y123154D01*
X366300Y122895D01*
X368230D01*
Y130000D01*
Y137105D01*
X366300D01*
X364997Y136846D01*
X364479Y136500D01*
X357250D01*
Y136500D01*
X357196Y136456D01*
X356700Y136555D01*
X350300D01*
X349207Y136337D01*
X348281Y135719D01*
X347662Y134792D01*
X347445Y133700D01*
Y133569D01*
X329750D01*
X329750Y133569D01*
X329749Y133568D01*
X319500D01*
X318134Y133297D01*
X316977Y132523D01*
X307522Y123069D01*
X272782D01*
X272422Y123523D01*
X272485Y123985D01*
X272856Y125022D01*
X274589Y126181D01*
X275915Y128165D01*
X276381Y130506D01*
X275915Y132847D01*
X275018Y134191D01*
X275696Y135461D01*
X276500D01*
X277281Y135616D01*
X277500Y135763D01*
X277720Y135616D01*
X278500Y135461D01*
X281500D01*
X282281Y135616D01*
X282500Y135763D01*
X282720Y135616D01*
X283500Y135461D01*
X286500D01*
X287281Y135616D01*
X287500Y135763D01*
X287720Y135616D01*
X288500Y135461D01*
X291500D01*
X292280Y135616D01*
X292500Y135763D01*
X292720Y135616D01*
X293500Y135461D01*
X296500D01*
X297281Y135616D01*
X297500Y135763D01*
X297720Y135616D01*
X298500Y135461D01*
X301500D01*
X302280Y135616D01*
X302500Y135763D01*
X302720Y135616D01*
X303500Y135461D01*
X306500D01*
X307281Y135616D01*
X307500Y135763D01*
X307720Y135616D01*
X308500Y135461D01*
X311500D01*
X312280Y135616D01*
X312500Y135763D01*
X312720Y135616D01*
X313500Y135461D01*
X316500D01*
X317281Y135616D01*
X317942Y136058D01*
X318384Y136720D01*
X318540Y137500D01*
Y152000D01*
X318384Y152780D01*
X317942Y153442D01*
X317281Y153884D01*
X316500Y154039D01*
X313500D01*
X312720Y153884D01*
X312500Y153737D01*
X312280Y153884D01*
X311500Y154039D01*
X308500D01*
X307720Y153884D01*
X307500Y153737D01*
X307281Y153884D01*
X306500Y154039D01*
X303500D01*
X302720Y153884D01*
X302500Y153737D01*
X302280Y153884D01*
X301500Y154039D01*
X298500D01*
X298059Y154401D01*
Y181000D01*
X297826Y182170D01*
X297163Y183162D01*
X272833Y207493D01*
X273552Y208570D01*
X274820Y208044D01*
X277300Y207718D01*
X279780Y208044D01*
X282091Y209002D01*
X284076Y210525D01*
X285598Y212509D01*
X286556Y214820D01*
X286882Y217300D01*
X286556Y219780D01*
X285598Y222091D01*
X284076Y224075D01*
X282091Y225598D01*
X279780Y226556D01*
X277300Y226882D01*
X274820Y226556D01*
X272509Y225598D01*
X270525Y224075D01*
X269002Y222091D01*
X268044Y219780D01*
X267718Y217300D01*
X268044Y214820D01*
X268570Y213552D01*
X267493Y212833D01*
X265409Y214917D01*
Y225400D01*
X265409Y225400D01*
X265176Y226570D01*
X264513Y227563D01*
X264513Y227563D01*
X258131Y233944D01*
X257965Y235418D01*
X258625Y235924D01*
X260148Y237909D01*
X261105Y240220D01*
X261432Y242700D01*
X261105Y245180D01*
X260148Y247491D01*
X258625Y249475D01*
X256641Y250998D01*
X254330Y251956D01*
X251850Y252282D01*
X249370Y251956D01*
X247059Y250998D01*
X245075Y249475D01*
X243552Y247491D01*
X242595Y245180D01*
X242268Y242700D01*
X242595Y240220D01*
X243006Y239227D01*
X242118Y238051D01*
X240171Y237663D01*
X238186Y236337D01*
X236860Y234352D01*
X236695Y233521D01*
X235479Y233153D01*
X234269Y234363D01*
X233765Y234699D01*
X233604Y235104D01*
X233490Y236046D01*
X233536Y236264D01*
X234798Y237909D01*
X235756Y240220D01*
X236082Y242700D01*
X235756Y245180D01*
X234798Y247491D01*
X233276Y249475D01*
X231291Y250998D01*
X228980Y251956D01*
X226500Y252282D01*
X224020Y251956D01*
X221709Y250998D01*
X219725Y249475D01*
X218202Y247491D01*
X217244Y245180D01*
X216918Y242700D01*
X217244Y240220D01*
X218202Y237909D01*
X219261Y236529D01*
X218635Y235259D01*
X209646D01*
X209020Y236529D01*
X209870Y237637D01*
X210882Y240079D01*
X211059Y241430D01*
X201100D01*
Y242700D01*
X199830D01*
Y252659D01*
X198479Y252482D01*
X196037Y251470D01*
X193939Y249861D01*
X192330Y247763D01*
X192030Y247038D01*
X190784Y246791D01*
X178162Y259413D01*
X177170Y260076D01*
X175999Y260309D01*
D02*
G37*
G36*
X414259Y241430D02*
X405570D01*
Y232741D01*
X406921Y232918D01*
X409363Y233930D01*
X411461Y235539D01*
X413070Y237637D01*
X414082Y240079D01*
X414259Y241430D01*
D02*
G37*
G36*
X403030D02*
X394341D01*
X394518Y240079D01*
X395530Y237637D01*
X397139Y235539D01*
X399237Y233930D01*
X401679Y232918D01*
X403030Y232741D01*
Y241430D01*
D02*
G37*
G36*
X287259D02*
X278570D01*
Y232741D01*
X279921Y232918D01*
X282363Y233930D01*
X284461Y235539D01*
X286070Y237637D01*
X287082Y240079D01*
X287259Y241430D01*
D02*
G37*
G36*
X202370Y252659D02*
Y243970D01*
X211059D01*
X210882Y245321D01*
X209870Y247763D01*
X208261Y249861D01*
X206163Y251470D01*
X203721Y252482D01*
X202370Y252659D01*
D02*
G37*
G36*
X100770D02*
Y243970D01*
X109459D01*
X109282Y245321D01*
X108270Y247763D01*
X106661Y249861D01*
X104563Y251470D01*
X102121Y252482D01*
X100770Y252659D01*
D02*
G37*
G36*
X98230D02*
X96879Y252482D01*
X94437Y251470D01*
X92339Y249861D01*
X90730Y247763D01*
X89719Y245321D01*
X89541Y243970D01*
X98230D01*
Y252659D01*
D02*
G37*
G36*
X403030D02*
X401679Y252482D01*
X399237Y251470D01*
X397139Y249861D01*
X395530Y247763D01*
X394518Y245321D01*
X394341Y243970D01*
X403030D01*
Y252659D01*
D02*
G37*
G36*
X278570D02*
Y243970D01*
X287259D01*
X287082Y245321D01*
X286070Y247763D01*
X284461Y249861D01*
X282363Y251470D01*
X279921Y252482D01*
X278570Y252659D01*
D02*
G37*
G36*
X276030D02*
X274679Y252482D01*
X272237Y251470D01*
X270139Y249861D01*
X268530Y247763D01*
X267518Y245321D01*
X267341Y243970D01*
X276030D01*
Y252659D01*
D02*
G37*
G36*
X405570D02*
Y243970D01*
X414259D01*
X414082Y245321D01*
X413070Y247763D01*
X411461Y249861D01*
X409363Y251470D01*
X406921Y252482D01*
X405570Y252659D01*
D02*
G37*
G36*
X480500Y252282D02*
X478020Y251956D01*
X475709Y250998D01*
X473725Y249475D01*
X472202Y247491D01*
X471245Y245180D01*
X470918Y242700D01*
X471245Y240220D01*
X472202Y237909D01*
X473725Y235924D01*
X475709Y234402D01*
X478020Y233444D01*
X480500Y233118D01*
X482980Y233444D01*
X485291Y234402D01*
X487276Y235924D01*
X488798Y237909D01*
X489756Y240220D01*
X490082Y242700D01*
X489756Y245180D01*
X488798Y247491D01*
X487276Y249475D01*
X485291Y250998D01*
X482980Y251956D01*
X480500Y252282D01*
D02*
G37*
G36*
X429650D02*
X427170Y251956D01*
X424859Y250998D01*
X422874Y249475D01*
X421352Y247491D01*
X420395Y245180D01*
X420068Y242700D01*
X420395Y240220D01*
X421352Y237909D01*
X422874Y235924D01*
X424859Y234402D01*
X427170Y233444D01*
X429650Y233118D01*
X432130Y233444D01*
X434441Y234402D01*
X436425Y235924D01*
X437948Y237909D01*
X438905Y240220D01*
X439232Y242700D01*
X438905Y245180D01*
X437948Y247491D01*
X436425Y249475D01*
X434441Y250998D01*
X432130Y251956D01*
X429650Y252282D01*
D02*
G37*
G36*
X74100D02*
X71620Y251956D01*
X69309Y250998D01*
X67325Y249475D01*
X65802Y247491D01*
X64844Y245180D01*
X64518Y242700D01*
X64844Y240220D01*
X65409Y238856D01*
X61500Y234947D01*
X57449Y238998D01*
X57955Y240220D01*
X58282Y242700D01*
X57955Y245180D01*
X56998Y247491D01*
X55476Y249475D01*
X53491Y250998D01*
X51180Y251956D01*
X48700Y252282D01*
X46220Y251956D01*
X43909Y250998D01*
X41925Y249475D01*
X40402Y247491D01*
X39444Y245180D01*
X39118Y242700D01*
X39444Y240220D01*
X40402Y237909D01*
X41925Y235924D01*
X43909Y234402D01*
X46220Y233444D01*
X48700Y233118D01*
X51180Y233444D01*
X52402Y233951D01*
X57635Y228718D01*
X57625Y227515D01*
X56583Y226763D01*
X56200Y226839D01*
X41200D01*
X40420Y226684D01*
X39758Y226242D01*
X39316Y225580D01*
X39161Y224800D01*
Y209800D01*
X39316Y209020D01*
X39758Y208358D01*
X40420Y207916D01*
X41200Y207761D01*
X56200D01*
X56661Y207853D01*
X57623Y207313D01*
X57931Y207024D01*
Y203000D01*
X58203Y201634D01*
X58977Y200477D01*
X69445Y190008D01*
Y189550D01*
X69662Y188458D01*
X70281Y187531D01*
X71207Y186912D01*
X72300Y186695D01*
X72431D01*
Y180976D01*
X71970Y180884D01*
X71308Y180442D01*
X70866Y179780D01*
X70711Y179000D01*
Y168000D01*
X70866Y167220D01*
X71308Y166558D01*
X71970Y166116D01*
X72750Y165961D01*
X79250D01*
X80030Y166116D01*
X80323Y166312D01*
X80419Y166169D01*
X81259Y165607D01*
X82250Y165410D01*
X84230D01*
Y173500D01*
X86770D01*
Y165410D01*
X88750D01*
X89741Y165607D01*
X90581Y166169D01*
X90677Y166312D01*
X90970Y166116D01*
X91750Y165961D01*
X98250D01*
X99030Y166116D01*
X99692Y166558D01*
X100134Y167220D01*
X100289Y168000D01*
Y179000D01*
X100134Y179780D01*
X99692Y180442D01*
X99030Y180884D01*
X98250Y181039D01*
X98181D01*
X97523Y182023D01*
X94672Y184875D01*
X94680Y185220D01*
X95115Y186227D01*
X96003Y186404D01*
X97108Y187142D01*
X97846Y188247D01*
X98105Y189550D01*
Y191980D01*
X91500D01*
Y193250D01*
X90230D01*
Y200355D01*
X88300D01*
X86997Y200096D01*
X86479Y199750D01*
X79250D01*
Y199750D01*
X79197Y199706D01*
X78700Y199805D01*
X72300D01*
X71207Y199587D01*
X70459Y199088D01*
X65069Y204478D01*
Y211378D01*
X66339Y211810D01*
X67325Y210525D01*
X69309Y209002D01*
X71620Y208044D01*
X74100Y207718D01*
X76580Y208044D01*
X78891Y209002D01*
X80876Y210525D01*
X82398Y212509D01*
X83356Y214820D01*
X83682Y217300D01*
X83356Y219780D01*
X82398Y222091D01*
X80876Y224075D01*
X78891Y225598D01*
X76580Y226556D01*
X74100Y226882D01*
X71620Y226556D01*
X69309Y225598D01*
X67325Y224075D01*
X66339Y222791D01*
X65069Y223222D01*
Y228422D01*
X70539Y233892D01*
X71620Y233444D01*
X74100Y233118D01*
X76580Y233444D01*
X78891Y234402D01*
X80876Y235924D01*
X82398Y237909D01*
X83356Y240220D01*
X83682Y242700D01*
X83356Y245180D01*
X82398Y247491D01*
X80876Y249475D01*
X78891Y250998D01*
X76580Y251956D01*
X74100Y252282D01*
D02*
G37*
G36*
X531300D02*
X528820Y251956D01*
X526509Y250998D01*
X524525Y249475D01*
X523002Y247491D01*
X522044Y245180D01*
X521718Y242700D01*
X522044Y240220D01*
X523002Y237909D01*
X524525Y235924D01*
X526509Y234402D01*
X528820Y233444D01*
X531300Y233118D01*
X533780Y233444D01*
X536091Y234402D01*
X538075Y235924D01*
X539598Y237909D01*
X540555Y240220D01*
X540882Y242700D01*
X540555Y245180D01*
X539598Y247491D01*
X538075Y249475D01*
X536091Y250998D01*
X533780Y251956D01*
X531300Y252282D01*
D02*
G37*
G36*
X505900D02*
X503420Y251956D01*
X501109Y250998D01*
X499125Y249475D01*
X497602Y247491D01*
X496645Y245180D01*
X496318Y242700D01*
X496645Y240220D01*
X497602Y237909D01*
X499125Y235924D01*
X501109Y234402D01*
X503420Y233444D01*
X505900Y233118D01*
X508380Y233444D01*
X510691Y234402D01*
X512676Y235924D01*
X514198Y237909D01*
X515155Y240220D01*
X515482Y242700D01*
X515155Y245180D01*
X514198Y247491D01*
X512676Y249475D01*
X510691Y250998D01*
X508380Y251956D01*
X505900Y252282D01*
D02*
G37*
G36*
X276030Y241430D02*
X267341D01*
X267518Y240079D01*
X268530Y237637D01*
X270139Y235539D01*
X272237Y233930D01*
X274679Y232918D01*
X276030Y232741D01*
Y241430D01*
D02*
G37*
G36*
X124900Y226882D02*
X122420Y226556D01*
X120109Y225598D01*
X118125Y224075D01*
X116602Y222091D01*
X115645Y219780D01*
X115318Y217300D01*
X115645Y214820D01*
X116602Y212509D01*
X118125Y210525D01*
X120109Y209002D01*
X122420Y208044D01*
X124900Y207718D01*
X127380Y208044D01*
X129691Y209002D01*
X131676Y210525D01*
X133198Y212509D01*
X134156Y214820D01*
X134482Y217300D01*
X134156Y219780D01*
X133198Y222091D01*
X131676Y224075D01*
X129691Y225598D01*
X127380Y226556D01*
X124900Y226882D01*
D02*
G37*
G36*
X99500D02*
X97020Y226556D01*
X94709Y225598D01*
X92725Y224075D01*
X91202Y222091D01*
X90245Y219780D01*
X89918Y217300D01*
X90245Y214820D01*
X91202Y212509D01*
X92725Y210525D01*
X94709Y209002D01*
X97020Y208044D01*
X99500Y207718D01*
X101980Y208044D01*
X104291Y209002D01*
X106276Y210525D01*
X107798Y212509D01*
X108756Y214820D01*
X109082Y217300D01*
X108756Y219780D01*
X107798Y222091D01*
X106276Y224075D01*
X104291Y225598D01*
X101980Y226556D01*
X99500Y226882D01*
D02*
G37*
G36*
X541259Y216030D02*
X532570D01*
Y207341D01*
X533921Y207518D01*
X536363Y208530D01*
X538461Y210139D01*
X540070Y212237D01*
X541082Y214679D01*
X541259Y216030D01*
D02*
G37*
G36*
X378900Y226882D02*
X376420Y226556D01*
X374109Y225598D01*
X372125Y224075D01*
X370602Y222091D01*
X369645Y219780D01*
X369318Y217300D01*
X369645Y214820D01*
X370602Y212509D01*
X372125Y210525D01*
X374109Y209002D01*
X376420Y208044D01*
X378900Y207718D01*
X381380Y208044D01*
X383691Y209002D01*
X385676Y210525D01*
X387198Y212509D01*
X388156Y214820D01*
X388482Y217300D01*
X388156Y219780D01*
X387198Y222091D01*
X385676Y224075D01*
X383691Y225598D01*
X381380Y226556D01*
X378900Y226882D01*
D02*
G37*
G36*
X328100D02*
X325620Y226556D01*
X323309Y225598D01*
X321325Y224075D01*
X319802Y222091D01*
X318845Y219780D01*
X318518Y217300D01*
X318845Y214820D01*
X319802Y212509D01*
X321325Y210525D01*
X323309Y209002D01*
X325620Y208044D01*
X328100Y207718D01*
X330580Y208044D01*
X332891Y209002D01*
X334875Y210525D01*
X336398Y212509D01*
X337355Y214820D01*
X337682Y217300D01*
X337355Y219780D01*
X336398Y222091D01*
X334875Y224075D01*
X332891Y225598D01*
X330580Y226556D01*
X328100Y226882D01*
D02*
G37*
G36*
X302700D02*
X300220Y226556D01*
X297909Y225598D01*
X295925Y224075D01*
X294402Y222091D01*
X293445Y219780D01*
X293118Y217300D01*
X293445Y214820D01*
X294402Y212509D01*
X295925Y210525D01*
X297909Y209002D01*
X300220Y208044D01*
X302700Y207718D01*
X305180Y208044D01*
X307491Y209002D01*
X309475Y210525D01*
X310998Y212509D01*
X311956Y214820D01*
X312282Y217300D01*
X311956Y219780D01*
X310998Y222091D01*
X309475Y224075D01*
X307491Y225598D01*
X305180Y226556D01*
X302700Y226882D01*
D02*
G37*
G36*
X160209Y216030D02*
X151520D01*
Y207341D01*
X152871Y207518D01*
X155313Y208530D01*
X157411Y210139D01*
X159020Y212237D01*
X160032Y214679D01*
X160209Y216030D01*
D02*
G37*
G36*
X148980D02*
X140291D01*
X140468Y214679D01*
X141480Y212237D01*
X143089Y210139D01*
X145187Y208530D01*
X147629Y207518D01*
X148980Y207341D01*
Y216030D01*
D02*
G37*
G36*
X578730Y228730D02*
X547459D01*
X547761Y224894D01*
X548957Y219914D01*
X550917Y215182D01*
X553593Y210814D01*
X556920Y206920D01*
X560814Y203593D01*
X565182Y200917D01*
X569913Y198957D01*
X574894Y197761D01*
X578730Y197459D01*
Y228730D01*
D02*
G37*
G36*
X530030Y216030D02*
X521341D01*
X521518Y214679D01*
X522530Y212237D01*
X524139Y210139D01*
X526237Y208530D01*
X528679Y207518D01*
X530030Y207341D01*
Y216030D01*
D02*
G37*
G36*
X363459D02*
X354770D01*
Y207341D01*
X356121Y207518D01*
X358563Y208530D01*
X360661Y210139D01*
X362270Y212237D01*
X363282Y214679D01*
X363459Y216030D01*
D02*
G37*
G36*
X352230D02*
X343541D01*
X343718Y214679D01*
X344730Y212237D01*
X346339Y210139D01*
X348437Y208530D01*
X350879Y207518D01*
X352230Y207341D01*
Y216030D01*
D02*
G37*
G36*
X530030Y227259D02*
X528679Y227082D01*
X526237Y226070D01*
X524139Y224461D01*
X522530Y222363D01*
X521518Y219921D01*
X521341Y218570D01*
X530030D01*
Y227259D01*
D02*
G37*
G36*
X354770D02*
Y218570D01*
X363459D01*
X363282Y219921D01*
X362270Y222363D01*
X360661Y224461D01*
X358563Y226070D01*
X356121Y227082D01*
X354770Y227259D01*
D02*
G37*
G36*
X352230D02*
X350879Y227082D01*
X348437Y226070D01*
X346339Y224461D01*
X344730Y222363D01*
X343718Y219921D01*
X343541Y218570D01*
X352230D01*
Y227259D01*
D02*
G37*
G36*
X109459Y241430D02*
X100770D01*
Y232741D01*
X102121Y232918D01*
X104563Y233930D01*
X106661Y235539D01*
X108270Y237637D01*
X109282Y240079D01*
X109459Y241430D01*
D02*
G37*
G36*
X98230D02*
X89541D01*
X89719Y240079D01*
X90730Y237637D01*
X92339Y235539D01*
X94437Y233930D01*
X96879Y232918D01*
X98230Y232741D01*
Y241430D01*
D02*
G37*
G36*
X532570Y227259D02*
Y218570D01*
X541259D01*
X541082Y219921D01*
X540070Y222363D01*
X538461Y224461D01*
X536363Y226070D01*
X533921Y227082D01*
X532570Y227259D01*
D02*
G37*
G36*
X455100Y226882D02*
X452620Y226556D01*
X450309Y225598D01*
X448325Y224075D01*
X446802Y222091D01*
X445844Y219780D01*
X445518Y217300D01*
X445844Y214820D01*
X446802Y212509D01*
X448325Y210525D01*
X450309Y209002D01*
X452620Y208044D01*
X455100Y207718D01*
X457580Y208044D01*
X459891Y209002D01*
X461875Y210525D01*
X463398Y212509D01*
X464356Y214820D01*
X464682Y217300D01*
X464356Y219780D01*
X463398Y222091D01*
X461875Y224075D01*
X459891Y225598D01*
X457580Y226556D01*
X455100Y226882D01*
D02*
G37*
G36*
X429650D02*
X427170Y226556D01*
X424859Y225598D01*
X422874Y224075D01*
X421352Y222091D01*
X420395Y219780D01*
X420068Y217300D01*
X420395Y214820D01*
X421352Y212509D01*
X422874Y210525D01*
X424859Y209002D01*
X427170Y208044D01*
X429650Y207718D01*
X432130Y208044D01*
X434441Y209002D01*
X436425Y210525D01*
X437948Y212509D01*
X438905Y214820D01*
X439232Y217300D01*
X438905Y219780D01*
X437948Y222091D01*
X436425Y224075D01*
X434441Y225598D01*
X432130Y226556D01*
X429650Y226882D01*
D02*
G37*
G36*
X404300D02*
X401820Y226556D01*
X399509Y225598D01*
X397525Y224075D01*
X396002Y222091D01*
X395045Y219780D01*
X394718Y217300D01*
X395045Y214820D01*
X396002Y212509D01*
X397525Y210525D01*
X399509Y209002D01*
X401820Y208044D01*
X404300Y207718D01*
X406780Y208044D01*
X409091Y209002D01*
X411076Y210525D01*
X412598Y212509D01*
X413555Y214820D01*
X413882Y217300D01*
X413555Y219780D01*
X412598Y222091D01*
X411076Y224075D01*
X409091Y225598D01*
X406780Y226556D01*
X404300Y226882D01*
D02*
G37*
G36*
X151520Y227259D02*
Y218570D01*
X160209D01*
X160032Y219921D01*
X159020Y222363D01*
X157411Y224461D01*
X155313Y226070D01*
X152871Y227082D01*
X151520Y227259D01*
D02*
G37*
G36*
X148980D02*
X147629Y227082D01*
X145187Y226070D01*
X143089Y224461D01*
X141480Y222363D01*
X140468Y219921D01*
X140291Y218570D01*
X148980D01*
Y227259D01*
D02*
G37*
G36*
X480500Y226882D02*
X478020Y226556D01*
X475709Y225598D01*
X473725Y224075D01*
X472202Y222091D01*
X471245Y219780D01*
X470918Y217300D01*
X471245Y214820D01*
X472202Y212509D01*
X473725Y210525D01*
X475709Y209002D01*
X478020Y208044D01*
X480500Y207718D01*
X482980Y208044D01*
X485291Y209002D01*
X487276Y210525D01*
X488798Y212509D01*
X489756Y214820D01*
X490082Y217300D01*
X489756Y219780D01*
X488798Y222091D01*
X487276Y224075D01*
X485291Y225598D01*
X482980Y226556D01*
X480500Y226882D01*
D02*
G37*
%LPD*%
G36*
X286406Y102204D02*
X286941Y101846D01*
Y69901D01*
X286500Y69539D01*
X283500D01*
X282720Y69384D01*
X282500Y69237D01*
X282281Y69384D01*
X281500Y69539D01*
X278500D01*
X277720Y69384D01*
X277500Y69237D01*
X277281Y69384D01*
X276500Y69539D01*
X273500D01*
X272720Y69384D01*
X272500Y69237D01*
X272281Y69384D01*
X271500Y69539D01*
X270924D01*
X270539Y70809D01*
X271839Y71678D01*
X273165Y73663D01*
X273631Y76004D01*
X273165Y78345D01*
X271839Y80330D01*
X271464Y80580D01*
Y81637D01*
X271626Y81999D01*
X272902Y83909D01*
X273368Y86250D01*
X272902Y88591D01*
X271576Y90576D01*
X271520Y90613D01*
Y91624D01*
X271665Y92043D01*
X272915Y93914D01*
X273381Y96255D01*
X272915Y98596D01*
X272594Y99076D01*
X273193Y100196D01*
X275516D01*
X277159Y99098D01*
X279500Y98632D01*
X281841Y99098D01*
X283826Y100424D01*
X285152Y102409D01*
X286406Y102204D01*
D02*
G37*
G36*
X256461Y144898D02*
X256432Y144750D01*
Y130106D01*
X256703Y128741D01*
X257477Y127583D01*
X267372Y117688D01*
X266954Y116310D01*
X266159Y116152D01*
X264174Y114826D01*
X263328Y113559D01*
X254540D01*
Y116500D01*
X254384Y117280D01*
X254237Y117500D01*
X254384Y117720D01*
X254540Y118500D01*
Y121500D01*
X254384Y122281D01*
X254238Y122500D01*
X254384Y122719D01*
X254540Y123500D01*
Y126500D01*
X254384Y127280D01*
X254237Y127500D01*
X254384Y127720D01*
X254540Y128500D01*
Y131500D01*
X254384Y132280D01*
X253942Y132942D01*
X253281Y133384D01*
X252500Y133539D01*
X238000D01*
X237220Y133384D01*
X236733Y133059D01*
X231767D01*
X228320Y136505D01*
X228618Y138000D01*
X228152Y140341D01*
X226826Y142326D01*
X224841Y143652D01*
X222500Y144117D01*
X220159Y143652D01*
X218174Y142326D01*
X216848Y140341D01*
X216383Y138000D01*
X216848Y135659D01*
X218174Y133674D01*
X220159Y132348D01*
X222500Y131882D01*
X223995Y132180D01*
X228337Y127837D01*
X229329Y127174D01*
X230500Y126941D01*
X230500Y126941D01*
X235599D01*
X235961Y126500D01*
Y123500D01*
X236116Y122719D01*
X236263Y122500D01*
X236116Y122281D01*
X235961Y121500D01*
Y118500D01*
X236116Y117720D01*
X236263Y117500D01*
X236116Y117280D01*
X235961Y116500D01*
Y113500D01*
X236116Y112719D01*
X236263Y112500D01*
X236116Y112281D01*
X235961Y111500D01*
Y108500D01*
X236116Y107720D01*
X236263Y107500D01*
X236116Y107280D01*
X235961Y106500D01*
Y103500D01*
X236116Y102719D01*
X236263Y102500D01*
X236116Y102281D01*
X235961Y101500D01*
Y98500D01*
X236035Y98130D01*
X235608Y97491D01*
X235411Y96500D01*
Y96270D01*
X245250D01*
Y93730D01*
X235411D01*
Y93500D01*
X235608Y92509D01*
X236035Y91870D01*
X235961Y91500D01*
Y88500D01*
X236116Y87720D01*
X236263Y87500D01*
X236116Y87280D01*
X235961Y86500D01*
Y83500D01*
X236035Y83130D01*
X235608Y82491D01*
X235411Y81500D01*
Y81270D01*
X245250D01*
Y78730D01*
X235411D01*
Y78500D01*
X235257Y78314D01*
X220500D01*
Y85479D01*
X220846Y85997D01*
X221105Y87300D01*
Y89230D01*
X214000D01*
Y90500D01*
X212730D01*
Y97105D01*
X210300D01*
X209569Y97706D01*
Y138772D01*
X217228Y146431D01*
X256461D01*
Y144898D01*
D02*
G37*
G36*
X304829Y114811D02*
X304348Y114091D01*
X303883Y111750D01*
X304348Y109409D01*
X304454Y109250D01*
X303087Y107882D01*
X302424Y106890D01*
X302191Y105719D01*
X302191Y105719D01*
Y92250D01*
X302191Y92250D01*
X302424Y91080D01*
X303087Y90087D01*
X315337Y77837D01*
X315337Y77837D01*
X316329Y77174D01*
X317500Y76941D01*
X317500Y76941D01*
X320098D01*
X320461Y76500D01*
Y73500D01*
X320616Y72720D01*
X321058Y72058D01*
X321720Y71616D01*
X322500Y71461D01*
X335714D01*
X347087Y60087D01*
X348079Y59424D01*
X349250Y59191D01*
X441328D01*
X442174Y57924D01*
X444159Y56598D01*
X445466Y56338D01*
X445884Y54960D01*
X441233Y50309D01*
X320017D01*
X318273Y52053D01*
X318384Y52220D01*
X318540Y53000D01*
Y67500D01*
X318384Y68281D01*
X317942Y68942D01*
X317281Y69384D01*
X316500Y69539D01*
X313500D01*
X312720Y69384D01*
X312500Y69237D01*
X312280Y69384D01*
X311500Y69539D01*
X308500D01*
X307720Y69384D01*
X307500Y69237D01*
X307281Y69384D01*
X306500Y69539D01*
X303500D01*
X302720Y69384D01*
X302500Y69237D01*
X302280Y69384D01*
X301500Y69539D01*
X298500D01*
X298130Y69466D01*
X297491Y69893D01*
X296500Y70090D01*
X296270D01*
Y60250D01*
X293730D01*
Y70090D01*
X293500D01*
X293059Y70452D01*
Y102828D01*
X294326Y103674D01*
X295652Y105659D01*
X296118Y108000D01*
X295652Y110341D01*
X294326Y112326D01*
X292341Y113652D01*
X290000Y114118D01*
X287659Y113652D01*
X285674Y112326D01*
X284348Y110341D01*
X284333Y110264D01*
X282922Y109680D01*
X281841Y110402D01*
X279500Y110868D01*
X277159Y110402D01*
X275699Y109426D01*
X274556Y110190D01*
X274618Y110500D01*
X274152Y112841D01*
X272936Y114661D01*
X273283Y115931D01*
X304231D01*
X304829Y114811D01*
D02*
G37*
%LPC*%
G36*
X217700Y97105D02*
X215270D01*
Y91770D01*
X221105D01*
Y93700D01*
X220846Y95003D01*
X220108Y96108D01*
X219003Y96846D01*
X217700Y97105D01*
D02*
G37*
%LPD*%
D10*
X75500Y193250D02*
D03*
X91500D02*
D03*
X256750Y-250D02*
D03*
X240750D02*
D03*
X256000Y41750D02*
D03*
X240000D02*
D03*
X282250Y500D02*
D03*
X298250D02*
D03*
X300500Y41250D02*
D03*
X284500D02*
D03*
X353500Y130000D02*
D03*
X369500D02*
D03*
X515750Y150250D02*
D03*
X499750D02*
D03*
D11*
X113000Y157500D02*
D03*
Y141500D02*
D03*
X129750Y141250D02*
D03*
Y157250D02*
D03*
X214000Y74500D02*
D03*
Y90500D02*
D03*
X256500Y164250D02*
D03*
Y180250D02*
D03*
X15750Y94000D02*
D03*
Y78000D02*
D03*
X196000Y90500D02*
D03*
Y74500D02*
D03*
X222000Y-5500D02*
D03*
Y-21500D02*
D03*
X508750Y135250D02*
D03*
Y119250D02*
D03*
X526000D02*
D03*
Y135250D02*
D03*
X469750Y147750D02*
D03*
Y163750D02*
D03*
X544000Y142750D02*
D03*
Y126750D02*
D03*
D12*
X245250Y75000D02*
D03*
Y80000D02*
D03*
Y85000D02*
D03*
Y90000D02*
D03*
Y95000D02*
D03*
Y100000D02*
D03*
Y105000D02*
D03*
Y110000D02*
D03*
Y115000D02*
D03*
Y120000D02*
D03*
Y125000D02*
D03*
Y130000D02*
D03*
X329750D02*
D03*
Y125000D02*
D03*
Y120000D02*
D03*
Y115000D02*
D03*
Y110000D02*
D03*
Y105000D02*
D03*
Y100000D02*
D03*
Y95000D02*
D03*
Y90000D02*
D03*
Y85000D02*
D03*
Y80000D02*
D03*
Y75000D02*
D03*
D13*
X260000Y144750D02*
D03*
X265000D02*
D03*
X270000D02*
D03*
X275000D02*
D03*
X280000D02*
D03*
X285000D02*
D03*
X290000D02*
D03*
X295000D02*
D03*
X300000D02*
D03*
X305000D02*
D03*
X310000D02*
D03*
X315000D02*
D03*
Y60250D02*
D03*
X310000D02*
D03*
X305000D02*
D03*
X300000D02*
D03*
X295000D02*
D03*
X290000D02*
D03*
X285000D02*
D03*
X280000D02*
D03*
X275000D02*
D03*
X270000D02*
D03*
X265000D02*
D03*
X260000D02*
D03*
D14*
X485000Y84750D02*
D03*
X480000D02*
D03*
X475000D02*
D03*
X470000D02*
D03*
X465000D02*
D03*
X460000D02*
D03*
X455000D02*
D03*
Y132750D02*
D03*
X460000D02*
D03*
X465000D02*
D03*
X470000D02*
D03*
X475000D02*
D03*
X480000D02*
D03*
X485000D02*
D03*
D15*
X446000Y93750D02*
D03*
Y98750D02*
D03*
Y103750D02*
D03*
Y108750D02*
D03*
Y113750D02*
D03*
Y118750D02*
D03*
Y123750D02*
D03*
X494000D02*
D03*
Y118750D02*
D03*
Y113750D02*
D03*
Y108750D02*
D03*
Y103750D02*
D03*
Y98750D02*
D03*
Y93750D02*
D03*
D16*
X470000Y108750D02*
D03*
D17*
X95000Y173500D02*
D03*
X85500D02*
D03*
X76000D02*
D03*
Y149500D02*
D03*
X95000D02*
D03*
D18*
X282500Y16500D02*
D03*
X257500D02*
D03*
D19*
X600051Y110750D02*
D03*
D20*
X569751Y123750D02*
D03*
D21*
Y104250D02*
D03*
Y97750D02*
D03*
Y117250D02*
D03*
Y110750D02*
D03*
D22*
X234750Y75000D02*
X247125Y62625D01*
X258500Y51250D01*
X260000Y149000D02*
Y164750D01*
X234750Y75000D02*
X245250D01*
X214500D02*
X234750D01*
X258500Y51250D02*
X260000D01*
X214000Y74500D02*
X214500Y75000D01*
X129500Y141500D02*
X129750Y141250D01*
X196000Y74500D02*
Y75000D01*
D23*
X300500Y32500D02*
Y41250D01*
X329750Y130000D02*
X329750Y130000D01*
X319500Y130000D02*
X329750D01*
X309000Y119500D02*
X319500Y130000D01*
X270607Y119500D02*
X309000D01*
X260000Y130106D02*
X270607Y119500D01*
X260000Y130106D02*
Y144750D01*
X206000Y74500D02*
X214000D01*
X196000D02*
X206000D01*
X259000Y150000D02*
X260000Y149000D01*
X215750Y150000D02*
X259000D01*
X206000Y140250D02*
X215750Y150000D01*
X206000Y74500D02*
Y140250D01*
X260000Y51250D02*
Y60250D01*
Y42000D02*
Y51250D01*
X259500Y41500D02*
X260000Y42000D01*
X76000Y178250D02*
Y188500D01*
X95000Y173500D02*
Y179500D01*
X91250Y183250D02*
X95000Y179500D01*
X81000Y183250D02*
X91250D01*
X76000Y178250D02*
X81000Y183250D01*
X76000Y173500D02*
Y178250D01*
X61500Y203000D02*
X76000Y188500D01*
X74100Y242500D02*
Y242700D01*
X103000Y141500D02*
X113000D01*
X300000Y41750D02*
X300500Y41250D01*
X329750Y130000D02*
X329750Y130000D01*
X50Y62300D02*
X15750Y78000D01*
X61500Y203000D02*
Y229900D01*
X74100Y242500D01*
X300000Y41750D02*
Y60250D01*
X-14500Y62300D02*
X50D01*
X15750Y78000D02*
X23500D01*
X95000Y149500D02*
X103000Y141500D01*
X329750Y130000D02*
X353500D01*
X113000Y141500D02*
X129500D01*
X48700Y242700D02*
X61500Y229900D01*
X129750Y141250D02*
X196000Y75000D01*
X23500Y78000D02*
X95000Y149500D01*
D24*
X342100Y105000D02*
X344351Y107250D01*
X329750Y105000D02*
X342100D01*
X344351Y107250D02*
X367500D01*
X329750Y115000D02*
X383500D01*
X341743Y99000D02*
X346000D01*
X270263Y130506D02*
Y143987D01*
X269750Y144500D02*
X270263Y143987D01*
X245751Y110500D02*
X268500D01*
X262350Y213650D02*
Y225400D01*
X255739Y232011D02*
X262350Y225400D01*
X242512Y232011D02*
X255739D01*
X124900Y242700D02*
X139450Y257250D01*
X175999D01*
X190600Y242649D01*
Y238351D02*
Y242649D01*
Y238351D02*
X196751Y232200D01*
X232106D01*
X241350Y222956D01*
Y212951D02*
Y222956D01*
Y212951D02*
X247501Y206800D01*
X262607D01*
X289500Y179907D01*
Y145250D02*
Y179907D01*
Y145250D02*
X290000Y144750D01*
X150250Y242700D02*
X164750Y228200D01*
X246737Y196250D02*
X261000D01*
X226500Y216487D02*
X246737Y196250D01*
X226500Y216487D02*
Y217300D01*
X237350Y211294D02*
Y221299D01*
X230449Y228200D02*
X237350Y221299D01*
X164750Y228200D02*
X230449D01*
X245844Y202800D02*
X260950D01*
X285000Y178750D01*
X237350Y211294D02*
X245844Y202800D01*
X262350Y213650D02*
X295000Y181000D01*
Y144750D02*
Y181000D01*
X488125Y135625D02*
X497000Y126750D01*
X488125Y135625D02*
Y138625D01*
X490250Y140750D01*
X230750Y-21000D02*
X231250Y-21500D01*
X256750Y-250D02*
X257500Y500D01*
X249500Y29750D02*
X260250D01*
X244750Y25000D02*
X249500Y29750D01*
X245250Y90000D02*
X245501Y89750D01*
X245250Y85000D02*
X256750D01*
X245250Y105000D02*
X245500Y104750D01*
X245250Y110000D02*
X245250Y110000D01*
X245751Y110500D01*
X245250Y100000D02*
X260750D01*
X263750Y89750D02*
X267250Y86250D01*
X265746Y76004D02*
X267513D01*
X278005Y103255D02*
X279500Y104750D01*
X263605Y103255D02*
X278005D01*
X264495Y96255D02*
X267263D01*
X269750Y144500D02*
X270000Y144750D01*
X272750Y162000D02*
X275000Y159750D01*
X272750Y162000D02*
Y162500D01*
X305750Y-21250D02*
X315250Y-11750D01*
X315000Y51000D02*
X318750Y47250D01*
X305000Y51250D02*
X315250Y41000D01*
X305250Y92250D02*
X317500Y80000D01*
X318750Y100500D02*
X319250Y100000D01*
X313000Y100500D02*
X318750D01*
X310000Y111750D02*
X311280D01*
X305250Y105719D02*
X311280Y111750D01*
X329750Y75000D02*
X336500D01*
X329750Y95000D02*
X330250Y95500D01*
X338243D01*
X341743Y99000D01*
X351250Y90000D02*
X351250Y90000D01*
X366000Y84500D02*
X367750Y86250D01*
X475000Y74250D02*
Y84750D01*
X470000Y74750D02*
Y84750D01*
X480000Y142000D02*
X481250Y143250D01*
X494000Y123750D02*
X497000Y126750D01*
X490250Y140750D02*
X499750Y150250D01*
X508250Y118750D02*
X508750Y119250D01*
X-14500Y113100D02*
X-3350D01*
X257500Y500D02*
Y16500D01*
X270000Y29000D02*
Y60250D01*
X275000Y24000D02*
Y60250D01*
X265000Y34500D02*
Y60250D01*
X275000Y144750D02*
Y159750D01*
X280000Y144750D02*
Y177250D01*
X285000Y144750D02*
Y178750D01*
X315000Y51000D02*
Y60250D01*
X305000Y51250D02*
Y60250D01*
X355000Y93750D02*
X357750D01*
X351250Y90000D02*
X355000Y93750D01*
X476500Y70000D02*
Y72750D01*
X475000Y74250D02*
X476500Y72750D01*
X480000Y132750D02*
Y142000D01*
X469750Y133000D02*
Y147750D01*
Y133000D02*
X470000Y132750D01*
X290000Y60250D02*
Y108000D01*
X305250Y92250D02*
Y105719D01*
X315250Y-11750D02*
Y41000D01*
X222000Y-21500D02*
X231250D01*
X282250Y500D02*
X282500Y750D01*
X257500Y16500D02*
X270000Y29000D01*
X275000Y24000D02*
X282500Y16500D01*
X245501Y89750D02*
X263750D01*
X256750Y85000D02*
X265746Y76004D01*
X262110Y104750D02*
X263605Y103255D01*
X245500Y104750D02*
X262110D01*
X260750Y100000D02*
X264495Y96255D01*
X230500Y130000D02*
X245250D01*
X317500Y80000D02*
X329750D01*
Y90000D02*
X351250D01*
X336500Y84500D02*
X366000D01*
X319250Y100000D02*
X329750D01*
X494000Y118750D02*
X508250D01*
X508750Y119250D02*
X526000D01*
Y135250D02*
Y143750D01*
X485000Y135500D02*
X490250Y140750D01*
X466750Y198250D02*
X486850D01*
X544000Y126750D02*
X547000Y123750D01*
X282500Y750D02*
Y16500D01*
X260250Y29750D02*
X265000Y34500D01*
X222500Y138000D02*
X230500Y130000D01*
X336500Y75000D02*
X349250Y62250D01*
X485000Y132750D02*
Y135500D01*
X486850Y198250D02*
X505900Y217300D01*
X-3350Y113100D02*
X15750Y94000D01*
X261000Y196250D02*
X280000Y177250D01*
X278250Y-21250D02*
X305750D01*
X349250Y62250D02*
X446500D01*
X497000Y126750D02*
X544000D01*
X442500Y47250D02*
X470000Y74750D01*
X383500Y115000D02*
X466750Y198250D01*
X318750Y47250D02*
X442500D01*
X547000Y123750D02*
X569751D01*
D25*
X494000Y113750D02*
X502329D01*
X503579Y112500D01*
X553000D01*
X494000Y108750D02*
X555750D01*
X553000Y112500D02*
X557750Y117250D01*
Y110750D02*
X569751D01*
X555750Y108750D02*
X557750Y110750D01*
Y117250D02*
X569751D01*
X81343Y-21250D02*
X74678D01*
X81343Y-14585D01*
Y-12919D01*
X79677Y-11253D01*
X76344D01*
X74678Y-12919D01*
X89673Y-21250D02*
Y-11253D01*
X84675Y-16252D01*
X91340D01*
X94672Y-21250D02*
Y-19584D01*
X96338D01*
Y-21250D01*
X94672D01*
X103002Y-12919D02*
X104669Y-11253D01*
X108001D01*
X109667Y-12919D01*
Y-19584D01*
X108001Y-21250D01*
X104669D01*
X103002Y-19584D01*
Y-12919D01*
X117998Y-21250D02*
Y-11253D01*
X112999Y-16252D01*
X119664D01*
X122996Y-21250D02*
Y-19584D01*
X124662D01*
Y-21250D01*
X122996D01*
X131327D02*
X134659D01*
X132993D01*
Y-11253D01*
X131327Y-12919D01*
X139657D02*
X141323Y-11253D01*
X144656D01*
X146322Y-12919D01*
Y-14585D01*
X144656Y-16252D01*
X146322Y-17918D01*
Y-19584D01*
X144656Y-21250D01*
X141323D01*
X139657Y-19584D01*
Y-17918D01*
X141323Y-16252D01*
X139657Y-14585D01*
Y-12919D01*
X141323Y-16252D02*
X144656D01*
X78914Y14081D02*
X77248Y15747D01*
X73916D01*
X72250Y14081D01*
Y12414D01*
X73916Y10748D01*
X77248D01*
X78914Y9082D01*
Y7416D01*
X77248Y5750D01*
X73916D01*
X72250Y7416D01*
X82247Y15747D02*
X88911D01*
X85579D01*
Y5750D01*
X92244D02*
Y15747D01*
X95576Y12414D01*
X98908Y15747D01*
Y5750D01*
X108905Y15747D02*
X102240D01*
Y10748D01*
X105573D01*
X102240D01*
Y5750D01*
X117235Y15747D02*
X113903D01*
X112237Y14081D01*
Y7416D01*
X113903Y5750D01*
X117235D01*
X118902Y7416D01*
Y14081D01*
X117235Y15747D01*
X122234Y5750D02*
Y15747D01*
X127232D01*
X128898Y14081D01*
Y10748D01*
X127232Y9082D01*
X122234D01*
X125566D02*
X128898Y5750D01*
X132231D02*
Y12414D01*
X135563Y15747D01*
X138895Y12414D01*
Y5750D01*
Y10748D01*
X132231D01*
X148892Y14081D02*
X147226Y15747D01*
X143894D01*
X142227Y14081D01*
Y12414D01*
X143894Y10748D01*
X147226D01*
X148892Y9082D01*
Y7416D01*
X147226Y5750D01*
X143894D01*
X142227Y7416D01*
X152224Y15747D02*
X155556D01*
X153890D01*
Y5750D01*
X152224D01*
X155556D01*
X167219Y14081D02*
X165553Y15747D01*
X162221D01*
X160555Y14081D01*
Y7416D01*
X162221Y5750D01*
X165553D01*
X167219Y7416D01*
X170552Y4084D02*
X177216D01*
X180548Y12414D02*
Y5750D01*
Y9082D01*
X182215Y10748D01*
X183881Y12414D01*
X185547D01*
X190545Y5750D02*
X193878D01*
X192211D01*
Y15747D01*
X190545Y14081D01*
D26*
X150250Y217300D02*
D03*
X124900D02*
D03*
X99500D02*
D03*
X74100D02*
D03*
X175700D02*
D03*
X201100D02*
D03*
X226500D02*
D03*
X251850D02*
D03*
X277300D02*
D03*
X302700D02*
D03*
X328100D02*
D03*
X353500D02*
D03*
Y242700D02*
D03*
X328100D02*
D03*
X302700D02*
D03*
X277300D02*
D03*
X251850D02*
D03*
X226500D02*
D03*
X201100D02*
D03*
X175700D02*
D03*
X74100D02*
D03*
X99500D02*
D03*
X124900D02*
D03*
X150250D02*
D03*
X48700D02*
D03*
X378900D02*
D03*
X404300D02*
D03*
X429650D02*
D03*
X455100D02*
D03*
X480500D02*
D03*
X505900D02*
D03*
X531300D02*
D03*
Y217300D02*
D03*
X505900D02*
D03*
X480500D02*
D03*
X455100D02*
D03*
X429650D02*
D03*
X404300D02*
D03*
X378900D02*
D03*
X-14500Y163850D02*
D03*
Y138500D02*
D03*
Y113100D02*
D03*
Y87700D02*
D03*
D27*
X48700Y217300D02*
D03*
D28*
X-14500Y62300D02*
D03*
D29*
X594050Y68750D02*
D03*
Y152750D02*
D03*
D30*
X564050Y88750D02*
D03*
D31*
Y132750D02*
D03*
D32*
X0Y0D02*
D03*
Y230000D02*
D03*
X580000Y0D02*
D03*
Y230000D02*
D03*
D33*
X600051Y110750D02*
D03*
X300500Y32500D02*
D03*
X367500Y107250D02*
D03*
X346000Y99000D02*
D03*
X270263Y130506D02*
D03*
X258750Y120750D02*
D03*
X268500Y110500D02*
D03*
X242512Y232011D02*
D03*
X247125Y62625D02*
D03*
X85000Y164000D02*
D03*
X500750Y136750D02*
D03*
X407250Y126750D02*
D03*
X439750Y143250D02*
D03*
X323000Y54750D02*
D03*
X240750Y137750D02*
D03*
X305500Y127000D02*
D03*
X298000Y99500D02*
D03*
X552000Y145250D02*
D03*
X523500Y158000D02*
D03*
X469750Y173500D02*
D03*
X379750Y130500D02*
D03*
X231500Y107500D02*
D03*
X263750Y183000D02*
D03*
X284000Y33000D02*
D03*
X300500Y8750D02*
D03*
X232750Y-250D02*
D03*
X99750Y189500D02*
D03*
X129750Y165500D02*
D03*
X113000Y165750D02*
D03*
X196250Y99500D02*
D03*
X214000Y98500D02*
D03*
X278250Y-21250D02*
D03*
X230750Y-21000D02*
D03*
X244750Y25000D02*
D03*
X459750Y98500D02*
D03*
X480000D02*
D03*
Y118750D02*
D03*
X460000D02*
D03*
X470000Y108750D02*
D03*
X267513Y76004D02*
D03*
X267250Y86250D02*
D03*
X267263Y96255D02*
D03*
X279500Y104750D02*
D03*
X357750Y93750D02*
D03*
X367750Y86250D02*
D03*
X290000Y108000D02*
D03*
X481250Y143250D02*
D03*
X526000Y143750D02*
D03*
X476500Y70000D02*
D03*
X446500Y62250D02*
D03*
X310000Y111750D02*
D03*
X313000Y100500D02*
D03*
X272750Y162500D02*
D03*
X222500Y138000D02*
D03*
M02*
