G04 Layer_Color=8388736*
%FSLAX44Y44*%
%MOMM*%
G71*
G01*
G75*
%ADD16R,3.0000X3.0000*%
%ADD38R,8.3000X1.6500*%
%ADD39R,12.6250X1.8000*%
G04:AMPARAMS|DCode=40|XSize=1.1032mm|YSize=1.0032mm|CornerRadius=0.1816mm|HoleSize=0mm|Usage=FLASHONLY|Rotation=90.000|XOffset=0mm|YOffset=0mm|HoleType=Round|Shape=RoundedRectangle|*
%AMROUNDEDRECTD40*
21,1,1.1032,0.6400,0,0,90.0*
21,1,0.7400,1.0032,0,0,90.0*
1,1,0.3632,0.3200,0.3700*
1,1,0.3632,0.3200,-0.3700*
1,1,0.3632,-0.3200,-0.3700*
1,1,0.3632,-0.3200,0.3700*
%
%ADD40ROUNDEDRECTD40*%
G04:AMPARAMS|DCode=41|XSize=1.1032mm|YSize=1.0032mm|CornerRadius=0.1816mm|HoleSize=0mm|Usage=FLASHONLY|Rotation=0.000|XOffset=0mm|YOffset=0mm|HoleType=Round|Shape=RoundedRectangle|*
%AMROUNDEDRECTD41*
21,1,1.1032,0.6400,0,0,0.0*
21,1,0.7400,1.0032,0,0,0.0*
1,1,0.3632,0.3700,-0.3200*
1,1,0.3632,-0.3700,-0.3200*
1,1,0.3632,-0.3700,0.3200*
1,1,0.3632,0.3700,0.3200*
%
%ADD41ROUNDEDRECTD41*%
%ADD42R,1.6532X0.5032*%
%ADD43R,0.5032X1.6532*%
%ADD44O,0.4532X1.1032*%
%ADD45O,1.1032X0.4532*%
%ADD46R,0.8532X1.3032*%
%ADD47R,1.1000X1.7000*%
%ADD48R,2.1032X3.1032*%
%ADD49R,1.4800X0.5000*%
%ADD50R,1.4800X0.5500*%
%ADD51C,1.7032*%
%ADD52R,1.7032X1.7032*%
%ADD53R,1.7032X1.7032*%
%ADD54C,0.2032*%
%ADD55O,2.2032X1.3032*%
%ADD56O,2.0032X1.3032*%
%ADD57O,2.0032X1.1532*%
%ADD58C,6.2032*%
D16*
X470000Y108750D02*
D03*
D38*
X110500Y-16250D02*
D03*
D39*
X132375Y9750D02*
D03*
D40*
X75500Y193250D02*
D03*
X91500D02*
D03*
X256750Y-250D02*
D03*
X240750D02*
D03*
X256000Y41750D02*
D03*
X240000D02*
D03*
X282250Y500D02*
D03*
X298250D02*
D03*
X300500Y41250D02*
D03*
X284500D02*
D03*
X353500Y130000D02*
D03*
X369500D02*
D03*
X515750Y150250D02*
D03*
X499750D02*
D03*
D41*
X113000Y157500D02*
D03*
Y141500D02*
D03*
X129750Y141250D02*
D03*
Y157250D02*
D03*
X214000Y74500D02*
D03*
Y90500D02*
D03*
X256500Y164250D02*
D03*
Y180250D02*
D03*
X15750Y94000D02*
D03*
Y78000D02*
D03*
X196000Y90500D02*
D03*
Y74500D02*
D03*
X222000Y-5500D02*
D03*
Y-21500D02*
D03*
X508750Y135250D02*
D03*
Y119250D02*
D03*
X526000D02*
D03*
Y135250D02*
D03*
X469750Y147750D02*
D03*
Y163750D02*
D03*
X544000Y142750D02*
D03*
Y126750D02*
D03*
D42*
X245250Y75000D02*
D03*
Y80000D02*
D03*
Y85000D02*
D03*
Y90000D02*
D03*
Y95000D02*
D03*
Y100000D02*
D03*
Y105000D02*
D03*
Y110000D02*
D03*
Y115000D02*
D03*
Y120000D02*
D03*
Y125000D02*
D03*
Y130000D02*
D03*
X329750D02*
D03*
Y125000D02*
D03*
Y120000D02*
D03*
Y115000D02*
D03*
Y110000D02*
D03*
Y105000D02*
D03*
Y100000D02*
D03*
Y95000D02*
D03*
Y90000D02*
D03*
Y85000D02*
D03*
Y80000D02*
D03*
Y75000D02*
D03*
D43*
X260000Y144750D02*
D03*
X265000D02*
D03*
X270000D02*
D03*
X275000D02*
D03*
X280000D02*
D03*
X285000D02*
D03*
X290000D02*
D03*
X295000D02*
D03*
X300000D02*
D03*
X305000D02*
D03*
X310000D02*
D03*
X315000D02*
D03*
Y60250D02*
D03*
X310000D02*
D03*
X305000D02*
D03*
X300000D02*
D03*
X295000D02*
D03*
X290000D02*
D03*
X285000D02*
D03*
X280000D02*
D03*
X275000D02*
D03*
X270000D02*
D03*
X265000D02*
D03*
X260000D02*
D03*
D44*
X485000Y84750D02*
D03*
X480000D02*
D03*
X475000D02*
D03*
X470000D02*
D03*
X465000D02*
D03*
X460000D02*
D03*
X455000D02*
D03*
Y132750D02*
D03*
X460000D02*
D03*
X465000D02*
D03*
X470000D02*
D03*
X475000D02*
D03*
X480000D02*
D03*
X485000D02*
D03*
D45*
X446000Y93750D02*
D03*
Y98750D02*
D03*
Y103750D02*
D03*
Y108750D02*
D03*
Y113750D02*
D03*
Y118750D02*
D03*
Y123750D02*
D03*
X494000D02*
D03*
Y118750D02*
D03*
Y113750D02*
D03*
Y108750D02*
D03*
Y103750D02*
D03*
Y98750D02*
D03*
Y93750D02*
D03*
D46*
X95000Y173500D02*
D03*
X85500D02*
D03*
X76000D02*
D03*
Y149500D02*
D03*
X95000D02*
D03*
D47*
X282500Y16500D02*
D03*
X257500D02*
D03*
D48*
X600051Y110750D02*
D03*
D49*
X569751Y123750D02*
D03*
D50*
Y104250D02*
D03*
Y97750D02*
D03*
Y117250D02*
D03*
Y110750D02*
D03*
D51*
X150250Y217300D02*
D03*
X124900D02*
D03*
X99500D02*
D03*
X74100D02*
D03*
X175700D02*
D03*
X201100D02*
D03*
X226500D02*
D03*
X251850D02*
D03*
X277300D02*
D03*
X302700D02*
D03*
X328100D02*
D03*
X353500D02*
D03*
Y242700D02*
D03*
X328100D02*
D03*
X302700D02*
D03*
X277300D02*
D03*
X251850D02*
D03*
X226500D02*
D03*
X201100D02*
D03*
X175700D02*
D03*
X74100D02*
D03*
X99500D02*
D03*
X124900D02*
D03*
X150250D02*
D03*
X48700D02*
D03*
X378900D02*
D03*
X404300D02*
D03*
X429650D02*
D03*
X455100D02*
D03*
X480500D02*
D03*
X505900D02*
D03*
X531300D02*
D03*
Y217300D02*
D03*
X505900D02*
D03*
X480500D02*
D03*
X455100D02*
D03*
X429650D02*
D03*
X404300D02*
D03*
X378900D02*
D03*
X-14500Y163850D02*
D03*
Y138500D02*
D03*
Y113100D02*
D03*
Y87700D02*
D03*
D52*
X48700Y217300D02*
D03*
D53*
X-14500Y62300D02*
D03*
D54*
X608050Y87000D02*
D03*
Y134500D02*
D03*
D55*
X594050Y68750D02*
D03*
Y152750D02*
D03*
D56*
X564050Y88750D02*
D03*
D57*
Y132750D02*
D03*
D58*
X0Y0D02*
D03*
Y230000D02*
D03*
X580000Y0D02*
D03*
Y230000D02*
D03*
M02*
