G04 Layer_Physical_Order=2*
G04 Layer_Color=16711680*
%FSLAX44Y44*%
%MOMM*%
G71*
G01*
G75*
%ADD23C,0.3000*%
%ADD24C,0.2000*%
%ADD26C,1.5000*%
%ADD27R,1.5000X1.5000*%
%ADD28R,1.5000X1.5000*%
%ADD29O,2.0000X1.1000*%
%ADD30O,1.8000X1.1000*%
%ADD31O,1.8000X0.9500*%
%ADD32C,6.0000*%
%ADD33C,0.8000*%
%ADD34R,0.9000X1.6000*%
G04:AMPARAMS|DCode=35|XSize=1.4mm|YSize=2.1mm|CornerRadius=0.14mm|HoleSize=0mm|Usage=FLASHONLY|Rotation=270.000|XOffset=0mm|YOffset=0mm|HoleType=Round|Shape=RoundedRectangle|*
%AMROUNDEDRECTD35*
21,1,1.4000,1.8200,0,0,270.0*
21,1,1.1200,2.1000,0,0,270.0*
1,1,0.2800,-0.9100,-0.5600*
1,1,0.2800,-0.9100,0.5600*
1,1,0.2800,0.9100,0.5600*
1,1,0.2800,0.9100,-0.5600*
%
%ADD35ROUNDEDRECTD35*%
G36*
X570488Y261181D02*
X569913Y261043D01*
X565182Y259083D01*
X560814Y256407D01*
X556920Y253080D01*
X553593Y249186D01*
X550917Y244818D01*
X548957Y240086D01*
X547761Y235106D01*
X547459Y231270D01*
X580000D01*
Y230000D01*
X581270D01*
Y197459D01*
X585106Y197761D01*
X590087Y198957D01*
X594818Y200917D01*
X599186Y203593D01*
X603080Y206920D01*
X606407Y210814D01*
X609083Y215182D01*
X611043Y219914D01*
X611181Y220488D01*
X612451Y220338D01*
Y140618D01*
X599050D01*
X598853Y140578D01*
X598653D01*
X597092Y140268D01*
X597092D01*
X596357Y139963D01*
X595034Y139079D01*
X594471Y138517D01*
X593587Y137194D01*
X593283Y136459D01*
X592972Y134898D01*
Y134102D01*
X592972Y134102D01*
X593283Y132542D01*
Y132541D01*
X593587Y131806D01*
X594471Y130483D01*
X595034Y129921D01*
X596357Y129037D01*
X597092Y128732D01*
X598653Y128422D01*
X598854D01*
X599050Y128382D01*
X612451D01*
Y93118D01*
X599050D01*
X598853Y93078D01*
X598653D01*
X597092Y92768D01*
X597092D01*
X596357Y92463D01*
X595034Y91579D01*
X594471Y91017D01*
X593587Y89694D01*
X593283Y88959D01*
X592972Y87398D01*
Y86602D01*
X592972Y86602D01*
X593283Y85042D01*
Y85041D01*
X593587Y84306D01*
X594471Y82983D01*
X595034Y82421D01*
X596357Y81537D01*
X597092Y81232D01*
X598653Y80922D01*
X598854D01*
X599050Y80882D01*
X612451D01*
Y9662D01*
X611181Y9512D01*
X611043Y10086D01*
X609083Y14819D01*
X606407Y19186D01*
X603080Y23080D01*
X599186Y26407D01*
X594818Y29083D01*
X590087Y31043D01*
X585106Y32239D01*
X581270Y32541D01*
Y0D01*
X580000D01*
Y-1270D01*
X547459D01*
X547761Y-5106D01*
X548957Y-10086D01*
X550917Y-14819D01*
X553593Y-19186D01*
X556920Y-23080D01*
X560814Y-26407D01*
X565182Y-29083D01*
X569913Y-31043D01*
X570488Y-31181D01*
X570338Y-32451D01*
X9662D01*
X9512Y-31181D01*
X10086Y-31043D01*
X14819Y-29083D01*
X19186Y-26407D01*
X23080Y-23080D01*
X26407Y-19186D01*
X29083Y-14819D01*
X31043Y-10086D01*
X32239Y-5106D01*
X32541Y-1270D01*
X0D01*
Y0D01*
X-1270D01*
Y32541D01*
X-5106Y32239D01*
X-10086Y31043D01*
X-14819Y29083D01*
X-19186Y26407D01*
X-23080Y23080D01*
X-26407Y19186D01*
X-29083Y14819D01*
X-31043Y10086D01*
X-31181Y9512D01*
X-32451Y9662D01*
Y220338D01*
X-31181Y220488D01*
X-31043Y219914D01*
X-29083Y215182D01*
X-26407Y210814D01*
X-23080Y206920D01*
X-19186Y203593D01*
X-14819Y200917D01*
X-10086Y198957D01*
X-5106Y197761D01*
X-1270Y197459D01*
Y230000D01*
X0D01*
Y231270D01*
X32541D01*
X32239Y235106D01*
X31043Y240086D01*
X29083Y244818D01*
X26407Y249186D01*
X23080Y253080D01*
X19186Y256407D01*
X14819Y259083D01*
X10086Y261043D01*
X9512Y261181D01*
X9662Y262451D01*
X570338D01*
X570488Y261181D01*
D02*
G37*
%LPC*%
G36*
X575486Y131480D02*
X565321D01*
Y125397D01*
X568301D01*
X570204Y125648D01*
X571977Y126382D01*
X573500Y127551D01*
X574668Y129073D01*
X575403Y130847D01*
X575486Y131480D01*
D02*
G37*
G36*
X562780Y140103D02*
X559800D01*
X557897Y139852D01*
X556124Y139118D01*
X554601Y137949D01*
X553433Y136426D01*
X552698Y134653D01*
X552615Y134020D01*
X562780D01*
Y140103D01*
D02*
G37*
G36*
X592780Y151480D02*
X581608D01*
X581717Y150651D01*
X582528Y148695D01*
X583816Y147016D01*
X585496Y145727D01*
X587452Y144917D01*
X589551Y144641D01*
X592780D01*
Y151480D01*
D02*
G37*
G36*
X568301Y140103D02*
X565321D01*
Y134020D01*
X575486D01*
X575403Y134653D01*
X574668Y136426D01*
X573500Y137949D01*
X571977Y139118D01*
X570204Y139852D01*
X568301Y140103D01*
D02*
G37*
G36*
X562780Y131480D02*
X552615D01*
X552698Y130847D01*
X553433Y129073D01*
X554601Y127551D01*
X556124Y126382D01*
X557897Y125648D01*
X559800Y125397D01*
X562780D01*
Y131480D01*
D02*
G37*
G36*
X-15770Y97659D02*
X-17121Y97482D01*
X-19563Y96470D01*
X-21661Y94861D01*
X-23270Y92763D01*
X-24282Y90321D01*
X-24459Y88970D01*
X-15770D01*
Y97659D01*
D02*
G37*
G36*
X575493Y87480D02*
X565321D01*
Y80641D01*
X567551D01*
X569649Y80917D01*
X571605Y81727D01*
X573285Y83016D01*
X574573Y84695D01*
X575383Y86651D01*
X575493Y87480D01*
D02*
G37*
G36*
X-13230Y97659D02*
Y88970D01*
X-4541D01*
X-4718Y90321D01*
X-5730Y92763D01*
X-7339Y94861D01*
X-9437Y96470D01*
X-11879Y97482D01*
X-13230Y97659D01*
D02*
G37*
G36*
X567551Y96859D02*
X565321D01*
Y90020D01*
X575493D01*
X575383Y90849D01*
X574573Y92805D01*
X573285Y94484D01*
X571605Y95773D01*
X569649Y96583D01*
X567551Y96859D01*
D02*
G37*
G36*
X562780D02*
X560550D01*
X558452Y96583D01*
X556496Y95773D01*
X554816Y94484D01*
X553528Y92805D01*
X552718Y90849D01*
X552608Y90020D01*
X562780D01*
Y96859D01*
D02*
G37*
G36*
X530030Y216030D02*
X521341D01*
X521518Y214679D01*
X522530Y212237D01*
X524139Y210139D01*
X526237Y208530D01*
X528679Y207518D01*
X530030Y207341D01*
Y216030D01*
D02*
G37*
G36*
X578730Y228730D02*
X547459D01*
X547761Y224894D01*
X548957Y219914D01*
X550917Y215182D01*
X553593Y210814D01*
X556920Y206920D01*
X560814Y203593D01*
X565182Y200917D01*
X569913Y198957D01*
X574894Y197761D01*
X578730Y197459D01*
Y228730D01*
D02*
G37*
G36*
X541259Y216030D02*
X532570D01*
Y207341D01*
X533921Y207518D01*
X536363Y208530D01*
X538461Y210139D01*
X540070Y212237D01*
X541082Y214679D01*
X541259Y216030D01*
D02*
G37*
G36*
X160209D02*
X151520D01*
Y207341D01*
X152871Y207518D01*
X155313Y208530D01*
X157411Y210139D01*
X159020Y212237D01*
X160032Y214679D01*
X160209Y216030D01*
D02*
G37*
G36*
X148980D02*
X140291D01*
X140468Y214679D01*
X141480Y212237D01*
X143089Y210139D01*
X145187Y208530D01*
X147629Y207518D01*
X148980Y207341D01*
Y216030D01*
D02*
G37*
G36*
X521000Y151809D02*
X521000Y151809D01*
X486750D01*
X486750Y151809D01*
X485579Y151576D01*
X484587Y150913D01*
X484587Y150913D01*
X482744Y149070D01*
X481250Y149368D01*
X478909Y148902D01*
X476924Y147576D01*
X475598Y145591D01*
X475132Y143250D01*
X475598Y140909D01*
X476924Y138924D01*
X478909Y137598D01*
X481250Y137133D01*
X483591Y137598D01*
X485576Y138924D01*
X486902Y140909D01*
X487368Y143250D01*
X487070Y144745D01*
X488017Y145691D01*
X519067D01*
X520041Y144549D01*
X519883Y143750D01*
X520348Y141409D01*
X521674Y139424D01*
X523659Y138098D01*
X526000Y137632D01*
X528341Y138098D01*
X530326Y139424D01*
X531652Y141409D01*
X532118Y143750D01*
X531652Y146091D01*
X530326Y148076D01*
X528341Y149402D01*
X526000Y149867D01*
X524506Y149570D01*
X523163Y150913D01*
X522170Y151576D01*
X521000Y151809D01*
D02*
G37*
G36*
X606493Y151480D02*
X595321D01*
Y144641D01*
X598550D01*
X600649Y144917D01*
X602605Y145727D01*
X604285Y147016D01*
X605573Y148695D01*
X606384Y150651D01*
X606493Y151480D01*
D02*
G37*
G36*
X592780Y160859D02*
X589551D01*
X587452Y160583D01*
X585496Y159773D01*
X583816Y158484D01*
X582528Y156805D01*
X581717Y154849D01*
X581608Y154020D01*
X592780D01*
Y160859D01*
D02*
G37*
G36*
X32541Y228730D02*
X1270D01*
Y197459D01*
X5106Y197761D01*
X10086Y198957D01*
X14819Y200917D01*
X19186Y203593D01*
X23080Y206920D01*
X26407Y210814D01*
X29083Y215182D01*
X31043Y219914D01*
X32239Y224894D01*
X32541Y228730D01*
D02*
G37*
G36*
X598550Y160859D02*
X595321D01*
Y154020D01*
X606493D01*
X606384Y154849D01*
X605573Y156805D01*
X604285Y158484D01*
X602605Y159773D01*
X600649Y160583D01*
X598550Y160859D01*
D02*
G37*
G36*
X446617Y21730D02*
X434770D01*
Y13383D01*
X442600D01*
X444137Y13689D01*
X445441Y14559D01*
X446311Y15863D01*
X446617Y17400D01*
Y21730D01*
D02*
G37*
G36*
X432230D02*
X420383D01*
Y17400D01*
X420689Y15863D01*
X421559Y14559D01*
X422863Y13689D01*
X424400Y13383D01*
X432230D01*
Y21730D01*
D02*
G37*
G36*
X341230Y32617D02*
X333400D01*
X331863Y32311D01*
X330559Y31441D01*
X329689Y30137D01*
X329383Y28600D01*
Y24270D01*
X341230D01*
Y32617D01*
D02*
G37*
G36*
X432230D02*
X424400D01*
X422863Y32311D01*
X421559Y31441D01*
X420689Y30137D01*
X420383Y28600D01*
Y24270D01*
X432230D01*
Y32617D01*
D02*
G37*
G36*
X351600D02*
X343770D01*
Y24270D01*
X355617D01*
Y28600D01*
X355311Y30137D01*
X354441Y31441D01*
X353137Y32311D01*
X351600Y32617D01*
D02*
G37*
G36*
X1270Y32541D02*
Y1270D01*
X32541D01*
X32239Y5106D01*
X31043Y10086D01*
X29083Y14819D01*
X26407Y19186D01*
X23080Y23080D01*
X19186Y26407D01*
X14819Y29083D01*
X10086Y31043D01*
X5106Y32239D01*
X1270Y32541D01*
D02*
G37*
G36*
X244750Y31117D02*
X242409Y30652D01*
X240424Y29326D01*
X239098Y27341D01*
X238633Y25000D01*
X239098Y22659D01*
X240424Y20674D01*
X242409Y19348D01*
X244750Y18882D01*
X246245Y19180D01*
X273365Y-7941D01*
X272839Y-9211D01*
X264750D01*
X264270Y-9306D01*
X263000Y-9250D01*
X263000Y-9250D01*
X263000Y-9250D01*
X246000D01*
X246000Y-9250D01*
X244730Y-9306D01*
X244250Y-9211D01*
X235250D01*
X234470Y-9366D01*
X233808Y-9808D01*
X233366Y-10470D01*
X233211Y-11250D01*
Y-14077D01*
X231941Y-15119D01*
X230750Y-14883D01*
X228409Y-15348D01*
X226424Y-16674D01*
X225098Y-18659D01*
X224632Y-21000D01*
X225098Y-23341D01*
X226424Y-25326D01*
X228409Y-26652D01*
X230750Y-27118D01*
X231941Y-26881D01*
X233210Y-27250D01*
X233321Y-27803D01*
X233366Y-28030D01*
X233808Y-28692D01*
X234470Y-29134D01*
X235250Y-29289D01*
X244250D01*
X244730Y-29194D01*
X246000Y-29250D01*
X246000Y-29250D01*
X246000Y-29250D01*
X263000D01*
X263000Y-29250D01*
X264270Y-29194D01*
X264750Y-29289D01*
X273750D01*
X274530Y-29134D01*
X275192Y-28692D01*
X275634Y-28030D01*
X275825Y-27247D01*
X277059Y-27131D01*
X278250Y-27367D01*
X280591Y-26902D01*
X282576Y-25576D01*
X283902Y-23591D01*
X284368Y-21250D01*
X284241Y-20612D01*
X285411Y-19987D01*
X289587Y-24163D01*
X289587Y-24163D01*
X290579Y-24826D01*
X291750Y-25059D01*
X329933D01*
Y-27600D01*
X330197Y-28927D01*
X330949Y-30051D01*
X332073Y-30803D01*
X333400Y-31067D01*
X351600D01*
X352927Y-30803D01*
X354051Y-30051D01*
X354803Y-28927D01*
X355067Y-27600D01*
Y-25059D01*
X420933D01*
Y-27600D01*
X421197Y-28927D01*
X421949Y-30051D01*
X423073Y-30803D01*
X424400Y-31067D01*
X442600D01*
X443927Y-30803D01*
X445051Y-30051D01*
X445803Y-28927D01*
X446067Y-27600D01*
Y-16400D01*
X445803Y-15073D01*
X445051Y-13949D01*
X443927Y-13197D01*
X442600Y-12933D01*
X424400D01*
X423073Y-13197D01*
X421949Y-13949D01*
X421197Y-15073D01*
X420933Y-16400D01*
Y-18941D01*
X355067D01*
Y-16400D01*
X354803Y-15073D01*
X354051Y-13949D01*
X352927Y-13197D01*
X351600Y-12933D01*
X333400D01*
X332073Y-13197D01*
X330949Y-13949D01*
X330197Y-15073D01*
X329933Y-16400D01*
Y-18941D01*
X293017D01*
X250570Y23505D01*
X250868Y25000D01*
X250402Y27341D01*
X249076Y29326D01*
X247091Y30652D01*
X244750Y31117D01*
D02*
G37*
G36*
X578730Y32541D02*
X574894Y32239D01*
X569913Y31043D01*
X565182Y29083D01*
X560814Y26407D01*
X556920Y23080D01*
X553593Y19186D01*
X550917Y14819D01*
X548957Y10086D01*
X547761Y5106D01*
X547459Y1270D01*
X578730D01*
Y32541D01*
D02*
G37*
G36*
X355617Y21730D02*
X343770D01*
Y13383D01*
X351600D01*
X353137Y13689D01*
X354441Y14559D01*
X355311Y15863D01*
X355617Y17400D01*
Y21730D01*
D02*
G37*
G36*
X341230D02*
X329383D01*
Y17400D01*
X329689Y15863D01*
X330559Y14559D01*
X331863Y13689D01*
X333400Y13383D01*
X341230D01*
Y21730D01*
D02*
G37*
G36*
X442600Y32617D02*
X434770D01*
Y24270D01*
X446617D01*
Y28600D01*
X446311Y30137D01*
X445441Y31441D01*
X444137Y32311D01*
X442600Y32617D01*
D02*
G37*
G36*
X598550Y76859D02*
X595321D01*
Y70020D01*
X606493D01*
X606384Y70849D01*
X605573Y72805D01*
X604285Y74484D01*
X602605Y75773D01*
X600649Y76583D01*
X598550Y76859D01*
D02*
G37*
G36*
X592780D02*
X589551D01*
X587452Y76583D01*
X585496Y75773D01*
X583816Y74484D01*
X582528Y72805D01*
X581717Y70849D01*
X581608Y70020D01*
X592780D01*
Y76859D01*
D02*
G37*
G36*
X-15770Y86430D02*
X-24459D01*
X-24282Y85079D01*
X-23270Y82637D01*
X-21661Y80539D01*
X-19563Y78930D01*
X-17121Y77918D01*
X-15770Y77741D01*
Y86430D01*
D02*
G37*
G36*
X562780Y87480D02*
X552608D01*
X552718Y86651D01*
X553528Y84695D01*
X554816Y83016D01*
X556496Y81727D01*
X558452Y80917D01*
X560550Y80641D01*
X562780D01*
Y87480D01*
D02*
G37*
G36*
X-4541Y86430D02*
X-13230D01*
Y77741D01*
X-11879Y77918D01*
X-9437Y78930D01*
X-7339Y80539D01*
X-5730Y82637D01*
X-4718Y85079D01*
X-4541Y86430D01*
D02*
G37*
G36*
X-7000Y71839D02*
X-22000D01*
X-22780Y71684D01*
X-23442Y71242D01*
X-23884Y70580D01*
X-24039Y69800D01*
Y54800D01*
X-23884Y54020D01*
X-23442Y53358D01*
X-22780Y52916D01*
X-22000Y52761D01*
X-7000D01*
X-6220Y52916D01*
X-5558Y53358D01*
X-5116Y54020D01*
X-4961Y54800D01*
Y69800D01*
X-5116Y70580D01*
X-5558Y71242D01*
X-6220Y71684D01*
X-7000Y71839D01*
D02*
G37*
G36*
X247125Y68742D02*
X244784Y68277D01*
X242799Y66951D01*
X241473Y64966D01*
X241007Y62625D01*
X241473Y60284D01*
X242799Y58299D01*
X244784Y56973D01*
X247125Y56507D01*
X249466Y56973D01*
X251451Y58299D01*
X251957Y59056D01*
X268897D01*
X294560Y33393D01*
X294382Y32500D01*
X294848Y30159D01*
X296174Y28174D01*
X298159Y26848D01*
X300500Y26382D01*
X302841Y26848D01*
X304826Y28174D01*
X306152Y30159D01*
X306618Y32500D01*
X306152Y34841D01*
X304826Y36826D01*
X302841Y38152D01*
X300500Y38617D01*
X299607Y38440D01*
X272898Y65148D01*
X271741Y65922D01*
X270375Y66193D01*
X251957D01*
X251451Y66951D01*
X249466Y68277D01*
X247125Y68742D01*
D02*
G37*
G36*
X592780Y67480D02*
X581608D01*
X581717Y66651D01*
X582528Y64695D01*
X583816Y63016D01*
X585496Y61727D01*
X587452Y60917D01*
X589551Y60641D01*
X592780D01*
Y67480D01*
D02*
G37*
G36*
X476500Y76118D02*
X474159Y75652D01*
X472174Y74326D01*
X470848Y72341D01*
X470382Y70000D01*
X470680Y68506D01*
X467483Y65309D01*
X451672D01*
X450826Y66576D01*
X448841Y67902D01*
X446500Y68368D01*
X444159Y67902D01*
X442174Y66576D01*
X440848Y64591D01*
X440382Y62250D01*
X440848Y59909D01*
X442174Y57924D01*
X444159Y56598D01*
X446500Y56132D01*
X448841Y56598D01*
X450826Y57924D01*
X451672Y59191D01*
X468750D01*
X468750Y59191D01*
X469921Y59424D01*
X470913Y60087D01*
X475005Y64180D01*
X476500Y63882D01*
X478841Y64348D01*
X480826Y65674D01*
X482152Y67659D01*
X482618Y70000D01*
X482152Y72341D01*
X480826Y74326D01*
X478841Y75652D01*
X476500Y76118D01*
D02*
G37*
G36*
X606493Y67480D02*
X595321D01*
Y60641D01*
X598550D01*
X600649Y60917D01*
X602605Y61727D01*
X604285Y63016D01*
X605573Y64695D01*
X606384Y66651D01*
X606493Y67480D01*
D02*
G37*
G36*
X302700Y252282D02*
X300220Y251956D01*
X297909Y250998D01*
X295925Y249475D01*
X294402Y247491D01*
X293445Y245180D01*
X293118Y242700D01*
X293445Y240220D01*
X294402Y237909D01*
X295925Y235924D01*
X297909Y234402D01*
X300220Y233444D01*
X302700Y233118D01*
X305180Y233444D01*
X307491Y234402D01*
X309475Y235924D01*
X310998Y237909D01*
X311956Y240220D01*
X312282Y242700D01*
X311956Y245180D01*
X310998Y247491D01*
X309475Y249475D01*
X307491Y250998D01*
X305180Y251956D01*
X302700Y252282D01*
D02*
G37*
G36*
X150250D02*
X147770Y251956D01*
X145459Y250998D01*
X143475Y249475D01*
X141952Y247491D01*
X140995Y245180D01*
X140668Y242700D01*
X140995Y240220D01*
X141952Y237909D01*
X143475Y235924D01*
X145459Y234402D01*
X147770Y233444D01*
X150250Y233118D01*
X152730Y233444D01*
X155041Y234402D01*
X157025Y235924D01*
X158548Y237909D01*
X159505Y240220D01*
X159832Y242700D01*
X159505Y245180D01*
X158548Y247491D01*
X157025Y249475D01*
X155041Y250998D01*
X152730Y251956D01*
X150250Y252282D01*
D02*
G37*
G36*
X353500D02*
X351020Y251956D01*
X348709Y250998D01*
X346725Y249475D01*
X345202Y247491D01*
X344244Y245180D01*
X343918Y242700D01*
X344244Y240220D01*
X345202Y237909D01*
X346725Y235924D01*
X348709Y234402D01*
X351020Y233444D01*
X353500Y233118D01*
X355980Y233444D01*
X358291Y234402D01*
X360275Y235924D01*
X361798Y237909D01*
X362756Y240220D01*
X363082Y242700D01*
X362756Y245180D01*
X361798Y247491D01*
X360275Y249475D01*
X358291Y250998D01*
X355980Y251956D01*
X353500Y252282D01*
D02*
G37*
G36*
X480500D02*
X478020Y251956D01*
X475709Y250998D01*
X473725Y249475D01*
X472202Y247491D01*
X471245Y245180D01*
X470918Y242700D01*
X471245Y240220D01*
X472202Y237909D01*
X473725Y235924D01*
X475709Y234402D01*
X478020Y233444D01*
X480500Y233118D01*
X482980Y233444D01*
X485291Y234402D01*
X487276Y235924D01*
X488798Y237909D01*
X489756Y240220D01*
X490082Y242700D01*
X489756Y245180D01*
X488798Y247491D01*
X487276Y249475D01*
X485291Y250998D01*
X482980Y251956D01*
X480500Y252282D01*
D02*
G37*
G36*
X378900D02*
X376420Y251956D01*
X374109Y250998D01*
X372125Y249475D01*
X370602Y247491D01*
X369645Y245180D01*
X369318Y242700D01*
X369645Y240220D01*
X370602Y237909D01*
X372125Y235924D01*
X374109Y234402D01*
X376420Y233444D01*
X378900Y233118D01*
X381380Y233444D01*
X383691Y234402D01*
X385676Y235924D01*
X387198Y237909D01*
X388156Y240220D01*
X388482Y242700D01*
X388156Y245180D01*
X387198Y247491D01*
X385676Y249475D01*
X383691Y250998D01*
X381380Y251956D01*
X378900Y252282D01*
D02*
G37*
G36*
X109459Y241430D02*
X100770D01*
Y232741D01*
X102121Y232918D01*
X104563Y233930D01*
X106661Y235539D01*
X108270Y237637D01*
X109282Y240079D01*
X109459Y241430D01*
D02*
G37*
G36*
X98230D02*
X89541D01*
X89719Y240079D01*
X90730Y237637D01*
X92339Y235539D01*
X94437Y233930D01*
X96879Y232918D01*
X98230Y232741D01*
Y241430D01*
D02*
G37*
G36*
X48700Y252282D02*
X46220Y251956D01*
X43909Y250998D01*
X41925Y249475D01*
X40402Y247491D01*
X39444Y245180D01*
X39118Y242700D01*
X39444Y240220D01*
X40402Y237909D01*
X41925Y235924D01*
X43909Y234402D01*
X46220Y233444D01*
X48700Y233118D01*
X51180Y233444D01*
X53491Y234402D01*
X55476Y235924D01*
X56998Y237909D01*
X57955Y240220D01*
X58282Y242700D01*
X57955Y245180D01*
X56998Y247491D01*
X55476Y249475D01*
X53491Y250998D01*
X51180Y251956D01*
X48700Y252282D01*
D02*
G37*
G36*
X124900D02*
X122420Y251956D01*
X120109Y250998D01*
X118125Y249475D01*
X116602Y247491D01*
X115645Y245180D01*
X115318Y242700D01*
X115645Y240220D01*
X116602Y237909D01*
X118125Y235924D01*
X120109Y234402D01*
X122420Y233444D01*
X124900Y233118D01*
X127380Y233444D01*
X129691Y234402D01*
X131676Y235924D01*
X133198Y237909D01*
X134156Y240220D01*
X134482Y242700D01*
X134156Y245180D01*
X133198Y247491D01*
X131676Y249475D01*
X129691Y250998D01*
X127380Y251956D01*
X124900Y252282D01*
D02*
G37*
G36*
X74100D02*
X71620Y251956D01*
X69309Y250998D01*
X67325Y249475D01*
X65802Y247491D01*
X64844Y245180D01*
X64518Y242700D01*
X64844Y240220D01*
X65802Y237909D01*
X67325Y235924D01*
X69309Y234402D01*
X71620Y233444D01*
X74100Y233118D01*
X76580Y233444D01*
X78891Y234402D01*
X80876Y235924D01*
X82398Y237909D01*
X83356Y240220D01*
X83682Y242700D01*
X83356Y245180D01*
X82398Y247491D01*
X80876Y249475D01*
X78891Y250998D01*
X76580Y251956D01*
X74100Y252282D01*
D02*
G37*
G36*
X531300D02*
X528820Y251956D01*
X526509Y250998D01*
X524525Y249475D01*
X523002Y247491D01*
X522044Y245180D01*
X521718Y242700D01*
X522044Y240220D01*
X522762Y238488D01*
X515133Y230859D01*
X501551D01*
X500380Y230626D01*
X499388Y229963D01*
X499388Y229963D01*
X496256Y226831D01*
X494878Y227249D01*
X494861Y227335D01*
X501688Y234162D01*
X503420Y233444D01*
X505900Y233118D01*
X508380Y233444D01*
X510691Y234402D01*
X512676Y235924D01*
X514198Y237909D01*
X515155Y240220D01*
X515482Y242700D01*
X515155Y245180D01*
X514198Y247491D01*
X512676Y249475D01*
X510691Y250998D01*
X508380Y251956D01*
X505900Y252282D01*
X503420Y251956D01*
X501109Y250998D01*
X499125Y249475D01*
X497602Y247491D01*
X496645Y245180D01*
X496318Y242700D01*
X496645Y240220D01*
X497362Y238488D01*
X488837Y229963D01*
X488174Y228971D01*
X487941Y227800D01*
X487941Y227800D01*
Y225165D01*
X486671Y224539D01*
X485291Y225598D01*
X482980Y226556D01*
X480500Y226882D01*
X478020Y226556D01*
X475709Y225598D01*
X473725Y224075D01*
X472202Y222091D01*
X471245Y219780D01*
X470918Y217300D01*
X471245Y214820D01*
X471962Y213088D01*
X424232Y165358D01*
X423059Y165844D01*
Y206383D01*
X425438Y208762D01*
X427170Y208044D01*
X429650Y207718D01*
X432130Y208044D01*
X434441Y209002D01*
X436425Y210525D01*
X437948Y212509D01*
X438905Y214820D01*
X439232Y217300D01*
X438905Y219780D01*
X437948Y222091D01*
X436425Y224075D01*
X434441Y225598D01*
X432130Y226556D01*
X429650Y226882D01*
X427170Y226556D01*
X424859Y225598D01*
X422874Y224075D01*
X421352Y222091D01*
X420395Y219780D01*
X420068Y217300D01*
X420395Y214820D01*
X421112Y213088D01*
X419482Y211458D01*
X418309Y211944D01*
Y227033D01*
X425438Y234162D01*
X427170Y233444D01*
X429650Y233118D01*
X432130Y233444D01*
X434441Y234402D01*
X436425Y235924D01*
X437948Y237909D01*
X438905Y240220D01*
X439232Y242700D01*
X438905Y245180D01*
X437948Y247491D01*
X436425Y249475D01*
X434441Y250998D01*
X432130Y251956D01*
X429650Y252282D01*
X427170Y251956D01*
X424859Y250998D01*
X422874Y249475D01*
X421352Y247491D01*
X420395Y245180D01*
X420068Y242700D01*
X420395Y240220D01*
X421112Y238488D01*
X413087Y230463D01*
X412424Y229471D01*
X412191Y228300D01*
X412191Y228300D01*
Y224489D01*
X410921Y224194D01*
X409091Y225598D01*
X406780Y226556D01*
X404300Y226882D01*
X401820Y226556D01*
X399509Y225598D01*
X397525Y224075D01*
X396002Y222091D01*
X395045Y219780D01*
X394718Y217300D01*
X395045Y214820D01*
X396002Y212509D01*
X397525Y210525D01*
X399509Y209002D01*
X401820Y208044D01*
X404300Y207718D01*
X406780Y208044D01*
X409091Y209002D01*
X410921Y210406D01*
X412191Y210110D01*
Y114767D01*
X379233Y81809D01*
X373526D01*
X372847Y83079D01*
X373402Y83909D01*
X373867Y86250D01*
X373402Y88591D01*
X372076Y90576D01*
X370809Y91422D01*
Y95250D01*
X370809Y95250D01*
X370576Y96420D01*
X369913Y97413D01*
X367362Y99964D01*
X367908Y101214D01*
X369841Y101598D01*
X371826Y102924D01*
X373152Y104909D01*
X373618Y107250D01*
X373152Y109591D01*
X371826Y111576D01*
X370559Y112422D01*
Y188451D01*
X370559Y188451D01*
X370326Y189621D01*
X369663Y190614D01*
X369663Y190614D01*
X354281Y205995D01*
X354736Y207336D01*
X356121Y207518D01*
X358563Y208530D01*
X360661Y210139D01*
X362270Y212237D01*
X363282Y214679D01*
X363459Y216030D01*
X353500D01*
Y217300D01*
X352230D01*
Y227259D01*
X350879Y227082D01*
X348437Y226070D01*
X347329Y225220D01*
X346059Y225846D01*
Y227800D01*
X345826Y228971D01*
X345163Y229963D01*
X345163Y229963D01*
X336638Y238488D01*
X337355Y240220D01*
X337682Y242700D01*
X337355Y245180D01*
X336398Y247491D01*
X334875Y249475D01*
X332891Y250998D01*
X330580Y251956D01*
X328100Y252282D01*
X325620Y251956D01*
X323309Y250998D01*
X321325Y249475D01*
X319802Y247491D01*
X318845Y245180D01*
X318518Y242700D01*
X318845Y240220D01*
X319802Y237909D01*
X321325Y235924D01*
X323309Y234402D01*
X325620Y233444D01*
X328100Y233118D01*
X330580Y233444D01*
X332312Y234162D01*
X339941Y226533D01*
Y212951D01*
X339941Y212951D01*
X340174Y211780D01*
X340837Y210788D01*
X364441Y187184D01*
Y112422D01*
X363174Y111576D01*
X361848Y109591D01*
X361464Y107658D01*
X360214Y107112D01*
X331159Y136167D01*
Y208284D01*
X332891Y209002D01*
X334875Y210525D01*
X336398Y212509D01*
X337355Y214820D01*
X337682Y217300D01*
X337355Y219780D01*
X336398Y222091D01*
X334875Y224075D01*
X332891Y225598D01*
X330580Y226556D01*
X328100Y226882D01*
X325620Y226556D01*
X323309Y225598D01*
X321325Y224075D01*
X319802Y222091D01*
X318845Y219780D01*
X318518Y217300D01*
X318845Y214820D01*
X319802Y212509D01*
X321325Y210525D01*
X323309Y209002D01*
X325041Y208284D01*
Y135980D01*
X323771Y135454D01*
X305759Y153467D01*
Y208284D01*
X307491Y209002D01*
X309475Y210525D01*
X310998Y212509D01*
X311956Y214820D01*
X312282Y217300D01*
X311956Y219780D01*
X310998Y222091D01*
X309475Y224075D01*
X307491Y225598D01*
X305180Y226556D01*
X302700Y226882D01*
X300220Y226556D01*
X297909Y225598D01*
X295925Y224075D01*
X294402Y222091D01*
X293445Y219780D01*
X293118Y217300D01*
X293445Y214820D01*
X294402Y212509D01*
X295925Y210525D01*
X297909Y209002D01*
X299641Y208284D01*
Y152200D01*
X299641Y152199D01*
X299820Y151302D01*
X298908Y150612D01*
X298772Y150553D01*
X282214Y167112D01*
X281913Y167562D01*
X281913Y167562D01*
X280359Y169116D01*
Y208284D01*
X282091Y209002D01*
X284076Y210525D01*
X285598Y212509D01*
X286556Y214820D01*
X286882Y217300D01*
X286556Y219780D01*
X285598Y222091D01*
X284076Y224075D01*
X282091Y225598D01*
X279780Y226556D01*
X277300Y226882D01*
X274820Y226556D01*
X272509Y225598D01*
X270525Y224075D01*
X269002Y222091D01*
X268329Y220466D01*
X267059Y220719D01*
Y230550D01*
X267059Y230550D01*
X266826Y231721D01*
X266163Y232713D01*
X266163Y232713D01*
X260388Y238488D01*
X261105Y240220D01*
X261432Y242700D01*
X261105Y245180D01*
X260148Y247491D01*
X258625Y249475D01*
X256641Y250998D01*
X254330Y251956D01*
X251850Y252282D01*
X249370Y251956D01*
X247059Y250998D01*
X245075Y249475D01*
X243552Y247491D01*
X242595Y245180D01*
X242268Y242700D01*
X242595Y240220D01*
X243006Y239227D01*
X242118Y238051D01*
X240171Y237663D01*
X238186Y236337D01*
X237339Y235070D01*
X234142D01*
X233594Y236340D01*
X234798Y237909D01*
X235756Y240220D01*
X236082Y242700D01*
X235756Y245180D01*
X234798Y247491D01*
X233276Y249475D01*
X231291Y250998D01*
X228980Y251956D01*
X226500Y252282D01*
X224020Y251956D01*
X221709Y250998D01*
X219725Y249475D01*
X218202Y247491D01*
X217244Y245180D01*
X216918Y242700D01*
X217244Y240220D01*
X218202Y237909D01*
X219406Y236340D01*
X218858Y235070D01*
X213011D01*
X213011Y235070D01*
X211841Y234837D01*
X210848Y234174D01*
X203270Y226596D01*
X201100Y226882D01*
X198620Y226556D01*
X196309Y225598D01*
X194325Y224075D01*
X192829Y222126D01*
X192714Y222113D01*
X191559Y222409D01*
Y229900D01*
X191559Y229900D01*
X191326Y231070D01*
X190663Y232063D01*
X190663Y232063D01*
X184238Y238488D01*
X184956Y240220D01*
X185282Y242700D01*
X184956Y245180D01*
X183998Y247491D01*
X182475Y249475D01*
X180491Y250998D01*
X178180Y251956D01*
X175700Y252282D01*
X173220Y251956D01*
X170909Y250998D01*
X168925Y249475D01*
X167402Y247491D01*
X166444Y245180D01*
X166118Y242700D01*
X166444Y240220D01*
X167402Y237909D01*
X168925Y235924D01*
X170909Y234402D01*
X173220Y233444D01*
X175700Y233118D01*
X178180Y233444D01*
X179912Y234162D01*
X185441Y228633D01*
Y221926D01*
X184171Y221673D01*
X183998Y222091D01*
X182475Y224075D01*
X180491Y225598D01*
X178180Y226556D01*
X175700Y226882D01*
X173220Y226556D01*
X170909Y225598D01*
X168925Y224075D01*
X167402Y222091D01*
X166444Y219780D01*
X166118Y217300D01*
X166444Y214820D01*
X167402Y212509D01*
X168925Y210525D01*
X170909Y209002D01*
X173220Y208044D01*
X175700Y207718D01*
X178180Y208044D01*
X180491Y209002D01*
X182475Y210525D01*
X183009Y210560D01*
X192931Y200637D01*
X193923Y199974D01*
X195094Y199741D01*
X195094Y199741D01*
X207784D01*
X269715Y137810D01*
X269297Y136432D01*
X267922Y136158D01*
X265937Y134832D01*
X265091Y133565D01*
X228280D01*
X227601Y134835D01*
X228152Y135659D01*
X228618Y138000D01*
X228152Y140341D01*
X226826Y142326D01*
X224841Y143652D01*
X222500Y144117D01*
X220159Y143652D01*
X218174Y142326D01*
X217328Y141059D01*
X14117D01*
X-5523Y160699D01*
X-5245Y161370D01*
X-4918Y163850D01*
X-5245Y166330D01*
X-6202Y168641D01*
X-7724Y170625D01*
X-9709Y172148D01*
X-12020Y173105D01*
X-14500Y173432D01*
X-16980Y173105D01*
X-19291Y172148D01*
X-21275Y170625D01*
X-22798Y168641D01*
X-23756Y166330D01*
X-24082Y163850D01*
X-23756Y161370D01*
X-22798Y159059D01*
X-21275Y157074D01*
X-19291Y155552D01*
X-16980Y154594D01*
X-14500Y154268D01*
X-12020Y154594D01*
X-9709Y155552D01*
X-9323Y155848D01*
X10687Y135837D01*
X10687Y135837D01*
X11680Y135174D01*
X12850Y134941D01*
X12850Y134941D01*
X216015D01*
X216079Y134835D01*
X215359Y133565D01*
X-4227D01*
X-5665Y135004D01*
X-5245Y136020D01*
X-4918Y138500D01*
X-5245Y140980D01*
X-6202Y143291D01*
X-7724Y145275D01*
X-9709Y146798D01*
X-12020Y147755D01*
X-14500Y148082D01*
X-16980Y147755D01*
X-19291Y146798D01*
X-21275Y145275D01*
X-22798Y143291D01*
X-23756Y140980D01*
X-24082Y138500D01*
X-23756Y136020D01*
X-22798Y133709D01*
X-21275Y131725D01*
X-19291Y130202D01*
X-16980Y129244D01*
X-14500Y128918D01*
X-12020Y129244D01*
X-9709Y130202D01*
X-9599Y130286D01*
X-7657Y128343D01*
X-6664Y127680D01*
X-5494Y127448D01*
X265091D01*
X265937Y126181D01*
X267922Y124854D01*
X270263Y124389D01*
X272604Y124854D01*
X274589Y126181D01*
X275915Y128165D01*
X276189Y129540D01*
X277567Y129958D01*
X292704Y114821D01*
X292011Y113718D01*
X290000Y114118D01*
X288506Y113820D01*
X282663Y119663D01*
X281671Y120326D01*
X280500Y120559D01*
X280500Y120559D01*
X265600D01*
X264430Y120326D01*
X263438Y119663D01*
X260583Y116809D01*
X257118D01*
X256263Y117663D01*
X255271Y118326D01*
X254100Y118559D01*
X254100Y118559D01*
X-6714D01*
X-7724Y119875D01*
X-9709Y121398D01*
X-12020Y122355D01*
X-14500Y122682D01*
X-16980Y122355D01*
X-19291Y121398D01*
X-21275Y119875D01*
X-22798Y117891D01*
X-23756Y115580D01*
X-24082Y113100D01*
X-23756Y110620D01*
X-22798Y108309D01*
X-21275Y106325D01*
X-19291Y104802D01*
X-16980Y103845D01*
X-14500Y103518D01*
X-12020Y103845D01*
X-9709Y104802D01*
X-7724Y106325D01*
X-6202Y108309D01*
X-5245Y110620D01*
X-5005Y112441D01*
X162261D01*
X162359Y112283D01*
X162429Y111072D01*
X162026Y110803D01*
X162025Y110803D01*
X161364Y110360D01*
X161310Y110281D01*
X160824Y109956D01*
X160770Y109875D01*
X160690Y109821D01*
X160636Y109741D01*
X160555Y109687D01*
X160501Y109606D01*
X160420Y109552D01*
X160366Y109471D01*
X160285Y109417D01*
X160231Y109336D01*
X160151Y109282D01*
X160096Y109201D01*
X160016Y109148D01*
X159962Y109067D01*
X159881Y109013D01*
X159827Y108932D01*
X159746Y108878D01*
X159692Y108797D01*
X159611Y108743D01*
X159287Y108257D01*
X159207Y108204D01*
X158765Y107542D01*
X158765Y107541D01*
X158496Y107138D01*
X158476Y107042D01*
X158361Y106869D01*
X158342Y106772D01*
X158226Y106599D01*
X158207Y106503D01*
X158091Y106329D01*
X158072Y106233D01*
X157956Y106060D01*
X157937Y105963D01*
X157822Y105790D01*
X157802Y105694D01*
X157687Y105521D01*
X157629Y105232D01*
X157552Y105117D01*
X157457Y104636D01*
X157417Y104577D01*
X157322Y104097D01*
X157282Y104038D01*
X157127Y103258D01*
Y102992D01*
X156993Y102315D01*
Y100562D01*
X157127Y99885D01*
Y99619D01*
X157282Y98839D01*
X157322Y98780D01*
X157417Y98300D01*
X157495Y98184D01*
X157552Y97895D01*
X157629Y97779D01*
X157687Y97491D01*
X157764Y97375D01*
X157822Y97086D01*
X157937Y96914D01*
X157956Y96817D01*
X158072Y96644D01*
X158091Y96547D01*
X158207Y96375D01*
X158226Y96278D01*
X158341Y96105D01*
X158361Y96008D01*
X158630Y95605D01*
X158630Y95604D01*
X158899Y95201D01*
X158900Y95200D01*
X159342Y94538D01*
X159423Y94484D01*
X159477Y94403D01*
X159556Y94350D01*
X159881Y93864D01*
X159962Y93810D01*
X160016Y93729D01*
X160096Y93675D01*
X160151Y93595D01*
X160231Y93541D01*
X160285Y93460D01*
X160366Y93406D01*
X160420Y93325D01*
X160501Y93271D01*
X160555Y93190D01*
X161041Y92866D01*
X161094Y92786D01*
X161175Y92732D01*
X161229Y92651D01*
X161890Y92209D01*
X161892Y92209D01*
X162295Y91940D01*
X162296Y91939D01*
X162699Y91670D01*
X162796Y91651D01*
X162969Y91535D01*
X163065Y91516D01*
X163238Y91400D01*
X163335Y91381D01*
X163508Y91266D01*
X163604Y91247D01*
X163777Y91131D01*
X164066Y91074D01*
X164181Y90996D01*
X164278Y90977D01*
X164451Y90861D01*
X164932Y90766D01*
X164990Y90727D01*
X165471Y90631D01*
X165529Y90592D01*
X166310Y90437D01*
X166441D01*
X167118Y90302D01*
X169140D01*
X169700Y90413D01*
X170174Y90334D01*
X171030Y89943D01*
X171054Y89908D01*
X171159Y89685D01*
X171164Y89674D01*
X171280Y89501D01*
X171299Y89404D01*
X171415Y89231D01*
X171434Y89135D01*
X171550Y88962D01*
X171569Y88865D01*
X171646Y88749D01*
X171704Y88461D01*
X171819Y88288D01*
X171838Y88191D01*
X171954Y88018D01*
X171973Y87922D01*
X172089Y87749D01*
X172108Y87652D01*
X172223Y87479D01*
X172243Y87383D01*
X172358Y87210D01*
X172377Y87113D01*
X172455Y86997D01*
X172512Y86709D01*
X172628Y86536D01*
X172647Y86439D01*
X172763Y86266D01*
X172782Y86170D01*
X172897Y85997D01*
X172917Y85900D01*
X173032Y85727D01*
X173051Y85631D01*
X173167Y85457D01*
X173186Y85361D01*
X173302Y85188D01*
X173321Y85091D01*
X173398Y84976D01*
X173456Y84687D01*
X173571Y84514D01*
X173591Y84417D01*
X173706Y84244D01*
X173725Y84148D01*
X173841Y83975D01*
X173860Y83878D01*
X173976Y83705D01*
X173995Y83609D01*
X174110Y83436D01*
X174130Y83339D01*
X174207Y83223D01*
X174264Y82935D01*
X174380Y82762D01*
X174399Y82665D01*
X174515Y82492D01*
X174534Y82396D01*
X174650Y82223D01*
X174669Y82126D01*
X174784Y81953D01*
X174804Y81857D01*
X174919Y81684D01*
X174938Y81587D01*
X175054Y81414D01*
X175073Y81318D01*
X175150Y81202D01*
X175208Y80913D01*
X175323Y80740D01*
X175343Y80644D01*
X175458Y80471D01*
X175477Y80374D01*
X175593Y80201D01*
X175612Y80105D01*
X175728Y79932D01*
X175747Y79835D01*
X175863Y79662D01*
X175882Y79566D01*
X175959Y79450D01*
X176017Y79161D01*
X176132Y78988D01*
X176151Y78892D01*
X176267Y78719D01*
X176286Y78622D01*
X176402Y78449D01*
X176421Y78352D01*
X176536Y78180D01*
X176556Y78083D01*
X176671Y77910D01*
X176690Y77813D01*
X176806Y77641D01*
X176825Y77544D01*
X176903Y77428D01*
X176960Y77140D01*
X177076Y76967D01*
X177095Y76870D01*
X177210Y76697D01*
X177229Y76600D01*
X177345Y76427D01*
X177364Y76331D01*
X177480Y76158D01*
X177499Y76061D01*
X177615Y75888D01*
X177634Y75792D01*
X177711Y75676D01*
X177769Y75387D01*
X177884Y75214D01*
X177903Y75118D01*
X178019Y74945D01*
X178038Y74848D01*
X178154Y74675D01*
X178173Y74579D01*
X178288Y74406D01*
X178308Y74309D01*
X178423Y74136D01*
X178442Y74040D01*
X178558Y73867D01*
X178577Y73770D01*
X178655Y73654D01*
X178712Y73366D01*
X178828Y73193D01*
X178847Y73096D01*
X178962Y72923D01*
X178982Y72827D01*
X179097Y72654D01*
X179116Y72557D01*
X179232Y72384D01*
X179251Y72288D01*
X179367Y72115D01*
X179386Y72018D01*
X179463Y71902D01*
X179521Y71614D01*
X179636Y71441D01*
X179655Y71344D01*
X179771Y71171D01*
X179790Y71075D01*
X179906Y70902D01*
X179925Y70805D01*
X180041Y70632D01*
X180060Y70535D01*
X180175Y70363D01*
X180195Y70266D01*
X180310Y70093D01*
X180329Y69996D01*
X180407Y69880D01*
X180464Y69592D01*
X180580Y69419D01*
X180599Y69323D01*
X180714Y69149D01*
X180734Y69053D01*
X180849Y68880D01*
X180868Y68783D01*
X180984Y68610D01*
X181003Y68514D01*
X181119Y68341D01*
X181138Y68244D01*
X181215Y68128D01*
X181273Y67840D01*
X181388Y67667D01*
X181408Y67570D01*
X181523Y67397D01*
X181542Y67301D01*
X181658Y67128D01*
X181677Y67031D01*
X181793Y66858D01*
X181812Y66762D01*
X181927Y66589D01*
X181947Y66492D01*
X182062Y66319D01*
X182081Y66223D01*
X182159Y66107D01*
X182216Y65818D01*
X182332Y65645D01*
X182351Y65549D01*
X182467Y65376D01*
X182486Y65279D01*
X182601Y65106D01*
X182621Y65010D01*
X182736Y64837D01*
X182755Y64740D01*
X182871Y64567D01*
X182890Y64471D01*
X182967Y64355D01*
X183025Y64066D01*
X183141Y63893D01*
X183160Y63797D01*
X182940Y62838D01*
X182470Y62434D01*
X182389Y62380D01*
X182335Y62300D01*
X181850Y61976D01*
X181796Y61895D01*
X181715Y61841D01*
X181661Y61760D01*
X181580Y61706D01*
X181527Y61626D01*
X181041Y61302D01*
X180987Y61221D01*
X180906Y61167D01*
X180852Y61086D01*
X180771Y61032D01*
X180717Y60951D01*
X180637Y60897D01*
X180583Y60817D01*
X180502Y60763D01*
X180448Y60682D01*
X180367Y60628D01*
X180313Y60547D01*
X180232Y60493D01*
X180178Y60412D01*
X180098Y60358D01*
X180044Y60278D01*
X179963Y60223D01*
X179638Y59738D01*
X179558Y59684D01*
X179504Y59604D01*
X179424Y59550D01*
X179370Y59469D01*
X179289Y59415D01*
X178964Y58929D01*
X178885Y58876D01*
X178831Y58795D01*
X178750Y58741D01*
X178308Y58079D01*
X178307Y58078D01*
X178038Y57675D01*
X178038Y57674D01*
X177769Y57271D01*
X177749Y57174D01*
X177634Y57001D01*
X177615Y56905D01*
X177499Y56732D01*
X177499Y56730D01*
X177229Y56327D01*
X177210Y56231D01*
X177095Y56058D01*
X177076Y55961D01*
X176960Y55788D01*
X176903Y55500D01*
X176825Y55384D01*
X176806Y55287D01*
X176690Y55114D01*
X176671Y55018D01*
X176556Y54845D01*
X176498Y54556D01*
X176421Y54440D01*
X176363Y54152D01*
X176286Y54036D01*
X176229Y53748D01*
X176151Y53632D01*
X176056Y53151D01*
X176017Y53093D01*
X175921Y52612D01*
X175882Y52554D01*
X175727Y51773D01*
Y51642D01*
X175592Y50964D01*
Y50429D01*
X175457Y49752D01*
Y47056D01*
X175592Y46378D01*
Y45843D01*
X175747Y45063D01*
X175748Y45061D01*
X175882Y44389D01*
X175883Y44387D01*
X176017Y43715D01*
X176094Y43599D01*
X176151Y43310D01*
X176190Y43252D01*
X176286Y42771D01*
X176363Y42656D01*
X176421Y42367D01*
X176536Y42194D01*
X176556Y42098D01*
X176633Y41982D01*
X176690Y41693D01*
X176806Y41520D01*
X176825Y41424D01*
X176941Y41251D01*
X176960Y41154D01*
X177076Y40981D01*
X177095Y40884D01*
X177210Y40711D01*
X177229Y40615D01*
X177277Y40543D01*
X177325Y40202D01*
X177038Y39159D01*
X176966Y39046D01*
X176863Y38929D01*
X176809Y38848D01*
X176728Y38794D01*
X176675Y38714D01*
X176189Y38390D01*
X176135Y38309D01*
X176054Y38255D01*
X176000Y38174D01*
X175919Y38120D01*
X175866Y38040D01*
X175380Y37716D01*
X175326Y37635D01*
X175245Y37581D01*
X175192Y37501D01*
X174706Y37177D01*
X174653Y37096D01*
X174572Y37042D01*
X174518Y36961D01*
X174437Y36907D01*
X174384Y36827D01*
X173898Y36503D01*
X173844Y36422D01*
X173763Y36368D01*
X173709Y36287D01*
X173628Y36233D01*
X173575Y36154D01*
X173089Y35829D01*
X173035Y35748D01*
X172954Y35694D01*
X172900Y35613D01*
X172819Y35559D01*
X172766Y35480D01*
X172280Y35155D01*
X172226Y35074D01*
X172146Y35020D01*
X172092Y34940D01*
X171607Y34616D01*
X171553Y34535D01*
X171472Y34481D01*
X171418Y34400D01*
X171337Y34346D01*
X171284Y34267D01*
X170798Y33942D01*
X170744Y33861D01*
X170663Y33807D01*
X170609Y33726D01*
X170528Y33672D01*
X170475Y33593D01*
X169989Y33268D01*
X169935Y33187D01*
X169854Y33133D01*
X169800Y33052D01*
X169720Y32998D01*
X169666Y32919D01*
X169181Y32594D01*
X169126Y32513D01*
X169046Y32459D01*
X168993Y32380D01*
X168507Y32055D01*
X168453Y31974D01*
X168372Y31920D01*
X168318Y31839D01*
X168237Y31786D01*
X168184Y31706D01*
X167698Y31381D01*
X167644Y31300D01*
X167563Y31246D01*
X167509Y31166D01*
X167428Y31112D01*
X167375Y31032D01*
X166889Y30707D01*
X166835Y30626D01*
X166755Y30573D01*
X166701Y30492D01*
X166620Y30438D01*
X166567Y30358D01*
X166081Y30033D01*
X166027Y29953D01*
X165946Y29899D01*
X165893Y29819D01*
X165407Y29494D01*
X165353Y29413D01*
X165272Y29360D01*
X164174Y29525D01*
X163976Y29587D01*
X163855Y29667D01*
X163567Y29724D01*
X163451Y29802D01*
X162671Y29957D01*
X162540D01*
X161862Y30092D01*
X160514D01*
X159734Y29936D01*
X159732Y29935D01*
X159060Y29802D01*
X158944Y29724D01*
X158656Y29667D01*
X158540Y29589D01*
X158251Y29532D01*
X158078Y29416D01*
X157982Y29397D01*
X157809Y29282D01*
X157712Y29262D01*
X157539Y29147D01*
X157443Y29128D01*
X156781Y28686D01*
X156728Y28606D01*
X156242Y28281D01*
X156188Y28201D01*
X156107Y28147D01*
X156053Y28066D01*
X155972Y28012D01*
X155918Y27931D01*
X155838Y27877D01*
X155784Y27796D01*
X155703Y27742D01*
X155649Y27661D01*
X155568Y27607D01*
X155243Y27122D01*
X155164Y27068D01*
X154722Y26407D01*
X154703Y26310D01*
X154587Y26137D01*
X154568Y26041D01*
X154452Y25868D01*
X154433Y25771D01*
X154317Y25598D01*
X154298Y25501D01*
X154183Y25329D01*
X154125Y25040D01*
X154048Y24924D01*
X153914Y24252D01*
X153913Y24250D01*
X153758Y23470D01*
Y21718D01*
X153913Y20938D01*
X153914Y20936D01*
X154048Y20264D01*
X154125Y20148D01*
X154183Y19859D01*
X154298Y19686D01*
X154317Y19590D01*
X154433Y19417D01*
X154452Y19320D01*
X154568Y19147D01*
X154587Y19051D01*
X154703Y18878D01*
X154722Y18781D01*
X155164Y18119D01*
X155243Y18066D01*
X155568Y17580D01*
X155649Y17526D01*
X155703Y17446D01*
X155784Y17392D01*
X155838Y17311D01*
X155918Y17257D01*
X155972Y17176D01*
X156053Y17122D01*
X156107Y17041D01*
X156188Y16987D01*
X156242Y16906D01*
X156903Y16465D01*
X156905Y16464D01*
X157308Y16195D01*
X157309Y16195D01*
X157712Y15925D01*
X157809Y15906D01*
X157982Y15791D01*
X158078Y15771D01*
X158251Y15656D01*
X158540Y15598D01*
X158656Y15521D01*
X158944Y15464D01*
X159060Y15386D01*
X159732Y15252D01*
X159734Y15251D01*
X160514Y15096D01*
X161862D01*
X162642Y15251D01*
X162644Y15252D01*
X163316Y15386D01*
X163375Y15425D01*
X163855Y15521D01*
X164028Y15637D01*
X164125Y15656D01*
X164298Y15771D01*
X164394Y15791D01*
X164567Y15906D01*
X164664Y15925D01*
X164837Y16041D01*
X164933Y16060D01*
X165337Y16329D01*
X165338Y16330D01*
X165999Y16772D01*
X166053Y16853D01*
X166134Y16906D01*
X166188Y16987D01*
X166269Y17041D01*
X166323Y17122D01*
X166404Y17176D01*
X166458Y17257D01*
X166539Y17311D01*
X166593Y17392D01*
X166673Y17446D01*
X166727Y17526D01*
X166808Y17580D01*
X166862Y17661D01*
X166943Y17715D01*
X166997Y17796D01*
X167078Y17850D01*
X167520Y18512D01*
X167520Y18513D01*
X167789Y18916D01*
X167808Y19013D01*
X167924Y19185D01*
X167943Y19282D01*
X168059Y19455D01*
X168078Y19552D01*
X168194Y19725D01*
X168251Y20013D01*
X168328Y20129D01*
X168386Y20417D01*
X168463Y20533D01*
X168618Y21314D01*
Y23874D01*
X168463Y24655D01*
X169099Y25667D01*
X169153Y25748D01*
X169234Y25802D01*
X169288Y25882D01*
X169369Y25937D01*
X169422Y26016D01*
X169908Y26341D01*
X169962Y26422D01*
X170043Y26476D01*
X170097Y26556D01*
X170177Y26611D01*
X170231Y26690D01*
X170717Y27015D01*
X170771Y27096D01*
X170851Y27150D01*
X170905Y27230D01*
X170986Y27284D01*
X171040Y27364D01*
X171525Y27689D01*
X171579Y27769D01*
X171660Y27823D01*
X171713Y27903D01*
X172199Y28228D01*
X172253Y28309D01*
X172334Y28363D01*
X172388Y28443D01*
X172469Y28497D01*
X172522Y28577D01*
X173008Y28902D01*
X173062Y28983D01*
X173143Y29036D01*
X173197Y29117D01*
X173277Y29171D01*
X173331Y29251D01*
X173817Y29576D01*
X173871Y29656D01*
X173951Y29710D01*
X174005Y29791D01*
X174086Y29845D01*
X174139Y29925D01*
X174625Y30249D01*
X174679Y30330D01*
X174760Y30384D01*
X174813Y30464D01*
X175299Y30789D01*
X175353Y30869D01*
X175434Y30923D01*
X175488Y31004D01*
X175569Y31058D01*
X175622Y31138D01*
X176108Y31462D01*
X176162Y31543D01*
X176243Y31597D01*
X176297Y31678D01*
X176377Y31732D01*
X176430Y31812D01*
X176916Y32136D01*
X176970Y32217D01*
X177051Y32271D01*
X177104Y32351D01*
X177590Y32675D01*
X177644Y32756D01*
X177725Y32810D01*
X177779Y32891D01*
X177860Y32945D01*
X177913Y33025D01*
X178399Y33349D01*
X178453Y33430D01*
X178534Y33484D01*
X178588Y33565D01*
X178668Y33619D01*
X178722Y33698D01*
X179208Y34023D01*
X179262Y34104D01*
X179342Y34158D01*
X179396Y34239D01*
X179477Y34293D01*
X179530Y34372D01*
X180016Y34697D01*
X180070Y34778D01*
X180151Y34832D01*
X180441Y34995D01*
X180705Y35059D01*
X181386Y34997D01*
X181763Y34867D01*
X181940Y34771D01*
X182335Y34507D01*
X182389Y34427D01*
X183050Y33986D01*
X183052Y33985D01*
X183455Y33716D01*
X183456Y33716D01*
X183859Y33446D01*
X183860Y33446D01*
X184263Y33177D01*
X184360Y33158D01*
X184533Y33042D01*
X184629Y33023D01*
X184802Y32907D01*
X184899Y32888D01*
X185072Y32773D01*
X185168Y32753D01*
X185341Y32638D01*
X185438Y32619D01*
X185611Y32503D01*
X186098Y31854D01*
X186237Y31524D01*
X186307Y30954D01*
X186261Y30721D01*
X186259Y30720D01*
X186126Y30047D01*
X186125Y30046D01*
X185991Y29374D01*
X185990Y29372D01*
X185894Y28891D01*
X185855Y28833D01*
X185721Y28160D01*
X185720Y28159D01*
X185587Y27487D01*
X185586Y27485D01*
X185452Y26813D01*
X185451Y26811D01*
X185317Y26139D01*
X185316Y26137D01*
X185182Y25465D01*
X185181Y25463D01*
X185086Y24983D01*
X185047Y24924D01*
X184913Y24252D01*
X184912Y24250D01*
X184778Y23578D01*
X184777Y23576D01*
X184643Y22904D01*
X184642Y22903D01*
X184508Y22230D01*
X184507Y22229D01*
X184374Y21556D01*
X184373Y21555D01*
X184277Y21074D01*
X184238Y21016D01*
X184104Y20343D01*
X184103Y20342D01*
X183969Y19670D01*
X183968Y19668D01*
X183835Y18996D01*
X183834Y18994D01*
X183700Y18322D01*
X183699Y18320D01*
X183565Y17648D01*
X183564Y17646D01*
X183468Y17166D01*
X183429Y17107D01*
X183295Y16435D01*
X183294Y16433D01*
X183161Y15761D01*
X183160Y15759D01*
X183026Y15087D01*
X183025Y15086D01*
X182891Y14413D01*
X182890Y14412D01*
X182756Y13739D01*
X182755Y13738D01*
X182660Y13257D01*
X182621Y13199D01*
X182487Y12526D01*
X182486Y12525D01*
X182352Y11852D01*
X182351Y11851D01*
X182217Y11179D01*
X182216Y11177D01*
X182083Y10505D01*
X182081Y10503D01*
X181948Y9831D01*
X181947Y9829D01*
X181851Y9349D01*
X181812Y9290D01*
X181678Y8618D01*
X181677Y8616D01*
X181543Y7944D01*
X181542Y7942D01*
X181409Y7270D01*
X181408Y7268D01*
X181274Y6596D01*
X181273Y6594D01*
X181139Y5922D01*
X181138Y5921D01*
X181109Y5773D01*
X180624Y5677D01*
X180623Y5675D01*
X179950Y5542D01*
X179835Y5464D01*
X179546Y5407D01*
X179373Y5291D01*
X179277Y5272D01*
X179104Y5157D01*
X179007Y5137D01*
X178834Y5022D01*
X178737Y5003D01*
X178564Y4887D01*
X178468Y4868D01*
X178065Y4599D01*
X178064Y4598D01*
X177402Y4156D01*
X177348Y4075D01*
X177267Y4022D01*
X177213Y3941D01*
X177132Y3887D01*
X177078Y3806D01*
X176998Y3752D01*
X176944Y3671D01*
X176863Y3617D01*
X176809Y3536D01*
X176728Y3482D01*
X176674Y3401D01*
X176593Y3348D01*
X176539Y3267D01*
X176458Y3213D01*
X176404Y3132D01*
X176324Y3078D01*
X175882Y2417D01*
X175881Y2415D01*
X175612Y2012D01*
X175593Y1916D01*
X175477Y1743D01*
X175458Y1646D01*
X175343Y1473D01*
X175323Y1376D01*
X175208Y1204D01*
X175150Y915D01*
X175073Y799D01*
X174977Y319D01*
X174938Y260D01*
X174783Y-520D01*
Y-2812D01*
X174938Y-3592D01*
X174977Y-3651D01*
X175073Y-4131D01*
X175189Y-4304D01*
X175208Y-4401D01*
X175285Y-4516D01*
X175343Y-4805D01*
X175458Y-4978D01*
X175477Y-5074D01*
X175747Y-5477D01*
X175747Y-5479D01*
X176016Y-5882D01*
X176017Y-5883D01*
X176458Y-6545D01*
X176539Y-6599D01*
X176593Y-6679D01*
X176674Y-6733D01*
X176728Y-6814D01*
X176809Y-6868D01*
X176863Y-6949D01*
X176944Y-7003D01*
X176998Y-7084D01*
X177078Y-7138D01*
X177132Y-7219D01*
X177213Y-7273D01*
X177267Y-7353D01*
X177348Y-7407D01*
X177402Y-7488D01*
X178064Y-7930D01*
X178065Y-7930D01*
X178468Y-8200D01*
X178564Y-8219D01*
X178737Y-8335D01*
X178834Y-8354D01*
X179007Y-8469D01*
X179104Y-8489D01*
X179277Y-8604D01*
X179565Y-8662D01*
X179681Y-8739D01*
X179969Y-8796D01*
X180085Y-8874D01*
X180865Y-9029D01*
X180997D01*
X181674Y-9164D01*
X182752D01*
X183430Y-9029D01*
X183561D01*
X184341Y-8874D01*
X184457Y-8796D01*
X184746Y-8739D01*
X184862Y-8662D01*
X185150Y-8604D01*
X185323Y-8489D01*
X185420Y-8469D01*
X185593Y-8354D01*
X185689Y-8335D01*
X185862Y-8219D01*
X185959Y-8200D01*
X186620Y-7758D01*
X186674Y-7678D01*
X187159Y-7353D01*
X187213Y-7273D01*
X187294Y-7219D01*
X187348Y-7138D01*
X187429Y-7084D01*
X187483Y-7003D01*
X187564Y-6949D01*
X187618Y-6868D01*
X187698Y-6814D01*
X187752Y-6733D01*
X187833Y-6679D01*
X187887Y-6599D01*
X187968Y-6545D01*
X188410Y-5883D01*
X188410Y-5882D01*
X188680Y-5479D01*
X188699Y-5382D01*
X188815Y-5209D01*
X188834Y-5113D01*
X188949Y-4940D01*
X188968Y-4843D01*
X189084Y-4670D01*
X189103Y-4574D01*
X189219Y-4401D01*
X189276Y-4112D01*
X189354Y-3996D01*
X189449Y-3516D01*
X189488Y-3457D01*
X189644Y-2677D01*
Y-655D01*
X189488Y125D01*
X189449Y184D01*
X189354Y664D01*
X189276Y780D01*
X189219Y1069D01*
X189141Y1185D01*
X189084Y1473D01*
X188968Y1646D01*
X188949Y1743D01*
X188680Y2146D01*
X188680Y2147D01*
X188410Y2550D01*
X188410Y2551D01*
X187968Y3213D01*
X187887Y3267D01*
X187833Y3348D01*
X187752Y3402D01*
X187698Y3482D01*
X187618Y3536D01*
X187564Y3617D01*
X187483Y3671D01*
X187429Y3752D01*
X187348Y3806D01*
X187294Y3887D01*
X187213Y3941D01*
X187159Y4022D01*
X187079Y4076D01*
X187025Y4156D01*
X186938Y4214D01*
X186372Y5003D01*
X186388Y5708D01*
X186522Y6380D01*
X186523Y6382D01*
X186657Y7054D01*
X186658Y7056D01*
X186792Y7728D01*
X186793Y7729D01*
X186927Y8402D01*
X186928Y8403D01*
X187061Y9076D01*
X187062Y9077D01*
X187158Y9558D01*
X187197Y9616D01*
X187331Y10289D01*
X187332Y10290D01*
X187466Y10962D01*
X187467Y10964D01*
X187600Y11636D01*
X187602Y11638D01*
X187735Y12310D01*
X187736Y12312D01*
X187870Y12984D01*
X187871Y12986D01*
X187967Y13466D01*
X188006Y13525D01*
X188139Y14197D01*
X188141Y14199D01*
X188274Y14871D01*
X188275Y14872D01*
X188409Y15545D01*
X188410Y15546D01*
X188544Y16219D01*
X188545Y16220D01*
X188679Y16893D01*
X188680Y16894D01*
X188775Y17375D01*
X188815Y17433D01*
X188948Y18106D01*
X188949Y18107D01*
X189083Y18779D01*
X189084Y18781D01*
X189218Y19453D01*
X189219Y19455D01*
X189352Y20127D01*
X189354Y20129D01*
X189487Y20801D01*
X189488Y20803D01*
X189584Y21283D01*
X189623Y21342D01*
X189757Y22014D01*
X189758Y22016D01*
X189892Y22688D01*
X189893Y22690D01*
X190026Y23362D01*
X190028Y23363D01*
X190161Y24036D01*
X190162Y24037D01*
X190296Y24710D01*
X190297Y24711D01*
X190393Y25192D01*
X190432Y25250D01*
X190565Y25923D01*
X190567Y25924D01*
X190700Y26597D01*
X190701Y26598D01*
X190835Y27271D01*
X190836Y27272D01*
X190970Y27944D01*
X190971Y27946D01*
X191105Y28618D01*
X191106Y28620D01*
X191201Y29100D01*
X191240Y29159D01*
X191361Y29763D01*
X191648Y31000D01*
X194074D01*
X194751Y31135D01*
X195287D01*
X195964Y31270D01*
X196095D01*
X196858Y31421D01*
X197197Y31476D01*
X197639Y31441D01*
X197771Y31372D01*
X198524Y30776D01*
X198640Y30603D01*
X198659Y30507D01*
X198736Y30391D01*
X198794Y30102D01*
X198909Y29929D01*
X198929Y29833D01*
X199044Y29660D01*
X199063Y29563D01*
X199179Y29390D01*
X199198Y29294D01*
X199314Y29121D01*
X199333Y29024D01*
X199448Y28851D01*
X199468Y28755D01*
X199545Y28639D01*
X199602Y28350D01*
X199718Y28177D01*
X199737Y28081D01*
X199853Y27908D01*
X199872Y27811D01*
X199988Y27638D01*
X200007Y27542D01*
X200122Y27369D01*
X200142Y27272D01*
X200257Y27099D01*
X200276Y27002D01*
X200392Y26830D01*
X200411Y26733D01*
X200488Y26617D01*
X200546Y26329D01*
X200662Y26156D01*
X200681Y26059D01*
X200796Y25886D01*
X200815Y25789D01*
X200931Y25617D01*
X200950Y25520D01*
X201066Y25347D01*
X201085Y25250D01*
X201201Y25077D01*
X201220Y24981D01*
X201297Y24865D01*
X201355Y24576D01*
X201470Y24404D01*
X201489Y24307D01*
X201605Y24134D01*
X201624Y24037D01*
X201740Y23864D01*
X201759Y23768D01*
X201874Y23595D01*
X201894Y23498D01*
X202009Y23325D01*
X202028Y23229D01*
X202144Y23056D01*
X202163Y22959D01*
X202241Y22843D01*
X202298Y22555D01*
X202414Y22382D01*
X202433Y22285D01*
X202548Y22112D01*
X202568Y22016D01*
X202683Y21843D01*
X202702Y21746D01*
X202818Y21573D01*
X202837Y21477D01*
X202953Y21304D01*
X202972Y21207D01*
X203049Y21091D01*
X203107Y20803D01*
X203222Y20630D01*
X203241Y20533D01*
X203357Y20360D01*
X203376Y20264D01*
X203492Y20091D01*
X203511Y19994D01*
X203626Y19821D01*
X203646Y19725D01*
X203761Y19552D01*
X203780Y19455D01*
X203896Y19282D01*
X203915Y19185D01*
X203993Y19070D01*
X204050Y18781D01*
X204166Y18608D01*
X204185Y18512D01*
X204300Y18339D01*
X204320Y18242D01*
X204435Y18069D01*
X204454Y17972D01*
X204570Y17799D01*
X204589Y17703D01*
X204705Y17530D01*
X204724Y17433D01*
X204801Y17318D01*
X204859Y17029D01*
X204974Y16856D01*
X204993Y16759D01*
X205109Y16587D01*
X205128Y16490D01*
X205244Y16317D01*
X205263Y16220D01*
X205379Y16047D01*
X205398Y15951D01*
X205513Y15778D01*
X205533Y15681D01*
X205648Y15508D01*
X205667Y15412D01*
X205745Y15296D01*
X205802Y15007D01*
X205918Y14834D01*
X205937Y14738D01*
X206052Y14565D01*
X206072Y14468D01*
X206187Y14295D01*
X206206Y14199D01*
X206322Y14026D01*
X206341Y13929D01*
X206457Y13756D01*
X206476Y13659D01*
X206553Y13544D01*
X206611Y13255D01*
X206726Y13082D01*
X206746Y12986D01*
X206861Y12813D01*
X206880Y12716D01*
X206996Y12543D01*
X207015Y12447D01*
X207131Y12274D01*
X207150Y12177D01*
X207265Y12004D01*
X207285Y11907D01*
X207400Y11734D01*
X207419Y11638D01*
X207497Y11522D01*
X207554Y11234D01*
X207670Y11061D01*
X207689Y10964D01*
X207805Y10791D01*
X207824Y10694D01*
X207939Y10522D01*
X207959Y10425D01*
X208074Y10252D01*
X208093Y10155D01*
X208209Y9982D01*
X208228Y9886D01*
X208306Y9770D01*
X208363Y9481D01*
X208479Y9309D01*
X208498Y9212D01*
X208613Y9039D01*
X208633Y8942D01*
X208748Y8769D01*
X208767Y8673D01*
X208883Y8500D01*
X208902Y8403D01*
X209018Y8230D01*
X209037Y8134D01*
X209152Y7961D01*
X209172Y7864D01*
X209249Y7748D01*
X209306Y7460D01*
X209422Y7287D01*
X209441Y7190D01*
X209557Y7017D01*
X209576Y6921D01*
X209692Y6748D01*
X209711Y6651D01*
X209826Y6478D01*
X209846Y6382D01*
X209961Y6209D01*
X209980Y6112D01*
X210058Y5996D01*
X210115Y5708D01*
X209805Y4599D01*
X209748Y4561D01*
X209694Y4480D01*
X209614Y4426D01*
X209560Y4345D01*
X209479Y4291D01*
X209425Y4210D01*
X209344Y4156D01*
X209290Y4075D01*
X209209Y4022D01*
X209155Y3941D01*
X209074Y3887D01*
X209021Y3806D01*
X208940Y3752D01*
X208615Y3266D01*
X208535Y3213D01*
X208481Y3132D01*
X208401Y3078D01*
X207959Y2417D01*
X207939Y2320D01*
X207824Y2147D01*
X207824Y2146D01*
X207554Y1743D01*
X207535Y1646D01*
X207419Y1473D01*
X207400Y1376D01*
X207285Y1204D01*
X207265Y1107D01*
X207150Y934D01*
X207131Y837D01*
X207015Y664D01*
X206958Y376D01*
X206880Y260D01*
X206823Y-29D01*
X206746Y-144D01*
X206688Y-433D01*
X206611Y-549D01*
X206477Y-1221D01*
X206476Y-1222D01*
X206321Y-2003D01*
Y-2404D01*
X206186Y-3081D01*
Y-4159D01*
X206321Y-4837D01*
Y-5238D01*
X206476Y-6018D01*
X206477Y-6019D01*
X206611Y-6692D01*
X206650Y-6751D01*
X206746Y-7231D01*
X206823Y-7347D01*
X206880Y-7635D01*
X206996Y-7808D01*
X207015Y-7905D01*
X207131Y-8078D01*
X207150Y-8174D01*
X207265Y-8347D01*
X207285Y-8444D01*
X207400Y-8617D01*
X207419Y-8713D01*
X207535Y-8886D01*
X207554Y-8983D01*
X207670Y-9156D01*
X207689Y-9253D01*
X207958Y-9656D01*
X207959Y-9657D01*
X208228Y-10060D01*
X208228Y-10061D01*
X208670Y-10723D01*
X208751Y-10777D01*
X208805Y-10858D01*
X208886Y-10912D01*
X208940Y-10992D01*
X209021Y-11046D01*
X209074Y-11127D01*
X209155Y-11181D01*
X209209Y-11262D01*
X209290Y-11316D01*
X209344Y-11397D01*
X209425Y-11451D01*
X209479Y-11531D01*
X209560Y-11585D01*
X209614Y-11666D01*
X209694Y-11720D01*
X209748Y-11801D01*
X209829Y-11855D01*
X209883Y-11936D01*
X209964Y-11990D01*
X210018Y-12071D01*
X210099Y-12125D01*
X210153Y-12205D01*
X210234Y-12259D01*
X210287Y-12340D01*
X210949Y-12782D01*
X210950Y-12782D01*
X211353Y-13052D01*
X211355Y-13052D01*
X211758Y-13321D01*
X211854Y-13341D01*
X212027Y-13456D01*
X212029Y-13456D01*
X212432Y-13726D01*
X212720Y-13783D01*
X212836Y-13860D01*
X212933Y-13880D01*
X213106Y-13995D01*
X213202Y-14014D01*
X213375Y-14130D01*
X213664Y-14187D01*
X213779Y-14265D01*
X214260Y-14360D01*
X214319Y-14399D01*
X214799Y-14495D01*
X214858Y-14534D01*
X215638Y-14690D01*
X216039D01*
X216716Y-14824D01*
X218064D01*
X218741Y-14690D01*
X219142D01*
X219923Y-14534D01*
X219981Y-14495D01*
X220462Y-14399D01*
X220520Y-14360D01*
X221001Y-14265D01*
X221117Y-14187D01*
X221405Y-14130D01*
X221578Y-14014D01*
X221675Y-13995D01*
X221848Y-13880D01*
X221944Y-13860D01*
X222117Y-13745D01*
X222214Y-13726D01*
X222387Y-13610D01*
X222483Y-13591D01*
X222656Y-13475D01*
X222753Y-13456D01*
X222926Y-13341D01*
X223022Y-13321D01*
X223426Y-13052D01*
X223427Y-13052D01*
X224088Y-12610D01*
X224142Y-12530D01*
X224627Y-12205D01*
X224681Y-12125D01*
X224762Y-12071D01*
X224816Y-11990D01*
X224897Y-11936D01*
X224951Y-11855D01*
X225032Y-11801D01*
X225086Y-11720D01*
X225167Y-11666D01*
X225221Y-11585D01*
X225301Y-11531D01*
X225355Y-11451D01*
X225436Y-11397D01*
X225490Y-11316D01*
X225571Y-11262D01*
X225625Y-11181D01*
X225706Y-11127D01*
X225760Y-11046D01*
X225840Y-10992D01*
X225894Y-10912D01*
X225975Y-10858D01*
X226300Y-10372D01*
X226380Y-10318D01*
X226822Y-9657D01*
X226822Y-9656D01*
X227091Y-9253D01*
X227110Y-9156D01*
X227226Y-8983D01*
X227245Y-8886D01*
X227361Y-8713D01*
X227380Y-8617D01*
X227495Y-8444D01*
X227515Y-8347D01*
X227630Y-8174D01*
X227649Y-8078D01*
X227765Y-7905D01*
X227822Y-7616D01*
X227900Y-7501D01*
X227957Y-7212D01*
X228035Y-7096D01*
X228092Y-6808D01*
X228169Y-6692D01*
X228303Y-6019D01*
X228304Y-6018D01*
X228459Y-5238D01*
Y-2138D01*
X228304Y-1357D01*
X228303Y-1356D01*
X228169Y-683D01*
X228130Y-625D01*
X228035Y-144D01*
X227957Y-29D01*
X227900Y260D01*
X227784Y433D01*
X227765Y530D01*
X227688Y645D01*
X227630Y934D01*
X227515Y1107D01*
X227495Y1204D01*
X227380Y1376D01*
X227361Y1473D01*
X227245Y1646D01*
X227226Y1743D01*
X226957Y2146D01*
X226956Y2147D01*
X226687Y2550D01*
X226687Y2551D01*
X226245Y3213D01*
X226165Y3266D01*
X225840Y3752D01*
X225760Y3806D01*
X225706Y3887D01*
X225625Y3941D01*
X225571Y4022D01*
X225490Y4076D01*
X225436Y4156D01*
X225355Y4210D01*
X225301Y4291D01*
X225221Y4345D01*
X225167Y4426D01*
X225086Y4480D01*
X225032Y4561D01*
X224951Y4615D01*
X224897Y4695D01*
X224816Y4749D01*
X224762Y4830D01*
X224276Y5155D01*
X224223Y5235D01*
X223562Y5677D01*
X223560Y5677D01*
X223157Y5946D01*
X223156Y5946D01*
X222753Y6216D01*
X222656Y6235D01*
X222483Y6350D01*
X222387Y6370D01*
X222214Y6485D01*
X222117Y6504D01*
X221944Y6620D01*
X221656Y6677D01*
X221540Y6755D01*
X221443Y6774D01*
X221270Y6890D01*
X220982Y6947D01*
X220866Y7024D01*
X220386Y7120D01*
X220327Y7159D01*
X219655Y7293D01*
X219653Y7294D01*
X218873Y7449D01*
X215908D01*
X214826Y8077D01*
X214711Y8250D01*
X214692Y8347D01*
X214576Y8520D01*
X214557Y8616D01*
X214480Y8732D01*
X214422Y9021D01*
X214307Y9194D01*
X214287Y9290D01*
X214172Y9463D01*
X214153Y9560D01*
X214037Y9733D01*
X214018Y9829D01*
X213902Y10002D01*
X213883Y10099D01*
X213767Y10272D01*
X213748Y10368D01*
X213671Y10484D01*
X213613Y10773D01*
X213498Y10946D01*
X213479Y11042D01*
X213363Y11215D01*
X213344Y11312D01*
X213228Y11485D01*
X213209Y11581D01*
X213094Y11754D01*
X213074Y11851D01*
X212959Y12024D01*
X212940Y12120D01*
X212824Y12293D01*
X212805Y12390D01*
X212727Y12506D01*
X212670Y12794D01*
X212554Y12967D01*
X212535Y13064D01*
X212420Y13237D01*
X212400Y13333D01*
X212285Y13506D01*
X212266Y13603D01*
X212150Y13776D01*
X212131Y13872D01*
X212015Y14045D01*
X211996Y14142D01*
X211919Y14258D01*
X211861Y14546D01*
X211746Y14719D01*
X211727Y14816D01*
X211611Y14989D01*
X211592Y15086D01*
X211476Y15258D01*
X211457Y15355D01*
X211341Y15528D01*
X211322Y15625D01*
X211207Y15797D01*
X211187Y15894D01*
X211072Y16067D01*
X211053Y16164D01*
X210975Y16279D01*
X210918Y16568D01*
X210802Y16741D01*
X210783Y16838D01*
X210668Y17011D01*
X210648Y17107D01*
X210533Y17280D01*
X210514Y17377D01*
X210398Y17550D01*
X210379Y17646D01*
X210263Y17819D01*
X210244Y17916D01*
X210167Y18032D01*
X210109Y18320D01*
X209994Y18493D01*
X209974Y18590D01*
X209859Y18763D01*
X209840Y18859D01*
X209724Y19032D01*
X209705Y19129D01*
X209589Y19302D01*
X209570Y19398D01*
X209454Y19571D01*
X209435Y19668D01*
X209320Y19841D01*
X209301Y19937D01*
X209223Y20053D01*
X209166Y20342D01*
X209050Y20515D01*
X209031Y20611D01*
X208915Y20784D01*
X208896Y20881D01*
X208781Y21054D01*
X208762Y21151D01*
X208646Y21323D01*
X208627Y21420D01*
X208511Y21593D01*
X208492Y21690D01*
X208414Y21805D01*
X208357Y22094D01*
X208242Y22267D01*
X208222Y22364D01*
X208107Y22536D01*
X208088Y22633D01*
X207972Y22806D01*
X207953Y22903D01*
X207837Y23075D01*
X207818Y23172D01*
X207703Y23345D01*
X207683Y23442D01*
X207568Y23615D01*
X207549Y23711D01*
X207471Y23827D01*
X207414Y24116D01*
X207298Y24288D01*
X207279Y24385D01*
X207163Y24558D01*
X207144Y24655D01*
X207029Y24828D01*
X207009Y24924D01*
X206894Y25097D01*
X206875Y25194D01*
X206759Y25367D01*
X206740Y25463D01*
X206662Y25579D01*
X206605Y25868D01*
X206490Y26041D01*
X206470Y26137D01*
X206355Y26310D01*
X206336Y26407D01*
X206220Y26580D01*
X206201Y26676D01*
X206085Y26849D01*
X206066Y26946D01*
X205950Y27119D01*
X205931Y27215D01*
X205816Y27388D01*
X205796Y27485D01*
X205719Y27601D01*
X205662Y27889D01*
X205546Y28062D01*
X205527Y28159D01*
X205411Y28332D01*
X205392Y28428D01*
X205276Y28601D01*
X205257Y28698D01*
X205142Y28871D01*
X205123Y28967D01*
X205007Y29141D01*
X204988Y29237D01*
X204910Y29353D01*
X204853Y29641D01*
X204737Y29814D01*
X204718Y29911D01*
X204603Y30084D01*
X204583Y30180D01*
X204468Y30353D01*
X204449Y30450D01*
X204333Y30623D01*
X204314Y30720D01*
X204198Y30893D01*
X204179Y30989D01*
X204063Y31162D01*
X204044Y31259D01*
X203967Y31375D01*
X203909Y31663D01*
X203794Y31836D01*
X203775Y31933D01*
X203659Y32106D01*
X203640Y32202D01*
X203524Y32375D01*
X203505Y32472D01*
X203390Y32645D01*
X203370Y32741D01*
X203255Y32914D01*
X203236Y33011D01*
X203158Y33127D01*
X203101Y33415D01*
X202985Y33588D01*
X202966Y33685D01*
X203655Y34732D01*
X204007Y34967D01*
X204061Y35048D01*
X204141Y35101D01*
X204195Y35182D01*
X204276Y35236D01*
X204330Y35317D01*
X204411Y35371D01*
X204465Y35452D01*
X204546Y35506D01*
X204600Y35587D01*
X204680Y35640D01*
X204734Y35721D01*
X204815Y35775D01*
X204869Y35856D01*
X204950Y35910D01*
X205004Y35991D01*
X205085Y36045D01*
X205139Y36126D01*
X205220Y36180D01*
X205274Y36260D01*
X205354Y36314D01*
X205408Y36395D01*
X205489Y36449D01*
X205543Y36530D01*
X205624Y36584D01*
X205678Y36665D01*
X205759Y36719D01*
X205813Y36799D01*
X205893Y36853D01*
X205947Y36934D01*
X206028Y36988D01*
X206082Y37069D01*
X206163Y37123D01*
X206217Y37204D01*
X206298Y37258D01*
X206622Y37744D01*
X206702Y37797D01*
X206756Y37878D01*
X206837Y37932D01*
X207279Y38593D01*
X207279Y38595D01*
X207549Y38998D01*
X207549Y38999D01*
X207818Y39402D01*
X207818Y39403D01*
X208088Y39806D01*
X208107Y39903D01*
X208222Y40076D01*
X208242Y40172D01*
X208357Y40345D01*
X208376Y40442D01*
X208492Y40615D01*
X208511Y40712D01*
X208627Y40884D01*
X208646Y40981D01*
X208762Y41154D01*
X208781Y41251D01*
X208896Y41424D01*
X208915Y41520D01*
X209031Y41693D01*
X209088Y41982D01*
X209166Y42098D01*
X209223Y42386D01*
X209301Y42502D01*
X209358Y42790D01*
X209435Y42906D01*
X209493Y43195D01*
X209570Y43310D01*
X209666Y43791D01*
X209705Y43850D01*
X209800Y44330D01*
X209840Y44389D01*
X209995Y45169D01*
Y45300D01*
X210130Y45978D01*
Y46513D01*
X210264Y47191D01*
Y49617D01*
X210130Y50294D01*
Y50830D01*
X209995Y51507D01*
Y51638D01*
X209840Y52419D01*
X209800Y52477D01*
X209705Y52958D01*
X209666Y53017D01*
X209570Y53497D01*
X209531Y53556D01*
X209435Y54036D01*
X209358Y54152D01*
X209301Y54440D01*
X209185Y54613D01*
X209166Y54710D01*
X209088Y54826D01*
X209031Y55114D01*
X208915Y55287D01*
X208896Y55384D01*
X208781Y55557D01*
X208762Y55653D01*
X208646Y55826D01*
X208627Y55923D01*
X208511Y56096D01*
X208492Y56192D01*
X208376Y56365D01*
X208357Y56462D01*
X208337Y56492D01*
X208225Y56716D01*
X208222Y56732D01*
X208133Y57146D01*
X208435Y58108D01*
X208589Y58283D01*
X208643Y58364D01*
X208724Y58418D01*
X208778Y58499D01*
X208859Y58553D01*
X208912Y58632D01*
X209398Y58957D01*
X209452Y59038D01*
X209532Y59092D01*
X209586Y59173D01*
X209667Y59226D01*
X209720Y59306D01*
X210206Y59631D01*
X210260Y59712D01*
X210341Y59766D01*
X210394Y59845D01*
X210880Y60170D01*
X210934Y60251D01*
X211015Y60305D01*
X211069Y60385D01*
X211150Y60440D01*
X211203Y60519D01*
X211689Y60844D01*
X211743Y60925D01*
X211824Y60979D01*
X211878Y61059D01*
X211958Y61113D01*
X212012Y61193D01*
X212498Y61518D01*
X212551Y61599D01*
X212632Y61652D01*
X212686Y61732D01*
X213171Y62057D01*
X213225Y62138D01*
X213306Y62192D01*
X213360Y62272D01*
X213441Y62326D01*
X213494Y62406D01*
X213980Y62731D01*
X214034Y62811D01*
X214115Y62866D01*
X214169Y62946D01*
X214250Y63000D01*
X214303Y63080D01*
X214789Y63405D01*
X214843Y63485D01*
X214923Y63539D01*
X214977Y63620D01*
X215058Y63674D01*
X215112Y63754D01*
X215597Y64078D01*
X215651Y64159D01*
X215732Y64213D01*
X215785Y64293D01*
X216271Y64618D01*
X216325Y64698D01*
X216406Y64752D01*
X216460Y64833D01*
X216541Y64887D01*
X216594Y64967D01*
X217080Y65292D01*
X217134Y65372D01*
X217215Y65426D01*
X217269Y65507D01*
X217349Y65561D01*
X217403Y65641D01*
X217889Y65965D01*
X217943Y66046D01*
X218023Y66100D01*
X218077Y66181D01*
X218158Y66235D01*
X218211Y66315D01*
X218697Y66639D01*
X218751Y66720D01*
X218832Y66774D01*
X218885Y66854D01*
X219371Y67178D01*
X219425Y67259D01*
X219506Y67313D01*
X219560Y67394D01*
X219641Y67448D01*
X219694Y67528D01*
X220180Y67852D01*
X220234Y67933D01*
X220315Y67987D01*
X220369Y68068D01*
X220449Y68122D01*
X220625Y68222D01*
X221366Y68425D01*
X222136Y68219D01*
X222424Y68162D01*
X222540Y68084D01*
X223020Y67989D01*
X223079Y67949D01*
X223859Y67794D01*
X226016D01*
X226796Y67949D01*
X226855Y67989D01*
X227335Y68084D01*
X227451Y68162D01*
X227740Y68219D01*
X227913Y68334D01*
X228009Y68354D01*
X228182Y68469D01*
X228279Y68488D01*
X228452Y68604D01*
X228548Y68623D01*
X228721Y68739D01*
X228818Y68758D01*
X229479Y69200D01*
X229533Y69281D01*
X229614Y69335D01*
X229667Y69415D01*
X230153Y69739D01*
X230207Y69820D01*
X230288Y69874D01*
X230342Y69955D01*
X230423Y70009D01*
X230477Y70089D01*
X230558Y70143D01*
X230882Y70629D01*
X230962Y70683D01*
X231404Y71344D01*
X231423Y71441D01*
X231539Y71614D01*
X231558Y71710D01*
X231674Y71883D01*
X231693Y71980D01*
X231808Y72153D01*
X231828Y72249D01*
X231943Y72422D01*
X232001Y72711D01*
X232078Y72827D01*
X232135Y73115D01*
X232213Y73231D01*
X232368Y74011D01*
Y76437D01*
X232213Y77218D01*
X232135Y77333D01*
X232078Y77622D01*
X232001Y77738D01*
X231943Y78026D01*
X231866Y78142D01*
X231808Y78431D01*
X231539Y78834D01*
X231539Y78835D01*
X231423Y79008D01*
X231404Y79105D01*
X230962Y79766D01*
X230882Y79819D01*
X230558Y80305D01*
X230477Y80359D01*
X230423Y80440D01*
X230342Y80494D01*
X230288Y80575D01*
X230207Y80629D01*
X230153Y80710D01*
X230072Y80764D01*
X230019Y80844D01*
X229533Y81169D01*
X229479Y81249D01*
X228818Y81691D01*
X228721Y81710D01*
X228548Y81826D01*
X228452Y81845D01*
X228279Y81960D01*
X228182Y81980D01*
X228009Y82095D01*
X227913Y82114D01*
X227740Y82230D01*
X227451Y82287D01*
X227335Y82365D01*
X226855Y82460D01*
X226796Y82499D01*
X226016Y82655D01*
X223859D01*
X223079Y82499D01*
X223020Y82460D01*
X222540Y82365D01*
X222424Y82287D01*
X222136Y82230D01*
X221963Y82114D01*
X221866Y82095D01*
X221693Y81980D01*
X221597Y81960D01*
X221423Y81845D01*
X221327Y81826D01*
X220924Y81556D01*
X220923Y81556D01*
X220261Y81114D01*
X220207Y81033D01*
X220126Y80979D01*
X220072Y80898D01*
X219991Y80844D01*
X219937Y80764D01*
X219857Y80710D01*
X219803Y80629D01*
X219722Y80575D01*
X219668Y80494D01*
X219587Y80440D01*
X219533Y80359D01*
X219452Y80305D01*
X219398Y80225D01*
X219318Y80170D01*
X219264Y80090D01*
X219183Y80036D01*
X219129Y79955D01*
X219048Y79901D01*
X218606Y79239D01*
X218606Y79238D01*
X218336Y78835D01*
X218317Y78738D01*
X218202Y78566D01*
X218182Y78469D01*
X218067Y78296D01*
X218048Y78199D01*
X217932Y78026D01*
X217875Y77738D01*
X217797Y77622D01*
X217664Y76950D01*
X217663Y76948D01*
X217507Y76168D01*
Y74281D01*
X217663Y73500D01*
X217702Y73442D01*
X217797Y72961D01*
X217026Y72084D01*
X216972Y72003D01*
X216892Y71949D01*
X216838Y71869D01*
X216353Y71545D01*
X216299Y71464D01*
X216218Y71410D01*
X216164Y71330D01*
X215679Y71006D01*
X215625Y70925D01*
X215544Y70871D01*
X215490Y70790D01*
X215409Y70736D01*
X215356Y70656D01*
X214870Y70332D01*
X214816Y70251D01*
X214735Y70197D01*
X214681Y70116D01*
X214600Y70062D01*
X214547Y69983D01*
X214061Y69658D01*
X214007Y69577D01*
X213927Y69523D01*
X213873Y69443D01*
X213387Y69119D01*
X213333Y69038D01*
X213253Y68984D01*
X213199Y68903D01*
X213118Y68849D01*
X213065Y68769D01*
X212579Y68445D01*
X212525Y68364D01*
X212444Y68310D01*
X212390Y68229D01*
X212309Y68175D01*
X212256Y68096D01*
X211770Y67771D01*
X211716Y67690D01*
X211635Y67636D01*
X211581Y67555D01*
X211500Y67501D01*
X211447Y67422D01*
X210961Y67097D01*
X210907Y67016D01*
X210827Y66962D01*
X210773Y66883D01*
X210287Y66558D01*
X210233Y66477D01*
X210153Y66423D01*
X210099Y66342D01*
X210018Y66288D01*
X209965Y66209D01*
X209479Y65884D01*
X209425Y65803D01*
X209344Y65749D01*
X209290Y65669D01*
X209209Y65615D01*
X209156Y65535D01*
X208670Y65210D01*
X208616Y65129D01*
X208535Y65075D01*
X208481Y64995D01*
X208401Y64941D01*
X208347Y64861D01*
X207862Y64536D01*
X207808Y64456D01*
X207727Y64402D01*
X207673Y64322D01*
X207188Y63997D01*
X207134Y63917D01*
X207053Y63863D01*
X206999Y63782D01*
X206918Y63728D01*
X206865Y63648D01*
X206379Y63323D01*
X206325Y63243D01*
X206244Y63189D01*
X206190Y63108D01*
X206109Y63054D01*
X206056Y62974D01*
X205570Y62649D01*
X205516Y62569D01*
X205436Y62515D01*
X205382Y62434D01*
X205301Y62380D01*
X205247Y62300D01*
X205245Y62298D01*
X205103Y62222D01*
X204515Y62018D01*
X203739Y62150D01*
X203473Y62242D01*
X203386Y62300D01*
X203333Y62380D01*
X202847Y62705D01*
X202794Y62784D01*
X202132Y63226D01*
X202035Y63246D01*
X201862Y63361D01*
X201861Y63361D01*
X201458Y63631D01*
X201362Y63650D01*
X201189Y63765D01*
X201092Y63785D01*
X200919Y63900D01*
X200823Y63919D01*
X200650Y64035D01*
X200553Y64054D01*
X200380Y64170D01*
X200283Y64189D01*
X200110Y64304D01*
X200014Y64324D01*
X199841Y64439D01*
X199744Y64458D01*
X199571Y64574D01*
X199561Y64579D01*
X199364Y64672D01*
X198951Y65444D01*
X198875Y65702D01*
X198868Y65977D01*
X198879Y66142D01*
X198922Y66356D01*
X198923Y66357D01*
X199056Y67030D01*
X199058Y67031D01*
X199191Y67704D01*
X199192Y67705D01*
X199288Y68186D01*
X199327Y68244D01*
X199461Y68917D01*
X199462Y68918D01*
X199596Y69591D01*
X199597Y69592D01*
X199730Y70264D01*
X199731Y70266D01*
X199865Y70938D01*
X199866Y70940D01*
X200000Y71612D01*
X200001Y71614D01*
X200096Y72094D01*
X200136Y72153D01*
X200269Y72825D01*
X200271Y72827D01*
X200404Y73499D01*
X200405Y73500D01*
X200539Y74173D01*
X200540Y74174D01*
X200674Y74847D01*
X200675Y74848D01*
X200809Y75521D01*
X200810Y75522D01*
X200943Y76195D01*
X200944Y76196D01*
X201040Y76677D01*
X201079Y76735D01*
X201213Y77407D01*
X201214Y77409D01*
X201348Y78081D01*
X201349Y78083D01*
X201483Y78755D01*
X201483Y78757D01*
X201617Y79429D01*
X201618Y79431D01*
X201752Y80103D01*
X201753Y80105D01*
X201849Y80585D01*
X201888Y80644D01*
X201995Y81185D01*
X202536Y81292D01*
X202595Y81331D01*
X203075Y81427D01*
X203134Y81466D01*
X203615Y81562D01*
X203787Y81677D01*
X203884Y81697D01*
X204057Y81812D01*
X204154Y81831D01*
X204327Y81947D01*
X204423Y81966D01*
X204596Y82082D01*
X204693Y82101D01*
X205354Y82543D01*
X205408Y82623D01*
X205893Y82947D01*
X205947Y83028D01*
X206028Y83082D01*
X206082Y83163D01*
X206163Y83217D01*
X206217Y83298D01*
X206298Y83352D01*
X206352Y83432D01*
X206432Y83486D01*
X206486Y83567D01*
X206567Y83621D01*
X207009Y84283D01*
X207010Y84284D01*
X207279Y84687D01*
X207279Y84688D01*
X207549Y85091D01*
X207568Y85188D01*
X207683Y85361D01*
X207703Y85457D01*
X207818Y85631D01*
X207875Y85919D01*
X207953Y86035D01*
X208010Y86323D01*
X208088Y86439D01*
X208221Y87111D01*
X208222Y87113D01*
X208378Y87893D01*
Y89241D01*
X208222Y90021D01*
X208221Y90023D01*
X208088Y90695D01*
X208048Y90754D01*
X207953Y91235D01*
X207837Y91407D01*
X207818Y91504D01*
X207703Y91677D01*
X207683Y91774D01*
X207568Y91947D01*
X207549Y92043D01*
X207433Y92216D01*
X207414Y92313D01*
X207144Y92716D01*
X207144Y92717D01*
X206702Y93379D01*
X206621Y93433D01*
X206567Y93513D01*
X206486Y93567D01*
X206432Y93648D01*
X206352Y93702D01*
X206298Y93783D01*
X206217Y93837D01*
X206163Y93918D01*
X206082Y93972D01*
X206028Y94052D01*
X205947Y94107D01*
X205893Y94187D01*
X205813Y94241D01*
X205759Y94322D01*
X205678Y94376D01*
X205624Y94457D01*
X204962Y94899D01*
X204961Y94899D01*
X204558Y95168D01*
X204461Y95188D01*
X204288Y95303D01*
X204192Y95322D01*
X204019Y95438D01*
X203922Y95457D01*
X203749Y95573D01*
X203461Y95630D01*
X203345Y95708D01*
X203057Y95765D01*
X202941Y95842D01*
X202160Y95997D01*
X201894D01*
X201217Y96132D01*
X200543D01*
X199865Y95997D01*
X199599D01*
X198819Y95842D01*
X198703Y95765D01*
X198415Y95708D01*
X198299Y95630D01*
X198011Y95573D01*
X197838Y95457D01*
X197741Y95438D01*
X197568Y95322D01*
X197471Y95303D01*
X197298Y95188D01*
X197202Y95168D01*
X196799Y94899D01*
X196798Y94899D01*
X196136Y94457D01*
X196082Y94376D01*
X196001Y94322D01*
X195947Y94241D01*
X195866Y94187D01*
X195812Y94107D01*
X195732Y94052D01*
X195678Y93972D01*
X195597Y93918D01*
X195543Y93837D01*
X195462Y93783D01*
X195408Y93702D01*
X195327Y93648D01*
X195273Y93567D01*
X195193Y93513D01*
X195138Y93433D01*
X195058Y93379D01*
X195004Y93298D01*
X194923Y93244D01*
X194481Y92582D01*
X194462Y92486D01*
X194346Y92313D01*
X194346Y92311D01*
X194077Y91908D01*
X194019Y91620D01*
X193942Y91504D01*
X193923Y91407D01*
X193807Y91235D01*
X193750Y90946D01*
X193672Y90830D01*
X193517Y90050D01*
Y89919D01*
X193382Y89241D01*
Y87893D01*
X193538Y87113D01*
X193538Y87111D01*
X193672Y86439D01*
X193750Y86323D01*
X193807Y86035D01*
X193884Y85919D01*
X193942Y85631D01*
X194057Y85457D01*
X194077Y85361D01*
X194192Y85188D01*
X194211Y85091D01*
X194481Y84688D01*
X194481Y84687D01*
X194750Y84284D01*
X194750Y84283D01*
X195193Y83621D01*
X195273Y83567D01*
X195327Y83486D01*
X195408Y83432D01*
X195462Y83352D01*
X195543Y83298D01*
X195597Y83217D01*
X195678Y83163D01*
X195732Y83082D01*
X195812Y83028D01*
X195866Y82947D01*
X195886Y82934D01*
X196334Y82614D01*
X196772Y81531D01*
X196638Y80858D01*
X196637Y80857D01*
X196542Y80376D01*
X196503Y80318D01*
X196369Y79645D01*
X196368Y79644D01*
X196234Y78971D01*
X196233Y78970D01*
X196099Y78298D01*
X196098Y78296D01*
X195965Y77624D01*
X195963Y77622D01*
X195830Y76950D01*
X195829Y76948D01*
X195733Y76468D01*
X195694Y76409D01*
X195560Y75737D01*
X195559Y75735D01*
X195425Y75063D01*
X195424Y75061D01*
X195291Y74389D01*
X195290Y74387D01*
X195156Y73715D01*
X195155Y73713D01*
X195021Y73041D01*
X195020Y73040D01*
X194925Y72559D01*
X194885Y72501D01*
X194752Y71828D01*
X194750Y71827D01*
X194617Y71154D01*
X194616Y71153D01*
X194482Y70480D01*
X194481Y70479D01*
X194347Y69806D01*
X194346Y69805D01*
X194212Y69133D01*
X194211Y69131D01*
X194116Y68651D01*
X194077Y68592D01*
X193943Y67920D01*
X193942Y67918D01*
X193808Y67246D01*
X193807Y67244D01*
X193673Y66572D01*
X193672Y66570D01*
X193538Y65898D01*
X193538Y65896D01*
X193520Y65807D01*
X191378D01*
X190701Y65673D01*
X190300D01*
X189622Y65538D01*
X189491D01*
X189432Y65526D01*
X189129Y65481D01*
X188593Y65679D01*
X187871Y66166D01*
X187756Y66339D01*
X187736Y66435D01*
X187621Y66609D01*
X187602Y66705D01*
X187486Y66878D01*
X187467Y66975D01*
X187389Y67091D01*
X187332Y67379D01*
X187216Y67552D01*
X187197Y67649D01*
X187082Y67821D01*
X187062Y67918D01*
X186947Y68091D01*
X186928Y68188D01*
X186812Y68361D01*
X186793Y68457D01*
X186677Y68630D01*
X186658Y68727D01*
X186542Y68900D01*
X186523Y68996D01*
X186446Y69112D01*
X186388Y69401D01*
X186273Y69574D01*
X186254Y69670D01*
X186138Y69843D01*
X186119Y69940D01*
X186003Y70113D01*
X185984Y70209D01*
X185869Y70382D01*
X185849Y70479D01*
X185734Y70652D01*
X185715Y70748D01*
X185637Y70864D01*
X185580Y71153D01*
X185464Y71326D01*
X185445Y71422D01*
X185329Y71595D01*
X185310Y71692D01*
X185195Y71865D01*
X185175Y71961D01*
X185060Y72134D01*
X185041Y72231D01*
X184925Y72404D01*
X184906Y72501D01*
X184828Y72616D01*
X184771Y72905D01*
X184656Y73078D01*
X184636Y73174D01*
X184521Y73347D01*
X184502Y73444D01*
X184386Y73617D01*
X184367Y73713D01*
X184251Y73886D01*
X184232Y73983D01*
X184116Y74156D01*
X184097Y74253D01*
X183982Y74426D01*
X183962Y74522D01*
X183885Y74638D01*
X183828Y74927D01*
X183712Y75100D01*
X183693Y75196D01*
X183577Y75369D01*
X183558Y75466D01*
X183443Y75639D01*
X183423Y75735D01*
X183308Y75908D01*
X183289Y76005D01*
X183173Y76178D01*
X183154Y76274D01*
X183076Y76390D01*
X183019Y76679D01*
X182903Y76852D01*
X182884Y76948D01*
X182769Y77121D01*
X182750Y77218D01*
X182634Y77391D01*
X182615Y77487D01*
X182499Y77660D01*
X182480Y77757D01*
X182364Y77930D01*
X182345Y78026D01*
X182230Y78199D01*
X182210Y78296D01*
X182133Y78412D01*
X182076Y78700D01*
X181960Y78873D01*
X181941Y78970D01*
X181825Y79143D01*
X181806Y79239D01*
X181691Y79412D01*
X181671Y79509D01*
X181556Y79682D01*
X181537Y79778D01*
X181421Y79951D01*
X181402Y80048D01*
X181324Y80164D01*
X181267Y80452D01*
X181151Y80625D01*
X181132Y80722D01*
X181017Y80895D01*
X180997Y80991D01*
X180882Y81165D01*
X180863Y81261D01*
X180747Y81434D01*
X180728Y81531D01*
X180612Y81704D01*
X180593Y81800D01*
X180478Y81973D01*
X180458Y82070D01*
X180381Y82185D01*
X180324Y82474D01*
X180208Y82647D01*
X180189Y82744D01*
X180073Y82916D01*
X180054Y83013D01*
X179938Y83186D01*
X179919Y83283D01*
X179804Y83456D01*
X179784Y83552D01*
X179669Y83725D01*
X179650Y83822D01*
X179572Y83938D01*
X179515Y84226D01*
X179399Y84399D01*
X179380Y84496D01*
X179265Y84669D01*
X179245Y84765D01*
X179130Y84938D01*
X179111Y85035D01*
X178995Y85208D01*
X178976Y85304D01*
X178860Y85477D01*
X178841Y85574D01*
X178725Y85747D01*
X178706Y85843D01*
X178629Y85959D01*
X178571Y86248D01*
X178456Y86421D01*
X178437Y86517D01*
X178321Y86690D01*
X178302Y86787D01*
X178186Y86960D01*
X178167Y87056D01*
X178051Y87229D01*
X178032Y87326D01*
X177917Y87499D01*
X177897Y87596D01*
X177820Y87711D01*
X177763Y88000D01*
X177647Y88173D01*
X177628Y88269D01*
X177512Y88442D01*
X177493Y88539D01*
X177378Y88712D01*
X177358Y88808D01*
X177243Y88982D01*
X177224Y89078D01*
X177108Y89251D01*
X177089Y89348D01*
X176973Y89521D01*
X176954Y89617D01*
X176877Y89733D01*
X176819Y90021D01*
X176704Y90195D01*
X176684Y90291D01*
X176569Y90464D01*
X176550Y90561D01*
X176434Y90734D01*
X176415Y90830D01*
X176299Y91003D01*
X176280Y91100D01*
X176165Y91273D01*
X176145Y91369D01*
X176068Y91485D01*
X176011Y91774D01*
X175974Y91829D01*
X175912Y91954D01*
X175797Y92321D01*
X175854Y92753D01*
X176079Y93537D01*
X176108Y93595D01*
X176162Y93675D01*
X176243Y93729D01*
X176297Y93810D01*
X176377Y93864D01*
X176431Y93945D01*
X176512Y93999D01*
X176566Y94080D01*
X176647Y94134D01*
X176971Y94620D01*
X177051Y94673D01*
X177493Y95334D01*
X177493Y95336D01*
X177763Y95739D01*
X177763Y95740D01*
X178032Y96143D01*
X178051Y96240D01*
X178167Y96413D01*
X178186Y96509D01*
X178302Y96682D01*
X178321Y96779D01*
X178437Y96952D01*
X178494Y97240D01*
X178571Y97356D01*
X178591Y97453D01*
X178706Y97626D01*
X178764Y97914D01*
X178841Y98030D01*
X178937Y98510D01*
X178976Y98569D01*
X179131Y99349D01*
Y99480D01*
X179266Y100158D01*
Y102854D01*
X179111Y103634D01*
X179109Y103636D01*
X178976Y104308D01*
X178937Y104367D01*
X178841Y104847D01*
X178764Y104963D01*
X178706Y105251D01*
X178629Y105367D01*
X178571Y105656D01*
X178456Y105829D01*
X178437Y105925D01*
X178321Y106098D01*
X178302Y106195D01*
X178186Y106368D01*
X178167Y106464D01*
X178051Y106637D01*
X178032Y106734D01*
X177917Y106907D01*
X177897Y107003D01*
X177628Y107406D01*
X177628Y107408D01*
X177359Y107811D01*
X177358Y107812D01*
X176916Y108474D01*
X176836Y108528D01*
X176782Y108608D01*
X176701Y108662D01*
X176647Y108743D01*
X176566Y108797D01*
X176512Y108878D01*
X176431Y108932D01*
X176377Y109013D01*
X176297Y109067D01*
X176243Y109148D01*
X176162Y109201D01*
X176108Y109282D01*
X176027Y109336D01*
X175973Y109417D01*
X175892Y109471D01*
X175838Y109552D01*
X175757Y109606D01*
X175703Y109687D01*
X175623Y109741D01*
X175569Y109821D01*
X175488Y109875D01*
X175434Y109956D01*
X175353Y110010D01*
X175299Y110091D01*
X175218Y110145D01*
X175164Y110226D01*
X174503Y110668D01*
X174171Y111171D01*
X174384Y111819D01*
X174963Y112441D01*
X252833D01*
X253688Y111587D01*
X253688Y111587D01*
X254680Y110924D01*
X255851Y110691D01*
X261148D01*
X261926Y110571D01*
X262573Y109540D01*
X262848Y108159D01*
X264174Y106174D01*
X265561Y105247D01*
X265674Y104680D01*
X266337Y103688D01*
X266508Y103517D01*
X266090Y102139D01*
X264922Y101907D01*
X262937Y100580D01*
X261611Y98596D01*
X261145Y96255D01*
X261611Y93914D01*
X262937Y91929D01*
X262993Y91892D01*
Y90881D01*
X262848Y90461D01*
X261598Y88591D01*
X261132Y86250D01*
X261598Y83909D01*
X262924Y81924D01*
X263299Y81674D01*
Y80617D01*
X263137Y80254D01*
X261861Y78345D01*
X261395Y76004D01*
X261861Y73663D01*
X263187Y71678D01*
X265172Y70352D01*
X267513Y69886D01*
X269854Y70352D01*
X271839Y71678D01*
X272685Y72945D01*
X275666D01*
X288523Y60087D01*
X288524Y60087D01*
X289516Y59424D01*
X290686Y59191D01*
X388814D01*
X388814Y59191D01*
X389984Y59424D01*
X390977Y60087D01*
X434413Y103523D01*
X435076Y104516D01*
X435309Y105686D01*
X435309Y105687D01*
Y144983D01*
X497563Y207237D01*
X497563Y207237D01*
X498226Y208229D01*
X498459Y209400D01*
Y209435D01*
X499729Y210061D01*
X501109Y209002D01*
X503420Y208044D01*
X505900Y207718D01*
X508380Y208044D01*
X510691Y209002D01*
X512676Y210525D01*
X514198Y212509D01*
X515155Y214820D01*
X515482Y217300D01*
X515155Y219780D01*
X514198Y222091D01*
X513139Y223471D01*
X513765Y224741D01*
X516400D01*
X516400Y224741D01*
X517570Y224974D01*
X518563Y225637D01*
X527088Y234162D01*
X528820Y233444D01*
X531300Y233118D01*
X533780Y233444D01*
X536091Y234402D01*
X538075Y235924D01*
X539598Y237909D01*
X540555Y240220D01*
X540882Y242700D01*
X540555Y245180D01*
X539598Y247491D01*
X538075Y249475D01*
X536091Y250998D01*
X533780Y251956D01*
X531300Y252282D01*
D02*
G37*
G36*
X403030Y252659D02*
X401679Y252482D01*
X399237Y251470D01*
X397139Y249861D01*
X395530Y247763D01*
X394518Y245321D01*
X394341Y243970D01*
X403030D01*
Y252659D01*
D02*
G37*
G36*
X278570D02*
Y243970D01*
X287259D01*
X287082Y245321D01*
X286070Y247763D01*
X284461Y249861D01*
X282363Y251470D01*
X279921Y252482D01*
X278570Y252659D01*
D02*
G37*
G36*
X405570D02*
Y243970D01*
X414259D01*
X414082Y245321D01*
X413070Y247763D01*
X411461Y249861D01*
X409363Y251470D01*
X406921Y252482D01*
X405570Y252659D01*
D02*
G37*
G36*
X456370D02*
Y243970D01*
X465059D01*
X464882Y245321D01*
X463870Y247763D01*
X462261Y249861D01*
X460163Y251470D01*
X457721Y252482D01*
X456370Y252659D01*
D02*
G37*
G36*
X453830D02*
X452479Y252482D01*
X450037Y251470D01*
X447939Y249861D01*
X446330Y247763D01*
X445318Y245321D01*
X445141Y243970D01*
X453830D01*
Y252659D01*
D02*
G37*
G36*
X100770D02*
Y243970D01*
X109459D01*
X109282Y245321D01*
X108270Y247763D01*
X106661Y249861D01*
X104563Y251470D01*
X102121Y252482D01*
X100770Y252659D01*
D02*
G37*
G36*
X98230D02*
X96879Y252482D01*
X94437Y251470D01*
X92339Y249861D01*
X90730Y247763D01*
X89719Y245321D01*
X89541Y243970D01*
X98230D01*
Y252659D01*
D02*
G37*
G36*
X199830D02*
X198479Y252482D01*
X196037Y251470D01*
X193939Y249861D01*
X192330Y247763D01*
X191318Y245321D01*
X191141Y243970D01*
X199830D01*
Y252659D01*
D02*
G37*
G36*
X276030D02*
X274679Y252482D01*
X272237Y251470D01*
X270139Y249861D01*
X268530Y247763D01*
X267518Y245321D01*
X267341Y243970D01*
X276030D01*
Y252659D01*
D02*
G37*
G36*
X202370D02*
Y243970D01*
X211059D01*
X210882Y245321D01*
X209870Y247763D01*
X208261Y249861D01*
X206163Y251470D01*
X203721Y252482D01*
X202370Y252659D01*
D02*
G37*
G36*
X465059Y241430D02*
X456370D01*
Y232741D01*
X457721Y232918D01*
X460163Y233930D01*
X462261Y235539D01*
X463870Y237637D01*
X464882Y240079D01*
X465059Y241430D01*
D02*
G37*
G36*
X124900Y226882D02*
X122420Y226556D01*
X120109Y225598D01*
X118125Y224075D01*
X116602Y222091D01*
X115645Y219780D01*
X115318Y217300D01*
X115645Y214820D01*
X116602Y212509D01*
X118125Y210525D01*
X120109Y209002D01*
X122420Y208044D01*
X124900Y207718D01*
X127380Y208044D01*
X129691Y209002D01*
X131676Y210525D01*
X133198Y212509D01*
X134156Y214820D01*
X134482Y217300D01*
X134156Y219780D01*
X133198Y222091D01*
X131676Y224075D01*
X129691Y225598D01*
X127380Y226556D01*
X124900Y226882D01*
D02*
G37*
G36*
X530030Y227259D02*
X528679Y227082D01*
X526237Y226070D01*
X524139Y224461D01*
X522530Y222363D01*
X521518Y219921D01*
X521341Y218570D01*
X530030D01*
Y227259D01*
D02*
G37*
G36*
X99500Y226882D02*
X97020Y226556D01*
X94709Y225598D01*
X92725Y224075D01*
X91202Y222091D01*
X90245Y219780D01*
X89918Y217300D01*
X90245Y214820D01*
X91202Y212509D01*
X92725Y210525D01*
X94709Y209002D01*
X97020Y208044D01*
X99500Y207718D01*
X101980Y208044D01*
X104291Y209002D01*
X106276Y210525D01*
X107798Y212509D01*
X108756Y214820D01*
X109082Y217300D01*
X108756Y219780D01*
X107798Y222091D01*
X106276Y224075D01*
X104291Y225598D01*
X101980Y226556D01*
X99500Y226882D01*
D02*
G37*
G36*
X199830Y241430D02*
X191141D01*
X191318Y240079D01*
X192330Y237637D01*
X193939Y235539D01*
X196037Y233930D01*
X198479Y232918D01*
X199830Y232741D01*
Y241430D01*
D02*
G37*
G36*
X532570Y227259D02*
Y218570D01*
X541259D01*
X541082Y219921D01*
X540070Y222363D01*
X538461Y224461D01*
X536363Y226070D01*
X533921Y227082D01*
X532570Y227259D01*
D02*
G37*
G36*
X354770D02*
Y218570D01*
X363459D01*
X363282Y219921D01*
X362270Y222363D01*
X360661Y224461D01*
X358563Y226070D01*
X356121Y227082D01*
X354770Y227259D01*
D02*
G37*
G36*
X455100Y226882D02*
X452620Y226556D01*
X450309Y225598D01*
X448325Y224075D01*
X446802Y222091D01*
X445844Y219780D01*
X445518Y217300D01*
X445844Y214820D01*
X446802Y212509D01*
X448325Y210525D01*
X450309Y209002D01*
X452620Y208044D01*
X455100Y207718D01*
X457580Y208044D01*
X459891Y209002D01*
X461875Y210525D01*
X463398Y212509D01*
X464356Y214820D01*
X464682Y217300D01*
X464356Y219780D01*
X463398Y222091D01*
X461875Y224075D01*
X459891Y225598D01*
X457580Y226556D01*
X455100Y226882D01*
D02*
G37*
G36*
X378900D02*
X376420Y226556D01*
X374109Y225598D01*
X372125Y224075D01*
X370602Y222091D01*
X369645Y219780D01*
X369318Y217300D01*
X369645Y214820D01*
X370602Y212509D01*
X372125Y210525D01*
X374109Y209002D01*
X376420Y208044D01*
X378900Y207718D01*
X381380Y208044D01*
X383691Y209002D01*
X385676Y210525D01*
X387198Y212509D01*
X388156Y214820D01*
X388482Y217300D01*
X388156Y219780D01*
X387198Y222091D01*
X385676Y224075D01*
X383691Y225598D01*
X381380Y226556D01*
X378900Y226882D01*
D02*
G37*
G36*
X56200Y226839D02*
X41200D01*
X40420Y226684D01*
X39758Y226242D01*
X39316Y225580D01*
X39161Y224800D01*
Y209800D01*
X39316Y209020D01*
X39758Y208358D01*
X40420Y207916D01*
X41200Y207761D01*
X56200D01*
X56980Y207916D01*
X57642Y208358D01*
X58084Y209020D01*
X58239Y209800D01*
Y224800D01*
X58084Y225580D01*
X57642Y226242D01*
X56980Y226684D01*
X56200Y226839D01*
D02*
G37*
G36*
X151520Y227259D02*
Y218570D01*
X160209D01*
X160032Y219921D01*
X159020Y222363D01*
X157411Y224461D01*
X155313Y226070D01*
X152871Y227082D01*
X151520Y227259D01*
D02*
G37*
G36*
X148980D02*
X147629Y227082D01*
X145187Y226070D01*
X143089Y224461D01*
X141480Y222363D01*
X140468Y219921D01*
X140291Y218570D01*
X148980D01*
Y227259D01*
D02*
G37*
G36*
X403030Y241430D02*
X394341D01*
X394518Y240079D01*
X395530Y237637D01*
X397139Y235539D01*
X399237Y233930D01*
X401679Y232918D01*
X403030Y232741D01*
Y241430D01*
D02*
G37*
G36*
X74100Y226882D02*
X71620Y226556D01*
X69309Y225598D01*
X67325Y224075D01*
X65802Y222091D01*
X64844Y219780D01*
X64518Y217300D01*
X64844Y214820D01*
X65802Y212509D01*
X67325Y210525D01*
X69309Y209002D01*
X71620Y208044D01*
X74100Y207718D01*
X76580Y208044D01*
X78891Y209002D01*
X80876Y210525D01*
X82398Y212509D01*
X83356Y214820D01*
X83682Y217300D01*
X83356Y219780D01*
X82398Y222091D01*
X80876Y224075D01*
X78891Y225598D01*
X76580Y226556D01*
X74100Y226882D01*
D02*
G37*
G36*
X453830Y241430D02*
X445141D01*
X445318Y240079D01*
X446330Y237637D01*
X447939Y235539D01*
X450037Y233930D01*
X452479Y232918D01*
X453830Y232741D01*
Y241430D01*
D02*
G37*
G36*
X414259D02*
X405570D01*
Y232741D01*
X406921Y232918D01*
X409363Y233930D01*
X411461Y235539D01*
X413070Y237637D01*
X414082Y240079D01*
X414259Y241430D01*
D02*
G37*
G36*
X287259D02*
X278570D01*
Y232741D01*
X279921Y232918D01*
X282363Y233930D01*
X284461Y235539D01*
X286070Y237637D01*
X287082Y240079D01*
X287259Y241430D01*
D02*
G37*
G36*
X276030D02*
X267341D01*
X267518Y240079D01*
X268530Y237637D01*
X270139Y235539D01*
X272237Y233930D01*
X274679Y232918D01*
X276030Y232741D01*
Y241430D01*
D02*
G37*
G36*
X211059D02*
X202370D01*
Y232741D01*
X203721Y232918D01*
X206163Y233930D01*
X208261Y235539D01*
X209870Y237637D01*
X210882Y240079D01*
X211059Y241430D01*
D02*
G37*
%LPD*%
G36*
X260941Y229283D02*
Y223144D01*
X259671Y222713D01*
X258625Y224075D01*
X256641Y225598D01*
X254330Y226556D01*
X251850Y226882D01*
X249370Y226556D01*
X247059Y225598D01*
X245075Y224075D01*
X243552Y222091D01*
X242595Y219780D01*
X242268Y217300D01*
X242595Y214820D01*
X243552Y212509D01*
X245075Y210525D01*
X247059Y209002D01*
X249370Y208044D01*
X251850Y207718D01*
X254330Y208044D01*
X256641Y209002D01*
X258625Y210525D01*
X259671Y211887D01*
X260941Y211456D01*
Y203250D01*
X260941Y203250D01*
X261174Y202080D01*
X261837Y201087D01*
X269691Y193233D01*
Y167672D01*
X268424Y166826D01*
X267098Y164841D01*
X266632Y162500D01*
X267098Y160159D01*
X268424Y158174D01*
X270409Y156848D01*
X272750Y156383D01*
X275091Y156848D01*
X277076Y158174D01*
X278402Y160159D01*
X278490Y160600D01*
X279705Y160969D01*
X340180Y100494D01*
X339883Y99000D01*
X340348Y96659D01*
X341674Y94674D01*
X343659Y93348D01*
X346000Y92882D01*
X348341Y93348D01*
X350326Y94674D01*
X350604Y95091D01*
X351801Y94596D01*
X351632Y93750D01*
X352098Y91409D01*
X353424Y89424D01*
X355409Y88098D01*
X357750Y87633D01*
X360091Y88098D01*
X360799Y88571D01*
X361942Y87808D01*
X361632Y86250D01*
X362098Y83909D01*
X362653Y83079D01*
X361974Y81809D01*
X306767D01*
X287488Y101087D01*
X288114Y102258D01*
X290000Y101882D01*
X292341Y102348D01*
X294326Y103674D01*
X295652Y105659D01*
X296118Y108000D01*
X295718Y110011D01*
X296821Y110704D01*
X306906Y100619D01*
X306882Y100500D01*
X307348Y98159D01*
X308674Y96174D01*
X310659Y94848D01*
X313000Y94382D01*
X315341Y94848D01*
X317326Y96174D01*
X318652Y98159D01*
X319118Y100500D01*
X318652Y102841D01*
X317326Y104826D01*
X315341Y106152D01*
X314719Y106276D01*
X314458Y107622D01*
X315652Y109409D01*
X316117Y111750D01*
X315652Y114091D01*
X314326Y116076D01*
X312341Y117402D01*
X310000Y117867D01*
X307659Y117402D01*
X306713Y116770D01*
X214520Y208963D01*
X213527Y209626D01*
X212357Y209859D01*
X212357Y209859D01*
X208965D01*
X208339Y211129D01*
X209398Y212509D01*
X210355Y214820D01*
X210682Y217300D01*
X210355Y219780D01*
X209398Y222091D01*
X208538Y223212D01*
X214278Y228953D01*
X237339D01*
X238186Y227686D01*
X240171Y226359D01*
X242512Y225894D01*
X244853Y226359D01*
X246838Y227686D01*
X248164Y229670D01*
X248629Y232011D01*
X248516Y232583D01*
X249646Y233408D01*
X251850Y233118D01*
X254330Y233444D01*
X256062Y234162D01*
X260941Y229283D01*
D02*
G37*
G36*
X478020Y208044D02*
X479966Y207788D01*
X480468Y206495D01*
X428482Y154509D01*
X427309Y154995D01*
Y159783D01*
X476288Y208762D01*
X478020Y208044D01*
D02*
G37*
G36*
X169410Y110401D02*
X170218D01*
Y110266D01*
X170757D01*
Y110132D01*
X171162D01*
Y109997D01*
X171566D01*
Y109862D01*
X171835D01*
Y109727D01*
X172105D01*
Y109593D01*
X172375D01*
Y109458D01*
X172644D01*
Y109323D01*
X172914D01*
Y109188D01*
X173048D01*
Y109053D01*
X173318D01*
Y108919D01*
X173453D01*
Y108784D01*
X173722D01*
Y108649D01*
X173857D01*
Y108514D01*
X173992D01*
Y108379D01*
X174127D01*
Y108245D01*
X174261D01*
Y108110D01*
X174396D01*
Y107975D01*
X174531D01*
Y107840D01*
X174666D01*
Y107706D01*
X174801D01*
Y107571D01*
X174935D01*
Y107436D01*
X175070D01*
Y107301D01*
X175205D01*
Y107167D01*
X175340D01*
Y107032D01*
X175474D01*
Y106762D01*
X175609D01*
Y106627D01*
X175744D01*
Y106358D01*
X175879D01*
Y106223D01*
X176014D01*
Y105954D01*
X176148D01*
Y105684D01*
X176283D01*
Y105414D01*
X176418D01*
Y105145D01*
X176553D01*
Y104875D01*
X176687D01*
Y104471D01*
X176822D01*
Y104067D01*
X176957D01*
Y103527D01*
X177092D01*
Y102854D01*
X177227D01*
Y100158D01*
X177092D01*
Y99349D01*
X176957D01*
Y98810D01*
X176822D01*
Y98406D01*
X176687D01*
Y98136D01*
X176553D01*
Y97732D01*
X176418D01*
Y97463D01*
X176283D01*
Y97193D01*
X176148D01*
Y96924D01*
X176014D01*
Y96789D01*
X175879D01*
Y96519D01*
X175744D01*
Y96384D01*
X175609D01*
Y96115D01*
X175474D01*
Y95980D01*
X175340D01*
Y95845D01*
X175205D01*
Y95576D01*
X175070D01*
Y95441D01*
X174935D01*
Y95306D01*
X174801D01*
Y95171D01*
X174666D01*
Y95037D01*
X174531D01*
Y94902D01*
X174396D01*
Y94767D01*
X174261D01*
Y94632D01*
X174127D01*
Y94497D01*
X173992D01*
Y94363D01*
X173722D01*
Y94228D01*
X173588D01*
Y94093D01*
X173453D01*
Y93958D01*
X173183D01*
Y93824D01*
X173048D01*
Y93689D01*
X172779D01*
Y93554D01*
X172914D01*
Y93285D01*
X173048D01*
Y93015D01*
X173183D01*
Y92611D01*
X173318D01*
Y92341D01*
X173453D01*
Y92072D01*
X173588D01*
Y91802D01*
X173722D01*
Y91532D01*
X173857D01*
Y91263D01*
X173992D01*
Y90993D01*
X174127D01*
Y90589D01*
X174261D01*
Y90319D01*
X174396D01*
Y90050D01*
X174531D01*
Y89780D01*
X174666D01*
Y89511D01*
X174801D01*
Y89241D01*
X174935D01*
Y88837D01*
X175070D01*
Y88567D01*
X175205D01*
Y88298D01*
X175340D01*
Y88028D01*
X175474D01*
Y87759D01*
X175609D01*
Y87489D01*
X175744D01*
Y87219D01*
X175879D01*
Y86815D01*
X176014D01*
Y86546D01*
X176148D01*
Y86276D01*
X176283D01*
Y86006D01*
X176418D01*
Y85737D01*
X176553D01*
Y85467D01*
X176687D01*
Y85063D01*
X176822D01*
Y84794D01*
X176957D01*
Y84524D01*
X177092D01*
Y84254D01*
X177227D01*
Y83985D01*
X177361D01*
Y83715D01*
X177496D01*
Y83446D01*
X177631D01*
Y83041D01*
X177766D01*
Y82772D01*
X177900D01*
Y82502D01*
X178035D01*
Y82233D01*
X178170D01*
Y81963D01*
X178305D01*
Y81694D01*
X178440D01*
Y81289D01*
X178574D01*
Y81020D01*
X178709D01*
Y80750D01*
X178844D01*
Y80481D01*
X178979D01*
Y80211D01*
X179113D01*
Y79942D01*
X179248D01*
Y79672D01*
X179383D01*
Y79268D01*
X179518D01*
Y78998D01*
X179653D01*
Y78728D01*
X179787D01*
Y78459D01*
X179922D01*
Y78189D01*
X180057D01*
Y77920D01*
X180192D01*
Y77516D01*
X180326D01*
Y77246D01*
X180461D01*
Y76976D01*
X180596D01*
Y76707D01*
X180731D01*
Y76437D01*
X180865D01*
Y76168D01*
X181000D01*
Y75898D01*
X181135D01*
Y75494D01*
X181270D01*
Y75224D01*
X181405D01*
Y74955D01*
X181539D01*
Y74685D01*
X181674D01*
Y74416D01*
X181809D01*
Y74146D01*
X181944D01*
Y73742D01*
X182078D01*
Y73472D01*
X182213D01*
Y73203D01*
X182348D01*
Y72933D01*
X182483D01*
Y72664D01*
X182618D01*
Y72394D01*
X182752D01*
Y72125D01*
X182887D01*
Y71720D01*
X183022D01*
Y71451D01*
X183157D01*
Y71181D01*
X183291D01*
Y70911D01*
X183426D01*
Y70642D01*
X183561D01*
Y70372D01*
X183696D01*
Y69968D01*
X183831D01*
Y69699D01*
X183965D01*
Y69429D01*
X184100D01*
Y69159D01*
X184235D01*
Y68890D01*
X184370D01*
Y68620D01*
X184505D01*
Y68216D01*
X184639D01*
Y67946D01*
X184774D01*
Y67677D01*
X184909D01*
Y67407D01*
X185044D01*
Y67138D01*
X185178D01*
Y66868D01*
X185313D01*
Y66599D01*
X185448D01*
Y66194D01*
X185583D01*
Y65925D01*
X185718D01*
Y65655D01*
X185852D01*
Y65386D01*
X185987D01*
Y65116D01*
X186122D01*
Y64847D01*
X186257D01*
Y64442D01*
X186391D01*
Y64173D01*
X186526D01*
Y63903D01*
X186661D01*
Y63633D01*
X186796D01*
Y63364D01*
X186931D01*
Y63094D01*
X187065D01*
Y62825D01*
X187604D01*
Y62960D01*
X188009D01*
Y63094D01*
X188413D01*
Y63229D01*
X188952D01*
Y63364D01*
X189491D01*
Y63499D01*
X190300D01*
Y63633D01*
X191378D01*
Y63768D01*
X194343D01*
Y63633D01*
X195152D01*
Y63903D01*
X195287D01*
Y64442D01*
X195422D01*
Y65116D01*
X195556D01*
Y65790D01*
X195691D01*
Y66464D01*
X195826D01*
Y67138D01*
X195961D01*
Y67812D01*
X196095D01*
Y68351D01*
X196230D01*
Y69025D01*
X196365D01*
Y69699D01*
X196500D01*
Y70372D01*
X196634D01*
Y71046D01*
X196769D01*
Y71720D01*
X196904D01*
Y72259D01*
X197039D01*
Y72933D01*
X197174D01*
Y73607D01*
X197308D01*
Y74281D01*
X197443D01*
Y74955D01*
X197578D01*
Y75629D01*
X197713D01*
Y76168D01*
X197847D01*
Y76842D01*
X197982D01*
Y77516D01*
X198117D01*
Y78189D01*
X198252D01*
Y78863D01*
X198386D01*
Y79537D01*
X198521D01*
Y80076D01*
X198656D01*
Y80750D01*
X198791D01*
Y81424D01*
X198926D01*
Y82098D01*
X199060D01*
Y82772D01*
X199195D01*
Y83446D01*
X198926D01*
Y83581D01*
X198656D01*
Y83715D01*
X198386D01*
Y83850D01*
X198117D01*
Y83985D01*
X197847D01*
Y84120D01*
X197713D01*
Y84254D01*
X197578D01*
Y84389D01*
X197308D01*
Y84524D01*
X197174D01*
Y84659D01*
X197039D01*
Y84794D01*
X196904D01*
Y84928D01*
X196769D01*
Y85063D01*
X196634D01*
Y85333D01*
X196500D01*
Y85467D01*
X196365D01*
Y85737D01*
X196230D01*
Y85872D01*
X196095D01*
Y86141D01*
X195961D01*
Y86411D01*
X195826D01*
Y86815D01*
X195691D01*
Y87219D01*
X195556D01*
Y87893D01*
X195422D01*
Y89241D01*
X195556D01*
Y90050D01*
X195691D01*
Y90454D01*
X195826D01*
Y90724D01*
X195961D01*
Y91128D01*
X196095D01*
Y91263D01*
X196230D01*
Y91532D01*
X196365D01*
Y91802D01*
X196500D01*
Y91937D01*
X196634D01*
Y92072D01*
X196769D01*
Y92206D01*
X196904D01*
Y92341D01*
X197039D01*
Y92476D01*
X197174D01*
Y92611D01*
X197308D01*
Y92745D01*
X197443D01*
Y92880D01*
X197578D01*
Y93015D01*
X197847D01*
Y93150D01*
X197982D01*
Y93285D01*
X198252D01*
Y93419D01*
X198521D01*
Y93554D01*
X198791D01*
Y93689D01*
X199195D01*
Y93824D01*
X199599D01*
Y93958D01*
X200543D01*
Y94093D01*
X201217D01*
Y93958D01*
X202160D01*
Y93824D01*
X202565D01*
Y93689D01*
X202969D01*
Y93554D01*
X203239D01*
Y93419D01*
X203508D01*
Y93285D01*
X203778D01*
Y93150D01*
X203912D01*
Y93015D01*
X204182D01*
Y92880D01*
X204317D01*
Y92745D01*
X204452D01*
Y92611D01*
X204586D01*
Y92476D01*
X204721D01*
Y92341D01*
X204856D01*
Y92206D01*
X204991D01*
Y92072D01*
X205125D01*
Y91937D01*
X205260D01*
Y91667D01*
X205395D01*
Y91532D01*
X205530D01*
Y91263D01*
X205665D01*
Y90993D01*
X205799D01*
Y90724D01*
X205934D01*
Y90454D01*
X206069D01*
Y89915D01*
X206204D01*
Y89241D01*
X206338D01*
Y87893D01*
X206204D01*
Y87219D01*
X206069D01*
Y86815D01*
X205934D01*
Y86411D01*
X205799D01*
Y86141D01*
X205665D01*
Y85872D01*
X205530D01*
Y85737D01*
X205395D01*
Y85467D01*
X205260D01*
Y85333D01*
X205125D01*
Y85063D01*
X204991D01*
Y84928D01*
X204856D01*
Y84794D01*
X204721D01*
Y84659D01*
X204586D01*
Y84524D01*
X204452D01*
Y84389D01*
X204182D01*
Y84254D01*
X204047D01*
Y84120D01*
X203912D01*
Y83985D01*
X203643D01*
Y83850D01*
X203373D01*
Y83715D01*
X203104D01*
Y83581D01*
X202834D01*
Y83446D01*
X202295D01*
Y83311D01*
X201756D01*
Y83176D01*
X200273D01*
Y82772D01*
X200139D01*
Y82098D01*
X200004D01*
Y81424D01*
X199869D01*
Y80885D01*
X199734D01*
Y80211D01*
X199599D01*
Y79537D01*
X199465D01*
Y78863D01*
X199330D01*
Y78189D01*
X199195D01*
Y77516D01*
X199060D01*
Y76976D01*
X198926D01*
Y76303D01*
X198791D01*
Y75629D01*
X198656D01*
Y74955D01*
X198521D01*
Y74281D01*
X198386D01*
Y73607D01*
X198252D01*
Y72933D01*
X198117D01*
Y72394D01*
X197982D01*
Y71720D01*
X197847D01*
Y71046D01*
X197713D01*
Y70372D01*
X197578D01*
Y69699D01*
X197443D01*
Y69025D01*
X197308D01*
Y68485D01*
X197174D01*
Y67812D01*
X197039D01*
Y67138D01*
X196904D01*
Y66464D01*
X196769D01*
Y65790D01*
X196634D01*
Y65116D01*
X196500D01*
Y64577D01*
X196365D01*
Y63903D01*
X196230D01*
Y63364D01*
X196769D01*
Y63229D01*
X197174D01*
Y63094D01*
X197713D01*
Y62960D01*
X198117D01*
Y62825D01*
X198386D01*
Y62690D01*
X198791D01*
Y62555D01*
X199060D01*
Y62421D01*
X199330D01*
Y62286D01*
X199599D01*
Y62151D01*
X199869D01*
Y62016D01*
X200139D01*
Y61881D01*
X200408D01*
Y61747D01*
X200678D01*
Y61612D01*
X200812D01*
Y61477D01*
X201082D01*
Y61342D01*
X201352D01*
Y61207D01*
X201486D01*
Y61073D01*
X201621D01*
Y60938D01*
X201891D01*
Y60803D01*
X202026D01*
Y60668D01*
X202160D01*
Y60534D01*
X202430D01*
Y60399D01*
X202565D01*
Y60264D01*
X202699D01*
Y60129D01*
X202834D01*
Y59995D01*
X202969D01*
Y59860D01*
X203104D01*
Y59725D01*
X203373D01*
Y59590D01*
X203508D01*
Y59455D01*
X203643D01*
Y59321D01*
X203778D01*
Y59186D01*
X203912D01*
Y59051D01*
X204047D01*
Y58916D01*
X204182D01*
Y58781D01*
X204317D01*
Y58916D01*
X204452D01*
Y59051D01*
X204586D01*
Y59186D01*
X204721D01*
Y59321D01*
X204991D01*
Y59455D01*
X205125D01*
Y59590D01*
X205260D01*
Y59725D01*
X205395D01*
Y59860D01*
X205530D01*
Y59995D01*
X205799D01*
Y60129D01*
X205934D01*
Y60264D01*
X206069D01*
Y60399D01*
X206204D01*
Y60534D01*
X206473D01*
Y60668D01*
X206608D01*
Y60803D01*
X206743D01*
Y60938D01*
X206877D01*
Y61073D01*
X207012D01*
Y61207D01*
X207282D01*
Y61342D01*
X207417D01*
Y61477D01*
X207551D01*
Y61612D01*
X207686D01*
Y61747D01*
X207821D01*
Y61881D01*
X208090D01*
Y62016D01*
X208225D01*
Y62151D01*
X208360D01*
Y62286D01*
X208495D01*
Y62421D01*
X208630D01*
Y62555D01*
X208899D01*
Y62690D01*
X209034D01*
Y62825D01*
X209169D01*
Y62960D01*
X209303D01*
Y63094D01*
X209573D01*
Y63229D01*
X209708D01*
Y63364D01*
X209843D01*
Y63499D01*
X209977D01*
Y63633D01*
X210112D01*
Y63768D01*
X210382D01*
Y63903D01*
X210516D01*
Y64038D01*
X210651D01*
Y64173D01*
X210786D01*
Y64307D01*
X210921D01*
Y64442D01*
X211190D01*
Y64577D01*
X211325D01*
Y64712D01*
X211460D01*
Y64847D01*
X211595D01*
Y64981D01*
X211730D01*
Y65116D01*
X211999D01*
Y65251D01*
X212134D01*
Y65386D01*
X212269D01*
Y65520D01*
X212403D01*
Y65655D01*
X212673D01*
Y65790D01*
X212808D01*
Y65925D01*
X212942D01*
Y66059D01*
X213077D01*
Y66194D01*
X213212D01*
Y66329D01*
X213482D01*
Y66464D01*
X213616D01*
Y66599D01*
X213751D01*
Y66733D01*
X213886D01*
Y66868D01*
X214021D01*
Y67003D01*
X214290D01*
Y67138D01*
X214425D01*
Y67273D01*
X214560D01*
Y67407D01*
X214695D01*
Y67542D01*
X214829D01*
Y67677D01*
X215099D01*
Y67812D01*
X215234D01*
Y67946D01*
X215368D01*
Y68081D01*
X215503D01*
Y68216D01*
X215773D01*
Y68351D01*
X215908D01*
Y68485D01*
X216042D01*
Y68620D01*
X216177D01*
Y68755D01*
X216312D01*
Y68890D01*
X216581D01*
Y69025D01*
X216716D01*
Y69159D01*
X216851D01*
Y69294D01*
X216986D01*
Y69429D01*
X217120D01*
Y69564D01*
X217390D01*
Y69699D01*
X217525D01*
Y69833D01*
X217660D01*
Y69968D01*
X217794D01*
Y70103D01*
X218064D01*
Y70238D01*
X218199D01*
Y70372D01*
X218333D01*
Y70507D01*
X218468D01*
Y70642D01*
X218603D01*
Y70777D01*
X218873D01*
Y70911D01*
X219007D01*
Y71046D01*
X219142D01*
Y71181D01*
X219277D01*
Y71316D01*
X219412D01*
Y71451D01*
X219681D01*
Y71585D01*
X219816D01*
Y71720D01*
X219951D01*
Y71855D01*
X220086D01*
Y71990D01*
X220220D01*
Y72125D01*
X220355D01*
Y72394D01*
X220220D01*
Y72664D01*
X220086D01*
Y72933D01*
X219951D01*
Y73337D01*
X219816D01*
Y73742D01*
X219681D01*
Y74281D01*
X219547D01*
Y76168D01*
X219681D01*
Y76842D01*
X219816D01*
Y77246D01*
X219951D01*
Y77516D01*
X220086D01*
Y77785D01*
X220220D01*
Y78055D01*
X220355D01*
Y78189D01*
X220490D01*
Y78459D01*
X220625D01*
Y78594D01*
X220760D01*
Y78728D01*
X220894D01*
Y78863D01*
X221029D01*
Y78998D01*
X221164D01*
Y79133D01*
X221299D01*
Y79268D01*
X221433D01*
Y79402D01*
X221568D01*
Y79537D01*
X221703D01*
Y79672D01*
X221973D01*
Y79807D01*
X222107D01*
Y79942D01*
X222377D01*
Y80076D01*
X222646D01*
Y80211D01*
X222916D01*
Y80346D01*
X223320D01*
Y80481D01*
X223859D01*
Y80615D01*
X226016D01*
Y80481D01*
X226555D01*
Y80346D01*
X226959D01*
Y80211D01*
X227229D01*
Y80076D01*
X227498D01*
Y79942D01*
X227768D01*
Y79807D01*
X228037D01*
Y79672D01*
X228172D01*
Y79537D01*
X228307D01*
Y79402D01*
X228577D01*
Y79268D01*
X228711D01*
Y79133D01*
X228846D01*
Y78998D01*
X228981D01*
Y78863D01*
X229116D01*
Y78594D01*
X229251D01*
Y78459D01*
X229385D01*
Y78324D01*
X229520D01*
Y78055D01*
X229655D01*
Y77785D01*
X229790D01*
Y77650D01*
X229924D01*
Y77246D01*
X230059D01*
Y76842D01*
X230194D01*
Y76437D01*
X230329D01*
Y74011D01*
X230194D01*
Y73607D01*
X230059D01*
Y73203D01*
X229924D01*
Y72933D01*
X229790D01*
Y72664D01*
X229655D01*
Y72394D01*
X229520D01*
Y72125D01*
X229385D01*
Y71990D01*
X229251D01*
Y71855D01*
X229116D01*
Y71585D01*
X228981D01*
Y71451D01*
X228846D01*
Y71316D01*
X228711D01*
Y71181D01*
X228442D01*
Y71046D01*
X228307D01*
Y70911D01*
X228172D01*
Y70777D01*
X228037D01*
Y70642D01*
X227768D01*
Y70507D01*
X227498D01*
Y70372D01*
X227229D01*
Y70238D01*
X226959D01*
Y70103D01*
X226555D01*
Y69968D01*
X226016D01*
Y69833D01*
X223859D01*
Y69968D01*
X223320D01*
Y70103D01*
X222916D01*
Y70238D01*
X222646D01*
Y70372D01*
X222377D01*
Y70507D01*
X222107D01*
Y70642D01*
X221973D01*
Y70777D01*
X221703D01*
Y70911D01*
X221568D01*
Y71046D01*
X221433D01*
Y71181D01*
X221299D01*
Y71316D01*
X221029D01*
Y71181D01*
X220760D01*
Y71046D01*
X220625D01*
Y70911D01*
X220490D01*
Y70777D01*
X220355D01*
Y70642D01*
X220086D01*
Y70507D01*
X219951D01*
Y70372D01*
X219816D01*
Y70238D01*
X219681D01*
Y70103D01*
X219547D01*
Y69968D01*
X219277D01*
Y69833D01*
X219142D01*
Y69699D01*
X219007D01*
Y69564D01*
X218873D01*
Y69429D01*
X218738D01*
Y69294D01*
X218468D01*
Y69159D01*
X218333D01*
Y69025D01*
X218199D01*
Y68890D01*
X218064D01*
Y68755D01*
X217929D01*
Y68620D01*
X217660D01*
Y68485D01*
X217525D01*
Y68351D01*
X217390D01*
Y68216D01*
X217255D01*
Y68081D01*
X216986D01*
Y67946D01*
X216851D01*
Y67812D01*
X216716D01*
Y67677D01*
X216581D01*
Y67542D01*
X216447D01*
Y67407D01*
X216177D01*
Y67273D01*
X216042D01*
Y67138D01*
X215908D01*
Y67003D01*
X215773D01*
Y66868D01*
X215638D01*
Y66733D01*
X215368D01*
Y66599D01*
X215234D01*
Y66464D01*
X215099D01*
Y66329D01*
X214964D01*
Y66194D01*
X214829D01*
Y66059D01*
X214560D01*
Y65925D01*
X214425D01*
Y65790D01*
X214290D01*
Y65655D01*
X214156D01*
Y65520D01*
X213886D01*
Y65386D01*
X213751D01*
Y65251D01*
X213616D01*
Y65116D01*
X213482D01*
Y64981D01*
X213347D01*
Y64847D01*
X213077D01*
Y64712D01*
X212942D01*
Y64577D01*
X212808D01*
Y64442D01*
X212673D01*
Y64307D01*
X212538D01*
Y64173D01*
X212269D01*
Y64038D01*
X212134D01*
Y63903D01*
X211999D01*
Y63768D01*
X211864D01*
Y63633D01*
X211730D01*
Y63499D01*
X211460D01*
Y63364D01*
X211325D01*
Y63229D01*
X211190D01*
Y63094D01*
X211056D01*
Y62960D01*
X210786D01*
Y62825D01*
X210651D01*
Y62690D01*
X210516D01*
Y62555D01*
X210382D01*
Y62421D01*
X210247D01*
Y62286D01*
X209977D01*
Y62151D01*
X209843D01*
Y62016D01*
X209708D01*
Y61881D01*
X209573D01*
Y61747D01*
X209438D01*
Y61612D01*
X209169D01*
Y61477D01*
X209034D01*
Y61342D01*
X208899D01*
Y61207D01*
X208764D01*
Y61073D01*
X208495D01*
Y60938D01*
X208360D01*
Y60803D01*
X208225D01*
Y60668D01*
X208090D01*
Y60534D01*
X207956D01*
Y60399D01*
X207686D01*
Y60264D01*
X207551D01*
Y60129D01*
X207417D01*
Y59995D01*
X207282D01*
Y59860D01*
X207147D01*
Y59725D01*
X206877D01*
Y59590D01*
X206743D01*
Y59455D01*
X206608D01*
Y59321D01*
X206473D01*
Y59186D01*
X206338D01*
Y59051D01*
X206069D01*
Y58916D01*
X205934D01*
Y58781D01*
X205799D01*
Y58647D01*
X205665D01*
Y58512D01*
X205395D01*
Y58377D01*
X205260D01*
Y58242D01*
X205125D01*
Y58108D01*
X204991D01*
Y57703D01*
X205125D01*
Y57568D01*
X205260D01*
Y57434D01*
X205395D01*
Y57164D01*
X205530D01*
Y57030D01*
X205665D01*
Y56760D01*
X205799D01*
Y56625D01*
X205934D01*
Y56356D01*
X206069D01*
Y56221D01*
X206204D01*
Y55951D01*
X206338D01*
Y55682D01*
X206473D01*
Y55412D01*
X206608D01*
Y55143D01*
X206743D01*
Y54873D01*
X206877D01*
Y54603D01*
X207012D01*
Y54334D01*
X207147D01*
Y53930D01*
X207282D01*
Y53660D01*
X207417D01*
Y53256D01*
X207551D01*
Y52717D01*
X207686D01*
Y52178D01*
X207821D01*
Y51638D01*
X207956D01*
Y50830D01*
X208090D01*
Y49617D01*
X208225D01*
Y47191D01*
X208090D01*
Y45978D01*
X207956D01*
Y45169D01*
X207821D01*
Y44630D01*
X207686D01*
Y44091D01*
X207551D01*
Y43686D01*
X207417D01*
Y43282D01*
X207282D01*
Y42878D01*
X207147D01*
Y42474D01*
X207012D01*
Y42204D01*
X206877D01*
Y41934D01*
X206743D01*
Y41665D01*
X206608D01*
Y41395D01*
X206473D01*
Y41126D01*
X206338D01*
Y40856D01*
X206204D01*
Y40587D01*
X206069D01*
Y40452D01*
X205934D01*
Y40182D01*
X205799D01*
Y40047D01*
X205665D01*
Y39778D01*
X205530D01*
Y39643D01*
X205395D01*
Y39374D01*
X205260D01*
Y39239D01*
X205125D01*
Y39104D01*
X204991D01*
Y38969D01*
X204856D01*
Y38700D01*
X204721D01*
Y38565D01*
X204586D01*
Y38430D01*
X204452D01*
Y38295D01*
X204317D01*
Y38161D01*
X204182D01*
Y38026D01*
X204047D01*
Y37891D01*
X203912D01*
Y37756D01*
X203778D01*
Y37622D01*
X203643D01*
Y37487D01*
X203508D01*
Y37352D01*
X203373D01*
Y37217D01*
X203239D01*
Y37083D01*
X203104D01*
Y36948D01*
X202969D01*
Y36813D01*
X202834D01*
Y36678D01*
X202699D01*
Y36543D01*
X202565D01*
Y36409D01*
X202295D01*
Y36274D01*
X202160D01*
Y36139D01*
X202026D01*
Y36004D01*
X201891D01*
Y35869D01*
X201621D01*
Y35735D01*
X201486D01*
Y35600D01*
X201217D01*
Y35465D01*
X201082D01*
Y35330D01*
X200812D01*
Y35196D01*
X200678D01*
Y35061D01*
X200408D01*
Y34926D01*
X200139D01*
Y34656D01*
X200273D01*
Y34252D01*
X200408D01*
Y33983D01*
X200543D01*
Y33713D01*
X200678D01*
Y33444D01*
X200812D01*
Y33174D01*
X200947D01*
Y32904D01*
X201082D01*
Y32635D01*
X201217D01*
Y32231D01*
X201352D01*
Y31961D01*
X201486D01*
Y31691D01*
X201621D01*
Y31422D01*
X201756D01*
Y31152D01*
X201891D01*
Y30883D01*
X202026D01*
Y30478D01*
X202160D01*
Y30209D01*
X202295D01*
Y29939D01*
X202430D01*
Y29670D01*
X202565D01*
Y29400D01*
X202699D01*
Y29131D01*
X202834D01*
Y28861D01*
X202969D01*
Y28457D01*
X203104D01*
Y28187D01*
X203239D01*
Y27918D01*
X203373D01*
Y27648D01*
X203508D01*
Y27378D01*
X203643D01*
Y27109D01*
X203778D01*
Y26705D01*
X203912D01*
Y26435D01*
X204047D01*
Y26165D01*
X204182D01*
Y25896D01*
X204317D01*
Y25626D01*
X204452D01*
Y25357D01*
X204586D01*
Y25087D01*
X204721D01*
Y24683D01*
X204856D01*
Y24413D01*
X204991D01*
Y24144D01*
X205125D01*
Y23874D01*
X205260D01*
Y23605D01*
X205395D01*
Y23335D01*
X205530D01*
Y22931D01*
X205665D01*
Y22661D01*
X205799D01*
Y22392D01*
X205934D01*
Y22122D01*
X206069D01*
Y21853D01*
X206204D01*
Y21583D01*
X206338D01*
Y21314D01*
X206473D01*
Y20909D01*
X206608D01*
Y20640D01*
X206743D01*
Y20370D01*
X206877D01*
Y20101D01*
X207012D01*
Y19831D01*
X207147D01*
Y19561D01*
X207282D01*
Y19157D01*
X207417D01*
Y18887D01*
X207551D01*
Y18618D01*
X207686D01*
Y18348D01*
X207821D01*
Y18079D01*
X207956D01*
Y17809D01*
X208090D01*
Y17540D01*
X208225D01*
Y17135D01*
X208360D01*
Y16866D01*
X208495D01*
Y16596D01*
X208630D01*
Y16327D01*
X208764D01*
Y16057D01*
X208899D01*
Y15788D01*
X209034D01*
Y15383D01*
X209169D01*
Y15114D01*
X209303D01*
Y14844D01*
X209438D01*
Y14575D01*
X209573D01*
Y14305D01*
X209708D01*
Y14036D01*
X209843D01*
Y13766D01*
X209977D01*
Y13362D01*
X210112D01*
Y13092D01*
X210247D01*
Y12823D01*
X210382D01*
Y12553D01*
X210516D01*
Y12284D01*
X210651D01*
Y12014D01*
X210786D01*
Y11610D01*
X210921D01*
Y11340D01*
X211056D01*
Y11070D01*
X211190D01*
Y10801D01*
X211325D01*
Y10531D01*
X211460D01*
Y10262D01*
X211595D01*
Y9992D01*
X211730D01*
Y9588D01*
X211864D01*
Y9318D01*
X211999D01*
Y9049D01*
X212134D01*
Y8779D01*
X212269D01*
Y8510D01*
X212403D01*
Y8240D01*
X212538D01*
Y7836D01*
X212673D01*
Y7566D01*
X212808D01*
Y7297D01*
X212942D01*
Y7027D01*
X213077D01*
Y6758D01*
X213212D01*
Y6488D01*
X213347D01*
Y6219D01*
X213482D01*
Y5814D01*
X213616D01*
Y5545D01*
X213751D01*
Y5275D01*
X213886D01*
Y5005D01*
X214021D01*
Y4871D01*
X214290D01*
Y5005D01*
X214695D01*
Y5140D01*
X215234D01*
Y5275D01*
X215908D01*
Y5410D01*
X218873D01*
Y5275D01*
X219547D01*
Y5140D01*
X220086D01*
Y5005D01*
X220490D01*
Y4871D01*
X220760D01*
Y4736D01*
X221164D01*
Y4601D01*
X221433D01*
Y4466D01*
X221703D01*
Y4332D01*
X221973D01*
Y4197D01*
X222107D01*
Y4062D01*
X222377D01*
Y3927D01*
X222512D01*
Y3792D01*
X222781D01*
Y3658D01*
X222916D01*
Y3523D01*
X223051D01*
Y3388D01*
X223320D01*
Y3253D01*
X223455D01*
Y3119D01*
X223590D01*
Y2984D01*
X223725D01*
Y2849D01*
X223859D01*
Y2714D01*
X223994D01*
Y2580D01*
X224129D01*
Y2445D01*
X224264D01*
Y2310D01*
X224398D01*
Y2040D01*
X224533D01*
Y1906D01*
X224668D01*
Y1771D01*
X224803D01*
Y1501D01*
X224938D01*
Y1366D01*
X225072D01*
Y1097D01*
X225207D01*
Y962D01*
X225342D01*
Y693D01*
X225477D01*
Y423D01*
X225611D01*
Y154D01*
X225746D01*
Y-251D01*
X225881D01*
Y-520D01*
X226016D01*
Y-925D01*
X226151D01*
Y-1464D01*
X226285D01*
Y-2138D01*
X226420D01*
Y-5238D01*
X226285D01*
Y-5911D01*
X226151D01*
Y-6316D01*
X226016D01*
Y-6720D01*
X225881D01*
Y-7124D01*
X225746D01*
Y-7394D01*
X225611D01*
Y-7663D01*
X225477D01*
Y-7933D01*
X225342D01*
Y-8203D01*
X225207D01*
Y-8472D01*
X225072D01*
Y-8607D01*
X224938D01*
Y-8877D01*
X224803D01*
Y-9011D01*
X224668D01*
Y-9146D01*
X224533D01*
Y-9416D01*
X224398D01*
Y-9550D01*
X224264D01*
Y-9685D01*
X224129D01*
Y-9820D01*
X223994D01*
Y-9955D01*
X223859D01*
Y-10089D01*
X223725D01*
Y-10224D01*
X223590D01*
Y-10359D01*
X223455D01*
Y-10494D01*
X223320D01*
Y-10629D01*
X223186D01*
Y-10763D01*
X222916D01*
Y-10898D01*
X222781D01*
Y-11033D01*
X222646D01*
Y-11168D01*
X222377D01*
Y-11302D01*
X222242D01*
Y-11437D01*
X221973D01*
Y-11572D01*
X221703D01*
Y-11707D01*
X221433D01*
Y-11842D01*
X221164D01*
Y-11976D01*
X220894D01*
Y-12111D01*
X220625D01*
Y-12246D01*
X220220D01*
Y-12381D01*
X219681D01*
Y-12515D01*
X219142D01*
Y-12650D01*
X218064D01*
Y-12785D01*
X216716D01*
Y-12650D01*
X215638D01*
Y-12515D01*
X215099D01*
Y-12381D01*
X214560D01*
Y-12246D01*
X214156D01*
Y-12111D01*
X213886D01*
Y-11976D01*
X213616D01*
Y-11842D01*
X213212D01*
Y-11707D01*
X213077D01*
Y-11572D01*
X212808D01*
Y-11437D01*
X212538D01*
Y-11302D01*
X212403D01*
Y-11168D01*
X212134D01*
Y-11033D01*
X211999D01*
Y-10898D01*
X211730D01*
Y-10763D01*
X211595D01*
Y-10629D01*
X211460D01*
Y-10494D01*
X211325D01*
Y-10359D01*
X211190D01*
Y-10224D01*
X211056D01*
Y-10089D01*
X210921D01*
Y-9955D01*
X210786D01*
Y-9820D01*
X210651D01*
Y-9685D01*
X210516D01*
Y-9550D01*
X210382D01*
Y-9416D01*
X210247D01*
Y-9281D01*
X210112D01*
Y-9011D01*
X209977D01*
Y-8877D01*
X209843D01*
Y-8607D01*
X209708D01*
Y-8472D01*
X209573D01*
Y-8203D01*
X209438D01*
Y-7933D01*
X209303D01*
Y-7663D01*
X209169D01*
Y-7394D01*
X209034D01*
Y-7124D01*
X208899D01*
Y-6855D01*
X208764D01*
Y-6450D01*
X208630D01*
Y-5911D01*
X208495D01*
Y-5238D01*
X208360D01*
Y-4159D01*
X208225D01*
Y-3081D01*
X208360D01*
Y-2003D01*
X208495D01*
Y-1329D01*
X208630D01*
Y-925D01*
X208764D01*
Y-520D01*
X208899D01*
Y-116D01*
X209034D01*
Y154D01*
X209169D01*
Y423D01*
X209303D01*
Y693D01*
X209438D01*
Y962D01*
X209573D01*
Y1097D01*
X209708D01*
Y1366D01*
X209843D01*
Y1636D01*
X209977D01*
Y1771D01*
X210112D01*
Y1906D01*
X210247D01*
Y2040D01*
X210382D01*
Y2310D01*
X210516D01*
Y2445D01*
X210651D01*
Y2580D01*
X210786D01*
Y2714D01*
X210921D01*
Y2849D01*
X211056D01*
Y2984D01*
X211190D01*
Y3119D01*
X211325D01*
Y3253D01*
X211460D01*
Y3388D01*
X211730D01*
Y3523D01*
X211864D01*
Y3658D01*
X211999D01*
Y3792D01*
X212269D01*
Y3927D01*
X212403D01*
Y4062D01*
X212673D01*
Y4197D01*
X212808D01*
Y4332D01*
X213077D01*
Y4466D01*
X212942D01*
Y4871D01*
X212808D01*
Y5140D01*
X212673D01*
Y5410D01*
X212538D01*
Y5679D01*
X212403D01*
Y5949D01*
X212269D01*
Y6219D01*
X212134D01*
Y6488D01*
X211999D01*
Y6892D01*
X211864D01*
Y7162D01*
X211730D01*
Y7431D01*
X211595D01*
Y7701D01*
X211460D01*
Y7971D01*
X211325D01*
Y8240D01*
X211190D01*
Y8644D01*
X211056D01*
Y8914D01*
X210921D01*
Y9184D01*
X210786D01*
Y9453D01*
X210651D01*
Y9723D01*
X210516D01*
Y9992D01*
X210382D01*
Y10262D01*
X210247D01*
Y10666D01*
X210112D01*
Y10936D01*
X209977D01*
Y11205D01*
X209843D01*
Y11475D01*
X209708D01*
Y11744D01*
X209573D01*
Y12014D01*
X209438D01*
Y12418D01*
X209303D01*
Y12688D01*
X209169D01*
Y12957D01*
X209034D01*
Y13227D01*
X208899D01*
Y13497D01*
X208764D01*
Y13766D01*
X208630D01*
Y14036D01*
X208495D01*
Y14440D01*
X208360D01*
Y14709D01*
X208225D01*
Y14979D01*
X208090D01*
Y15249D01*
X207956D01*
Y15518D01*
X207821D01*
Y15788D01*
X207686D01*
Y16192D01*
X207551D01*
Y16462D01*
X207417D01*
Y16731D01*
X207282D01*
Y17001D01*
X207147D01*
Y17270D01*
X207012D01*
Y17540D01*
X206877D01*
Y17809D01*
X206743D01*
Y18214D01*
X206608D01*
Y18483D01*
X206473D01*
Y18753D01*
X206338D01*
Y19022D01*
X206204D01*
Y19292D01*
X206069D01*
Y19561D01*
X205934D01*
Y19966D01*
X205799D01*
Y20235D01*
X205665D01*
Y20505D01*
X205530D01*
Y20774D01*
X205395D01*
Y21044D01*
X205260D01*
Y21314D01*
X205125D01*
Y21583D01*
X204991D01*
Y21987D01*
X204856D01*
Y22257D01*
X204721D01*
Y22527D01*
X204586D01*
Y22796D01*
X204452D01*
Y23066D01*
X204317D01*
Y23335D01*
X204182D01*
Y23740D01*
X204047D01*
Y24009D01*
X203912D01*
Y24279D01*
X203778D01*
Y24548D01*
X203643D01*
Y24818D01*
X203508D01*
Y25087D01*
X203373D01*
Y25357D01*
X203239D01*
Y25761D01*
X203104D01*
Y26031D01*
X202969D01*
Y26300D01*
X202834D01*
Y26570D01*
X202699D01*
Y26839D01*
X202565D01*
Y27109D01*
X202430D01*
Y27513D01*
X202295D01*
Y27783D01*
X202160D01*
Y28052D01*
X202026D01*
Y28322D01*
X201891D01*
Y28591D01*
X201756D01*
Y28861D01*
X201621D01*
Y29131D01*
X201486D01*
Y29535D01*
X201352D01*
Y29804D01*
X201217D01*
Y30074D01*
X201082D01*
Y30344D01*
X200947D01*
Y30613D01*
X200812D01*
Y30883D01*
X200678D01*
Y31287D01*
X200543D01*
Y31557D01*
X200408D01*
Y31826D01*
X200273D01*
Y32096D01*
X200139D01*
Y32365D01*
X200004D01*
Y32635D01*
X199869D01*
Y33039D01*
X199734D01*
Y33309D01*
X199599D01*
Y33578D01*
X199465D01*
Y33848D01*
X199330D01*
Y34117D01*
X199195D01*
Y34387D01*
X199060D01*
Y34252D01*
X198791D01*
Y34117D01*
X198386D01*
Y33983D01*
X197982D01*
Y33848D01*
X197578D01*
Y33713D01*
X197174D01*
Y33578D01*
X196634D01*
Y33444D01*
X196095D01*
Y33309D01*
X195287D01*
Y33174D01*
X194074D01*
Y33039D01*
X191648D01*
Y33174D01*
X190435D01*
Y33309D01*
X190030D01*
Y33174D01*
X189896D01*
Y32635D01*
X189761D01*
Y31961D01*
X189626D01*
Y31287D01*
X189491D01*
Y30613D01*
X189356D01*
Y29939D01*
X189222D01*
Y29400D01*
X189087D01*
Y28726D01*
X188952D01*
Y28052D01*
X188817D01*
Y27378D01*
X188683D01*
Y26705D01*
X188548D01*
Y26031D01*
X188413D01*
Y25492D01*
X188278D01*
Y24818D01*
X188144D01*
Y24144D01*
X188009D01*
Y23470D01*
X187874D01*
Y22796D01*
X187739D01*
Y22122D01*
X187604D01*
Y21583D01*
X187470D01*
Y20909D01*
X187335D01*
Y20235D01*
X187200D01*
Y19561D01*
X187065D01*
Y18887D01*
X186931D01*
Y18214D01*
X186796D01*
Y17674D01*
X186661D01*
Y17001D01*
X186526D01*
Y16327D01*
X186391D01*
Y15653D01*
X186257D01*
Y14979D01*
X186122D01*
Y14305D01*
X185987D01*
Y13766D01*
X185852D01*
Y13092D01*
X185718D01*
Y12418D01*
X185583D01*
Y11744D01*
X185448D01*
Y11070D01*
X185313D01*
Y10397D01*
X185178D01*
Y9858D01*
X185044D01*
Y9184D01*
X184909D01*
Y8510D01*
X184774D01*
Y7836D01*
X184639D01*
Y7162D01*
X184505D01*
Y6488D01*
X184370D01*
Y5949D01*
X184235D01*
Y5275D01*
X184100D01*
Y4601D01*
X183965D01*
Y3927D01*
X183831D01*
Y3523D01*
X184100D01*
Y3388D01*
X184370D01*
Y3253D01*
X184639D01*
Y3119D01*
X184909D01*
Y2984D01*
X185178D01*
Y2849D01*
X185313D01*
Y2714D01*
X185583D01*
Y2580D01*
X185718D01*
Y2445D01*
X185852D01*
Y2310D01*
X185987D01*
Y2175D01*
X186122D01*
Y2040D01*
X186257D01*
Y1906D01*
X186391D01*
Y1771D01*
X186526D01*
Y1501D01*
X186661D01*
Y1366D01*
X186796D01*
Y1097D01*
X186931D01*
Y962D01*
X187065D01*
Y693D01*
X187200D01*
Y288D01*
X187335D01*
Y-116D01*
X187470D01*
Y-655D01*
X187604D01*
Y-2677D01*
X187470D01*
Y-3216D01*
X187335D01*
Y-3620D01*
X187200D01*
Y-3890D01*
X187065D01*
Y-4159D01*
X186931D01*
Y-4429D01*
X186796D01*
Y-4698D01*
X186661D01*
Y-4833D01*
X186526D01*
Y-5103D01*
X186391D01*
Y-5238D01*
X186257D01*
Y-5372D01*
X186122D01*
Y-5507D01*
X185987D01*
Y-5642D01*
X185852D01*
Y-5777D01*
X185718D01*
Y-5911D01*
X185448D01*
Y-6046D01*
X185313D01*
Y-6181D01*
X185178D01*
Y-6316D01*
X184909D01*
Y-6450D01*
X184639D01*
Y-6585D01*
X184370D01*
Y-6720D01*
X183965D01*
Y-6855D01*
X183561D01*
Y-6990D01*
X182752D01*
Y-7124D01*
X181674D01*
Y-6990D01*
X180865D01*
Y-6855D01*
X180461D01*
Y-6720D01*
X180057D01*
Y-6585D01*
X179787D01*
Y-6450D01*
X179518D01*
Y-6316D01*
X179248D01*
Y-6181D01*
X179113D01*
Y-6046D01*
X178844D01*
Y-5911D01*
X178709D01*
Y-5777D01*
X178574D01*
Y-5642D01*
X178440D01*
Y-5507D01*
X178305D01*
Y-5372D01*
X178170D01*
Y-5238D01*
X178035D01*
Y-5103D01*
X177900D01*
Y-4833D01*
X177766D01*
Y-4698D01*
X177631D01*
Y-4429D01*
X177496D01*
Y-4294D01*
X177361D01*
Y-4025D01*
X177227D01*
Y-3620D01*
X177092D01*
Y-3351D01*
X176957D01*
Y-2812D01*
X176822D01*
Y-520D01*
X176957D01*
Y19D01*
X177092D01*
Y423D01*
X177227D01*
Y693D01*
X177361D01*
Y962D01*
X177496D01*
Y1232D01*
X177631D01*
Y1366D01*
X177766D01*
Y1636D01*
X177900D01*
Y1771D01*
X178035D01*
Y1906D01*
X178170D01*
Y2040D01*
X178305D01*
Y2175D01*
X178440D01*
Y2310D01*
X178574D01*
Y2445D01*
X178709D01*
Y2580D01*
X178844D01*
Y2714D01*
X179113D01*
Y2849D01*
X179248D01*
Y2984D01*
X179518D01*
Y3119D01*
X179787D01*
Y3253D01*
X180057D01*
Y3388D01*
X180326D01*
Y3523D01*
X180731D01*
Y3658D01*
X181405D01*
Y3792D01*
X182752D01*
Y3927D01*
X182887D01*
Y4601D01*
X183022D01*
Y5140D01*
X183157D01*
Y5814D01*
X183291D01*
Y6488D01*
X183426D01*
Y7162D01*
X183561D01*
Y7836D01*
X183696D01*
Y8510D01*
X183831D01*
Y9049D01*
X183965D01*
Y9723D01*
X184100D01*
Y10397D01*
X184235D01*
Y11070D01*
X184370D01*
Y11744D01*
X184505D01*
Y12418D01*
X184639D01*
Y12957D01*
X184774D01*
Y13631D01*
X184909D01*
Y14305D01*
X185044D01*
Y14979D01*
X185178D01*
Y15653D01*
X185313D01*
Y16327D01*
X185448D01*
Y16866D01*
X185583D01*
Y17540D01*
X185718D01*
Y18214D01*
X185852D01*
Y18887D01*
X185987D01*
Y19561D01*
X186122D01*
Y20235D01*
X186257D01*
Y20774D01*
X186391D01*
Y21448D01*
X186526D01*
Y22122D01*
X186661D01*
Y22796D01*
X186796D01*
Y23470D01*
X186931D01*
Y24144D01*
X187065D01*
Y24683D01*
X187200D01*
Y25357D01*
X187335D01*
Y26031D01*
X187470D01*
Y26705D01*
X187604D01*
Y27378D01*
X187739D01*
Y28052D01*
X187874D01*
Y28591D01*
X188009D01*
Y29265D01*
X188144D01*
Y29939D01*
X188278D01*
Y30613D01*
X188413D01*
Y31287D01*
X188548D01*
Y31961D01*
X188683D01*
Y32500D01*
X188817D01*
Y33174D01*
X188952D01*
Y33578D01*
X188548D01*
Y33713D01*
X188144D01*
Y33848D01*
X187739D01*
Y33983D01*
X187335D01*
Y34117D01*
X186931D01*
Y34252D01*
X186661D01*
Y34387D01*
X186391D01*
Y34522D01*
X186122D01*
Y34656D01*
X185852D01*
Y34791D01*
X185583D01*
Y34926D01*
X185313D01*
Y35061D01*
X185044D01*
Y35196D01*
X184909D01*
Y35330D01*
X184639D01*
Y35465D01*
X184505D01*
Y35600D01*
X184235D01*
Y35735D01*
X184100D01*
Y35869D01*
X183831D01*
Y36004D01*
X183696D01*
Y36139D01*
X183561D01*
Y36274D01*
X183291D01*
Y36409D01*
X183157D01*
Y36543D01*
X183022D01*
Y36678D01*
X182887D01*
Y36813D01*
X182752D01*
Y36948D01*
X182618D01*
Y37083D01*
X182483D01*
Y37217D01*
X182213D01*
Y37352D01*
X182078D01*
Y37487D01*
X181944D01*
Y37622D01*
X181809D01*
Y37756D01*
X181674D01*
Y38026D01*
X181539D01*
Y38161D01*
X181405D01*
Y38295D01*
X181270D01*
Y38430D01*
X181135D01*
Y38295D01*
X181000D01*
Y38161D01*
X180865D01*
Y38026D01*
X180596D01*
Y37891D01*
X180461D01*
Y37756D01*
X180326D01*
Y37622D01*
X180192D01*
Y37487D01*
X180057D01*
Y37352D01*
X179787D01*
Y37217D01*
X179653D01*
Y37083D01*
X179518D01*
Y36948D01*
X179383D01*
Y36813D01*
X179248D01*
Y36678D01*
X178979D01*
Y36543D01*
X178844D01*
Y36409D01*
X178709D01*
Y36274D01*
X178574D01*
Y36139D01*
X178305D01*
Y36004D01*
X178170D01*
Y35869D01*
X178035D01*
Y35735D01*
X177900D01*
Y35600D01*
X177766D01*
Y35465D01*
X177496D01*
Y35330D01*
X177361D01*
Y35196D01*
X177227D01*
Y35061D01*
X177092D01*
Y34926D01*
X176957D01*
Y34791D01*
X176687D01*
Y34656D01*
X176553D01*
Y34522D01*
X176418D01*
Y34387D01*
X176283D01*
Y34252D01*
X176148D01*
Y34117D01*
X175879D01*
Y33983D01*
X175744D01*
Y33848D01*
X175609D01*
Y33713D01*
X175474D01*
Y33578D01*
X175205D01*
Y33444D01*
X175070D01*
Y33309D01*
X174935D01*
Y33174D01*
X174801D01*
Y33039D01*
X174666D01*
Y32904D01*
X174396D01*
Y32770D01*
X174261D01*
Y32635D01*
X174127D01*
Y32500D01*
X173992D01*
Y32365D01*
X173857D01*
Y32231D01*
X173588D01*
Y32096D01*
X173453D01*
Y31961D01*
X173318D01*
Y31826D01*
X173183D01*
Y31691D01*
X172914D01*
Y31557D01*
X172779D01*
Y31422D01*
X172644D01*
Y31287D01*
X172509D01*
Y31152D01*
X172375D01*
Y31017D01*
X172105D01*
Y30883D01*
X171970D01*
Y30748D01*
X171835D01*
Y30613D01*
X171701D01*
Y30478D01*
X171566D01*
Y30344D01*
X171296D01*
Y30209D01*
X171162D01*
Y30074D01*
X171027D01*
Y29939D01*
X170892D01*
Y29804D01*
X170757D01*
Y29670D01*
X170488D01*
Y29535D01*
X170353D01*
Y29400D01*
X170218D01*
Y29265D01*
X170083D01*
Y29131D01*
X169814D01*
Y28996D01*
X169679D01*
Y28861D01*
X169544D01*
Y28726D01*
X169410D01*
Y28591D01*
X169275D01*
Y28457D01*
X169005D01*
Y28322D01*
X168870D01*
Y28187D01*
X168736D01*
Y28052D01*
X168601D01*
Y27918D01*
X168466D01*
Y27783D01*
X168197D01*
Y27648D01*
X168062D01*
Y27513D01*
X167927D01*
Y27378D01*
X167792D01*
Y27244D01*
X167657D01*
Y27109D01*
X167388D01*
Y26974D01*
X167253D01*
Y26839D01*
X167118D01*
Y26705D01*
X166984D01*
Y26570D01*
X166714D01*
Y26435D01*
X166579D01*
Y26300D01*
X166444D01*
Y26165D01*
X166310D01*
Y26031D01*
X166175D01*
Y25896D01*
X165905D01*
Y25761D01*
X165770D01*
Y25492D01*
X165905D01*
Y25222D01*
X166040D01*
Y24952D01*
X166175D01*
Y24683D01*
X166310D01*
Y24279D01*
X166444D01*
Y23874D01*
X166579D01*
Y21314D01*
X166444D01*
Y20909D01*
X166310D01*
Y20505D01*
X166175D01*
Y20235D01*
X166040D01*
Y19966D01*
X165905D01*
Y19696D01*
X165770D01*
Y19561D01*
X165636D01*
Y19292D01*
X165501D01*
Y19157D01*
X165366D01*
Y19022D01*
X165231D01*
Y18887D01*
X165097D01*
Y18753D01*
X164962D01*
Y18618D01*
X164827D01*
Y18483D01*
X164692D01*
Y18348D01*
X164557D01*
Y18214D01*
X164288D01*
Y18079D01*
X164153D01*
Y17944D01*
X163884D01*
Y17809D01*
X163614D01*
Y17674D01*
X163344D01*
Y17540D01*
X163075D01*
Y17405D01*
X162536D01*
Y17270D01*
X161862D01*
Y17135D01*
X160514D01*
Y17270D01*
X159840D01*
Y17405D01*
X159436D01*
Y17540D01*
X159032D01*
Y17674D01*
X158762D01*
Y17809D01*
X158492D01*
Y17944D01*
X158358D01*
Y18079D01*
X158088D01*
Y18214D01*
X157953D01*
Y18348D01*
X157684D01*
Y18483D01*
X157549D01*
Y18618D01*
X157414D01*
Y18753D01*
X157280D01*
Y18887D01*
X157145D01*
Y19022D01*
X157010D01*
Y19292D01*
X156875D01*
Y19427D01*
X156740D01*
Y19561D01*
X156606D01*
Y19831D01*
X156471D01*
Y20101D01*
X156336D01*
Y20370D01*
X156201D01*
Y20640D01*
X156067D01*
Y21044D01*
X155932D01*
Y21718D01*
X155797D01*
Y23470D01*
X155932D01*
Y24144D01*
X156067D01*
Y24548D01*
X156201D01*
Y24818D01*
X156336D01*
Y25087D01*
X156471D01*
Y25357D01*
X156606D01*
Y25626D01*
X156740D01*
Y25761D01*
X156875D01*
Y25896D01*
X157010D01*
Y26165D01*
X157145D01*
Y26300D01*
X157280D01*
Y26435D01*
X157414D01*
Y26570D01*
X157549D01*
Y26705D01*
X157684D01*
Y26839D01*
X157953D01*
Y26974D01*
X158088D01*
Y27109D01*
X158223D01*
Y27244D01*
X158492D01*
Y27378D01*
X158762D01*
Y27513D01*
X159032D01*
Y27648D01*
X159436D01*
Y27783D01*
X159840D01*
Y27918D01*
X160514D01*
Y28052D01*
X161862D01*
Y27918D01*
X162671D01*
Y27783D01*
X163075D01*
Y27648D01*
X163344D01*
Y27513D01*
X163614D01*
Y27378D01*
X163884D01*
Y27244D01*
X164153D01*
Y27109D01*
X164288D01*
Y26974D01*
X164557D01*
Y26839D01*
X164692D01*
Y26705D01*
X164827D01*
Y26570D01*
X164962D01*
Y26435D01*
X165097D01*
Y26570D01*
X165231D01*
Y26705D01*
X165501D01*
Y26839D01*
X165636D01*
Y26974D01*
X165770D01*
Y27109D01*
X165905D01*
Y27244D01*
X166040D01*
Y27378D01*
X166310D01*
Y27513D01*
X166444D01*
Y27648D01*
X166579D01*
Y27783D01*
X166714D01*
Y27918D01*
X166849D01*
Y28052D01*
X167118D01*
Y28187D01*
X167253D01*
Y28322D01*
X167388D01*
Y28457D01*
X167523D01*
Y28591D01*
X167792D01*
Y28726D01*
X167927D01*
Y28861D01*
X168062D01*
Y28996D01*
X168197D01*
Y29131D01*
X168331D01*
Y29265D01*
X168601D01*
Y29400D01*
X168736D01*
Y29535D01*
X168870D01*
Y29670D01*
X169005D01*
Y29804D01*
X169140D01*
Y29939D01*
X169410D01*
Y30074D01*
X169544D01*
Y30209D01*
X169679D01*
Y30344D01*
X169814D01*
Y30478D01*
X169949D01*
Y30613D01*
X170218D01*
Y30748D01*
X170353D01*
Y30883D01*
X170488D01*
Y31017D01*
X170623D01*
Y31152D01*
X170892D01*
Y31287D01*
X171027D01*
Y31422D01*
X171162D01*
Y31557D01*
X171296D01*
Y31691D01*
X171431D01*
Y31826D01*
X171701D01*
Y31961D01*
X171835D01*
Y32096D01*
X171970D01*
Y32231D01*
X172105D01*
Y32365D01*
X172240D01*
Y32500D01*
X172509D01*
Y32635D01*
X172644D01*
Y32770D01*
X172779D01*
Y32904D01*
X172914D01*
Y33039D01*
X173048D01*
Y33174D01*
X173318D01*
Y33309D01*
X173453D01*
Y33444D01*
X173588D01*
Y33578D01*
X173722D01*
Y33713D01*
X173992D01*
Y33848D01*
X174127D01*
Y33983D01*
X174261D01*
Y34117D01*
X174396D01*
Y34252D01*
X174531D01*
Y34387D01*
X174801D01*
Y34522D01*
X174935D01*
Y34656D01*
X175070D01*
Y34791D01*
X175205D01*
Y34926D01*
X175340D01*
Y35061D01*
X175609D01*
Y35196D01*
X175744D01*
Y35330D01*
X175879D01*
Y35465D01*
X176014D01*
Y35600D01*
X176148D01*
Y35735D01*
X176418D01*
Y35869D01*
X176553D01*
Y36004D01*
X176687D01*
Y36139D01*
X176822D01*
Y36274D01*
X177092D01*
Y36409D01*
X177227D01*
Y36543D01*
X177361D01*
Y36678D01*
X177496D01*
Y36813D01*
X177631D01*
Y36948D01*
X177900D01*
Y37083D01*
X178035D01*
Y37217D01*
X178170D01*
Y37352D01*
X178305D01*
Y37487D01*
X178440D01*
Y37622D01*
X178709D01*
Y37756D01*
X178844D01*
Y37891D01*
X178979D01*
Y38026D01*
X179113D01*
Y38161D01*
X179383D01*
Y38295D01*
X179518D01*
Y38430D01*
X179653D01*
Y38565D01*
X179787D01*
Y38700D01*
X179922D01*
Y38835D01*
X180192D01*
Y38969D01*
X180326D01*
Y39104D01*
X180461D01*
Y39374D01*
X180326D01*
Y39643D01*
X180192D01*
Y39778D01*
X180057D01*
Y40047D01*
X179922D01*
Y40182D01*
X179787D01*
Y40452D01*
X179653D01*
Y40587D01*
X179518D01*
Y40856D01*
X179383D01*
Y41126D01*
X179248D01*
Y41395D01*
X179113D01*
Y41665D01*
X178979D01*
Y41934D01*
X178844D01*
Y42204D01*
X178709D01*
Y42474D01*
X178574D01*
Y42878D01*
X178440D01*
Y43147D01*
X178305D01*
Y43552D01*
X178170D01*
Y44091D01*
X178035D01*
Y44495D01*
X177900D01*
Y45169D01*
X177766D01*
Y45843D01*
X177631D01*
Y47056D01*
X177496D01*
Y49752D01*
X177631D01*
Y50964D01*
X177766D01*
Y51773D01*
X177900D01*
Y52312D01*
X178035D01*
Y52851D01*
X178170D01*
Y53256D01*
X178305D01*
Y53660D01*
X178440D01*
Y54064D01*
X178574D01*
Y54334D01*
X178709D01*
Y54603D01*
X178844D01*
Y55008D01*
X178979D01*
Y55277D01*
X179113D01*
Y55547D01*
X179248D01*
Y55682D01*
X179383D01*
Y55951D01*
X179518D01*
Y56221D01*
X179653D01*
Y56490D01*
X179787D01*
Y56625D01*
X179922D01*
Y56895D01*
X180057D01*
Y57030D01*
X180192D01*
Y57299D01*
X180326D01*
Y57434D01*
X180461D01*
Y57568D01*
X180596D01*
Y57703D01*
X180731D01*
Y57973D01*
X180865D01*
Y58108D01*
X181000D01*
Y58242D01*
X181135D01*
Y58377D01*
X181270D01*
Y58512D01*
X181405D01*
Y58781D01*
X181539D01*
Y58916D01*
X181674D01*
Y59051D01*
X181809D01*
Y59186D01*
X181944D01*
Y59321D01*
X182078D01*
Y59455D01*
X182213D01*
Y59590D01*
X182348D01*
Y59725D01*
X182483D01*
Y59860D01*
X182752D01*
Y59995D01*
X182887D01*
Y60129D01*
X183022D01*
Y60264D01*
X183157D01*
Y60399D01*
X183291D01*
Y60534D01*
X183561D01*
Y60668D01*
X183696D01*
Y60803D01*
X183831D01*
Y60938D01*
X184100D01*
Y61073D01*
X184235D01*
Y61207D01*
X184370D01*
Y61342D01*
X184639D01*
Y61477D01*
X184774D01*
Y61612D01*
X185044D01*
Y61747D01*
X185313D01*
Y61881D01*
X185583D01*
Y62016D01*
X185718D01*
Y62151D01*
X185987D01*
Y62286D01*
X186122D01*
Y62555D01*
X185987D01*
Y62825D01*
X185852D01*
Y63229D01*
X185718D01*
Y63499D01*
X185583D01*
Y63768D01*
X185448D01*
Y64038D01*
X185313D01*
Y64307D01*
X185178D01*
Y64577D01*
X185044D01*
Y64847D01*
X184909D01*
Y65251D01*
X184774D01*
Y65520D01*
X184639D01*
Y65790D01*
X184505D01*
Y66059D01*
X184370D01*
Y66329D01*
X184235D01*
Y66599D01*
X184100D01*
Y67003D01*
X183965D01*
Y67273D01*
X183831D01*
Y67542D01*
X183696D01*
Y67812D01*
X183561D01*
Y68081D01*
X183426D01*
Y68351D01*
X183291D01*
Y68620D01*
X183157D01*
Y69025D01*
X183022D01*
Y69294D01*
X182887D01*
Y69564D01*
X182752D01*
Y69833D01*
X182618D01*
Y70103D01*
X182483D01*
Y70372D01*
X182348D01*
Y70777D01*
X182213D01*
Y71046D01*
X182078D01*
Y71316D01*
X181944D01*
Y71585D01*
X181809D01*
Y71855D01*
X181674D01*
Y72125D01*
X181539D01*
Y72394D01*
X181405D01*
Y72798D01*
X181270D01*
Y73068D01*
X181135D01*
Y73337D01*
X181000D01*
Y73607D01*
X180865D01*
Y73877D01*
X180731D01*
Y74146D01*
X180596D01*
Y74550D01*
X180461D01*
Y74820D01*
X180326D01*
Y75090D01*
X180192D01*
Y75359D01*
X180057D01*
Y75629D01*
X179922D01*
Y75898D01*
X179787D01*
Y76168D01*
X179653D01*
Y76572D01*
X179518D01*
Y76842D01*
X179383D01*
Y77111D01*
X179248D01*
Y77381D01*
X179113D01*
Y77650D01*
X178979D01*
Y77920D01*
X178844D01*
Y78324D01*
X178709D01*
Y78594D01*
X178574D01*
Y78863D01*
X178440D01*
Y79133D01*
X178305D01*
Y79402D01*
X178170D01*
Y79672D01*
X178035D01*
Y79942D01*
X177900D01*
Y80346D01*
X177766D01*
Y80615D01*
X177631D01*
Y80885D01*
X177496D01*
Y81154D01*
X177361D01*
Y81424D01*
X177227D01*
Y81694D01*
X177092D01*
Y82098D01*
X176957D01*
Y82367D01*
X176822D01*
Y82637D01*
X176687D01*
Y82907D01*
X176553D01*
Y83176D01*
X176418D01*
Y83446D01*
X176283D01*
Y83715D01*
X176148D01*
Y84120D01*
X176014D01*
Y84389D01*
X175879D01*
Y84659D01*
X175744D01*
Y84928D01*
X175609D01*
Y85198D01*
X175474D01*
Y85467D01*
X175340D01*
Y85872D01*
X175205D01*
Y86141D01*
X175070D01*
Y86411D01*
X174935D01*
Y86680D01*
X174801D01*
Y86950D01*
X174666D01*
Y87219D01*
X174531D01*
Y87489D01*
X174396D01*
Y87893D01*
X174261D01*
Y88163D01*
X174127D01*
Y88433D01*
X173992D01*
Y88702D01*
X173857D01*
Y88972D01*
X173722D01*
Y89241D01*
X173588D01*
Y89646D01*
X173453D01*
Y89915D01*
X173318D01*
Y90185D01*
X173183D01*
Y90454D01*
X173048D01*
Y90724D01*
X172914D01*
Y90993D01*
X172779D01*
Y91263D01*
X172644D01*
Y91667D01*
X172509D01*
Y91937D01*
X172375D01*
Y92206D01*
X172240D01*
Y92476D01*
X172105D01*
Y92745D01*
X171970D01*
Y93015D01*
X171835D01*
Y93150D01*
X171701D01*
Y93015D01*
X171431D01*
Y92880D01*
X171027D01*
Y92745D01*
X170623D01*
Y92611D01*
X169949D01*
Y92476D01*
X169140D01*
Y92341D01*
X167118D01*
Y92476D01*
X166310D01*
Y92611D01*
X165770D01*
Y92745D01*
X165231D01*
Y92880D01*
X164962D01*
Y93015D01*
X164557D01*
Y93150D01*
X164288D01*
Y93285D01*
X164018D01*
Y93419D01*
X163749D01*
Y93554D01*
X163479D01*
Y93689D01*
X163344D01*
Y93824D01*
X163075D01*
Y93958D01*
X162940D01*
Y94093D01*
X162671D01*
Y94228D01*
X162536D01*
Y94363D01*
X162401D01*
Y94497D01*
X162266D01*
Y94632D01*
X161997D01*
Y94767D01*
X161862D01*
Y94902D01*
X161727D01*
Y95037D01*
X161592D01*
Y95171D01*
X161458D01*
Y95306D01*
X161323D01*
Y95576D01*
X161188D01*
Y95710D01*
X161053D01*
Y95845D01*
X160919D01*
Y95980D01*
X160784D01*
Y96250D01*
X160649D01*
Y96384D01*
X160514D01*
Y96654D01*
X160379D01*
Y96789D01*
X160245D01*
Y97058D01*
X160110D01*
Y97328D01*
X159975D01*
Y97597D01*
X159840D01*
Y97867D01*
X159705D01*
Y98271D01*
X159571D01*
Y98675D01*
X159436D01*
Y99080D01*
X159301D01*
Y99619D01*
X159166D01*
Y100562D01*
X159032D01*
Y102315D01*
X159166D01*
Y103258D01*
X159301D01*
Y103797D01*
X159436D01*
Y104336D01*
X159571D01*
Y104740D01*
X159705D01*
Y105010D01*
X159840D01*
Y105280D01*
X159975D01*
Y105549D01*
X160110D01*
Y105819D01*
X160245D01*
Y106088D01*
X160379D01*
Y106358D01*
X160514D01*
Y106493D01*
X160649D01*
Y106762D01*
X160784D01*
Y106897D01*
X160919D01*
Y107032D01*
X161053D01*
Y107301D01*
X161188D01*
Y107436D01*
X161323D01*
Y107571D01*
X161458D01*
Y107706D01*
X161592D01*
Y107840D01*
X161727D01*
Y107975D01*
X161862D01*
Y108110D01*
X161997D01*
Y108245D01*
X162132D01*
Y108379D01*
X162266D01*
Y108514D01*
X162536D01*
Y108649D01*
X162671D01*
Y108784D01*
X162805D01*
Y108919D01*
X163075D01*
Y109053D01*
X163210D01*
Y109188D01*
X163479D01*
Y109323D01*
X163614D01*
Y109458D01*
X163884D01*
Y109593D01*
X164153D01*
Y109727D01*
X164423D01*
Y109862D01*
X164827D01*
Y109997D01*
X165231D01*
Y110132D01*
X165636D01*
Y110266D01*
X166175D01*
Y110401D01*
X166849D01*
Y110536D01*
X169410D01*
Y110401D01*
D02*
G37*
%LPC*%
G36*
X226500Y226882D02*
X224020Y226556D01*
X221709Y225598D01*
X219725Y224075D01*
X218202Y222091D01*
X217244Y219780D01*
X216918Y217300D01*
X217244Y214820D01*
X218202Y212509D01*
X219725Y210525D01*
X221709Y209002D01*
X224020Y208044D01*
X226500Y207718D01*
X228980Y208044D01*
X231291Y209002D01*
X233276Y210525D01*
X234798Y212509D01*
X235756Y214820D01*
X236082Y217300D01*
X235756Y219780D01*
X234798Y222091D01*
X233276Y224075D01*
X231291Y225598D01*
X228980Y226556D01*
X226500Y226882D01*
D02*
G37*
G36*
X218603Y3253D02*
X216177D01*
Y3119D01*
X215638D01*
Y2984D01*
X215099D01*
Y2849D01*
X214829D01*
Y2714D01*
X214425D01*
Y2580D01*
X214156D01*
Y2445D01*
X214021D01*
Y2310D01*
X213751D01*
Y2175D01*
X213482D01*
Y2040D01*
X213347D01*
Y1906D01*
X213212D01*
Y1771D01*
X212942D01*
Y1636D01*
X212808D01*
Y1501D01*
X212673D01*
Y1366D01*
X212538D01*
Y1232D01*
X212403D01*
Y1097D01*
X212269D01*
Y962D01*
X212134D01*
Y827D01*
X211999D01*
Y693D01*
X211864D01*
Y558D01*
Y423D01*
X211730D01*
Y288D01*
X211595D01*
Y154D01*
Y19D01*
X211460D01*
Y-116D01*
X211325D01*
Y-251D01*
Y-386D01*
X211190D01*
Y-520D01*
Y-655D01*
X211056D01*
Y-790D01*
Y-925D01*
X210921D01*
Y-1059D01*
Y-1194D01*
Y-1329D01*
X210786D01*
Y-1464D01*
Y-1599D01*
Y-1733D01*
X210651D01*
Y-1868D01*
Y-2003D01*
Y-2138D01*
Y-2272D01*
X210516D01*
Y-2407D01*
Y-2542D01*
Y-2677D01*
Y-2812D01*
Y-2946D01*
Y-3081D01*
Y-3216D01*
Y-3351D01*
X210382D01*
Y-3485D01*
Y-3620D01*
Y-3755D01*
Y-3890D01*
X210516D01*
Y-4025D01*
Y-4159D01*
Y-4294D01*
Y-4429D01*
Y-4564D01*
Y-4698D01*
Y-4833D01*
Y-4968D01*
X210651D01*
Y-5103D01*
Y-5238D01*
Y-5372D01*
Y-5507D01*
X210786D01*
Y-5642D01*
Y-5777D01*
Y-5911D01*
X210921D01*
Y-6046D01*
Y-6181D01*
Y-6316D01*
X211056D01*
Y-6450D01*
Y-6585D01*
X211190D01*
Y-6720D01*
Y-6855D01*
X211325D01*
Y-6990D01*
Y-7124D01*
X211460D01*
Y-7259D01*
Y-7394D01*
X211595D01*
Y-7529D01*
X211730D01*
Y-7663D01*
Y-7798D01*
X211864D01*
Y-7933D01*
X211999D01*
Y-8068D01*
X212134D01*
Y-8203D01*
X212269D01*
Y-8337D01*
X212403D01*
Y-8472D01*
X212538D01*
Y-8607D01*
X212673D01*
Y-8742D01*
X212808D01*
Y-8877D01*
X212942D01*
Y-9011D01*
X213077D01*
Y-9146D01*
X213212D01*
Y-9281D01*
X213482D01*
Y-9416D01*
X213616D01*
Y-9550D01*
X213886D01*
Y-9685D01*
X214156D01*
Y-9820D01*
X214425D01*
Y-9955D01*
X214695D01*
Y-10089D01*
X214964D01*
Y-10224D01*
X215368D01*
Y-10359D01*
X215908D01*
Y-10494D01*
X216851D01*
Y-10629D01*
X217794D01*
Y-10494D01*
X218873D01*
Y-10359D01*
X219412D01*
Y-10224D01*
X219816D01*
Y-10089D01*
X220086D01*
Y-9955D01*
X220355D01*
Y-9820D01*
X220625D01*
Y-9685D01*
X220894D01*
Y-9550D01*
X221164D01*
Y-9416D01*
X221299D01*
Y-9281D01*
X221433D01*
Y-9146D01*
X221703D01*
Y-9011D01*
X221838D01*
Y-8877D01*
X221973D01*
Y-8742D01*
X222107D01*
Y-8607D01*
X222242D01*
Y-8472D01*
X222377D01*
Y-8337D01*
X222512D01*
Y-8203D01*
X222646D01*
Y-8068D01*
X222781D01*
Y-7933D01*
X222916D01*
Y-7798D01*
Y-7663D01*
X223051D01*
Y-7529D01*
X223186D01*
Y-7394D01*
Y-7259D01*
X223320D01*
Y-7124D01*
X223455D01*
Y-6990D01*
Y-6855D01*
X223590D01*
Y-6720D01*
Y-6585D01*
X223725D01*
Y-6450D01*
Y-6316D01*
X223859D01*
Y-6181D01*
Y-6046D01*
Y-5911D01*
X223994D01*
Y-5777D01*
Y-5642D01*
Y-5507D01*
X224129D01*
Y-5372D01*
Y-5238D01*
Y-5103D01*
Y-4968D01*
X224264D01*
Y-4833D01*
Y-4698D01*
Y-4564D01*
Y-4429D01*
Y-4294D01*
Y-4159D01*
Y-4025D01*
Y-3890D01*
Y-3755D01*
Y-3620D01*
Y-3485D01*
Y-3351D01*
Y-3216D01*
Y-3081D01*
Y-2946D01*
Y-2812D01*
Y-2677D01*
Y-2542D01*
Y-2407D01*
X224129D01*
Y-2272D01*
Y-2138D01*
Y-2003D01*
Y-1868D01*
Y-1733D01*
X223994D01*
Y-1599D01*
Y-1464D01*
Y-1329D01*
X223859D01*
Y-1194D01*
Y-1059D01*
X223725D01*
Y-925D01*
Y-790D01*
Y-655D01*
X223590D01*
Y-520D01*
Y-386D01*
X223455D01*
Y-251D01*
X223320D01*
Y-116D01*
Y19D01*
X223186D01*
Y154D01*
Y288D01*
X223051D01*
Y423D01*
X222916D01*
Y558D01*
X222781D01*
Y693D01*
Y827D01*
X222646D01*
Y962D01*
X222512D01*
Y1097D01*
X222377D01*
Y1232D01*
X222242D01*
Y1366D01*
X222107D01*
Y1501D01*
X221973D01*
Y1636D01*
X221838D01*
Y1771D01*
X221568D01*
Y1906D01*
X221433D01*
Y2040D01*
X221299D01*
Y2175D01*
X221029D01*
Y2310D01*
X220760D01*
Y2445D01*
X220625D01*
Y2580D01*
X220355D01*
Y2714D01*
X219951D01*
Y2849D01*
X219681D01*
Y2984D01*
X219142D01*
Y3119D01*
X218603D01*
Y3253D01*
D02*
G37*
G36*
X182887Y2175D02*
X181539D01*
Y2040D01*
X181000D01*
Y1906D01*
X180596D01*
Y1771D01*
X180326D01*
Y1636D01*
X180192D01*
Y1501D01*
X179922D01*
Y1366D01*
X179787D01*
Y1232D01*
X179653D01*
Y1097D01*
X179518D01*
Y962D01*
X179383D01*
Y827D01*
X179248D01*
Y693D01*
X179113D01*
Y558D01*
Y423D01*
X178979D01*
Y288D01*
X178844D01*
Y154D01*
Y19D01*
X178709D01*
Y-116D01*
Y-251D01*
X178574D01*
Y-386D01*
Y-520D01*
Y-655D01*
X178440D01*
Y-790D01*
Y-925D01*
Y-1059D01*
Y-1194D01*
Y-1329D01*
Y-1464D01*
Y-1599D01*
Y-1733D01*
Y-1868D01*
Y-2003D01*
Y-2138D01*
Y-2272D01*
Y-2407D01*
Y-2542D01*
Y-2677D01*
X178574D01*
Y-2812D01*
Y-2946D01*
Y-3081D01*
X178709D01*
Y-3216D01*
Y-3351D01*
X178844D01*
Y-3485D01*
Y-3620D01*
X178979D01*
Y-3755D01*
X179113D01*
Y-3890D01*
Y-4025D01*
X179248D01*
Y-4159D01*
X179383D01*
Y-4294D01*
X179518D01*
Y-4429D01*
X179653D01*
Y-4564D01*
X179787D01*
Y-4698D01*
X180057D01*
Y-4833D01*
X180192D01*
Y-4968D01*
X180461D01*
Y-5103D01*
X180731D01*
Y-5238D01*
X181135D01*
Y-5372D01*
X181674D01*
Y-5507D01*
X182752D01*
Y-5372D01*
X183291D01*
Y-5238D01*
X183696D01*
Y-5103D01*
X183965D01*
Y-4968D01*
X184235D01*
Y-4833D01*
X184370D01*
Y-4698D01*
X184639D01*
Y-4564D01*
X184774D01*
Y-4429D01*
X184909D01*
Y-4294D01*
X185044D01*
Y-4159D01*
X185178D01*
Y-4025D01*
X185313D01*
Y-3890D01*
Y-3755D01*
X185448D01*
Y-3620D01*
X185583D01*
Y-3485D01*
Y-3351D01*
X185718D01*
Y-3216D01*
Y-3081D01*
Y-2946D01*
X185852D01*
Y-2812D01*
Y-2677D01*
Y-2542D01*
X185987D01*
Y-2407D01*
Y-2272D01*
Y-2138D01*
Y-2003D01*
Y-1868D01*
Y-1733D01*
Y-1599D01*
Y-1464D01*
Y-1329D01*
Y-1194D01*
Y-1059D01*
Y-925D01*
Y-790D01*
X185852D01*
Y-655D01*
Y-520D01*
Y-386D01*
Y-251D01*
X185718D01*
Y-116D01*
Y19D01*
X185583D01*
Y154D01*
Y288D01*
X185448D01*
Y423D01*
X185313D01*
Y558D01*
Y693D01*
X185178D01*
Y827D01*
X185044D01*
Y962D01*
X184909D01*
Y1097D01*
X184774D01*
Y1232D01*
X184639D01*
Y1366D01*
X184505D01*
Y1501D01*
X184235D01*
Y1636D01*
X183965D01*
Y1771D01*
X183696D01*
Y1906D01*
X183426D01*
Y2040D01*
X182887D01*
Y2175D01*
D02*
G37*
G36*
X225881Y78998D02*
X223994D01*
Y78863D01*
X223590D01*
Y78728D01*
X223320D01*
Y78594D01*
X223051D01*
Y78459D01*
X222781D01*
Y78324D01*
X222646D01*
Y78189D01*
X222512D01*
Y78055D01*
X222377D01*
Y77920D01*
X222242D01*
Y77785D01*
X222107D01*
Y77650D01*
X221973D01*
Y77516D01*
X221838D01*
Y77381D01*
X221703D01*
Y77246D01*
Y77111D01*
X221568D01*
Y76976D01*
Y76842D01*
X221433D01*
Y76707D01*
Y76572D01*
X221299D01*
Y76437D01*
Y76303D01*
Y76168D01*
Y76033D01*
X221164D01*
Y75898D01*
Y75764D01*
Y75629D01*
Y75494D01*
Y75359D01*
Y75224D01*
Y75090D01*
Y74955D01*
Y74820D01*
Y74685D01*
Y74550D01*
Y74416D01*
X221299D01*
Y74281D01*
Y74146D01*
Y74011D01*
Y73877D01*
X221433D01*
Y73742D01*
Y73607D01*
X221568D01*
Y73472D01*
Y73337D01*
X221703D01*
Y73203D01*
X221838D01*
Y73068D01*
Y72933D01*
X221973D01*
Y72798D01*
X222107D01*
Y72664D01*
X222242D01*
Y72529D01*
X222377D01*
Y72394D01*
X222512D01*
Y72259D01*
X222646D01*
Y72125D01*
X222781D01*
Y71990D01*
X223051D01*
Y71855D01*
X223320D01*
Y71720D01*
X223590D01*
Y71585D01*
X223994D01*
Y71451D01*
X225881D01*
Y71585D01*
X226285D01*
Y71720D01*
X226555D01*
Y71855D01*
X226824D01*
Y71990D01*
X227094D01*
Y72125D01*
X227229D01*
Y72259D01*
X227498D01*
Y72394D01*
X227633D01*
Y72529D01*
X227768D01*
Y72664D01*
X227903D01*
Y72798D01*
Y72933D01*
X228037D01*
Y73068D01*
X228172D01*
Y73203D01*
Y73337D01*
X228307D01*
Y73472D01*
X228442D01*
Y73607D01*
Y73742D01*
Y73877D01*
X228577D01*
Y74011D01*
Y74146D01*
Y74281D01*
X228711D01*
Y74416D01*
Y74550D01*
Y74685D01*
Y74820D01*
Y74955D01*
Y75090D01*
X228846D01*
Y75224D01*
Y75359D01*
X228711D01*
Y75494D01*
Y75629D01*
Y75764D01*
Y75898D01*
Y76033D01*
Y76168D01*
Y76303D01*
X228577D01*
Y76437D01*
Y76572D01*
X228442D01*
Y76707D01*
Y76842D01*
Y76976D01*
X228307D01*
Y77111D01*
X228172D01*
Y77246D01*
Y77381D01*
X228037D01*
Y77516D01*
X227903D01*
Y77650D01*
Y77785D01*
X227768D01*
Y77920D01*
X227633D01*
Y78055D01*
X227498D01*
Y78189D01*
X227229D01*
Y78324D01*
X227094D01*
Y78459D01*
X226824D01*
Y78594D01*
X226690D01*
Y78728D01*
X226285D01*
Y78863D01*
X225881D01*
Y78998D01*
D02*
G37*
G36*
X169275Y108379D02*
X167118D01*
Y108245D01*
X166444D01*
Y108110D01*
X166040D01*
Y107975D01*
X165636D01*
Y107840D01*
X165366D01*
Y107706D01*
X164962D01*
Y107571D01*
X164827D01*
Y107436D01*
X164557D01*
Y107301D01*
X164288D01*
Y107167D01*
X164153D01*
Y107032D01*
X164018D01*
Y106897D01*
X163749D01*
Y106762D01*
X163614D01*
Y106627D01*
X163479D01*
Y106493D01*
X163344D01*
Y106358D01*
X163210D01*
Y106223D01*
X163075D01*
Y106088D01*
X162940D01*
Y105954D01*
X162805D01*
Y105819D01*
X162671D01*
Y105684D01*
Y105549D01*
X162536D01*
Y105414D01*
X162401D01*
Y105280D01*
Y105145D01*
X162266D01*
Y105010D01*
X162132D01*
Y104875D01*
Y104740D01*
X161997D01*
Y104606D01*
Y104471D01*
X161862D01*
Y104336D01*
Y104201D01*
X161727D01*
Y104067D01*
Y103932D01*
X161592D01*
Y103797D01*
Y103662D01*
Y103527D01*
X161458D01*
Y103393D01*
Y103258D01*
Y103123D01*
Y102988D01*
X161323D01*
Y102854D01*
Y102719D01*
Y102584D01*
Y102449D01*
Y102315D01*
Y102180D01*
X161188D01*
Y102045D01*
Y101910D01*
Y101775D01*
Y101641D01*
Y101506D01*
Y101371D01*
Y101236D01*
Y101102D01*
Y100967D01*
Y100832D01*
X161323D01*
Y100697D01*
Y100562D01*
Y100428D01*
Y100293D01*
Y100158D01*
Y100023D01*
Y99888D01*
X161458D01*
Y99754D01*
Y99619D01*
Y99484D01*
X161592D01*
Y99349D01*
Y99215D01*
Y99080D01*
X161727D01*
Y98945D01*
Y98810D01*
Y98675D01*
X161862D01*
Y98541D01*
Y98406D01*
X161997D01*
Y98271D01*
Y98136D01*
X162132D01*
Y98002D01*
Y97867D01*
X162266D01*
Y97732D01*
X162401D01*
Y97597D01*
Y97463D01*
X162536D01*
Y97328D01*
X162671D01*
Y97193D01*
X162805D01*
Y97058D01*
Y96924D01*
X162940D01*
Y96789D01*
X163075D01*
Y96654D01*
X163210D01*
Y96519D01*
X163344D01*
Y96384D01*
X163479D01*
Y96250D01*
X163614D01*
Y96115D01*
X163884D01*
Y95980D01*
X164018D01*
Y95845D01*
X164153D01*
Y95710D01*
X164423D01*
Y95576D01*
X164557D01*
Y95441D01*
X164827D01*
Y95306D01*
X165097D01*
Y95171D01*
X165366D01*
Y95037D01*
X165770D01*
Y94902D01*
X166175D01*
Y94767D01*
X166579D01*
Y94632D01*
X167388D01*
Y94497D01*
X168870D01*
Y94632D01*
X169679D01*
Y94767D01*
X170218D01*
Y94902D01*
X170623D01*
Y95037D01*
X170892D01*
Y95171D01*
X171162D01*
Y95306D01*
X171431D01*
Y95441D01*
X171701D01*
Y95576D01*
X171970D01*
Y95710D01*
X172105D01*
Y95845D01*
X172240D01*
Y95980D01*
X172509D01*
Y96115D01*
X172644D01*
Y96250D01*
X172779D01*
Y96384D01*
X172914D01*
Y96519D01*
X173048D01*
Y96654D01*
X173183D01*
Y96789D01*
X173318D01*
Y96924D01*
X173453D01*
Y97058D01*
X173588D01*
Y97193D01*
X173722D01*
Y97328D01*
Y97463D01*
X173857D01*
Y97597D01*
X173992D01*
Y97732D01*
Y97867D01*
X174127D01*
Y98002D01*
X174261D01*
Y98136D01*
Y98271D01*
X174396D01*
Y98406D01*
Y98541D01*
X174531D01*
Y98675D01*
Y98810D01*
Y98945D01*
X174666D01*
Y99080D01*
Y99215D01*
X174801D01*
Y99349D01*
Y99484D01*
Y99619D01*
Y99754D01*
X174935D01*
Y99888D01*
Y100023D01*
Y100158D01*
Y100293D01*
X175070D01*
Y100428D01*
Y100562D01*
Y100697D01*
Y100832D01*
Y100967D01*
Y101102D01*
Y101236D01*
Y101371D01*
Y101506D01*
Y101641D01*
Y101775D01*
Y101910D01*
Y102045D01*
Y102180D01*
Y102315D01*
Y102449D01*
Y102584D01*
X174935D01*
Y102719D01*
Y102854D01*
Y102988D01*
Y103123D01*
Y103258D01*
X174801D01*
Y103393D01*
Y103527D01*
Y103662D01*
X174666D01*
Y103797D01*
Y103932D01*
Y104067D01*
X174531D01*
Y104201D01*
Y104336D01*
X174396D01*
Y104471D01*
Y104606D01*
X174261D01*
Y104740D01*
Y104875D01*
X174127D01*
Y105010D01*
Y105145D01*
X173992D01*
Y105280D01*
X173857D01*
Y105414D01*
Y105549D01*
X173722D01*
Y105684D01*
X173588D01*
Y105819D01*
X173453D01*
Y105954D01*
X173318D01*
Y106088D01*
X173183D01*
Y106223D01*
Y106358D01*
X172914D01*
Y106493D01*
X172779D01*
Y106627D01*
X172644D01*
Y106762D01*
X172509D01*
Y106897D01*
X172375D01*
Y107032D01*
X172240D01*
Y107167D01*
X171970D01*
Y107301D01*
X171835D01*
Y107436D01*
X171566D01*
Y107571D01*
X171296D01*
Y107706D01*
X171027D01*
Y107840D01*
X170757D01*
Y107975D01*
X170353D01*
Y108110D01*
X169814D01*
Y108245D01*
X169275D01*
Y108379D01*
D02*
G37*
G36*
X201352Y92476D02*
X200408D01*
Y92341D01*
X199734D01*
Y92206D01*
X199465D01*
Y92072D01*
X199195D01*
Y91937D01*
X198926D01*
Y91802D01*
X198656D01*
Y91667D01*
X198521D01*
Y91532D01*
X198386D01*
Y91398D01*
X198252D01*
Y91263D01*
X198117D01*
Y91128D01*
X197982D01*
Y90993D01*
X197847D01*
Y90858D01*
X197713D01*
Y90724D01*
Y90589D01*
X197578D01*
Y90454D01*
X197443D01*
Y90319D01*
Y90185D01*
X197308D01*
Y90050D01*
Y89915D01*
Y89780D01*
X197174D01*
Y89646D01*
Y89511D01*
Y89376D01*
Y89241D01*
X197039D01*
Y89106D01*
Y88972D01*
Y88837D01*
Y88702D01*
Y88567D01*
Y88433D01*
Y88298D01*
Y88163D01*
Y88028D01*
X197174D01*
Y87893D01*
Y87759D01*
Y87624D01*
Y87489D01*
X197308D01*
Y87354D01*
Y87219D01*
Y87085D01*
X197443D01*
Y86950D01*
Y86815D01*
X197578D01*
Y86680D01*
Y86546D01*
X197713D01*
Y86411D01*
X197847D01*
Y86276D01*
Y86141D01*
X197982D01*
Y86006D01*
X198117D01*
Y85872D01*
X198252D01*
Y85737D01*
X198386D01*
Y85602D01*
X198656D01*
Y85467D01*
X198791D01*
Y85333D01*
X199060D01*
Y85198D01*
X199330D01*
Y85063D01*
X199599D01*
Y84928D01*
X200139D01*
Y84794D01*
X201621D01*
Y84928D01*
X202160D01*
Y85063D01*
X202430D01*
Y85198D01*
X202699D01*
Y85333D01*
X202969D01*
Y85467D01*
X203104D01*
Y85602D01*
X203373D01*
Y85737D01*
X203508D01*
Y85872D01*
X203643D01*
Y86006D01*
X203778D01*
Y86141D01*
X203912D01*
Y86276D01*
Y86411D01*
X204047D01*
Y86546D01*
X204182D01*
Y86680D01*
Y86815D01*
X204317D01*
Y86950D01*
Y87085D01*
X204452D01*
Y87219D01*
Y87354D01*
Y87489D01*
X204586D01*
Y87624D01*
Y87759D01*
Y87893D01*
Y88028D01*
X204721D01*
Y88163D01*
Y88298D01*
Y88433D01*
Y88567D01*
Y88702D01*
Y88837D01*
Y88972D01*
Y89106D01*
Y89241D01*
X204586D01*
Y89376D01*
Y89511D01*
Y89646D01*
Y89780D01*
X204452D01*
Y89915D01*
Y90050D01*
Y90185D01*
X204317D01*
Y90319D01*
Y90454D01*
X204182D01*
Y90589D01*
X204047D01*
Y90724D01*
Y90858D01*
X203912D01*
Y90993D01*
X203778D01*
Y91128D01*
X203643D01*
Y91263D01*
X203508D01*
Y91398D01*
X203373D01*
Y91532D01*
X203239D01*
Y91667D01*
X203104D01*
Y91802D01*
X202834D01*
Y91937D01*
X202565D01*
Y92072D01*
X202295D01*
Y92206D01*
X201891D01*
Y92341D01*
X201352D01*
Y92476D01*
D02*
G37*
G36*
X161862Y26435D02*
X160649D01*
Y26300D01*
X160110D01*
Y26165D01*
X159705D01*
Y26031D01*
X159436D01*
Y25896D01*
X159166D01*
Y25761D01*
X159032D01*
Y25626D01*
X158762D01*
Y25492D01*
X158627D01*
Y25357D01*
X158492D01*
Y25222D01*
X158358D01*
Y25087D01*
X158223D01*
Y24952D01*
Y24818D01*
X158088D01*
Y24683D01*
X157953D01*
Y24548D01*
Y24413D01*
X157819D01*
Y24279D01*
Y24144D01*
X157684D01*
Y24009D01*
Y23874D01*
X157549D01*
Y23740D01*
Y23605D01*
Y23470D01*
Y23335D01*
X157414D01*
Y23200D01*
Y23066D01*
Y22931D01*
Y22796D01*
Y22661D01*
Y22527D01*
Y22392D01*
Y22257D01*
Y22122D01*
Y21987D01*
Y21853D01*
X157549D01*
Y21718D01*
Y21583D01*
Y21448D01*
Y21314D01*
X157684D01*
Y21179D01*
Y21044D01*
X157819D01*
Y20909D01*
Y20774D01*
X157953D01*
Y20640D01*
Y20505D01*
X158088D01*
Y20370D01*
X158223D01*
Y20235D01*
Y20101D01*
X158358D01*
Y19966D01*
X158492D01*
Y19831D01*
X158627D01*
Y19696D01*
X158762D01*
Y19561D01*
X159032D01*
Y19427D01*
X159166D01*
Y19292D01*
X159436D01*
Y19157D01*
X159705D01*
Y19022D01*
X160110D01*
Y18887D01*
X160649D01*
Y18753D01*
X161862D01*
Y18887D01*
X162401D01*
Y19022D01*
X162671D01*
Y19157D01*
X163075D01*
Y19292D01*
X163210D01*
Y19427D01*
X163479D01*
Y19561D01*
X163614D01*
Y19696D01*
X163749D01*
Y19831D01*
X163884D01*
Y19966D01*
X164018D01*
Y20101D01*
X164153D01*
Y20235D01*
X164288D01*
Y20370D01*
X164423D01*
Y20505D01*
Y20640D01*
X164557D01*
Y20774D01*
Y20909D01*
X164692D01*
Y21044D01*
Y21179D01*
X164827D01*
Y21314D01*
Y21448D01*
Y21583D01*
X164962D01*
Y21718D01*
Y21853D01*
Y21987D01*
Y22122D01*
Y22257D01*
X165097D01*
Y22392D01*
Y22527D01*
Y22661D01*
Y22796D01*
Y22931D01*
X164962D01*
Y23066D01*
Y23200D01*
Y23335D01*
Y23470D01*
Y23605D01*
X164827D01*
Y23740D01*
Y23874D01*
Y24009D01*
X164692D01*
Y24144D01*
Y24279D01*
X164557D01*
Y24413D01*
Y24548D01*
X164423D01*
Y24683D01*
Y24818D01*
X164288D01*
Y24952D01*
X164153D01*
Y25087D01*
X164018D01*
Y25222D01*
X163884D01*
Y25357D01*
X163749D01*
Y25492D01*
X163614D01*
Y25626D01*
X163479D01*
Y25761D01*
X163210D01*
Y25896D01*
X163075D01*
Y26031D01*
X162671D01*
Y26165D01*
X162401D01*
Y26300D01*
X161862D01*
Y26435D01*
D02*
G37*
G36*
X193130Y59051D02*
X192456D01*
Y58916D01*
X191109D01*
Y58781D01*
X190435D01*
Y58647D01*
X189896D01*
Y58512D01*
X189491D01*
Y58377D01*
X189087D01*
Y58242D01*
X188683D01*
Y58108D01*
X188413D01*
Y57973D01*
X188144D01*
Y57838D01*
X187874D01*
Y57703D01*
X187604D01*
Y57568D01*
X187470D01*
Y57434D01*
X187200D01*
Y57299D01*
X187065D01*
Y57164D01*
X186796D01*
Y57030D01*
X186661D01*
Y56895D01*
X186391D01*
Y56760D01*
X186257D01*
Y56625D01*
X186122D01*
Y56490D01*
X185987D01*
Y56356D01*
X185852D01*
Y56221D01*
X185583D01*
Y56086D01*
X185448D01*
Y55951D01*
X185313D01*
Y55816D01*
X185178D01*
Y55682D01*
X185044D01*
Y55547D01*
Y55412D01*
X184909D01*
Y55277D01*
X184774D01*
Y55143D01*
X184639D01*
Y55008D01*
X184505D01*
Y54873D01*
X184370D01*
Y54738D01*
Y54603D01*
X184235D01*
Y54469D01*
X184100D01*
Y54334D01*
X183965D01*
Y54199D01*
Y54064D01*
X183831D01*
Y53930D01*
Y53795D01*
X183696D01*
Y53660D01*
X183561D01*
Y53525D01*
Y53390D01*
X183426D01*
Y53256D01*
Y53121D01*
X183291D01*
Y52986D01*
Y52851D01*
X183157D01*
Y52717D01*
Y52582D01*
X183022D01*
Y52447D01*
Y52312D01*
Y52178D01*
X182887D01*
Y52043D01*
Y51908D01*
X182752D01*
Y51773D01*
Y51638D01*
Y51504D01*
Y51369D01*
X182618D01*
Y51234D01*
Y51099D01*
Y50964D01*
Y50830D01*
X182483D01*
Y50695D01*
Y50560D01*
Y50425D01*
Y50291D01*
Y50156D01*
X182348D01*
Y50021D01*
Y49886D01*
Y49752D01*
Y49617D01*
Y49482D01*
Y49347D01*
Y49212D01*
Y49078D01*
Y48943D01*
Y48808D01*
Y48673D01*
X182213D01*
Y48538D01*
Y48404D01*
Y48269D01*
Y48134D01*
X182348D01*
Y47999D01*
Y47865D01*
Y47730D01*
Y47595D01*
Y47460D01*
Y47326D01*
Y47191D01*
Y47056D01*
Y46921D01*
Y46786D01*
Y46652D01*
X182483D01*
Y46517D01*
Y46382D01*
Y46247D01*
Y46112D01*
Y45978D01*
X182618D01*
Y45843D01*
Y45708D01*
Y45573D01*
Y45439D01*
X182752D01*
Y45304D01*
Y45169D01*
Y45034D01*
X182887D01*
Y44900D01*
Y44765D01*
Y44630D01*
X183022D01*
Y44495D01*
Y44360D01*
X183157D01*
Y44226D01*
Y44091D01*
Y43956D01*
X183291D01*
Y43821D01*
Y43686D01*
X183426D01*
Y43552D01*
Y43417D01*
X183561D01*
Y43282D01*
Y43147D01*
X183696D01*
Y43013D01*
X183831D01*
Y42878D01*
Y42743D01*
X183965D01*
Y42608D01*
X184100D01*
Y42474D01*
Y42339D01*
X184235D01*
Y42204D01*
X184370D01*
Y42069D01*
X184505D01*
Y41934D01*
Y41800D01*
X184639D01*
Y41665D01*
X184774D01*
Y41530D01*
X184909D01*
Y41395D01*
X185044D01*
Y41260D01*
X185178D01*
Y41126D01*
X185313D01*
Y40991D01*
X185448D01*
Y40856D01*
X185583D01*
Y40721D01*
X185718D01*
Y40587D01*
X185852D01*
Y40452D01*
X185987D01*
Y40317D01*
X186122D01*
Y40182D01*
X186257D01*
Y40047D01*
X186526D01*
Y39913D01*
X186661D01*
Y39778D01*
X186796D01*
Y39643D01*
X187065D01*
Y39508D01*
X187200D01*
Y39374D01*
X187470D01*
Y39239D01*
X187604D01*
Y39104D01*
X187874D01*
Y38969D01*
X188144D01*
Y38835D01*
X188413D01*
Y38700D01*
X188817D01*
Y38565D01*
X189087D01*
Y38430D01*
X189491D01*
Y38295D01*
X189896D01*
Y38161D01*
X190569D01*
Y38026D01*
X191243D01*
Y37891D01*
X194478D01*
Y38026D01*
X195287D01*
Y38161D01*
X195826D01*
Y38295D01*
X196230D01*
Y38430D01*
X196634D01*
Y38565D01*
X196904D01*
Y38700D01*
X197174D01*
Y38835D01*
X197578D01*
Y38969D01*
X197713D01*
Y39104D01*
X197982D01*
Y39239D01*
X198252D01*
Y39374D01*
X198521D01*
Y39508D01*
X198656D01*
Y39643D01*
X198926D01*
Y39778D01*
X199060D01*
Y39913D01*
X199195D01*
Y40047D01*
X199465D01*
Y40182D01*
X199599D01*
Y40317D01*
X199734D01*
Y40452D01*
X199869D01*
Y40587D01*
X200004D01*
Y40721D01*
X200139D01*
Y40856D01*
X200273D01*
Y40991D01*
X200408D01*
Y41126D01*
X200543D01*
Y41260D01*
X200678D01*
Y41395D01*
X200812D01*
Y41530D01*
X200947D01*
Y41665D01*
X201082D01*
Y41800D01*
X201217D01*
Y41934D01*
Y42069D01*
X201352D01*
Y42204D01*
X201486D01*
Y42339D01*
X201621D01*
Y42474D01*
Y42608D01*
X201756D01*
Y42743D01*
X201891D01*
Y42878D01*
Y43013D01*
X202026D01*
Y43147D01*
Y43282D01*
X202160D01*
Y43417D01*
X202295D01*
Y43552D01*
Y43686D01*
X202430D01*
Y43821D01*
Y43956D01*
X202565D01*
Y44091D01*
Y44226D01*
Y44360D01*
X202699D01*
Y44495D01*
Y44630D01*
X202834D01*
Y44765D01*
Y44900D01*
Y45034D01*
X202969D01*
Y45169D01*
Y45304D01*
Y45439D01*
X203104D01*
Y45573D01*
Y45708D01*
Y45843D01*
Y45978D01*
X203239D01*
Y46112D01*
Y46247D01*
Y46382D01*
Y46517D01*
Y46652D01*
Y46786D01*
X203373D01*
Y46921D01*
Y47056D01*
Y47191D01*
Y47326D01*
Y47460D01*
Y47595D01*
Y47730D01*
Y47865D01*
Y47999D01*
Y48134D01*
Y48269D01*
Y48404D01*
Y48538D01*
Y48673D01*
Y48808D01*
Y48943D01*
Y49078D01*
Y49212D01*
Y49347D01*
Y49482D01*
Y49617D01*
Y49752D01*
Y49886D01*
Y50021D01*
Y50156D01*
X203239D01*
Y50291D01*
Y50425D01*
Y50560D01*
Y50695D01*
Y50830D01*
X203104D01*
Y50964D01*
Y51099D01*
Y51234D01*
Y51369D01*
X202969D01*
Y51504D01*
Y51638D01*
Y51773D01*
X202834D01*
Y51908D01*
Y52043D01*
Y52178D01*
X202699D01*
Y52312D01*
Y52447D01*
X202565D01*
Y52582D01*
Y52717D01*
Y52851D01*
X202430D01*
Y52986D01*
Y53121D01*
X202295D01*
Y53256D01*
Y53390D01*
X202160D01*
Y53525D01*
X202026D01*
Y53660D01*
Y53795D01*
X201891D01*
Y53930D01*
Y54064D01*
X201756D01*
Y54199D01*
X201621D01*
Y54334D01*
Y54469D01*
X201486D01*
Y54603D01*
X201352D01*
Y54738D01*
X201217D01*
Y54873D01*
Y55008D01*
X201082D01*
Y55143D01*
X200947D01*
Y55277D01*
X200812D01*
Y55412D01*
X200678D01*
Y55547D01*
X200543D01*
Y55682D01*
X200408D01*
Y55816D01*
X200273D01*
Y55951D01*
X200139D01*
Y56086D01*
X200004D01*
Y56221D01*
X199869D01*
Y56356D01*
X199734D01*
Y56490D01*
X199599D01*
Y56625D01*
X199465D01*
Y56760D01*
X199330D01*
Y56895D01*
X199060D01*
Y57030D01*
X198926D01*
Y57164D01*
X198656D01*
Y57299D01*
X198521D01*
Y57434D01*
X198252D01*
Y57568D01*
X198117D01*
Y57703D01*
X197847D01*
Y57838D01*
X197578D01*
Y57973D01*
X197308D01*
Y58108D01*
X197039D01*
Y58242D01*
X196634D01*
Y58377D01*
X196230D01*
Y58512D01*
X195826D01*
Y58647D01*
X195287D01*
Y58781D01*
X194613D01*
Y58916D01*
X193130D01*
Y59051D01*
D02*
G37*
%LPD*%
G36*
Y56877D02*
X193935D01*
X194505Y56764D01*
X194506Y56763D01*
X194987Y56667D01*
X195045Y56628D01*
X195334Y56571D01*
X195450Y56493D01*
X195738Y56436D01*
X195854Y56358D01*
X196143Y56301D01*
X196258Y56224D01*
X196355Y56205D01*
X196528Y56089D01*
X196625Y56070D01*
X196798Y55954D01*
X196894Y55935D01*
X197067Y55819D01*
X197068Y55819D01*
X197471Y55550D01*
X197473Y55550D01*
X197876Y55280D01*
X197877Y55280D01*
X197896Y55268D01*
X198104Y55128D01*
X198158Y55048D01*
X198238Y54994D01*
X198292Y54914D01*
X198373Y54860D01*
X198427Y54779D01*
X198492Y54735D01*
X198508Y54725D01*
X198562Y54644D01*
X198643Y54590D01*
X198697Y54509D01*
X198778Y54455D01*
X198832Y54374D01*
X198912Y54321D01*
X198966Y54240D01*
X199047Y54186D01*
X199101Y54105D01*
X199182Y54051D01*
X199236Y53970D01*
X199317Y53916D01*
X199371Y53835D01*
X199450Y53782D01*
X199775Y53296D01*
X199855Y53243D01*
X200007Y53016D01*
X200007Y53014D01*
X200122Y52841D01*
X200142Y52745D01*
X200411Y52342D01*
X200411Y52341D01*
X200527Y52168D01*
X200546Y52071D01*
X200623Y51955D01*
X200681Y51667D01*
X200796Y51494D01*
X200815Y51397D01*
X200893Y51281D01*
X200910Y51193D01*
X200950Y50993D01*
X201028Y50877D01*
X201030Y50867D01*
X201085Y50588D01*
X201124Y50530D01*
X201220Y50049D01*
X201221Y50048D01*
X201334Y49478D01*
Y49347D01*
Y49212D01*
Y49078D01*
Y48943D01*
Y48808D01*
Y48673D01*
Y48538D01*
Y48404D01*
Y48269D01*
Y48134D01*
Y47999D01*
Y47865D01*
Y47730D01*
Y47595D01*
D01*
Y47464D01*
X201199Y46786D01*
Y46655D01*
X201124Y46278D01*
Y46278D01*
X201085Y46219D01*
X201028Y45931D01*
X200972Y45847D01*
X200950Y45815D01*
X200893Y45526D01*
X200815Y45410D01*
X200796Y45314D01*
X200681Y45141D01*
X200623Y44852D01*
X200546Y44736D01*
X200527Y44640D01*
X200411Y44467D01*
X200411Y44466D01*
X200142Y44062D01*
X200122Y43966D01*
X200007Y43793D01*
X200007Y43792D01*
X199878Y43599D01*
X199855Y43564D01*
X199775Y43511D01*
X199450Y43025D01*
X199371Y42972D01*
X199317Y42891D01*
X199236Y42837D01*
X199182Y42757D01*
X199101Y42702D01*
X199047Y42622D01*
X198966Y42568D01*
X198912Y42487D01*
X198832Y42433D01*
X198778Y42352D01*
X198697Y42298D01*
X198643Y42217D01*
X198562Y42163D01*
X198508Y42083D01*
X198427Y42029D01*
X198373Y41948D01*
X198292Y41894D01*
X198239Y41814D01*
X197753Y41490D01*
X197700Y41410D01*
X197473Y41258D01*
X197471Y41258D01*
X197298Y41142D01*
X197202Y41123D01*
X197029Y41007D01*
X196932Y40988D01*
X196586Y40757D01*
X196393Y40718D01*
X196220Y40603D01*
X196124Y40584D01*
X195951Y40468D01*
X195854Y40449D01*
X195738Y40371D01*
X195450Y40314D01*
X195334Y40237D01*
X195045Y40179D01*
X194987Y40140D01*
X194609Y40065D01*
X194478D01*
X193801Y39930D01*
X191921D01*
X191351Y40044D01*
X191350Y40045D01*
X190678Y40178D01*
X190676Y40179D01*
X190387Y40237D01*
X190272Y40314D01*
X189983Y40371D01*
X189867Y40449D01*
X189771Y40468D01*
X189598Y40584D01*
X189309Y40641D01*
X189193Y40718D01*
X189097Y40738D01*
X188924Y40853D01*
X188827Y40873D01*
X188654Y40988D01*
X188653Y40988D01*
X188250Y41258D01*
X188249Y41258D01*
X188021Y41410D01*
X187968Y41490D01*
X187863Y41560D01*
X187482Y41814D01*
X187429Y41894D01*
X187348Y41948D01*
X187294Y42029D01*
X187213Y42083D01*
X187159Y42163D01*
X187079Y42217D01*
X187025Y42298D01*
X186944Y42352D01*
X186890Y42433D01*
X186809Y42487D01*
X186755Y42568D01*
X186674Y42622D01*
X186620Y42702D01*
X186602Y42715D01*
X186539Y42756D01*
X186486Y42837D01*
X186405Y42891D01*
X186351Y42972D01*
X186271Y43025D01*
X186158Y43195D01*
X185946Y43511D01*
X185867Y43564D01*
X185715Y43792D01*
X185715Y43793D01*
X185599Y43966D01*
X185445Y44196D01*
X185445Y44197D01*
X185329Y44370D01*
X185310Y44467D01*
X185195Y44640D01*
X185175Y44736D01*
X185098Y44852D01*
X185041Y45141D01*
X184925Y45314D01*
X184906Y45410D01*
X184828Y45526D01*
X184771Y45815D01*
X184694Y45931D01*
X184636Y46219D01*
X184597Y46278D01*
X184502Y46758D01*
X184501Y46760D01*
X184495Y46786D01*
X184387Y47329D01*
Y47460D01*
Y47595D01*
D01*
Y47730D01*
Y47865D01*
Y47999D01*
Y48134D01*
X184334Y48404D01*
X184387Y48673D01*
Y48808D01*
Y48943D01*
Y49078D01*
Y49212D01*
Y49347D01*
Y49478D01*
X184468Y49886D01*
X184501Y50048D01*
X184502Y50049D01*
X184597Y50530D01*
X184636Y50588D01*
X184706Y50938D01*
X184732Y51069D01*
X184771Y51128D01*
X184790Y51224D01*
X184906Y51397D01*
X184963Y51686D01*
X185041Y51801D01*
X185060Y51898D01*
X185175Y52071D01*
X185195Y52168D01*
X185310Y52341D01*
X185329Y52437D01*
X185445Y52610D01*
X185445Y52611D01*
X185715Y53014D01*
X185734Y53109D01*
X185812Y53162D01*
X186136Y53647D01*
X186216Y53701D01*
X186270Y53781D01*
X186351Y53835D01*
X186405Y53916D01*
X186486Y53970D01*
X186810Y54455D01*
X187294Y54779D01*
X187348Y54860D01*
X187429Y54914D01*
X187483Y54994D01*
X187564Y55048D01*
X187617Y55128D01*
X187844Y55280D01*
X187846Y55280D01*
X188249Y55550D01*
X188250Y55550D01*
X188653Y55819D01*
X188654Y55819D01*
X188827Y55935D01*
X188924Y55954D01*
X188974Y55988D01*
X189097Y56070D01*
X189193Y56089D01*
X189250Y56127D01*
X189366Y56205D01*
X189463Y56224D01*
X189485Y56238D01*
X189579Y56301D01*
X189867Y56358D01*
X189983Y56436D01*
X190272Y56493D01*
X190387Y56571D01*
X190676Y56628D01*
X190735Y56667D01*
X191215Y56763D01*
X191217Y56764D01*
X191786Y56877D01*
X192456D01*
X192793Y56944D01*
X193130Y56877D01*
D02*
G37*
D23*
X247125Y62625D02*
X270375D01*
X300500Y32500D01*
D24*
X-13487Y138500D02*
X-5494Y130506D01*
X-14500Y138500D02*
X-13487D01*
X343000Y212951D02*
X367500Y188451D01*
Y107250D02*
Y188451D01*
X328100Y242700D02*
X343000Y227800D01*
Y212951D02*
Y227800D01*
X328100Y134900D02*
X367750Y95250D01*
X328100Y134900D02*
Y217300D01*
X302700Y152199D02*
X357750Y97149D01*
X302700Y152199D02*
Y217300D01*
X367750Y86250D02*
Y95250D01*
X279750Y165250D02*
X346000Y99000D01*
X-5494Y130506D02*
X270263D01*
X261850Y113750D02*
X265600Y117500D01*
X255851Y113750D02*
X261850D01*
X254100Y115500D02*
X255851Y113750D01*
X-7250Y115500D02*
X254100D01*
X268500Y105850D02*
Y110500D01*
X201100Y220100D02*
X213011Y232011D01*
X242512D01*
X209051Y202800D02*
X311350Y100500D01*
X195094Y202800D02*
X209051D01*
X196751Y206800D02*
X212357D01*
X188500Y215051D02*
Y229900D01*
Y215051D02*
X196751Y206800D01*
X175700Y217300D02*
Y222194D01*
X195094Y202800D01*
X521000Y148750D02*
X526000Y143750D01*
X486750Y148750D02*
X521000D01*
X481250Y143250D02*
X486750Y148750D01*
X-14500Y163850D02*
X-13000D01*
X230750Y-21000D02*
X238000D01*
X239750Y-19250D01*
X269250D02*
X276250D01*
X278250Y-21250D01*
X267250Y86250D02*
X272343D01*
X275940Y76004D02*
X276436Y76500D01*
X267513Y76004D02*
X275940D01*
X267263Y96255D02*
X267995D01*
X265600Y117500D02*
X280500D01*
X277300Y167850D02*
X279750Y165399D01*
Y165250D02*
Y165399D01*
X308407Y111750D02*
X310000D01*
X311350Y100500D02*
X313000D01*
X307907Y111250D02*
X308407Y111750D01*
X468750Y62250D02*
X476500Y70000D01*
X495400Y221649D02*
X501551Y227800D01*
X-14500Y113100D02*
X-9650D01*
X-7250Y115500D01*
X264000Y203250D02*
Y230550D01*
Y203250D02*
X272750Y194500D01*
X357750Y93750D02*
Y97149D01*
X428250Y107343D02*
Y149951D01*
X432250Y105686D02*
Y146250D01*
X491000Y212701D02*
Y227800D01*
X495400Y209400D02*
Y221649D01*
X272750Y162500D02*
Y194500D01*
X277300Y167850D02*
Y217300D01*
X415250Y113500D02*
Y228300D01*
X420000Y111750D02*
Y207650D01*
X201100Y217300D02*
Y220100D01*
X501551Y227800D02*
X516400D01*
X-13000Y163850D02*
X12850Y138000D01*
X175700Y242700D02*
X188500Y229900D01*
X276436Y76500D02*
X290686Y62250D01*
X280500Y117500D02*
X290000Y108000D01*
X251850Y242700D02*
X264000Y230550D01*
X424250Y109000D02*
Y161050D01*
X415250Y228300D02*
X429650Y242700D01*
X420000Y207650D02*
X429650Y217300D01*
X491000Y227800D02*
X505900Y242700D01*
X516400Y227800D02*
X531300Y242700D01*
X380500Y78750D02*
X415250Y113500D01*
X382750Y74500D02*
X420000Y111750D01*
X385500Y70250D02*
X424250Y109000D01*
X387157Y66250D02*
X428250Y107343D01*
X388814Y62250D02*
X432250Y105686D01*
X12850Y138000D02*
X222500D01*
X342500Y-22000D02*
X433500D01*
X446500Y62250D02*
X468750D01*
X267995Y96255D02*
X294000Y70250D01*
X272343Y86250D02*
X292343Y66250D01*
X212357Y206800D02*
X307907Y111250D01*
X279500Y104750D02*
X305500Y78750D01*
X268500Y105850D02*
X299851Y74500D01*
X244750Y25000D02*
X291750Y-22000D01*
X424250Y161050D02*
X480500Y217300D01*
X428250Y149951D02*
X491000Y212701D01*
X432250Y146250D02*
X495400Y209400D01*
X291750Y-22000D02*
X342500D01*
X294000Y70250D02*
X385500D01*
X292343Y66250D02*
X387157D01*
X290686Y62250D02*
X388814D01*
X305500Y78750D02*
X380500D01*
X299851Y74500D02*
X382750D01*
D26*
X150250Y217300D02*
D03*
X124900D02*
D03*
X99500D02*
D03*
X74100D02*
D03*
X175700D02*
D03*
X201100D02*
D03*
X226500D02*
D03*
X251850D02*
D03*
X277300D02*
D03*
X302700D02*
D03*
X328100D02*
D03*
X353500D02*
D03*
Y242700D02*
D03*
X328100D02*
D03*
X302700D02*
D03*
X277300D02*
D03*
X251850D02*
D03*
X226500D02*
D03*
X201100D02*
D03*
X175700D02*
D03*
X74100D02*
D03*
X99500D02*
D03*
X124900D02*
D03*
X150250D02*
D03*
X48700D02*
D03*
X378900D02*
D03*
X404300D02*
D03*
X429650D02*
D03*
X455100D02*
D03*
X480500D02*
D03*
X505900D02*
D03*
X531300D02*
D03*
Y217300D02*
D03*
X505900D02*
D03*
X480500D02*
D03*
X455100D02*
D03*
X429650D02*
D03*
X404300D02*
D03*
X378900D02*
D03*
X-14500Y163850D02*
D03*
Y138500D02*
D03*
Y113100D02*
D03*
Y87700D02*
D03*
D27*
X48700Y217300D02*
D03*
D28*
X-14500Y62300D02*
D03*
D29*
X594050Y68750D02*
D03*
Y152750D02*
D03*
D30*
X564050Y88750D02*
D03*
D31*
Y132750D02*
D03*
D32*
X0Y0D02*
D03*
Y230000D02*
D03*
X580000Y0D02*
D03*
Y230000D02*
D03*
D33*
X600051Y110750D02*
D03*
X300500Y32500D02*
D03*
X367500Y107250D02*
D03*
X346000Y99000D02*
D03*
X270263Y130506D02*
D03*
X258750Y120750D02*
D03*
X268500Y110500D02*
D03*
X242512Y232011D02*
D03*
X247125Y62625D02*
D03*
X85000Y164000D02*
D03*
X500750Y136750D02*
D03*
X407250Y126750D02*
D03*
X439750Y143250D02*
D03*
X323000Y54750D02*
D03*
X240750Y137750D02*
D03*
X305500Y127000D02*
D03*
X298000Y99500D02*
D03*
X552000Y145250D02*
D03*
X523500Y158000D02*
D03*
X469750Y173500D02*
D03*
X379750Y130500D02*
D03*
X231500Y107500D02*
D03*
X263750Y183000D02*
D03*
X284000Y33000D02*
D03*
X300500Y8750D02*
D03*
X232750Y-250D02*
D03*
X99750Y189500D02*
D03*
X129750Y165500D02*
D03*
X113000Y165750D02*
D03*
X196250Y99500D02*
D03*
X214000Y98500D02*
D03*
X278250Y-21250D02*
D03*
X230750Y-21000D02*
D03*
X244750Y25000D02*
D03*
X459750Y98500D02*
D03*
X480000D02*
D03*
Y118750D02*
D03*
X460000D02*
D03*
X470000Y108750D02*
D03*
X267513Y76004D02*
D03*
X267250Y86250D02*
D03*
X267263Y96255D02*
D03*
X279500Y104750D02*
D03*
X357750Y93750D02*
D03*
X367750Y86250D02*
D03*
X290000Y108000D02*
D03*
X481250Y143250D02*
D03*
X526000Y143750D02*
D03*
X476500Y70000D02*
D03*
X446500Y62250D02*
D03*
X310000Y111750D02*
D03*
X313000Y100500D02*
D03*
X272750Y162500D02*
D03*
X222500Y138000D02*
D03*
D34*
X239750Y-19250D02*
D03*
X269250D02*
D03*
D35*
X342500Y-22000D02*
D03*
Y23000D02*
D03*
X433500D02*
D03*
Y-22000D02*
D03*
M02*
