M48
;Layer_Color=9474304
;FILE_FORMAT=4:4
METRIC,LZ
;TYPE=PLATED
T3F00S00C0.3000
T6F00S00C0.9000
;TYPE=NON_PLATED
T2F00S00C2.7500
%
T03
X0050075Y0013675
X00526Y0014375
X005235Y00158
X00552Y0014525
X00600051Y0011075
X0048Y0011875
X0046
X0047Y0010875
X0048Y000985
X0045975
X004765Y0007
X004465Y0006225
X0043975Y0014325
X0048125
X0046975Y001735
X0040725Y0012675
X0037975Y001305
X003675Y0010725
X0036775Y0008625
X0035775Y0009375
X00346Y00099
X00313Y001005
X0031Y0011175
X003055Y00127
X0029Y00108
X002795Y0010475
X002685Y001105
X00267263Y00096255
X0026725Y0008625
X00267513Y00076004
X00247125Y00062625
X0024475Y00025
X0023275Y-0000025
X0023075Y-00021
X0027825Y-0002125
X003005Y0000875
Y000325
X00284Y00033
X00323Y0005475
X00298Y000995
X00270263Y00130506
X0025875Y0012075
X0024075Y0013775
X002225Y00138
X002315Y001075
X00214Y000985
X0019625Y000995
X0012975Y001655
X00113Y0016575
X0027275Y001625
X0026375Y00183
X00242512Y00232011
X0009975Y001895
X00085Y00164
T06
X005059Y002173
X005313
X004805
X004551
X0042965
X004043
X003789
X003535
X003281
X003027
X002773
X0025185
X002265
X002011
X001757
X0015025
X001249
X000995
X000741
X000487
X-000145Y0016385
Y001385
Y001131
Y000877
Y000623
X000487Y002427
X000741
X000995
X001249
X0015025
X001757
X002011
X002265
X0025185
X002773
X003027
X003281
X003535
X003789
X004043
X0042965
X004551
X004805
X005059
X005313
T02
X0058Y0
Y0023
X0
Y0
M30
