G04 Layer_Color=32896*
%FSLAX44Y44*%
%MOMM*%
G71*
G01*
G75*
%ADD24C,0.2000*%
%ADD25C,0.1500*%
%ADD37C,0.1000*%
G36*
X132076Y65790D02*
X132750D01*
Y65655D01*
X133154D01*
Y65520D01*
X133289D01*
Y65386D01*
X133559D01*
Y65251D01*
X133694D01*
Y65116D01*
X133828D01*
Y64847D01*
X133963D01*
Y64577D01*
X134098D01*
Y64307D01*
X134233D01*
Y64038D01*
X134367D01*
Y63768D01*
X134502D01*
Y63364D01*
X134637D01*
Y63094D01*
X134772D01*
Y62825D01*
X134907D01*
Y62555D01*
X135041D01*
Y62286D01*
X135176D01*
Y61881D01*
X135311D01*
Y61612D01*
X135446D01*
Y61342D01*
X135581D01*
Y61073D01*
X135715D01*
Y60803D01*
X135850D01*
Y60534D01*
X135985D01*
Y60129D01*
X136119D01*
Y59860D01*
X136254D01*
Y59590D01*
X136389D01*
Y59321D01*
X136524D01*
Y59051D01*
X136659D01*
Y58781D01*
X136793D01*
Y58377D01*
X136928D01*
Y58108D01*
X137063D01*
Y57838D01*
X137198D01*
Y57568D01*
X137332D01*
Y57299D01*
X137467D01*
Y56895D01*
X137602D01*
Y56625D01*
X137737D01*
Y56356D01*
X137872D01*
Y56086D01*
X138006D01*
Y55816D01*
X138141D01*
Y55547D01*
X138276D01*
Y55143D01*
X138411D01*
Y54873D01*
X138546D01*
Y54603D01*
X138680D01*
Y54334D01*
X138815D01*
Y54064D01*
X138950D01*
Y53660D01*
X139085D01*
Y53390D01*
X139219D01*
Y53121D01*
X139354D01*
Y52851D01*
X139489D01*
Y52582D01*
X139624D01*
Y52312D01*
X139759D01*
Y51908D01*
X139893D01*
Y51638D01*
X140028D01*
Y51369D01*
X140163D01*
Y51099D01*
X140298D01*
Y50830D01*
X140432D01*
Y50560D01*
X140567D01*
Y50156D01*
X140702D01*
Y49886D01*
X140837D01*
Y49617D01*
X140971D01*
Y49347D01*
X141106D01*
Y49078D01*
X141241D01*
Y48673D01*
X141376D01*
Y48404D01*
X141511D01*
Y48134D01*
X141645D01*
Y47865D01*
X141780D01*
Y47595D01*
X141915D01*
Y47326D01*
X142050D01*
Y46921D01*
X142184D01*
Y46652D01*
X142319D01*
Y46382D01*
X142454D01*
Y46112D01*
X142589D01*
Y45843D01*
X142724D01*
Y45573D01*
X142858D01*
Y45169D01*
X142993D01*
Y44900D01*
X143128D01*
Y44630D01*
X143263D01*
Y44360D01*
X143398D01*
Y44091D01*
X143532D01*
Y43686D01*
X143667D01*
Y43417D01*
X143802D01*
Y43147D01*
X143937D01*
Y42878D01*
X144071D01*
Y42608D01*
X144206D01*
Y42339D01*
X144341D01*
Y41934D01*
X144476D01*
Y41665D01*
X144611D01*
Y41395D01*
X144745D01*
Y41126D01*
X144880D01*
Y40856D01*
X145015D01*
Y40452D01*
X145150D01*
Y40182D01*
X145284D01*
Y39913D01*
X145419D01*
Y39643D01*
X145554D01*
Y39374D01*
X145689D01*
Y39104D01*
X145823D01*
Y38700D01*
X145958D01*
Y38430D01*
X146093D01*
Y38161D01*
X146228D01*
Y37891D01*
X146363D01*
Y37622D01*
X146497D01*
Y37352D01*
X146632D01*
Y36948D01*
X146767D01*
Y36678D01*
X146902D01*
Y36409D01*
X147037D01*
Y36139D01*
X147171D01*
Y35869D01*
X147306D01*
Y35465D01*
X147441D01*
Y35196D01*
X147576D01*
Y34926D01*
X147710D01*
Y34656D01*
X147845D01*
Y34387D01*
X147980D01*
Y33848D01*
X148115D01*
Y33039D01*
X147980D01*
Y32500D01*
X147845D01*
Y32231D01*
X147710D01*
Y31961D01*
X147576D01*
Y31826D01*
X147441D01*
Y31691D01*
X147306D01*
Y31557D01*
X147171D01*
Y31422D01*
X146902D01*
Y31287D01*
X146767D01*
Y31152D01*
X146363D01*
Y31017D01*
X144880D01*
Y31152D01*
X144476D01*
Y31287D01*
X144206D01*
Y31422D01*
X144071D01*
Y31557D01*
X143937D01*
Y31691D01*
X143802D01*
Y31826D01*
X143667D01*
Y31961D01*
X143532D01*
Y32231D01*
X143398D01*
Y32500D01*
X143263D01*
Y32770D01*
X143128D01*
Y33039D01*
X142993D01*
Y33309D01*
X142858D01*
Y33713D01*
X142724D01*
Y33983D01*
X142589D01*
Y34252D01*
X142454D01*
Y34522D01*
X142319D01*
Y34791D01*
X142184D01*
Y35061D01*
X142050D01*
Y35465D01*
X141915D01*
Y35735D01*
X141780D01*
Y36004D01*
X141645D01*
Y36274D01*
X141511D01*
Y36543D01*
X141376D01*
Y36948D01*
X141241D01*
Y37217D01*
X141106D01*
Y37487D01*
X140971D01*
Y37756D01*
X140837D01*
Y38026D01*
X140702D01*
Y38295D01*
X140567D01*
Y38700D01*
X140432D01*
Y38969D01*
X140298D01*
Y39239D01*
X140163D01*
Y39508D01*
X140028D01*
Y39778D01*
X139893D01*
Y40182D01*
X139759D01*
Y40452D01*
X139624D01*
Y40721D01*
X139489D01*
Y40991D01*
X139354D01*
Y41260D01*
X139219D01*
Y41665D01*
X139085D01*
Y41934D01*
X138950D01*
Y42204D01*
X138815D01*
Y42474D01*
X138680D01*
Y42743D01*
X138546D01*
Y43013D01*
X138411D01*
Y43417D01*
X138276D01*
Y43686D01*
X138141D01*
Y43956D01*
X138006D01*
Y44226D01*
X137872D01*
Y44495D01*
X137737D01*
Y44900D01*
X137602D01*
Y45169D01*
X137467D01*
Y45439D01*
X137332D01*
Y45708D01*
X137198D01*
Y45978D01*
X137063D01*
Y46247D01*
X136928D01*
Y46652D01*
X136793D01*
Y46921D01*
X136659D01*
Y47191D01*
X136524D01*
Y47460D01*
X136389D01*
Y47730D01*
X136254D01*
Y48134D01*
X136119D01*
Y48404D01*
X135985D01*
Y48673D01*
X135850D01*
Y48943D01*
X135715D01*
Y49212D01*
X135581D01*
Y49617D01*
X135446D01*
Y49886D01*
X135311D01*
Y50156D01*
X135176D01*
Y50425D01*
X135041D01*
Y50695D01*
X134907D01*
Y50964D01*
X134772D01*
Y51369D01*
X134637D01*
Y51638D01*
X134502D01*
Y51908D01*
X134367D01*
Y52178D01*
X134233D01*
Y52447D01*
X134098D01*
Y52851D01*
X133963D01*
Y53121D01*
X133828D01*
Y53390D01*
X133694D01*
Y53660D01*
X133559D01*
Y53930D01*
X133424D01*
Y54199D01*
X133289D01*
Y54603D01*
X133154D01*
Y54873D01*
X133020D01*
Y55143D01*
X132885D01*
Y55412D01*
X132750D01*
Y55682D01*
X132615D01*
Y56086D01*
X132481D01*
Y56356D01*
X132346D01*
Y56625D01*
X132211D01*
Y56895D01*
X132076D01*
Y57164D01*
X131941D01*
Y57434D01*
X131807D01*
Y57164D01*
X131672D01*
Y56895D01*
X131537D01*
Y56625D01*
X131402D01*
Y56356D01*
X131268D01*
Y55951D01*
X131133D01*
Y55682D01*
X130998D01*
Y55412D01*
X130863D01*
Y55143D01*
X130729D01*
Y54873D01*
X130594D01*
Y54469D01*
X130459D01*
Y54199D01*
X130324D01*
Y53930D01*
X130189D01*
Y53660D01*
X130055D01*
Y53390D01*
X129920D01*
Y53121D01*
X129785D01*
Y52717D01*
X129650D01*
Y52447D01*
X129515D01*
Y52178D01*
X129381D01*
Y51908D01*
X129246D01*
Y51638D01*
X129111D01*
Y51234D01*
X128976D01*
Y50964D01*
X128842D01*
Y50695D01*
X128707D01*
Y50425D01*
X128572D01*
Y50156D01*
X128437D01*
Y49886D01*
X128302D01*
Y49482D01*
X128168D01*
Y49212D01*
X128033D01*
Y48943D01*
X127898D01*
Y48673D01*
X127763D01*
Y48404D01*
X127629D01*
Y47999D01*
X127494D01*
Y47730D01*
X127359D01*
Y47460D01*
X127224D01*
Y47191D01*
X127090D01*
Y46921D01*
X126955D01*
Y46652D01*
X126820D01*
Y46247D01*
X126685D01*
Y45978D01*
X126550D01*
Y45708D01*
X126416D01*
Y45439D01*
X126281D01*
Y45169D01*
X126146D01*
Y44765D01*
X126011D01*
Y44495D01*
X125877D01*
Y44226D01*
X125742D01*
Y43956D01*
X125607D01*
Y43686D01*
X125472D01*
Y43282D01*
X125337D01*
Y43013D01*
X125203D01*
Y42743D01*
X125068D01*
Y42474D01*
X124933D01*
Y42204D01*
X124798D01*
Y41934D01*
X124663D01*
Y41530D01*
X124529D01*
Y41260D01*
X124394D01*
Y40991D01*
X124259D01*
Y40721D01*
X124124D01*
Y40452D01*
X123990D01*
Y40047D01*
X123855D01*
Y39778D01*
X123720D01*
Y39508D01*
X123585D01*
Y39239D01*
X123450D01*
Y38969D01*
X123316D01*
Y38700D01*
X123181D01*
Y38295D01*
X123046D01*
Y38026D01*
X122911D01*
Y37756D01*
X122777D01*
Y37487D01*
X122642D01*
Y37217D01*
X122507D01*
Y36813D01*
X122372D01*
Y36543D01*
X122238D01*
Y36274D01*
X122103D01*
Y36004D01*
X121968D01*
Y35735D01*
X121833D01*
Y35330D01*
X121698D01*
Y35061D01*
X121564D01*
Y34791D01*
X121429D01*
Y34522D01*
X121294D01*
Y34252D01*
X121159D01*
Y33983D01*
X121025D01*
Y33578D01*
X120890D01*
Y33309D01*
X120755D01*
Y33039D01*
X120620D01*
Y32770D01*
X120485D01*
Y32500D01*
X120351D01*
Y32231D01*
X120216D01*
Y31961D01*
X120081D01*
Y31826D01*
X119946D01*
Y31691D01*
X119811D01*
Y31557D01*
X119677D01*
Y31422D01*
X119542D01*
Y31287D01*
X119272D01*
Y31152D01*
X119003D01*
Y31017D01*
X117386D01*
Y31152D01*
X116981D01*
Y31287D01*
X116847D01*
Y31422D01*
X116577D01*
Y31557D01*
X116442D01*
Y31691D01*
X116307D01*
Y31826D01*
X116173D01*
Y31961D01*
X116038D01*
Y32231D01*
X115903D01*
Y32500D01*
X115768D01*
Y33039D01*
X115633D01*
Y33848D01*
X115768D01*
Y34387D01*
X115903D01*
Y34656D01*
X116038D01*
Y34926D01*
X116173D01*
Y35196D01*
X116307D01*
Y35465D01*
X116442D01*
Y35735D01*
X116577D01*
Y36139D01*
X116712D01*
Y36409D01*
X116847D01*
Y36678D01*
X116981D01*
Y36948D01*
X117116D01*
Y37217D01*
X117251D01*
Y37622D01*
X117386D01*
Y37891D01*
X117520D01*
Y38161D01*
X117655D01*
Y38430D01*
X117790D01*
Y38700D01*
X117925D01*
Y38969D01*
X118059D01*
Y39374D01*
X118194D01*
Y39643D01*
X118329D01*
Y39913D01*
X118464D01*
Y40182D01*
X118598D01*
Y40452D01*
X118733D01*
Y40721D01*
X118868D01*
Y41126D01*
X119003D01*
Y41395D01*
X119138D01*
Y41665D01*
X119272D01*
Y41934D01*
X119407D01*
Y42204D01*
X119542D01*
Y42608D01*
X119677D01*
Y42878D01*
X119811D01*
Y43147D01*
X119946D01*
Y43417D01*
X120081D01*
Y43686D01*
X120216D01*
Y43956D01*
X120351D01*
Y44360D01*
X120485D01*
Y44630D01*
X120620D01*
Y44900D01*
X120755D01*
Y45169D01*
X120890D01*
Y45439D01*
X121025D01*
Y45843D01*
X121159D01*
Y46112D01*
X121294D01*
Y46382D01*
X121429D01*
Y46652D01*
X121564D01*
Y46921D01*
X121698D01*
Y47191D01*
X121833D01*
Y47595D01*
X121968D01*
Y47865D01*
X122103D01*
Y48134D01*
X122238D01*
Y48404D01*
X122372D01*
Y48673D01*
X122507D01*
Y48943D01*
X122642D01*
Y49347D01*
X122777D01*
Y49617D01*
X122911D01*
Y49886D01*
X123046D01*
Y50156D01*
X123181D01*
Y50425D01*
X123316D01*
Y50830D01*
X123450D01*
Y51099D01*
X123585D01*
Y51369D01*
X123720D01*
Y51638D01*
X123855D01*
Y51908D01*
X123990D01*
Y52178D01*
X124124D01*
Y52582D01*
X124259D01*
Y52851D01*
X124394D01*
Y53121D01*
X124529D01*
Y53390D01*
X124663D01*
Y53660D01*
X124798D01*
Y54064D01*
X124933D01*
Y54334D01*
X125068D01*
Y54603D01*
X125203D01*
Y54873D01*
X125337D01*
Y55143D01*
X125472D01*
Y55412D01*
X125607D01*
Y55816D01*
X125742D01*
Y56086D01*
X125877D01*
Y56356D01*
X126011D01*
Y56625D01*
X126146D01*
Y56895D01*
X126281D01*
Y57164D01*
X126416D01*
Y57568D01*
X126550D01*
Y57838D01*
X126685D01*
Y58108D01*
X126820D01*
Y58377D01*
X126955D01*
Y58647D01*
X127090D01*
Y59051D01*
X127224D01*
Y59321D01*
X127359D01*
Y59590D01*
X127494D01*
Y59860D01*
X127629D01*
Y60129D01*
X127763D01*
Y60399D01*
X127898D01*
Y60803D01*
X128033D01*
Y61073D01*
X128168D01*
Y61342D01*
X128302D01*
Y61612D01*
X128437D01*
Y61881D01*
X128572D01*
Y62151D01*
X128707D01*
Y62555D01*
X128842D01*
Y62825D01*
X128976D01*
Y63094D01*
X129111D01*
Y63364D01*
X129246D01*
Y63633D01*
X129381D01*
Y64038D01*
X129515D01*
Y64307D01*
X129650D01*
Y64577D01*
X129785D01*
Y64847D01*
X129920D01*
Y64981D01*
X130055D01*
Y65116D01*
X130189D01*
Y65251D01*
X130324D01*
Y65386D01*
X130459D01*
Y65520D01*
X130729D01*
Y65655D01*
X130998D01*
Y65790D01*
X131672D01*
Y65925D01*
X132076D01*
Y65790D01*
D02*
G37*
G36*
X235854D02*
X236394D01*
Y65655D01*
X236798D01*
Y65520D01*
X236933D01*
Y65386D01*
X237202D01*
Y65251D01*
X237337D01*
Y65116D01*
X237472D01*
Y64981D01*
X237607D01*
Y64712D01*
X237741D01*
Y64577D01*
X237876D01*
Y64173D01*
X238011D01*
Y62555D01*
X237876D01*
Y62286D01*
X237741D01*
Y62016D01*
X237607D01*
Y61881D01*
X237472D01*
Y61747D01*
X237337D01*
Y61612D01*
X237202D01*
Y61477D01*
X237068D01*
Y61342D01*
X236798D01*
Y61207D01*
X236528D01*
Y61073D01*
X236124D01*
Y60938D01*
X234237D01*
Y60803D01*
X233294D01*
Y60668D01*
X232755D01*
Y60534D01*
X232350D01*
Y60399D01*
X231946D01*
Y60264D01*
X231677D01*
Y60129D01*
X231407D01*
Y59995D01*
X231137D01*
Y59860D01*
X230868D01*
Y59725D01*
X230733D01*
Y59590D01*
X230464D01*
Y59455D01*
X230329D01*
Y59321D01*
X230194D01*
Y59186D01*
X230059D01*
Y59051D01*
X229924D01*
Y58916D01*
X229790D01*
Y58781D01*
X229655D01*
Y58647D01*
X229520D01*
Y58512D01*
X229385D01*
Y58242D01*
X229251D01*
Y58108D01*
X229116D01*
Y57838D01*
X228981D01*
Y57568D01*
X228846D01*
Y57299D01*
X228711D01*
Y57030D01*
X228577D01*
Y56625D01*
X228442D01*
Y56086D01*
X228307D01*
Y55412D01*
X228172D01*
Y54334D01*
X228037D01*
Y35869D01*
X233833D01*
Y35735D01*
X234237D01*
Y35600D01*
X234372D01*
Y35465D01*
X234642D01*
Y35330D01*
X234776D01*
Y35196D01*
X234911D01*
Y35061D01*
X235046D01*
Y34926D01*
X235181D01*
Y34656D01*
X235315D01*
Y34522D01*
X235450D01*
Y34117D01*
X235585D01*
Y32770D01*
X235450D01*
Y32365D01*
X235315D01*
Y32096D01*
X235181D01*
Y31961D01*
X235046D01*
Y31826D01*
X234911D01*
Y31691D01*
X234776D01*
Y31557D01*
X234642D01*
Y31422D01*
X234507D01*
Y31287D01*
X234237D01*
Y31152D01*
X233968D01*
Y31017D01*
X228172D01*
Y30883D01*
X228037D01*
Y17674D01*
X227903D01*
Y17405D01*
X227768D01*
Y17135D01*
X227633D01*
Y16866D01*
X227498D01*
Y16731D01*
X227364D01*
Y16596D01*
X227229D01*
Y16462D01*
X226959D01*
Y16327D01*
X226824D01*
Y16192D01*
X226555D01*
Y16057D01*
X225881D01*
Y15922D01*
X225342D01*
Y16057D01*
X224668D01*
Y16192D01*
X224398D01*
Y16327D01*
X224264D01*
Y16462D01*
X223994D01*
Y16596D01*
X223859D01*
Y16731D01*
X223725D01*
Y16866D01*
X223590D01*
Y17135D01*
X223455D01*
Y17405D01*
X223320D01*
Y17674D01*
X223186D01*
Y30883D01*
X223051D01*
Y31017D01*
X219816D01*
Y31152D01*
X219547D01*
Y31287D01*
X219277D01*
Y31422D01*
X219142D01*
Y31557D01*
X218873D01*
Y31691D01*
X218738D01*
Y31961D01*
X218603D01*
Y32096D01*
X218468D01*
Y32365D01*
X218333D01*
Y32635D01*
X218199D01*
Y34117D01*
X218333D01*
Y34522D01*
X218468D01*
Y34791D01*
X218603D01*
Y34926D01*
X218738D01*
Y35061D01*
X218873D01*
Y35196D01*
X219007D01*
Y35330D01*
X219142D01*
Y35465D01*
X219277D01*
Y35600D01*
X219547D01*
Y35735D01*
X219951D01*
Y35869D01*
X223186D01*
Y55547D01*
X223320D01*
Y56625D01*
X223455D01*
Y57299D01*
X223590D01*
Y57973D01*
X223725D01*
Y58377D01*
X223859D01*
Y58916D01*
X223994D01*
Y59186D01*
X224129D01*
Y59590D01*
X224264D01*
Y59860D01*
X224398D01*
Y60264D01*
X224533D01*
Y60534D01*
X224668D01*
Y60668D01*
X224803D01*
Y60938D01*
X224938D01*
Y61207D01*
X225072D01*
Y61342D01*
X225207D01*
Y61612D01*
X225342D01*
Y61747D01*
X225477D01*
Y61881D01*
X225611D01*
Y62151D01*
X225746D01*
Y62286D01*
X225881D01*
Y62421D01*
X226016D01*
Y62555D01*
X226151D01*
Y62690D01*
X226285D01*
Y62825D01*
X226420D01*
Y62960D01*
X226555D01*
Y63094D01*
X226690D01*
Y63229D01*
X226824D01*
Y63364D01*
X226959D01*
Y63499D01*
X227229D01*
Y63633D01*
X227364D01*
Y63768D01*
X227633D01*
Y63903D01*
X227768D01*
Y64038D01*
X228037D01*
Y64173D01*
X228172D01*
Y64307D01*
X228442D01*
Y64442D01*
X228711D01*
Y64577D01*
X228981D01*
Y64712D01*
X229385D01*
Y64847D01*
X229655D01*
Y64981D01*
X230059D01*
Y65116D01*
X230464D01*
Y65251D01*
X230868D01*
Y65386D01*
X231542D01*
Y65520D01*
X232216D01*
Y65655D01*
X233024D01*
Y65790D01*
X235046D01*
Y65925D01*
X235854D01*
Y65790D01*
D02*
G37*
G36*
X257000Y-22750D02*
X252000Y-19750D01*
X257000Y-16750D01*
Y-22750D01*
D02*
G37*
G36*
X161458Y65790D02*
X162132D01*
Y65655D01*
X162401D01*
Y65520D01*
X162536D01*
Y65386D01*
X162805D01*
Y65251D01*
X162940D01*
Y65116D01*
X163075D01*
Y64981D01*
X163210D01*
Y64712D01*
X163344D01*
Y64577D01*
X163479D01*
Y64173D01*
X163614D01*
Y32635D01*
X163479D01*
Y32231D01*
X163344D01*
Y32096D01*
X163210D01*
Y31826D01*
X163075D01*
Y31691D01*
X162940D01*
Y31557D01*
X162805D01*
Y31422D01*
X162536D01*
Y31287D01*
X162401D01*
Y31152D01*
X161997D01*
Y31017D01*
X160379D01*
Y31152D01*
X160110D01*
Y31287D01*
X159840D01*
Y31422D01*
X159705D01*
Y31557D01*
X159571D01*
Y31691D01*
X159436D01*
Y31826D01*
X159301D01*
Y31961D01*
X159166D01*
Y32096D01*
X159032D01*
Y32365D01*
X158897D01*
Y32770D01*
X158762D01*
Y64038D01*
X158897D01*
Y64442D01*
X159032D01*
Y64712D01*
X159166D01*
Y64847D01*
X159301D01*
Y64981D01*
X159436D01*
Y65116D01*
X159571D01*
Y65251D01*
X159705D01*
Y65386D01*
X159840D01*
Y65520D01*
X160110D01*
Y65655D01*
X160379D01*
Y65790D01*
X161053D01*
Y65925D01*
X161458D01*
Y65790D01*
D02*
G37*
G36*
X105795D02*
X106469D01*
Y65655D01*
X106738D01*
Y65520D01*
X107008D01*
Y65386D01*
X107142D01*
Y65251D01*
X107277D01*
Y65116D01*
X107412D01*
Y64981D01*
X107547D01*
Y64847D01*
X107682D01*
Y64577D01*
X107816D01*
Y64307D01*
X107951D01*
Y63903D01*
X108086D01*
Y32770D01*
X107951D01*
Y32365D01*
X107816D01*
Y32096D01*
X107682D01*
Y31826D01*
X107547D01*
Y31691D01*
X107412D01*
Y31557D01*
X107277D01*
Y31422D01*
X107142D01*
Y31287D01*
X107008D01*
Y31152D01*
X106738D01*
Y31017D01*
X106469D01*
Y30883D01*
X105795D01*
Y30748D01*
X105390D01*
Y30883D01*
X104717D01*
Y31017D01*
X104447D01*
Y31152D01*
X104177D01*
Y31287D01*
X104043D01*
Y31422D01*
X103908D01*
Y31557D01*
X103773D01*
Y31691D01*
X103638D01*
Y31826D01*
X103504D01*
Y32096D01*
X103369D01*
Y32365D01*
X103234D01*
Y32904D01*
X103099D01*
Y36139D01*
X102964D01*
Y36004D01*
X102830D01*
Y35869D01*
X102695D01*
Y35735D01*
X102560D01*
Y35600D01*
X102425D01*
Y35465D01*
X102290D01*
Y35330D01*
X102156D01*
Y35196D01*
X101886D01*
Y35061D01*
X101751D01*
Y34926D01*
X101617D01*
Y34791D01*
X101482D01*
Y34656D01*
X101347D01*
Y34522D01*
X101077D01*
Y34387D01*
X100943D01*
Y34252D01*
X100808D01*
Y34117D01*
X100538D01*
Y33983D01*
X100404D01*
Y33848D01*
X100134D01*
Y33713D01*
X99999D01*
Y33578D01*
X99730D01*
Y33444D01*
X99595D01*
Y33309D01*
X99325D01*
Y33174D01*
X99056D01*
Y33039D01*
X98921D01*
Y32904D01*
X98652D01*
Y32770D01*
X98382D01*
Y32635D01*
X98112D01*
Y32500D01*
X97708D01*
Y32365D01*
X97438D01*
Y32231D01*
X97169D01*
Y32096D01*
X96765D01*
Y31961D01*
X96360D01*
Y31826D01*
X95956D01*
Y31691D01*
X95552D01*
Y31557D01*
X95013D01*
Y31422D01*
X94473D01*
Y31287D01*
X93800D01*
Y31152D01*
X92856D01*
Y31017D01*
X88408D01*
Y31152D01*
X87465D01*
Y31287D01*
X86791D01*
Y31422D01*
X86117D01*
Y31557D01*
X85713D01*
Y31691D01*
X85174D01*
Y31826D01*
X84769D01*
Y31961D01*
X84500D01*
Y32096D01*
X84096D01*
Y32231D01*
X83826D01*
Y32365D01*
X83422D01*
Y32500D01*
X83152D01*
Y32635D01*
X82883D01*
Y32770D01*
X82613D01*
Y32904D01*
X82344D01*
Y33039D01*
X82074D01*
Y33174D01*
X81939D01*
Y33309D01*
X81670D01*
Y33444D01*
X81400D01*
Y33578D01*
X81265D01*
Y33713D01*
X80996D01*
Y33848D01*
X80861D01*
Y33983D01*
X80591D01*
Y34117D01*
X80457D01*
Y34252D01*
X80322D01*
Y34387D01*
X80052D01*
Y34522D01*
X79917D01*
Y34656D01*
X79783D01*
Y34791D01*
X79648D01*
Y34926D01*
X79378D01*
Y35061D01*
X79244D01*
Y35196D01*
X79109D01*
Y35330D01*
X78974D01*
Y35465D01*
X78839D01*
Y35600D01*
X78705D01*
Y35735D01*
X78570D01*
Y35869D01*
X78435D01*
Y36004D01*
X78300D01*
Y36139D01*
X78165D01*
Y36274D01*
X78031D01*
Y36409D01*
X77896D01*
Y36543D01*
X77761D01*
Y36678D01*
X77626D01*
Y36813D01*
X77491D01*
Y36948D01*
X77357D01*
Y37083D01*
X77222D01*
Y37217D01*
X77087D01*
Y37487D01*
X76952D01*
Y37622D01*
X76818D01*
Y37756D01*
X76683D01*
Y37891D01*
X76548D01*
Y38161D01*
X76413D01*
Y38295D01*
X76279D01*
Y38430D01*
X76144D01*
Y38700D01*
X76009D01*
Y38835D01*
X75874D01*
Y39104D01*
X75739D01*
Y39239D01*
X75605D01*
Y39508D01*
X75470D01*
Y39778D01*
X75335D01*
Y40047D01*
X75200D01*
Y40182D01*
X75066D01*
Y40452D01*
X74931D01*
Y40721D01*
X74796D01*
Y40991D01*
X74661D01*
Y41395D01*
X74526D01*
Y41665D01*
X74392D01*
Y41934D01*
X74257D01*
Y42339D01*
X74122D01*
Y42743D01*
X73987D01*
Y43147D01*
X73853D01*
Y43552D01*
X73718D01*
Y44091D01*
X73583D01*
Y44765D01*
X73448D01*
Y45439D01*
X73313D01*
Y46517D01*
X73179D01*
Y50291D01*
X73313D01*
Y51369D01*
X73448D01*
Y52043D01*
X73583D01*
Y52717D01*
X73718D01*
Y53256D01*
X73853D01*
Y53660D01*
X73987D01*
Y54064D01*
X74122D01*
Y54469D01*
X74257D01*
Y54873D01*
X74392D01*
Y55143D01*
X74526D01*
Y55547D01*
X74661D01*
Y55816D01*
X74796D01*
Y56086D01*
X74931D01*
Y56356D01*
X75066D01*
Y56625D01*
X75200D01*
Y56895D01*
X75335D01*
Y57030D01*
X75470D01*
Y57299D01*
X75605D01*
Y57568D01*
X75739D01*
Y57703D01*
X75874D01*
Y57973D01*
X76009D01*
Y58108D01*
X76144D01*
Y58377D01*
X76279D01*
Y58512D01*
X76413D01*
Y58647D01*
X76548D01*
Y58916D01*
X76683D01*
Y59051D01*
X76818D01*
Y59186D01*
X76952D01*
Y59455D01*
X77087D01*
Y59590D01*
X77222D01*
Y59725D01*
X77357D01*
Y59860D01*
X77491D01*
Y59995D01*
X77626D01*
Y60129D01*
X77761D01*
Y60264D01*
X77896D01*
Y60399D01*
X78031D01*
Y60534D01*
X78165D01*
Y60668D01*
X78300D01*
Y60803D01*
X78435D01*
Y60938D01*
X78570D01*
Y61073D01*
X78705D01*
Y61207D01*
X78839D01*
Y61342D01*
X78974D01*
Y61477D01*
X79109D01*
Y61612D01*
X79244D01*
Y61747D01*
X79378D01*
Y61881D01*
X79513D01*
Y62016D01*
X79783D01*
Y62151D01*
X79917D01*
Y62286D01*
X80052D01*
Y62421D01*
X80187D01*
Y62555D01*
X80457D01*
Y62690D01*
X80591D01*
Y62825D01*
X80861D01*
Y62960D01*
X80996D01*
Y63094D01*
X81265D01*
Y63229D01*
X81400D01*
Y63364D01*
X81670D01*
Y63499D01*
X81804D01*
Y63633D01*
X82074D01*
Y63768D01*
X82344D01*
Y63903D01*
X82613D01*
Y64038D01*
X82883D01*
Y64173D01*
X83152D01*
Y64307D01*
X83422D01*
Y64442D01*
X83691D01*
Y64577D01*
X84096D01*
Y64712D01*
X84365D01*
Y64847D01*
X84769D01*
Y64981D01*
X85174D01*
Y65116D01*
X85578D01*
Y65251D01*
X86117D01*
Y65386D01*
X86656D01*
Y65520D01*
X87330D01*
Y65655D01*
X88274D01*
Y65790D01*
X90161D01*
Y65925D01*
X91104D01*
Y65790D01*
X92991D01*
Y65655D01*
X93800D01*
Y65520D01*
X94473D01*
Y65386D01*
X95147D01*
Y65251D01*
X95552D01*
Y65116D01*
X95956D01*
Y64981D01*
X96360D01*
Y64847D01*
X96765D01*
Y64712D01*
X97169D01*
Y64577D01*
X97438D01*
Y64442D01*
X97708D01*
Y64307D01*
X98112D01*
Y64173D01*
X98382D01*
Y64038D01*
X98652D01*
Y63903D01*
X98786D01*
Y63768D01*
X99056D01*
Y63633D01*
X99325D01*
Y63499D01*
X99595D01*
Y63364D01*
X99730D01*
Y63229D01*
X99999D01*
Y63094D01*
X100134D01*
Y62960D01*
X100404D01*
Y62825D01*
X100538D01*
Y62690D01*
X100808D01*
Y62555D01*
X100943D01*
Y62421D01*
X101077D01*
Y62286D01*
X101347D01*
Y62151D01*
X101482D01*
Y62016D01*
X101617D01*
Y61881D01*
X101751D01*
Y61747D01*
X102021D01*
Y61612D01*
X102156D01*
Y61477D01*
X102290D01*
Y61342D01*
X102425D01*
Y61207D01*
X102560D01*
Y61073D01*
X102695D01*
Y60938D01*
X102830D01*
Y60803D01*
X102964D01*
Y60668D01*
X103099D01*
Y63768D01*
X103234D01*
Y64307D01*
X103369D01*
Y64577D01*
X103504D01*
Y64847D01*
X103638D01*
Y64981D01*
X103773D01*
Y65116D01*
X103908D01*
Y65251D01*
X104043D01*
Y65386D01*
X104177D01*
Y65520D01*
X104447D01*
Y65655D01*
X104717D01*
Y65790D01*
X105390D01*
Y65925D01*
X105795D01*
Y65790D01*
D02*
G37*
G36*
X53097D02*
X53771D01*
Y65655D01*
X54040D01*
Y65520D01*
X54310D01*
Y65386D01*
X54445D01*
Y65251D01*
X54579D01*
Y65116D01*
X54714D01*
Y64981D01*
X54849D01*
Y64712D01*
X54984D01*
Y64442D01*
X55119D01*
Y64173D01*
X55253D01*
Y63768D01*
X55388D01*
Y63364D01*
X55523D01*
Y62960D01*
X55658D01*
Y62555D01*
X55792D01*
Y62151D01*
X55927D01*
Y61747D01*
X56062D01*
Y61342D01*
X56197D01*
Y60938D01*
X56332D01*
Y60534D01*
X56466D01*
Y60129D01*
X56601D01*
Y59725D01*
X56736D01*
Y59321D01*
X56871D01*
Y58916D01*
X57005D01*
Y58512D01*
X57140D01*
Y58108D01*
X57275D01*
Y57703D01*
X57410D01*
Y57299D01*
X57544D01*
Y56895D01*
X57679D01*
Y56490D01*
X57814D01*
Y56086D01*
X57949D01*
Y55682D01*
X58084D01*
Y55277D01*
X58218D01*
Y54873D01*
X58353D01*
Y54469D01*
X58488D01*
Y54064D01*
X58623D01*
Y53660D01*
X58758D01*
Y53256D01*
X58892D01*
Y52851D01*
X59027D01*
Y52447D01*
X59162D01*
Y52043D01*
X59297D01*
Y51638D01*
X59431D01*
Y51234D01*
X59566D01*
Y50830D01*
X59701D01*
Y50425D01*
X59836D01*
Y50021D01*
X59970D01*
Y49617D01*
X60105D01*
Y49212D01*
X60240D01*
Y48808D01*
X60375D01*
Y48404D01*
X60510D01*
Y47999D01*
X60644D01*
Y47595D01*
X60779D01*
Y47191D01*
X60914D01*
Y46786D01*
X61049D01*
Y46382D01*
X61184D01*
Y45978D01*
X61318D01*
Y45573D01*
X61453D01*
Y45169D01*
X61588D01*
Y44765D01*
X61723D01*
Y44360D01*
X61857D01*
Y43956D01*
X61992D01*
Y43552D01*
X62127D01*
Y43147D01*
X62262D01*
Y42743D01*
X62396D01*
Y42339D01*
X62531D01*
Y41934D01*
X62666D01*
Y41530D01*
X62801D01*
Y41126D01*
X62936D01*
Y40721D01*
X63070D01*
Y40317D01*
X63205D01*
Y39913D01*
X63340D01*
Y39508D01*
X63475D01*
Y39104D01*
X63609D01*
Y38700D01*
X63744D01*
Y38295D01*
X63879D01*
Y37891D01*
X64014D01*
Y37487D01*
X64149D01*
Y37083D01*
X64283D01*
Y36678D01*
X64418D01*
Y36274D01*
X64553D01*
Y35869D01*
X64688D01*
Y35465D01*
X64823D01*
Y35061D01*
X64957D01*
Y34656D01*
X65092D01*
Y34252D01*
X65227D01*
Y32635D01*
X65092D01*
Y32365D01*
X64957D01*
Y32096D01*
X64823D01*
Y31826D01*
X64688D01*
Y31691D01*
X64553D01*
Y31557D01*
X64418D01*
Y31422D01*
X64149D01*
Y31287D01*
X63879D01*
Y31152D01*
X63609D01*
Y31017D01*
X61992D01*
Y31152D01*
X61723D01*
Y31287D01*
X61453D01*
Y31422D01*
X61318D01*
Y31557D01*
X61184D01*
Y31691D01*
X61049D01*
Y31826D01*
X60914D01*
Y31961D01*
X60779D01*
Y32096D01*
X60644D01*
Y32365D01*
X60510D01*
Y32770D01*
X60375D01*
Y33174D01*
X60240D01*
Y33578D01*
X60105D01*
Y33983D01*
X59970D01*
Y34387D01*
X59836D01*
Y34791D01*
X59701D01*
Y35196D01*
X59566D01*
Y35600D01*
X59431D01*
Y36004D01*
X59297D01*
Y36409D01*
X59162D01*
Y36813D01*
X59027D01*
Y37217D01*
X58892D01*
Y37622D01*
X58758D01*
Y38026D01*
X58623D01*
Y38430D01*
X58488D01*
Y38835D01*
X58353D01*
Y39239D01*
X58218D01*
Y39643D01*
X58084D01*
Y40047D01*
X57949D01*
Y40452D01*
X57814D01*
Y40856D01*
X57679D01*
Y41260D01*
X57544D01*
Y41665D01*
X57410D01*
Y42069D01*
X57275D01*
Y42474D01*
X57140D01*
Y42878D01*
X57005D01*
Y43282D01*
X56871D01*
Y43686D01*
X56736D01*
Y44091D01*
X56601D01*
Y44495D01*
X56466D01*
Y44900D01*
X56332D01*
Y45304D01*
X56197D01*
Y45708D01*
X56062D01*
Y46112D01*
X55927D01*
Y46517D01*
X55792D01*
Y46921D01*
X55658D01*
Y47326D01*
X55523D01*
Y47730D01*
X55388D01*
Y48134D01*
X55253D01*
Y48538D01*
X55119D01*
Y48943D01*
X54984D01*
Y49347D01*
X54849D01*
Y49752D01*
X54714D01*
Y50156D01*
X54579D01*
Y50560D01*
X54445D01*
Y50964D01*
X54310D01*
Y51369D01*
X54175D01*
Y51773D01*
X54040D01*
Y52178D01*
X53906D01*
Y52582D01*
X53771D01*
Y52986D01*
X53636D01*
Y53390D01*
X53501D01*
Y53795D01*
X53366D01*
Y54199D01*
X53232D01*
Y54603D01*
X53097D01*
Y55008D01*
X52962D01*
Y55412D01*
X52693D01*
Y55008D01*
X52558D01*
Y54603D01*
X52423D01*
Y54199D01*
X52288D01*
Y53795D01*
X52154D01*
Y53390D01*
X52019D01*
Y52986D01*
X51884D01*
Y52582D01*
X51749D01*
Y52178D01*
X51614D01*
Y51773D01*
X51480D01*
Y51369D01*
X51345D01*
Y50964D01*
X51210D01*
Y50560D01*
X51075D01*
Y50156D01*
X50940D01*
Y49752D01*
X50806D01*
Y49347D01*
X50671D01*
Y48943D01*
X50536D01*
Y48538D01*
X50401D01*
Y48134D01*
X50267D01*
Y47730D01*
X50132D01*
Y47326D01*
X49997D01*
Y46921D01*
X49862D01*
Y46517D01*
X49728D01*
Y46112D01*
X49593D01*
Y45708D01*
X49458D01*
Y45304D01*
X49323D01*
Y44900D01*
X49188D01*
Y44495D01*
X49054D01*
Y44091D01*
X48919D01*
Y43686D01*
X48784D01*
Y43282D01*
X48649D01*
Y42878D01*
X48514D01*
Y42474D01*
X48380D01*
Y42069D01*
X48245D01*
Y41665D01*
X48110D01*
Y41260D01*
X47975D01*
Y40856D01*
X47841D01*
Y40452D01*
X47706D01*
Y40047D01*
X47571D01*
Y39643D01*
X47436D01*
Y39239D01*
X47302D01*
Y38835D01*
X47167D01*
Y38430D01*
X47032D01*
Y38026D01*
X46897D01*
Y37622D01*
X46762D01*
Y37217D01*
X46628D01*
Y36813D01*
X46493D01*
Y36409D01*
X46358D01*
Y36004D01*
X46223D01*
Y35600D01*
X46089D01*
Y35196D01*
X45954D01*
Y34791D01*
X45819D01*
Y34387D01*
X45684D01*
Y33983D01*
X45549D01*
Y33578D01*
X45415D01*
Y33174D01*
X45280D01*
Y32770D01*
X45145D01*
Y32365D01*
X45010D01*
Y32096D01*
X44875D01*
Y31961D01*
X44741D01*
Y31691D01*
X44606D01*
Y31557D01*
X44336D01*
Y31422D01*
X44202D01*
Y31287D01*
X43932D01*
Y31152D01*
X43663D01*
Y31017D01*
X42045D01*
Y31152D01*
X41776D01*
Y31287D01*
X41506D01*
Y31422D01*
X41237D01*
Y31557D01*
X41102D01*
Y31691D01*
X40967D01*
Y31961D01*
X40832D01*
Y32096D01*
X40697D01*
Y32365D01*
X40563D01*
Y32635D01*
X40428D01*
Y33039D01*
X40293D01*
Y33444D01*
X40158D01*
Y33848D01*
X40023D01*
Y34252D01*
X39889D01*
Y34656D01*
X39754D01*
Y35061D01*
X39619D01*
Y35465D01*
X39484D01*
Y35869D01*
X39350D01*
Y36274D01*
X39215D01*
Y36678D01*
X39080D01*
Y37083D01*
X38945D01*
Y37487D01*
X38811D01*
Y37891D01*
X38676D01*
Y38295D01*
X38541D01*
Y38700D01*
X38406D01*
Y39104D01*
X38271D01*
Y39508D01*
X38137D01*
Y39913D01*
X38002D01*
Y40317D01*
X37867D01*
Y40721D01*
X37732D01*
Y41126D01*
X37597D01*
Y41530D01*
X37463D01*
Y41934D01*
X37328D01*
Y42339D01*
X37193D01*
Y42743D01*
X37058D01*
Y43147D01*
X36924D01*
Y43552D01*
X36789D01*
Y43956D01*
X36654D01*
Y44360D01*
X36519D01*
Y44765D01*
X36385D01*
Y45169D01*
X36250D01*
Y45573D01*
X36115D01*
Y45978D01*
X35980D01*
Y46382D01*
X35845D01*
Y46786D01*
X35711D01*
Y47191D01*
X35576D01*
Y47595D01*
X35441D01*
Y47999D01*
X35306D01*
Y48404D01*
X35172D01*
Y48808D01*
X35037D01*
Y49212D01*
X34902D01*
Y49617D01*
X34767D01*
Y50021D01*
X34632D01*
Y50425D01*
X34498D01*
Y50830D01*
X34363D01*
Y51234D01*
X34228D01*
Y51638D01*
X34093D01*
Y52043D01*
X33959D01*
Y52447D01*
X33824D01*
Y52851D01*
X33689D01*
Y53256D01*
X33554D01*
Y53660D01*
X33419D01*
Y54064D01*
X33285D01*
Y54469D01*
X33150D01*
Y54873D01*
X33015D01*
Y55277D01*
X32880D01*
Y55412D01*
X32746D01*
Y55143D01*
X32611D01*
Y54738D01*
X32476D01*
Y54334D01*
X32341D01*
Y53930D01*
X32206D01*
Y53525D01*
X32072D01*
Y53121D01*
X31937D01*
Y52717D01*
X31802D01*
Y52312D01*
X31667D01*
Y51908D01*
X31533D01*
Y51504D01*
X31398D01*
Y51099D01*
X31263D01*
Y50695D01*
X31128D01*
Y50291D01*
X30993D01*
Y49886D01*
X30859D01*
Y49482D01*
X30724D01*
Y49078D01*
X30589D01*
Y48673D01*
X30454D01*
Y48269D01*
X30320D01*
Y47865D01*
X30185D01*
Y47460D01*
X30050D01*
Y47056D01*
X29915D01*
Y46652D01*
X29780D01*
Y46247D01*
X29646D01*
Y45843D01*
X29511D01*
Y45439D01*
X29376D01*
Y45034D01*
X29241D01*
Y44630D01*
X29107D01*
Y44226D01*
X28972D01*
Y43821D01*
X28837D01*
Y43417D01*
X28702D01*
Y43013D01*
X28568D01*
Y42608D01*
X28433D01*
Y42204D01*
X28298D01*
Y41800D01*
X28163D01*
Y41395D01*
X28028D01*
Y40991D01*
X27894D01*
Y40587D01*
X27759D01*
Y40182D01*
X27624D01*
Y39778D01*
X27489D01*
Y39374D01*
X27355D01*
Y38969D01*
X27220D01*
Y38565D01*
X27085D01*
Y38161D01*
X26950D01*
Y37756D01*
X26815D01*
Y37352D01*
X26681D01*
Y36948D01*
X26546D01*
Y36543D01*
X26411D01*
Y36139D01*
X26276D01*
Y35735D01*
X26142D01*
Y35330D01*
X26007D01*
Y34926D01*
X25872D01*
Y34522D01*
X25737D01*
Y34117D01*
X25602D01*
Y33713D01*
X25468D01*
Y33309D01*
X25333D01*
Y32904D01*
X25198D01*
Y32500D01*
X25063D01*
Y32231D01*
X24929D01*
Y31961D01*
X24794D01*
Y31826D01*
X24659D01*
Y31691D01*
X24524D01*
Y31557D01*
X24389D01*
Y31422D01*
X24255D01*
Y31287D01*
X23985D01*
Y31152D01*
X23716D01*
Y31017D01*
X22098D01*
Y31152D01*
X21694D01*
Y31287D01*
X21559D01*
Y31422D01*
X21290D01*
Y31557D01*
X21155D01*
Y31691D01*
X21020D01*
Y31826D01*
X20885D01*
Y31961D01*
X20750D01*
Y32231D01*
X20616D01*
Y32500D01*
X20481D01*
Y33039D01*
X20346D01*
Y33848D01*
X20481D01*
Y34387D01*
X20616D01*
Y34791D01*
X20750D01*
Y35196D01*
X20885D01*
Y35600D01*
X21020D01*
Y36004D01*
X21155D01*
Y36409D01*
X21290D01*
Y36813D01*
X21424D01*
Y37217D01*
X21559D01*
Y37622D01*
X21694D01*
Y38026D01*
X21829D01*
Y38430D01*
X21963D01*
Y38835D01*
X22098D01*
Y39239D01*
X22233D01*
Y39643D01*
X22368D01*
Y40047D01*
X22503D01*
Y40452D01*
X22637D01*
Y40856D01*
X22772D01*
Y41260D01*
X22907D01*
Y41665D01*
X23042D01*
Y42069D01*
X23176D01*
Y42474D01*
X23311D01*
Y42878D01*
X23446D01*
Y43282D01*
X23581D01*
Y43686D01*
X23716D01*
Y44091D01*
X23850D01*
Y44495D01*
X23985D01*
Y44900D01*
X24120D01*
Y45304D01*
X24255D01*
Y45708D01*
X24389D01*
Y46112D01*
X24524D01*
Y46517D01*
X24659D01*
Y46921D01*
X24794D01*
Y47326D01*
X24929D01*
Y47730D01*
X25063D01*
Y48134D01*
X25198D01*
Y48538D01*
X25333D01*
Y48943D01*
X25468D01*
Y49347D01*
X25602D01*
Y49752D01*
X25737D01*
Y50156D01*
X25872D01*
Y50560D01*
X26007D01*
Y50964D01*
X26142D01*
Y51369D01*
X26276D01*
Y51773D01*
X26411D01*
Y52178D01*
X26546D01*
Y52582D01*
X26681D01*
Y52986D01*
X26815D01*
Y53390D01*
X26950D01*
Y53795D01*
X27085D01*
Y54199D01*
X27220D01*
Y54603D01*
X27355D01*
Y55008D01*
X27489D01*
Y55412D01*
X27624D01*
Y55816D01*
X27759D01*
Y56221D01*
X27894D01*
Y56625D01*
X28028D01*
Y57030D01*
X28163D01*
Y57434D01*
X28298D01*
Y57838D01*
X28433D01*
Y58242D01*
X28568D01*
Y58647D01*
X28702D01*
Y59051D01*
X28837D01*
Y59455D01*
X28972D01*
Y59860D01*
X29107D01*
Y60264D01*
X29241D01*
Y60668D01*
X29376D01*
Y61073D01*
X29511D01*
Y61477D01*
X29646D01*
Y61881D01*
X29780D01*
Y62286D01*
X29915D01*
Y62690D01*
X30050D01*
Y63094D01*
X30185D01*
Y63499D01*
X30320D01*
Y63903D01*
X30454D01*
Y64307D01*
X30589D01*
Y64577D01*
X30724D01*
Y64847D01*
X30859D01*
Y64981D01*
X30993D01*
Y65116D01*
X31128D01*
Y65251D01*
X31263D01*
Y65386D01*
X31398D01*
Y65520D01*
X31667D01*
Y65655D01*
X31937D01*
Y65790D01*
X32611D01*
Y65925D01*
X33015D01*
Y65790D01*
X33689D01*
Y65655D01*
X34093D01*
Y65520D01*
X34228D01*
Y65386D01*
X34498D01*
Y65251D01*
X34632D01*
Y65116D01*
X34767D01*
Y64847D01*
X34902D01*
Y64712D01*
X35037D01*
Y64442D01*
X35172D01*
Y64038D01*
X35306D01*
Y63633D01*
X35441D01*
Y63229D01*
X35576D01*
Y62825D01*
X35711D01*
Y62421D01*
X35845D01*
Y62016D01*
X35980D01*
Y61612D01*
X36115D01*
Y61207D01*
X36250D01*
Y60803D01*
X36385D01*
Y60399D01*
X36519D01*
Y59995D01*
X36654D01*
Y59590D01*
X36789D01*
Y59186D01*
X36924D01*
Y58781D01*
X37058D01*
Y58377D01*
X37193D01*
Y57973D01*
X37328D01*
Y57568D01*
X37463D01*
Y57164D01*
X37597D01*
Y56760D01*
X37732D01*
Y56356D01*
X37867D01*
Y55951D01*
X38002D01*
Y55547D01*
X38137D01*
Y55143D01*
X38271D01*
Y54738D01*
X38406D01*
Y54334D01*
X38541D01*
Y53930D01*
X38676D01*
Y53525D01*
X38811D01*
Y53121D01*
X38945D01*
Y52717D01*
X39080D01*
Y52312D01*
X39215D01*
Y51908D01*
X39350D01*
Y51504D01*
X39484D01*
Y51099D01*
X39619D01*
Y50695D01*
X39754D01*
Y50291D01*
X39889D01*
Y49886D01*
X40023D01*
Y49482D01*
X40158D01*
Y49078D01*
X40293D01*
Y48673D01*
X40428D01*
Y48269D01*
X40563D01*
Y47865D01*
X40697D01*
Y47460D01*
X40832D01*
Y47056D01*
X40967D01*
Y46652D01*
X41102D01*
Y46247D01*
X41237D01*
Y45843D01*
X41371D01*
Y45439D01*
X41506D01*
Y45034D01*
X41641D01*
Y44630D01*
X41776D01*
Y44226D01*
X41910D01*
Y43821D01*
X42045D01*
Y43417D01*
X42180D01*
Y43013D01*
X42315D01*
Y42608D01*
X42449D01*
Y42204D01*
X42584D01*
Y41800D01*
X42719D01*
Y41395D01*
X42854D01*
Y41530D01*
X42989D01*
Y41934D01*
X43123D01*
Y42339D01*
X43258D01*
Y42743D01*
X43393D01*
Y43147D01*
X43528D01*
Y43552D01*
X43663D01*
Y43956D01*
X43797D01*
Y44360D01*
X43932D01*
Y44765D01*
X44067D01*
Y45169D01*
X44202D01*
Y45573D01*
X44336D01*
Y45978D01*
X44471D01*
Y46382D01*
X44606D01*
Y46786D01*
X44741D01*
Y47191D01*
X44875D01*
Y47595D01*
X45010D01*
Y47999D01*
X45145D01*
Y48404D01*
X45280D01*
Y48808D01*
X45415D01*
Y49212D01*
X45549D01*
Y49617D01*
X45684D01*
Y50021D01*
X45819D01*
Y50425D01*
X45954D01*
Y50830D01*
X46089D01*
Y51234D01*
X46223D01*
Y51638D01*
X46358D01*
Y52043D01*
X46493D01*
Y52447D01*
X46628D01*
Y52851D01*
X46762D01*
Y53256D01*
X46897D01*
Y53660D01*
X47032D01*
Y54064D01*
X47167D01*
Y54469D01*
X47302D01*
Y54873D01*
X47436D01*
Y55277D01*
X47571D01*
Y55682D01*
X47706D01*
Y56086D01*
X47841D01*
Y56490D01*
X47975D01*
Y56895D01*
X48110D01*
Y57299D01*
X48245D01*
Y57703D01*
X48380D01*
Y58108D01*
X48514D01*
Y58512D01*
X48649D01*
Y58916D01*
X48784D01*
Y59321D01*
X48919D01*
Y59725D01*
X49054D01*
Y60129D01*
X49188D01*
Y60534D01*
X49323D01*
Y60938D01*
X49458D01*
Y61342D01*
X49593D01*
Y61747D01*
X49728D01*
Y62151D01*
X49862D01*
Y62555D01*
X49997D01*
Y62960D01*
X50132D01*
Y63364D01*
X50267D01*
Y63768D01*
X50401D01*
Y64173D01*
X50536D01*
Y64442D01*
X50671D01*
Y64712D01*
X50806D01*
Y64981D01*
X50940D01*
Y65116D01*
X51075D01*
Y65251D01*
X51210D01*
Y65386D01*
X51480D01*
Y65520D01*
X51614D01*
Y65655D01*
X52019D01*
Y65790D01*
X52558D01*
Y65925D01*
X53097D01*
Y65790D01*
D02*
G37*
%LPC*%
G36*
X92048Y60938D02*
X89217D01*
Y60803D01*
X88274D01*
Y60668D01*
X87600D01*
Y60534D01*
X87061D01*
Y60399D01*
X86656D01*
Y60264D01*
X86252D01*
Y60129D01*
X85848D01*
Y59995D01*
X85578D01*
Y59860D01*
X85309D01*
Y59725D01*
X85039D01*
Y59590D01*
X84769D01*
Y59455D01*
X84500D01*
Y59321D01*
X84230D01*
Y59186D01*
X84096D01*
Y59051D01*
X83826D01*
Y58916D01*
X83691D01*
Y58781D01*
X83422D01*
Y58647D01*
X83287D01*
Y58512D01*
X83017D01*
Y58377D01*
X82883D01*
Y58242D01*
X82748D01*
Y58108D01*
X82613D01*
Y57973D01*
X82478D01*
Y57838D01*
X82209D01*
Y57703D01*
X82074D01*
Y57568D01*
X81939D01*
Y57434D01*
X81804D01*
Y57299D01*
X81670D01*
Y57164D01*
X81535D01*
Y57030D01*
X81400D01*
Y56895D01*
X81265D01*
Y56760D01*
X81131D01*
Y56625D01*
Y56490D01*
X80996D01*
Y56356D01*
X80861D01*
Y56221D01*
X80726D01*
Y56086D01*
X80591D01*
Y55951D01*
Y55816D01*
X80457D01*
Y55682D01*
X80322D01*
Y55547D01*
X80187D01*
Y55412D01*
Y55277D01*
X80052D01*
Y55143D01*
X79917D01*
Y55008D01*
Y54873D01*
X79783D01*
Y54738D01*
Y54603D01*
X79648D01*
Y54469D01*
X79513D01*
Y54334D01*
Y54199D01*
X79378D01*
Y54064D01*
Y53930D01*
X79244D01*
Y53795D01*
Y53660D01*
X79109D01*
Y53525D01*
Y53390D01*
X78974D01*
Y53256D01*
Y53121D01*
Y52986D01*
X78839D01*
Y52851D01*
Y52717D01*
Y52582D01*
X78705D01*
Y52447D01*
Y52312D01*
Y52178D01*
X78570D01*
Y52043D01*
Y51908D01*
Y51773D01*
X78435D01*
Y51638D01*
Y51504D01*
Y51369D01*
Y51234D01*
X78300D01*
Y51099D01*
Y50964D01*
Y50830D01*
Y50695D01*
Y50560D01*
Y50425D01*
X78165D01*
Y50291D01*
Y50156D01*
Y50021D01*
Y49886D01*
Y49752D01*
Y49617D01*
Y49482D01*
Y49347D01*
Y49212D01*
X78031D01*
Y49078D01*
Y48943D01*
Y48808D01*
Y48673D01*
Y48538D01*
Y48404D01*
Y48269D01*
Y48134D01*
Y47999D01*
Y47865D01*
Y47730D01*
Y47595D01*
X78165D01*
Y47460D01*
Y47326D01*
Y47191D01*
Y47056D01*
Y46921D01*
Y46786D01*
Y46652D01*
Y46517D01*
Y46382D01*
X78300D01*
Y46247D01*
Y46112D01*
Y45978D01*
Y45843D01*
Y45708D01*
Y45573D01*
X78435D01*
Y45439D01*
Y45304D01*
Y45169D01*
Y45034D01*
X78570D01*
Y44900D01*
Y44765D01*
Y44630D01*
X78705D01*
Y44495D01*
Y44360D01*
Y44226D01*
X78839D01*
Y44091D01*
Y43956D01*
Y43821D01*
X78974D01*
Y43686D01*
Y43552D01*
X79109D01*
Y43417D01*
Y43282D01*
Y43147D01*
X79244D01*
Y43013D01*
Y42878D01*
X79378D01*
Y42743D01*
Y42608D01*
X79513D01*
Y42474D01*
Y42339D01*
X79648D01*
Y42204D01*
X79783D01*
Y42069D01*
Y41934D01*
X79917D01*
Y41800D01*
Y41665D01*
X80052D01*
Y41530D01*
X80187D01*
Y41395D01*
Y41260D01*
X80322D01*
Y41126D01*
X80457D01*
Y40991D01*
X80591D01*
Y40856D01*
Y40721D01*
X80726D01*
Y40587D01*
X80861D01*
Y40452D01*
X80996D01*
Y40317D01*
X81131D01*
Y40182D01*
X81265D01*
Y40047D01*
X81400D01*
Y39913D01*
Y39778D01*
X81535D01*
Y39643D01*
X81670D01*
Y39508D01*
X81804D01*
Y39374D01*
X81939D01*
Y39239D01*
X82209D01*
Y39104D01*
X82344D01*
Y38969D01*
X82478D01*
Y38835D01*
X82613D01*
Y38700D01*
X82748D01*
Y38565D01*
X82883D01*
Y38430D01*
X83152D01*
Y38295D01*
X83287D01*
Y38161D01*
X83422D01*
Y38026D01*
X83691D01*
Y37891D01*
X83826D01*
Y37756D01*
X84096D01*
Y37622D01*
X84230D01*
Y37487D01*
X84500D01*
Y37352D01*
X84769D01*
Y37217D01*
X85039D01*
Y37083D01*
X85309D01*
Y36948D01*
X85578D01*
Y36813D01*
X85983D01*
Y36678D01*
X86252D01*
Y36543D01*
X86656D01*
Y36409D01*
X87196D01*
Y36274D01*
X87600D01*
Y36139D01*
X88274D01*
Y36004D01*
X89352D01*
Y35869D01*
X91913D01*
Y36004D01*
X92856D01*
Y36139D01*
X93530D01*
Y36274D01*
X94069D01*
Y36409D01*
X94473D01*
Y36543D01*
X94878D01*
Y36678D01*
X95282D01*
Y36813D01*
X95552D01*
Y36948D01*
X95956D01*
Y37083D01*
X96226D01*
Y37217D01*
X96495D01*
Y37352D01*
X96630D01*
Y37487D01*
X96899D01*
Y37622D01*
X97169D01*
Y37756D01*
X97304D01*
Y37891D01*
X97573D01*
Y38026D01*
X97708D01*
Y38161D01*
X97978D01*
Y38295D01*
X98112D01*
Y38430D01*
X98247D01*
Y38565D01*
X98517D01*
Y38700D01*
X98652D01*
Y38835D01*
X98786D01*
Y38969D01*
X98921D01*
Y39104D01*
X99056D01*
Y39239D01*
X99191D01*
Y39374D01*
X99325D01*
Y39508D01*
X99460D01*
Y39643D01*
X99595D01*
Y39778D01*
X99730D01*
Y39913D01*
X99865D01*
Y40047D01*
X99999D01*
Y40182D01*
X100134D01*
Y40317D01*
X100269D01*
Y40452D01*
X100404D01*
Y40587D01*
Y40721D01*
X100538D01*
Y40856D01*
X100673D01*
Y40991D01*
X100808D01*
Y41126D01*
X100943D01*
Y41260D01*
Y41395D01*
X101077D01*
Y41530D01*
X101212D01*
Y41665D01*
Y41800D01*
X101347D01*
Y41934D01*
Y42069D01*
X101482D01*
Y42204D01*
X101617D01*
Y42339D01*
Y42474D01*
X101751D01*
Y42608D01*
Y42743D01*
X101886D01*
Y42878D01*
Y43013D01*
X102021D01*
Y43147D01*
Y43282D01*
X102156D01*
Y43417D01*
Y43552D01*
X102290D01*
Y43686D01*
Y43821D01*
Y43956D01*
X102425D01*
Y44091D01*
Y44226D01*
Y44360D01*
X102560D01*
Y44495D01*
Y44630D01*
Y44765D01*
X102695D01*
Y44900D01*
Y45034D01*
Y45169D01*
X102830D01*
Y45304D01*
Y45439D01*
Y45573D01*
Y45708D01*
Y45843D01*
X102964D01*
Y45978D01*
Y46112D01*
Y46247D01*
Y46382D01*
Y46517D01*
Y46652D01*
X103099D01*
Y46786D01*
Y46921D01*
Y47056D01*
Y47191D01*
Y47326D01*
Y47460D01*
Y47595D01*
Y47730D01*
Y47865D01*
Y47999D01*
Y48134D01*
Y48269D01*
Y48404D01*
Y48538D01*
Y48673D01*
Y48808D01*
Y48943D01*
Y49078D01*
Y49212D01*
Y49347D01*
Y49482D01*
Y49617D01*
Y49752D01*
Y49886D01*
Y50021D01*
Y50156D01*
X102964D01*
Y50291D01*
Y50425D01*
Y50560D01*
Y50695D01*
Y50830D01*
Y50964D01*
X102830D01*
Y51099D01*
Y51234D01*
Y51369D01*
Y51504D01*
Y51638D01*
X102695D01*
Y51773D01*
Y51908D01*
Y52043D01*
X102560D01*
Y52178D01*
Y52312D01*
Y52447D01*
X102425D01*
Y52582D01*
Y52717D01*
Y52851D01*
X102290D01*
Y52986D01*
Y53121D01*
Y53256D01*
X102156D01*
Y53390D01*
Y53525D01*
X102021D01*
Y53660D01*
Y53795D01*
X101886D01*
Y53930D01*
Y54064D01*
X101751D01*
Y54199D01*
Y54334D01*
X101617D01*
Y54469D01*
Y54603D01*
X101482D01*
Y54738D01*
Y54873D01*
X101347D01*
Y55008D01*
X101212D01*
Y55143D01*
Y55277D01*
X101077D01*
Y55412D01*
X100943D01*
Y55547D01*
Y55682D01*
X100808D01*
Y55816D01*
X100673D01*
Y55951D01*
X100538D01*
Y56086D01*
Y56221D01*
X100404D01*
Y56356D01*
X100269D01*
Y56490D01*
X100134D01*
Y56625D01*
X99999D01*
Y56760D01*
X99865D01*
Y56895D01*
X99730D01*
Y57030D01*
X99595D01*
Y57164D01*
X99460D01*
Y57299D01*
X99325D01*
Y57434D01*
X99191D01*
Y57568D01*
X99056D01*
Y57703D01*
X98921D01*
Y57838D01*
X98786D01*
Y57973D01*
X98652D01*
Y58108D01*
X98517D01*
Y58242D01*
X98382D01*
Y58377D01*
X98112D01*
Y58512D01*
X97978D01*
Y58647D01*
X97843D01*
Y58781D01*
X97573D01*
Y58916D01*
X97438D01*
Y59051D01*
X97169D01*
Y59186D01*
X96899D01*
Y59321D01*
X96765D01*
Y59455D01*
X96495D01*
Y59590D01*
X96226D01*
Y59725D01*
X95956D01*
Y59860D01*
X95686D01*
Y59995D01*
X95282D01*
Y60129D01*
X95013D01*
Y60264D01*
X94608D01*
Y60399D01*
X94204D01*
Y60534D01*
X93665D01*
Y60668D01*
X92991D01*
Y60803D01*
X92048D01*
Y60938D01*
D02*
G37*
%LPD*%
D24*
X405500Y500D02*
G03*
X405500Y500I-17500J0D01*
G01*
X358000Y-29500D02*
X418000D01*
X358000D02*
Y30500D01*
X418000D01*
Y-29500D02*
Y30500D01*
D25*
X242500Y-3997D02*
Y6000D01*
Y1002D01*
X249165D01*
Y-3997D01*
Y6000D01*
X252497Y-3997D02*
Y6000D01*
X259161D01*
X262494D02*
X265826D01*
X264160D01*
Y-3997D01*
X262494Y-2331D01*
X435914Y-3831D02*
X434248Y-5497D01*
X430916D01*
X429250Y-3831D01*
Y-2165D01*
X430916Y-498D01*
X434248D01*
X435914Y1168D01*
Y2834D01*
X434248Y4500D01*
X430916D01*
X429250Y2834D01*
X439247Y4500D02*
X442579D01*
X440913D01*
Y-5497D01*
X439247Y-3831D01*
D37*
X274500Y-28750D02*
Y-9750D01*
X234500Y-28750D02*
Y-9750D01*
X264000D02*
X274500D01*
X264000Y-28750D02*
X274500D01*
X234500D02*
X245000D01*
X234500Y-9750D02*
X245000D01*
M02*
