G04 Layer_Color=16711935*
%FSLAX44Y44*%
%MOMM*%
G71*
G01*
G75*
%ADD51C,1.7032*%
%ADD52R,1.7032X1.7032*%
%ADD53R,1.7032X1.7032*%
%ADD54C,0.2032*%
%ADD55O,2.2032X1.3032*%
%ADD56O,2.0032X1.3032*%
%ADD57O,2.0032X1.1532*%
%ADD58C,6.2032*%
%ADD59R,1.1032X1.8032*%
G04:AMPARAMS|DCode=60|XSize=1.6032mm|YSize=2.3032mm|CornerRadius=0.2416mm|HoleSize=0mm|Usage=FLASHONLY|Rotation=270.000|XOffset=0mm|YOffset=0mm|HoleType=Round|Shape=RoundedRectangle|*
%AMROUNDEDRECTD60*
21,1,1.6032,1.8200,0,0,270.0*
21,1,1.1200,2.3032,0,0,270.0*
1,1,0.4832,-0.9100,-0.5600*
1,1,0.4832,-0.9100,0.5600*
1,1,0.4832,0.9100,0.5600*
1,1,0.4832,0.9100,-0.5600*
%
%ADD60ROUNDEDRECTD60*%
G36*
X169410Y110401D02*
X170218D01*
Y110266D01*
X170757D01*
Y110132D01*
X171162D01*
Y109997D01*
X171566D01*
Y109862D01*
X171835D01*
Y109727D01*
X172105D01*
Y109593D01*
X172375D01*
Y109458D01*
X172644D01*
Y109323D01*
X172914D01*
Y109188D01*
X173048D01*
Y109053D01*
X173318D01*
Y108919D01*
X173453D01*
Y108784D01*
X173722D01*
Y108649D01*
X173857D01*
Y108514D01*
X173992D01*
Y108379D01*
X174127D01*
Y108245D01*
X174261D01*
Y108110D01*
X174396D01*
Y107975D01*
X174531D01*
Y107840D01*
X174666D01*
Y107706D01*
X174801D01*
Y107571D01*
X174935D01*
Y107436D01*
X175070D01*
Y107301D01*
X175205D01*
Y107167D01*
X175340D01*
Y107032D01*
X175474D01*
Y106762D01*
X175609D01*
Y106627D01*
X175744D01*
Y106358D01*
X175879D01*
Y106223D01*
X176014D01*
Y105954D01*
X176148D01*
Y105684D01*
X176283D01*
Y105414D01*
X176418D01*
Y105145D01*
X176553D01*
Y104875D01*
X176687D01*
Y104471D01*
X176822D01*
Y104067D01*
X176957D01*
Y103527D01*
X177092D01*
Y102854D01*
X177227D01*
Y100158D01*
X177092D01*
Y99349D01*
X176957D01*
Y98810D01*
X176822D01*
Y98406D01*
X176687D01*
Y98136D01*
X176553D01*
Y97732D01*
X176418D01*
Y97463D01*
X176283D01*
Y97193D01*
X176148D01*
Y96924D01*
X176014D01*
Y96789D01*
X175879D01*
Y96519D01*
X175744D01*
Y96384D01*
X175609D01*
Y96115D01*
X175474D01*
Y95980D01*
X175340D01*
Y95845D01*
X175205D01*
Y95576D01*
X175070D01*
Y95441D01*
X174935D01*
Y95306D01*
X174801D01*
Y95171D01*
X174666D01*
Y95037D01*
X174531D01*
Y94902D01*
X174396D01*
Y94767D01*
X174261D01*
Y94632D01*
X174127D01*
Y94497D01*
X173992D01*
Y94363D01*
X173722D01*
Y94228D01*
X173588D01*
Y94093D01*
X173453D01*
Y93958D01*
X173183D01*
Y93824D01*
X173048D01*
Y93689D01*
X172779D01*
Y93554D01*
X172914D01*
Y93285D01*
X173048D01*
Y93015D01*
X173183D01*
Y92611D01*
X173318D01*
Y92341D01*
X173453D01*
Y92072D01*
X173588D01*
Y91802D01*
X173722D01*
Y91532D01*
X173857D01*
Y91263D01*
X173992D01*
Y90993D01*
X174127D01*
Y90589D01*
X174261D01*
Y90319D01*
X174396D01*
Y90050D01*
X174531D01*
Y89780D01*
X174666D01*
Y89511D01*
X174801D01*
Y89241D01*
X174935D01*
Y88837D01*
X175070D01*
Y88567D01*
X175205D01*
Y88298D01*
X175340D01*
Y88028D01*
X175474D01*
Y87759D01*
X175609D01*
Y87489D01*
X175744D01*
Y87219D01*
X175879D01*
Y86815D01*
X176014D01*
Y86546D01*
X176148D01*
Y86276D01*
X176283D01*
Y86006D01*
X176418D01*
Y85737D01*
X176553D01*
Y85467D01*
X176687D01*
Y85063D01*
X176822D01*
Y84794D01*
X176957D01*
Y84524D01*
X177092D01*
Y84254D01*
X177227D01*
Y83985D01*
X177361D01*
Y83715D01*
X177496D01*
Y83446D01*
X177631D01*
Y83041D01*
X177766D01*
Y82772D01*
X177900D01*
Y82502D01*
X178035D01*
Y82233D01*
X178170D01*
Y81963D01*
X178305D01*
Y81694D01*
X178440D01*
Y81289D01*
X178574D01*
Y81020D01*
X178709D01*
Y80750D01*
X178844D01*
Y80481D01*
X178979D01*
Y80211D01*
X179113D01*
Y79942D01*
X179248D01*
Y79672D01*
X179383D01*
Y79268D01*
X179518D01*
Y78998D01*
X179653D01*
Y78728D01*
X179787D01*
Y78459D01*
X179922D01*
Y78189D01*
X180057D01*
Y77920D01*
X180192D01*
Y77516D01*
X180326D01*
Y77246D01*
X180461D01*
Y76976D01*
X180596D01*
Y76707D01*
X180731D01*
Y76437D01*
X180865D01*
Y76168D01*
X181000D01*
Y75898D01*
X181135D01*
Y75494D01*
X181270D01*
Y75224D01*
X181405D01*
Y74955D01*
X181539D01*
Y74685D01*
X181674D01*
Y74416D01*
X181809D01*
Y74146D01*
X181944D01*
Y73742D01*
X182078D01*
Y73472D01*
X182213D01*
Y73203D01*
X182348D01*
Y72933D01*
X182483D01*
Y72664D01*
X182618D01*
Y72394D01*
X182752D01*
Y72125D01*
X182887D01*
Y71720D01*
X183022D01*
Y71451D01*
X183157D01*
Y71181D01*
X183291D01*
Y70911D01*
X183426D01*
Y70642D01*
X183561D01*
Y70372D01*
X183696D01*
Y69968D01*
X183831D01*
Y69699D01*
X183965D01*
Y69429D01*
X184100D01*
Y69159D01*
X184235D01*
Y68890D01*
X184370D01*
Y68620D01*
X184505D01*
Y68216D01*
X184639D01*
Y67946D01*
X184774D01*
Y67677D01*
X184909D01*
Y67407D01*
X185044D01*
Y67138D01*
X185178D01*
Y66868D01*
X185313D01*
Y66599D01*
X185448D01*
Y66194D01*
X185583D01*
Y65925D01*
X185718D01*
Y65655D01*
X185852D01*
Y65386D01*
X185987D01*
Y65116D01*
X186122D01*
Y64847D01*
X186257D01*
Y64442D01*
X186391D01*
Y64173D01*
X186526D01*
Y63903D01*
X186661D01*
Y63633D01*
X186796D01*
Y63364D01*
X186931D01*
Y63094D01*
X187065D01*
Y62825D01*
X187604D01*
Y62960D01*
X188009D01*
Y63094D01*
X188413D01*
Y63229D01*
X188952D01*
Y63364D01*
X189491D01*
Y63499D01*
X190300D01*
Y63633D01*
X191378D01*
Y63768D01*
X194343D01*
Y63633D01*
X195152D01*
Y63903D01*
X195287D01*
Y64442D01*
X195422D01*
Y65116D01*
X195556D01*
Y65790D01*
X195691D01*
Y66464D01*
X195826D01*
Y67138D01*
X195961D01*
Y67812D01*
X196095D01*
Y68351D01*
X196230D01*
Y69025D01*
X196365D01*
Y69699D01*
X196500D01*
Y70372D01*
X196634D01*
Y71046D01*
X196769D01*
Y71720D01*
X196904D01*
Y72259D01*
X197039D01*
Y72933D01*
X197174D01*
Y73607D01*
X197308D01*
Y74281D01*
X197443D01*
Y74955D01*
X197578D01*
Y75629D01*
X197713D01*
Y76168D01*
X197847D01*
Y76842D01*
X197982D01*
Y77516D01*
X198117D01*
Y78189D01*
X198252D01*
Y78863D01*
X198386D01*
Y79537D01*
X198521D01*
Y80076D01*
X198656D01*
Y80750D01*
X198791D01*
Y81424D01*
X198926D01*
Y82098D01*
X199060D01*
Y82772D01*
X199195D01*
Y83446D01*
X198926D01*
Y83581D01*
X198656D01*
Y83715D01*
X198386D01*
Y83850D01*
X198117D01*
Y83985D01*
X197847D01*
Y84120D01*
X197713D01*
Y84254D01*
X197578D01*
Y84389D01*
X197308D01*
Y84524D01*
X197174D01*
Y84659D01*
X197039D01*
Y84794D01*
X196904D01*
Y84928D01*
X196769D01*
Y85063D01*
X196634D01*
Y85333D01*
X196500D01*
Y85467D01*
X196365D01*
Y85737D01*
X196230D01*
Y85872D01*
X196095D01*
Y86141D01*
X195961D01*
Y86411D01*
X195826D01*
Y86815D01*
X195691D01*
Y87219D01*
X195556D01*
Y87893D01*
X195422D01*
Y89241D01*
X195556D01*
Y90050D01*
X195691D01*
Y90454D01*
X195826D01*
Y90724D01*
X195961D01*
Y91128D01*
X196095D01*
Y91263D01*
X196230D01*
Y91532D01*
X196365D01*
Y91802D01*
X196500D01*
Y91937D01*
X196634D01*
Y92072D01*
X196769D01*
Y92206D01*
X196904D01*
Y92341D01*
X197039D01*
Y92476D01*
X197174D01*
Y92611D01*
X197308D01*
Y92745D01*
X197443D01*
Y92880D01*
X197578D01*
Y93015D01*
X197847D01*
Y93150D01*
X197982D01*
Y93285D01*
X198252D01*
Y93419D01*
X198521D01*
Y93554D01*
X198791D01*
Y93689D01*
X199195D01*
Y93824D01*
X199599D01*
Y93958D01*
X200543D01*
Y94093D01*
X201217D01*
Y93958D01*
X202160D01*
Y93824D01*
X202565D01*
Y93689D01*
X202969D01*
Y93554D01*
X203239D01*
Y93419D01*
X203508D01*
Y93285D01*
X203778D01*
Y93150D01*
X203912D01*
Y93015D01*
X204182D01*
Y92880D01*
X204317D01*
Y92745D01*
X204452D01*
Y92611D01*
X204586D01*
Y92476D01*
X204721D01*
Y92341D01*
X204856D01*
Y92206D01*
X204991D01*
Y92072D01*
X205125D01*
Y91937D01*
X205260D01*
Y91667D01*
X205395D01*
Y91532D01*
X205530D01*
Y91263D01*
X205665D01*
Y90993D01*
X205799D01*
Y90724D01*
X205934D01*
Y90454D01*
X206069D01*
Y89915D01*
X206204D01*
Y89241D01*
X206338D01*
Y87893D01*
X206204D01*
Y87219D01*
X206069D01*
Y86815D01*
X205934D01*
Y86411D01*
X205799D01*
Y86141D01*
X205665D01*
Y85872D01*
X205530D01*
Y85737D01*
X205395D01*
Y85467D01*
X205260D01*
Y85333D01*
X205125D01*
Y85063D01*
X204991D01*
Y84928D01*
X204856D01*
Y84794D01*
X204721D01*
Y84659D01*
X204586D01*
Y84524D01*
X204452D01*
Y84389D01*
X204182D01*
Y84254D01*
X204047D01*
Y84120D01*
X203912D01*
Y83985D01*
X203643D01*
Y83850D01*
X203373D01*
Y83715D01*
X203104D01*
Y83581D01*
X202834D01*
Y83446D01*
X202295D01*
Y83311D01*
X201756D01*
Y83176D01*
X200273D01*
Y82772D01*
X200139D01*
Y82098D01*
X200004D01*
Y81424D01*
X199869D01*
Y80885D01*
X199734D01*
Y80211D01*
X199599D01*
Y79537D01*
X199465D01*
Y78863D01*
X199330D01*
Y78189D01*
X199195D01*
Y77516D01*
X199060D01*
Y76976D01*
X198926D01*
Y76303D01*
X198791D01*
Y75629D01*
X198656D01*
Y74955D01*
X198521D01*
Y74281D01*
X198386D01*
Y73607D01*
X198252D01*
Y72933D01*
X198117D01*
Y72394D01*
X197982D01*
Y71720D01*
X197847D01*
Y71046D01*
X197713D01*
Y70372D01*
X197578D01*
Y69699D01*
X197443D01*
Y69025D01*
X197308D01*
Y68485D01*
X197174D01*
Y67812D01*
X197039D01*
Y67138D01*
X196904D01*
Y66464D01*
X196769D01*
Y65790D01*
X196634D01*
Y65116D01*
X196500D01*
Y64577D01*
X196365D01*
Y63903D01*
X196230D01*
Y63364D01*
X196769D01*
Y63229D01*
X197174D01*
Y63094D01*
X197713D01*
Y62960D01*
X198117D01*
Y62825D01*
X198386D01*
Y62690D01*
X198791D01*
Y62555D01*
X199060D01*
Y62421D01*
X199330D01*
Y62286D01*
X199599D01*
Y62151D01*
X199869D01*
Y62016D01*
X200139D01*
Y61881D01*
X200408D01*
Y61747D01*
X200678D01*
Y61612D01*
X200812D01*
Y61477D01*
X201082D01*
Y61342D01*
X201352D01*
Y61207D01*
X201486D01*
Y61073D01*
X201621D01*
Y60938D01*
X201891D01*
Y60803D01*
X202026D01*
Y60668D01*
X202160D01*
Y60534D01*
X202430D01*
Y60399D01*
X202565D01*
Y60264D01*
X202699D01*
Y60129D01*
X202834D01*
Y59995D01*
X202969D01*
Y59860D01*
X203104D01*
Y59725D01*
X203373D01*
Y59590D01*
X203508D01*
Y59455D01*
X203643D01*
Y59321D01*
X203778D01*
Y59186D01*
X203912D01*
Y59051D01*
X204047D01*
Y58916D01*
X204182D01*
Y58781D01*
X204317D01*
Y58916D01*
X204452D01*
Y59051D01*
X204586D01*
Y59186D01*
X204721D01*
Y59321D01*
X204991D01*
Y59455D01*
X205125D01*
Y59590D01*
X205260D01*
Y59725D01*
X205395D01*
Y59860D01*
X205530D01*
Y59995D01*
X205799D01*
Y60129D01*
X205934D01*
Y60264D01*
X206069D01*
Y60399D01*
X206204D01*
Y60534D01*
X206473D01*
Y60668D01*
X206608D01*
Y60803D01*
X206743D01*
Y60938D01*
X206877D01*
Y61073D01*
X207012D01*
Y61207D01*
X207282D01*
Y61342D01*
X207417D01*
Y61477D01*
X207551D01*
Y61612D01*
X207686D01*
Y61747D01*
X207821D01*
Y61881D01*
X208090D01*
Y62016D01*
X208225D01*
Y62151D01*
X208360D01*
Y62286D01*
X208495D01*
Y62421D01*
X208630D01*
Y62555D01*
X208899D01*
Y62690D01*
X209034D01*
Y62825D01*
X209169D01*
Y62960D01*
X209303D01*
Y63094D01*
X209573D01*
Y63229D01*
X209708D01*
Y63364D01*
X209843D01*
Y63499D01*
X209977D01*
Y63633D01*
X210112D01*
Y63768D01*
X210382D01*
Y63903D01*
X210516D01*
Y64038D01*
X210651D01*
Y64173D01*
X210786D01*
Y64307D01*
X210921D01*
Y64442D01*
X211190D01*
Y64577D01*
X211325D01*
Y64712D01*
X211460D01*
Y64847D01*
X211595D01*
Y64981D01*
X211730D01*
Y65116D01*
X211999D01*
Y65251D01*
X212134D01*
Y65386D01*
X212269D01*
Y65520D01*
X212403D01*
Y65655D01*
X212673D01*
Y65790D01*
X212808D01*
Y65925D01*
X212942D01*
Y66059D01*
X213077D01*
Y66194D01*
X213212D01*
Y66329D01*
X213482D01*
Y66464D01*
X213616D01*
Y66599D01*
X213751D01*
Y66733D01*
X213886D01*
Y66868D01*
X214021D01*
Y67003D01*
X214290D01*
Y67138D01*
X214425D01*
Y67273D01*
X214560D01*
Y67407D01*
X214695D01*
Y67542D01*
X214829D01*
Y67677D01*
X215099D01*
Y67812D01*
X215234D01*
Y67946D01*
X215368D01*
Y68081D01*
X215503D01*
Y68216D01*
X215773D01*
Y68351D01*
X215908D01*
Y68485D01*
X216042D01*
Y68620D01*
X216177D01*
Y68755D01*
X216312D01*
Y68890D01*
X216581D01*
Y69025D01*
X216716D01*
Y69159D01*
X216851D01*
Y69294D01*
X216986D01*
Y69429D01*
X217120D01*
Y69564D01*
X217390D01*
Y69699D01*
X217525D01*
Y69833D01*
X217660D01*
Y69968D01*
X217794D01*
Y70103D01*
X218064D01*
Y70238D01*
X218199D01*
Y70372D01*
X218333D01*
Y70507D01*
X218468D01*
Y70642D01*
X218603D01*
Y70777D01*
X218873D01*
Y70911D01*
X219007D01*
Y71046D01*
X219142D01*
Y71181D01*
X219277D01*
Y71316D01*
X219412D01*
Y71451D01*
X219681D01*
Y71585D01*
X219816D01*
Y71720D01*
X219951D01*
Y71855D01*
X220086D01*
Y71990D01*
X220220D01*
Y72125D01*
X220355D01*
Y72394D01*
X220220D01*
Y72664D01*
X220086D01*
Y72933D01*
X219951D01*
Y73337D01*
X219816D01*
Y73742D01*
X219681D01*
Y74281D01*
X219547D01*
Y76168D01*
X219681D01*
Y76842D01*
X219816D01*
Y77246D01*
X219951D01*
Y77516D01*
X220086D01*
Y77785D01*
X220220D01*
Y78055D01*
X220355D01*
Y78189D01*
X220490D01*
Y78459D01*
X220625D01*
Y78594D01*
X220760D01*
Y78728D01*
X220894D01*
Y78863D01*
X221029D01*
Y78998D01*
X221164D01*
Y79133D01*
X221299D01*
Y79268D01*
X221433D01*
Y79402D01*
X221568D01*
Y79537D01*
X221703D01*
Y79672D01*
X221973D01*
Y79807D01*
X222107D01*
Y79942D01*
X222377D01*
Y80076D01*
X222646D01*
Y80211D01*
X222916D01*
Y80346D01*
X223320D01*
Y80481D01*
X223859D01*
Y80615D01*
X226016D01*
Y80481D01*
X226555D01*
Y80346D01*
X226959D01*
Y80211D01*
X227229D01*
Y80076D01*
X227498D01*
Y79942D01*
X227768D01*
Y79807D01*
X228037D01*
Y79672D01*
X228172D01*
Y79537D01*
X228307D01*
Y79402D01*
X228577D01*
Y79268D01*
X228711D01*
Y79133D01*
X228846D01*
Y78998D01*
X228981D01*
Y78863D01*
X229116D01*
Y78594D01*
X229251D01*
Y78459D01*
X229385D01*
Y78324D01*
X229520D01*
Y78055D01*
X229655D01*
Y77785D01*
X229790D01*
Y77650D01*
X229924D01*
Y77246D01*
X230059D01*
Y76842D01*
X230194D01*
Y76437D01*
X230329D01*
Y74011D01*
X230194D01*
Y73607D01*
X230059D01*
Y73203D01*
X229924D01*
Y72933D01*
X229790D01*
Y72664D01*
X229655D01*
Y72394D01*
X229520D01*
Y72125D01*
X229385D01*
Y71990D01*
X229251D01*
Y71855D01*
X229116D01*
Y71585D01*
X228981D01*
Y71451D01*
X228846D01*
Y71316D01*
X228711D01*
Y71181D01*
X228442D01*
Y71046D01*
X228307D01*
Y70911D01*
X228172D01*
Y70777D01*
X228037D01*
Y70642D01*
X227768D01*
Y70507D01*
X227498D01*
Y70372D01*
X227229D01*
Y70238D01*
X226959D01*
Y70103D01*
X226555D01*
Y69968D01*
X226016D01*
Y69833D01*
X223859D01*
Y69968D01*
X223320D01*
Y70103D01*
X222916D01*
Y70238D01*
X222646D01*
Y70372D01*
X222377D01*
Y70507D01*
X222107D01*
Y70642D01*
X221973D01*
Y70777D01*
X221703D01*
Y70911D01*
X221568D01*
Y71046D01*
X221433D01*
Y71181D01*
X221299D01*
Y71316D01*
X221029D01*
Y71181D01*
X220760D01*
Y71046D01*
X220625D01*
Y70911D01*
X220490D01*
Y70777D01*
X220355D01*
Y70642D01*
X220086D01*
Y70507D01*
X219951D01*
Y70372D01*
X219816D01*
Y70238D01*
X219681D01*
Y70103D01*
X219547D01*
Y69968D01*
X219277D01*
Y69833D01*
X219142D01*
Y69699D01*
X219007D01*
Y69564D01*
X218873D01*
Y69429D01*
X218738D01*
Y69294D01*
X218468D01*
Y69159D01*
X218333D01*
Y69025D01*
X218199D01*
Y68890D01*
X218064D01*
Y68755D01*
X217929D01*
Y68620D01*
X217660D01*
Y68485D01*
X217525D01*
Y68351D01*
X217390D01*
Y68216D01*
X217255D01*
Y68081D01*
X216986D01*
Y67946D01*
X216851D01*
Y67812D01*
X216716D01*
Y67677D01*
X216581D01*
Y67542D01*
X216447D01*
Y67407D01*
X216177D01*
Y67273D01*
X216042D01*
Y67138D01*
X215908D01*
Y67003D01*
X215773D01*
Y66868D01*
X215638D01*
Y66733D01*
X215368D01*
Y66599D01*
X215234D01*
Y66464D01*
X215099D01*
Y66329D01*
X214964D01*
Y66194D01*
X214829D01*
Y66059D01*
X214560D01*
Y65925D01*
X214425D01*
Y65790D01*
X214290D01*
Y65655D01*
X214156D01*
Y65520D01*
X213886D01*
Y65386D01*
X213751D01*
Y65251D01*
X213616D01*
Y65116D01*
X213482D01*
Y64981D01*
X213347D01*
Y64847D01*
X213077D01*
Y64712D01*
X212942D01*
Y64577D01*
X212808D01*
Y64442D01*
X212673D01*
Y64307D01*
X212538D01*
Y64173D01*
X212269D01*
Y64038D01*
X212134D01*
Y63903D01*
X211999D01*
Y63768D01*
X211864D01*
Y63633D01*
X211730D01*
Y63499D01*
X211460D01*
Y63364D01*
X211325D01*
Y63229D01*
X211190D01*
Y63094D01*
X211056D01*
Y62960D01*
X210786D01*
Y62825D01*
X210651D01*
Y62690D01*
X210516D01*
Y62555D01*
X210382D01*
Y62421D01*
X210247D01*
Y62286D01*
X209977D01*
Y62151D01*
X209843D01*
Y62016D01*
X209708D01*
Y61881D01*
X209573D01*
Y61747D01*
X209438D01*
Y61612D01*
X209169D01*
Y61477D01*
X209034D01*
Y61342D01*
X208899D01*
Y61207D01*
X208764D01*
Y61073D01*
X208495D01*
Y60938D01*
X208360D01*
Y60803D01*
X208225D01*
Y60668D01*
X208090D01*
Y60534D01*
X207956D01*
Y60399D01*
X207686D01*
Y60264D01*
X207551D01*
Y60129D01*
X207417D01*
Y59995D01*
X207282D01*
Y59860D01*
X207147D01*
Y59725D01*
X206877D01*
Y59590D01*
X206743D01*
Y59455D01*
X206608D01*
Y59321D01*
X206473D01*
Y59186D01*
X206338D01*
Y59051D01*
X206069D01*
Y58916D01*
X205934D01*
Y58781D01*
X205799D01*
Y58647D01*
X205665D01*
Y58512D01*
X205395D01*
Y58377D01*
X205260D01*
Y58242D01*
X205125D01*
Y58108D01*
X204991D01*
Y57703D01*
X205125D01*
Y57568D01*
X205260D01*
Y57434D01*
X205395D01*
Y57164D01*
X205530D01*
Y57030D01*
X205665D01*
Y56760D01*
X205799D01*
Y56625D01*
X205934D01*
Y56356D01*
X206069D01*
Y56221D01*
X206204D01*
Y55951D01*
X206338D01*
Y55682D01*
X206473D01*
Y55412D01*
X206608D01*
Y55143D01*
X206743D01*
Y54873D01*
X206877D01*
Y54603D01*
X207012D01*
Y54334D01*
X207147D01*
Y53930D01*
X207282D01*
Y53660D01*
X207417D01*
Y53256D01*
X207551D01*
Y52717D01*
X207686D01*
Y52178D01*
X207821D01*
Y51638D01*
X207956D01*
Y50830D01*
X208090D01*
Y49617D01*
X208225D01*
Y47191D01*
X208090D01*
Y45978D01*
X207956D01*
Y45169D01*
X207821D01*
Y44630D01*
X207686D01*
Y44091D01*
X207551D01*
Y43686D01*
X207417D01*
Y43282D01*
X207282D01*
Y42878D01*
X207147D01*
Y42474D01*
X207012D01*
Y42204D01*
X206877D01*
Y41934D01*
X206743D01*
Y41665D01*
X206608D01*
Y41395D01*
X206473D01*
Y41126D01*
X206338D01*
Y40856D01*
X206204D01*
Y40587D01*
X206069D01*
Y40452D01*
X205934D01*
Y40182D01*
X205799D01*
Y40047D01*
X205665D01*
Y39778D01*
X205530D01*
Y39643D01*
X205395D01*
Y39374D01*
X205260D01*
Y39239D01*
X205125D01*
Y39104D01*
X204991D01*
Y38969D01*
X204856D01*
Y38700D01*
X204721D01*
Y38565D01*
X204586D01*
Y38430D01*
X204452D01*
Y38295D01*
X204317D01*
Y38161D01*
X204182D01*
Y38026D01*
X204047D01*
Y37891D01*
X203912D01*
Y37756D01*
X203778D01*
Y37622D01*
X203643D01*
Y37487D01*
X203508D01*
Y37352D01*
X203373D01*
Y37217D01*
X203239D01*
Y37083D01*
X203104D01*
Y36948D01*
X202969D01*
Y36813D01*
X202834D01*
Y36678D01*
X202699D01*
Y36543D01*
X202565D01*
Y36409D01*
X202295D01*
Y36274D01*
X202160D01*
Y36139D01*
X202026D01*
Y36004D01*
X201891D01*
Y35869D01*
X201621D01*
Y35735D01*
X201486D01*
Y35600D01*
X201217D01*
Y35465D01*
X201082D01*
Y35330D01*
X200812D01*
Y35196D01*
X200678D01*
Y35061D01*
X200408D01*
Y34926D01*
X200139D01*
Y34656D01*
X200273D01*
Y34252D01*
X200408D01*
Y33983D01*
X200543D01*
Y33713D01*
X200678D01*
Y33444D01*
X200812D01*
Y33174D01*
X200947D01*
Y32904D01*
X201082D01*
Y32635D01*
X201217D01*
Y32231D01*
X201352D01*
Y31961D01*
X201486D01*
Y31691D01*
X201621D01*
Y31422D01*
X201756D01*
Y31152D01*
X201891D01*
Y30883D01*
X202026D01*
Y30478D01*
X202160D01*
Y30209D01*
X202295D01*
Y29939D01*
X202430D01*
Y29670D01*
X202565D01*
Y29400D01*
X202699D01*
Y29131D01*
X202834D01*
Y28861D01*
X202969D01*
Y28457D01*
X203104D01*
Y28187D01*
X203239D01*
Y27918D01*
X203373D01*
Y27648D01*
X203508D01*
Y27378D01*
X203643D01*
Y27109D01*
X203778D01*
Y26705D01*
X203912D01*
Y26435D01*
X204047D01*
Y26165D01*
X204182D01*
Y25896D01*
X204317D01*
Y25626D01*
X204452D01*
Y25357D01*
X204586D01*
Y25087D01*
X204721D01*
Y24683D01*
X204856D01*
Y24413D01*
X204991D01*
Y24144D01*
X205125D01*
Y23874D01*
X205260D01*
Y23605D01*
X205395D01*
Y23335D01*
X205530D01*
Y22931D01*
X205665D01*
Y22661D01*
X205799D01*
Y22392D01*
X205934D01*
Y22122D01*
X206069D01*
Y21853D01*
X206204D01*
Y21583D01*
X206338D01*
Y21314D01*
X206473D01*
Y20909D01*
X206608D01*
Y20640D01*
X206743D01*
Y20370D01*
X206877D01*
Y20101D01*
X207012D01*
Y19831D01*
X207147D01*
Y19561D01*
X207282D01*
Y19157D01*
X207417D01*
Y18887D01*
X207551D01*
Y18618D01*
X207686D01*
Y18348D01*
X207821D01*
Y18079D01*
X207956D01*
Y17809D01*
X208090D01*
Y17540D01*
X208225D01*
Y17135D01*
X208360D01*
Y16866D01*
X208495D01*
Y16596D01*
X208630D01*
Y16327D01*
X208764D01*
Y16057D01*
X208899D01*
Y15788D01*
X209034D01*
Y15383D01*
X209169D01*
Y15114D01*
X209303D01*
Y14844D01*
X209438D01*
Y14575D01*
X209573D01*
Y14305D01*
X209708D01*
Y14036D01*
X209843D01*
Y13766D01*
X209977D01*
Y13362D01*
X210112D01*
Y13092D01*
X210247D01*
Y12823D01*
X210382D01*
Y12553D01*
X210516D01*
Y12284D01*
X210651D01*
Y12014D01*
X210786D01*
Y11610D01*
X210921D01*
Y11340D01*
X211056D01*
Y11070D01*
X211190D01*
Y10801D01*
X211325D01*
Y10531D01*
X211460D01*
Y10262D01*
X211595D01*
Y9992D01*
X211730D01*
Y9588D01*
X211864D01*
Y9318D01*
X211999D01*
Y9049D01*
X212134D01*
Y8779D01*
X212269D01*
Y8510D01*
X212403D01*
Y8240D01*
X212538D01*
Y7836D01*
X212673D01*
Y7566D01*
X212808D01*
Y7297D01*
X212942D01*
Y7027D01*
X213077D01*
Y6758D01*
X213212D01*
Y6488D01*
X213347D01*
Y6219D01*
X213482D01*
Y5814D01*
X213616D01*
Y5545D01*
X213751D01*
Y5275D01*
X213886D01*
Y5005D01*
X214021D01*
Y4871D01*
X214290D01*
Y5005D01*
X214695D01*
Y5140D01*
X215234D01*
Y5275D01*
X215908D01*
Y5410D01*
X218873D01*
Y5275D01*
X219547D01*
Y5140D01*
X220086D01*
Y5005D01*
X220490D01*
Y4871D01*
X220760D01*
Y4736D01*
X221164D01*
Y4601D01*
X221433D01*
Y4466D01*
X221703D01*
Y4332D01*
X221973D01*
Y4197D01*
X222107D01*
Y4062D01*
X222377D01*
Y3927D01*
X222512D01*
Y3792D01*
X222781D01*
Y3658D01*
X222916D01*
Y3523D01*
X223051D01*
Y3388D01*
X223320D01*
Y3253D01*
X223455D01*
Y3119D01*
X223590D01*
Y2984D01*
X223725D01*
Y2849D01*
X223859D01*
Y2714D01*
X223994D01*
Y2580D01*
X224129D01*
Y2445D01*
X224264D01*
Y2310D01*
X224398D01*
Y2040D01*
X224533D01*
Y1906D01*
X224668D01*
Y1771D01*
X224803D01*
Y1501D01*
X224938D01*
Y1366D01*
X225072D01*
Y1097D01*
X225207D01*
Y962D01*
X225342D01*
Y693D01*
X225477D01*
Y423D01*
X225611D01*
Y154D01*
X225746D01*
Y-251D01*
X225881D01*
Y-520D01*
X226016D01*
Y-925D01*
X226151D01*
Y-1464D01*
X226285D01*
Y-2138D01*
X226420D01*
Y-5238D01*
X226285D01*
Y-5911D01*
X226151D01*
Y-6316D01*
X226016D01*
Y-6720D01*
X225881D01*
Y-7124D01*
X225746D01*
Y-7394D01*
X225611D01*
Y-7663D01*
X225477D01*
Y-7933D01*
X225342D01*
Y-8203D01*
X225207D01*
Y-8472D01*
X225072D01*
Y-8607D01*
X224938D01*
Y-8877D01*
X224803D01*
Y-9011D01*
X224668D01*
Y-9146D01*
X224533D01*
Y-9416D01*
X224398D01*
Y-9550D01*
X224264D01*
Y-9685D01*
X224129D01*
Y-9820D01*
X223994D01*
Y-9955D01*
X223859D01*
Y-10089D01*
X223725D01*
Y-10224D01*
X223590D01*
Y-10359D01*
X223455D01*
Y-10494D01*
X223320D01*
Y-10629D01*
X223186D01*
Y-10763D01*
X222916D01*
Y-10898D01*
X222781D01*
Y-11033D01*
X222646D01*
Y-11168D01*
X222377D01*
Y-11302D01*
X222242D01*
Y-11437D01*
X221973D01*
Y-11572D01*
X221703D01*
Y-11707D01*
X221433D01*
Y-11842D01*
X221164D01*
Y-11976D01*
X220894D01*
Y-12111D01*
X220625D01*
Y-12246D01*
X220220D01*
Y-12381D01*
X219681D01*
Y-12515D01*
X219142D01*
Y-12650D01*
X218064D01*
Y-12785D01*
X216716D01*
Y-12650D01*
X215638D01*
Y-12515D01*
X215099D01*
Y-12381D01*
X214560D01*
Y-12246D01*
X214156D01*
Y-12111D01*
X213886D01*
Y-11976D01*
X213616D01*
Y-11842D01*
X213212D01*
Y-11707D01*
X213077D01*
Y-11572D01*
X212808D01*
Y-11437D01*
X212538D01*
Y-11302D01*
X212403D01*
Y-11168D01*
X212134D01*
Y-11033D01*
X211999D01*
Y-10898D01*
X211730D01*
Y-10763D01*
X211595D01*
Y-10629D01*
X211460D01*
Y-10494D01*
X211325D01*
Y-10359D01*
X211190D01*
Y-10224D01*
X211056D01*
Y-10089D01*
X210921D01*
Y-9955D01*
X210786D01*
Y-9820D01*
X210651D01*
Y-9685D01*
X210516D01*
Y-9550D01*
X210382D01*
Y-9416D01*
X210247D01*
Y-9281D01*
X210112D01*
Y-9011D01*
X209977D01*
Y-8877D01*
X209843D01*
Y-8607D01*
X209708D01*
Y-8472D01*
X209573D01*
Y-8203D01*
X209438D01*
Y-7933D01*
X209303D01*
Y-7663D01*
X209169D01*
Y-7394D01*
X209034D01*
Y-7124D01*
X208899D01*
Y-6855D01*
X208764D01*
Y-6450D01*
X208630D01*
Y-5911D01*
X208495D01*
Y-5238D01*
X208360D01*
Y-4159D01*
X208225D01*
Y-3081D01*
X208360D01*
Y-2003D01*
X208495D01*
Y-1329D01*
X208630D01*
Y-925D01*
X208764D01*
Y-520D01*
X208899D01*
Y-116D01*
X209034D01*
Y154D01*
X209169D01*
Y423D01*
X209303D01*
Y693D01*
X209438D01*
Y962D01*
X209573D01*
Y1097D01*
X209708D01*
Y1366D01*
X209843D01*
Y1636D01*
X209977D01*
Y1771D01*
X210112D01*
Y1906D01*
X210247D01*
Y2040D01*
X210382D01*
Y2310D01*
X210516D01*
Y2445D01*
X210651D01*
Y2580D01*
X210786D01*
Y2714D01*
X210921D01*
Y2849D01*
X211056D01*
Y2984D01*
X211190D01*
Y3119D01*
X211325D01*
Y3253D01*
X211460D01*
Y3388D01*
X211730D01*
Y3523D01*
X211864D01*
Y3658D01*
X211999D01*
Y3792D01*
X212269D01*
Y3927D01*
X212403D01*
Y4062D01*
X212673D01*
Y4197D01*
X212808D01*
Y4332D01*
X213077D01*
Y4466D01*
X212942D01*
Y4871D01*
X212808D01*
Y5140D01*
X212673D01*
Y5410D01*
X212538D01*
Y5679D01*
X212403D01*
Y5949D01*
X212269D01*
Y6219D01*
X212134D01*
Y6488D01*
X211999D01*
Y6892D01*
X211864D01*
Y7162D01*
X211730D01*
Y7431D01*
X211595D01*
Y7701D01*
X211460D01*
Y7971D01*
X211325D01*
Y8240D01*
X211190D01*
Y8644D01*
X211056D01*
Y8914D01*
X210921D01*
Y9184D01*
X210786D01*
Y9453D01*
X210651D01*
Y9723D01*
X210516D01*
Y9992D01*
X210382D01*
Y10262D01*
X210247D01*
Y10666D01*
X210112D01*
Y10936D01*
X209977D01*
Y11205D01*
X209843D01*
Y11475D01*
X209708D01*
Y11744D01*
X209573D01*
Y12014D01*
X209438D01*
Y12418D01*
X209303D01*
Y12688D01*
X209169D01*
Y12957D01*
X209034D01*
Y13227D01*
X208899D01*
Y13497D01*
X208764D01*
Y13766D01*
X208630D01*
Y14036D01*
X208495D01*
Y14440D01*
X208360D01*
Y14709D01*
X208225D01*
Y14979D01*
X208090D01*
Y15249D01*
X207956D01*
Y15518D01*
X207821D01*
Y15788D01*
X207686D01*
Y16192D01*
X207551D01*
Y16462D01*
X207417D01*
Y16731D01*
X207282D01*
Y17001D01*
X207147D01*
Y17270D01*
X207012D01*
Y17540D01*
X206877D01*
Y17809D01*
X206743D01*
Y18214D01*
X206608D01*
Y18483D01*
X206473D01*
Y18753D01*
X206338D01*
Y19022D01*
X206204D01*
Y19292D01*
X206069D01*
Y19561D01*
X205934D01*
Y19966D01*
X205799D01*
Y20235D01*
X205665D01*
Y20505D01*
X205530D01*
Y20774D01*
X205395D01*
Y21044D01*
X205260D01*
Y21314D01*
X205125D01*
Y21583D01*
X204991D01*
Y21987D01*
X204856D01*
Y22257D01*
X204721D01*
Y22527D01*
X204586D01*
Y22796D01*
X204452D01*
Y23066D01*
X204317D01*
Y23335D01*
X204182D01*
Y23740D01*
X204047D01*
Y24009D01*
X203912D01*
Y24279D01*
X203778D01*
Y24548D01*
X203643D01*
Y24818D01*
X203508D01*
Y25087D01*
X203373D01*
Y25357D01*
X203239D01*
Y25761D01*
X203104D01*
Y26031D01*
X202969D01*
Y26300D01*
X202834D01*
Y26570D01*
X202699D01*
Y26839D01*
X202565D01*
Y27109D01*
X202430D01*
Y27513D01*
X202295D01*
Y27783D01*
X202160D01*
Y28052D01*
X202026D01*
Y28322D01*
X201891D01*
Y28591D01*
X201756D01*
Y28861D01*
X201621D01*
Y29131D01*
X201486D01*
Y29535D01*
X201352D01*
Y29804D01*
X201217D01*
Y30074D01*
X201082D01*
Y30344D01*
X200947D01*
Y30613D01*
X200812D01*
Y30883D01*
X200678D01*
Y31287D01*
X200543D01*
Y31557D01*
X200408D01*
Y31826D01*
X200273D01*
Y32096D01*
X200139D01*
Y32365D01*
X200004D01*
Y32635D01*
X199869D01*
Y33039D01*
X199734D01*
Y33309D01*
X199599D01*
Y33578D01*
X199465D01*
Y33848D01*
X199330D01*
Y34117D01*
X199195D01*
Y34387D01*
X199060D01*
Y34252D01*
X198791D01*
Y34117D01*
X198386D01*
Y33983D01*
X197982D01*
Y33848D01*
X197578D01*
Y33713D01*
X197174D01*
Y33578D01*
X196634D01*
Y33444D01*
X196095D01*
Y33309D01*
X195287D01*
Y33174D01*
X194074D01*
Y33039D01*
X191648D01*
Y33174D01*
X190435D01*
Y33309D01*
X190030D01*
Y33174D01*
X189896D01*
Y32635D01*
X189761D01*
Y31961D01*
X189626D01*
Y31287D01*
X189491D01*
Y30613D01*
X189356D01*
Y29939D01*
X189222D01*
Y29400D01*
X189087D01*
Y28726D01*
X188952D01*
Y28052D01*
X188817D01*
Y27378D01*
X188683D01*
Y26705D01*
X188548D01*
Y26031D01*
X188413D01*
Y25492D01*
X188278D01*
Y24818D01*
X188144D01*
Y24144D01*
X188009D01*
Y23470D01*
X187874D01*
Y22796D01*
X187739D01*
Y22122D01*
X187604D01*
Y21583D01*
X187470D01*
Y20909D01*
X187335D01*
Y20235D01*
X187200D01*
Y19561D01*
X187065D01*
Y18887D01*
X186931D01*
Y18214D01*
X186796D01*
Y17674D01*
X186661D01*
Y17001D01*
X186526D01*
Y16327D01*
X186391D01*
Y15653D01*
X186257D01*
Y14979D01*
X186122D01*
Y14305D01*
X185987D01*
Y13766D01*
X185852D01*
Y13092D01*
X185718D01*
Y12418D01*
X185583D01*
Y11744D01*
X185448D01*
Y11070D01*
X185313D01*
Y10397D01*
X185178D01*
Y9858D01*
X185044D01*
Y9184D01*
X184909D01*
Y8510D01*
X184774D01*
Y7836D01*
X184639D01*
Y7162D01*
X184505D01*
Y6488D01*
X184370D01*
Y5949D01*
X184235D01*
Y5275D01*
X184100D01*
Y4601D01*
X183965D01*
Y3927D01*
X183831D01*
Y3523D01*
X184100D01*
Y3388D01*
X184370D01*
Y3253D01*
X184639D01*
Y3119D01*
X184909D01*
Y2984D01*
X185178D01*
Y2849D01*
X185313D01*
Y2714D01*
X185583D01*
Y2580D01*
X185718D01*
Y2445D01*
X185852D01*
Y2310D01*
X185987D01*
Y2175D01*
X186122D01*
Y2040D01*
X186257D01*
Y1906D01*
X186391D01*
Y1771D01*
X186526D01*
Y1501D01*
X186661D01*
Y1366D01*
X186796D01*
Y1097D01*
X186931D01*
Y962D01*
X187065D01*
Y693D01*
X187200D01*
Y288D01*
X187335D01*
Y-116D01*
X187470D01*
Y-655D01*
X187604D01*
Y-2677D01*
X187470D01*
Y-3216D01*
X187335D01*
Y-3620D01*
X187200D01*
Y-3890D01*
X187065D01*
Y-4159D01*
X186931D01*
Y-4429D01*
X186796D01*
Y-4698D01*
X186661D01*
Y-4833D01*
X186526D01*
Y-5103D01*
X186391D01*
Y-5238D01*
X186257D01*
Y-5372D01*
X186122D01*
Y-5507D01*
X185987D01*
Y-5642D01*
X185852D01*
Y-5777D01*
X185718D01*
Y-5911D01*
X185448D01*
Y-6046D01*
X185313D01*
Y-6181D01*
X185178D01*
Y-6316D01*
X184909D01*
Y-6450D01*
X184639D01*
Y-6585D01*
X184370D01*
Y-6720D01*
X183965D01*
Y-6855D01*
X183561D01*
Y-6990D01*
X182752D01*
Y-7124D01*
X181674D01*
Y-6990D01*
X180865D01*
Y-6855D01*
X180461D01*
Y-6720D01*
X180057D01*
Y-6585D01*
X179787D01*
Y-6450D01*
X179518D01*
Y-6316D01*
X179248D01*
Y-6181D01*
X179113D01*
Y-6046D01*
X178844D01*
Y-5911D01*
X178709D01*
Y-5777D01*
X178574D01*
Y-5642D01*
X178440D01*
Y-5507D01*
X178305D01*
Y-5372D01*
X178170D01*
Y-5238D01*
X178035D01*
Y-5103D01*
X177900D01*
Y-4833D01*
X177766D01*
Y-4698D01*
X177631D01*
Y-4429D01*
X177496D01*
Y-4294D01*
X177361D01*
Y-4025D01*
X177227D01*
Y-3620D01*
X177092D01*
Y-3351D01*
X176957D01*
Y-2812D01*
X176822D01*
Y-520D01*
X176957D01*
Y19D01*
X177092D01*
Y423D01*
X177227D01*
Y693D01*
X177361D01*
Y962D01*
X177496D01*
Y1232D01*
X177631D01*
Y1366D01*
X177766D01*
Y1636D01*
X177900D01*
Y1771D01*
X178035D01*
Y1906D01*
X178170D01*
Y2040D01*
X178305D01*
Y2175D01*
X178440D01*
Y2310D01*
X178574D01*
Y2445D01*
X178709D01*
Y2580D01*
X178844D01*
Y2714D01*
X179113D01*
Y2849D01*
X179248D01*
Y2984D01*
X179518D01*
Y3119D01*
X179787D01*
Y3253D01*
X180057D01*
Y3388D01*
X180326D01*
Y3523D01*
X180731D01*
Y3658D01*
X181405D01*
Y3792D01*
X182752D01*
Y3927D01*
X182887D01*
Y4601D01*
X183022D01*
Y5140D01*
X183157D01*
Y5814D01*
X183291D01*
Y6488D01*
X183426D01*
Y7162D01*
X183561D01*
Y7836D01*
X183696D01*
Y8510D01*
X183831D01*
Y9049D01*
X183965D01*
Y9723D01*
X184100D01*
Y10397D01*
X184235D01*
Y11070D01*
X184370D01*
Y11744D01*
X184505D01*
Y12418D01*
X184639D01*
Y12957D01*
X184774D01*
Y13631D01*
X184909D01*
Y14305D01*
X185044D01*
Y14979D01*
X185178D01*
Y15653D01*
X185313D01*
Y16327D01*
X185448D01*
Y16866D01*
X185583D01*
Y17540D01*
X185718D01*
Y18214D01*
X185852D01*
Y18887D01*
X185987D01*
Y19561D01*
X186122D01*
Y20235D01*
X186257D01*
Y20774D01*
X186391D01*
Y21448D01*
X186526D01*
Y22122D01*
X186661D01*
Y22796D01*
X186796D01*
Y23470D01*
X186931D01*
Y24144D01*
X187065D01*
Y24683D01*
X187200D01*
Y25357D01*
X187335D01*
Y26031D01*
X187470D01*
Y26705D01*
X187604D01*
Y27378D01*
X187739D01*
Y28052D01*
X187874D01*
Y28591D01*
X188009D01*
Y29265D01*
X188144D01*
Y29939D01*
X188278D01*
Y30613D01*
X188413D01*
Y31287D01*
X188548D01*
Y31961D01*
X188683D01*
Y32500D01*
X188817D01*
Y33174D01*
X188952D01*
Y33578D01*
X188548D01*
Y33713D01*
X188144D01*
Y33848D01*
X187739D01*
Y33983D01*
X187335D01*
Y34117D01*
X186931D01*
Y34252D01*
X186661D01*
Y34387D01*
X186391D01*
Y34522D01*
X186122D01*
Y34656D01*
X185852D01*
Y34791D01*
X185583D01*
Y34926D01*
X185313D01*
Y35061D01*
X185044D01*
Y35196D01*
X184909D01*
Y35330D01*
X184639D01*
Y35465D01*
X184505D01*
Y35600D01*
X184235D01*
Y35735D01*
X184100D01*
Y35869D01*
X183831D01*
Y36004D01*
X183696D01*
Y36139D01*
X183561D01*
Y36274D01*
X183291D01*
Y36409D01*
X183157D01*
Y36543D01*
X183022D01*
Y36678D01*
X182887D01*
Y36813D01*
X182752D01*
Y36948D01*
X182618D01*
Y37083D01*
X182483D01*
Y37217D01*
X182213D01*
Y37352D01*
X182078D01*
Y37487D01*
X181944D01*
Y37622D01*
X181809D01*
Y37756D01*
X181674D01*
Y38026D01*
X181539D01*
Y38161D01*
X181405D01*
Y38295D01*
X181270D01*
Y38430D01*
X181135D01*
Y38295D01*
X181000D01*
Y38161D01*
X180865D01*
Y38026D01*
X180596D01*
Y37891D01*
X180461D01*
Y37756D01*
X180326D01*
Y37622D01*
X180192D01*
Y37487D01*
X180057D01*
Y37352D01*
X179787D01*
Y37217D01*
X179653D01*
Y37083D01*
X179518D01*
Y36948D01*
X179383D01*
Y36813D01*
X179248D01*
Y36678D01*
X178979D01*
Y36543D01*
X178844D01*
Y36409D01*
X178709D01*
Y36274D01*
X178574D01*
Y36139D01*
X178305D01*
Y36004D01*
X178170D01*
Y35869D01*
X178035D01*
Y35735D01*
X177900D01*
Y35600D01*
X177766D01*
Y35465D01*
X177496D01*
Y35330D01*
X177361D01*
Y35196D01*
X177227D01*
Y35061D01*
X177092D01*
Y34926D01*
X176957D01*
Y34791D01*
X176687D01*
Y34656D01*
X176553D01*
Y34522D01*
X176418D01*
Y34387D01*
X176283D01*
Y34252D01*
X176148D01*
Y34117D01*
X175879D01*
Y33983D01*
X175744D01*
Y33848D01*
X175609D01*
Y33713D01*
X175474D01*
Y33578D01*
X175205D01*
Y33444D01*
X175070D01*
Y33309D01*
X174935D01*
Y33174D01*
X174801D01*
Y33039D01*
X174666D01*
Y32904D01*
X174396D01*
Y32770D01*
X174261D01*
Y32635D01*
X174127D01*
Y32500D01*
X173992D01*
Y32365D01*
X173857D01*
Y32231D01*
X173588D01*
Y32096D01*
X173453D01*
Y31961D01*
X173318D01*
Y31826D01*
X173183D01*
Y31691D01*
X172914D01*
Y31557D01*
X172779D01*
Y31422D01*
X172644D01*
Y31287D01*
X172509D01*
Y31152D01*
X172375D01*
Y31017D01*
X172105D01*
Y30883D01*
X171970D01*
Y30748D01*
X171835D01*
Y30613D01*
X171701D01*
Y30478D01*
X171566D01*
Y30344D01*
X171296D01*
Y30209D01*
X171162D01*
Y30074D01*
X171027D01*
Y29939D01*
X170892D01*
Y29804D01*
X170757D01*
Y29670D01*
X170488D01*
Y29535D01*
X170353D01*
Y29400D01*
X170218D01*
Y29265D01*
X170083D01*
Y29131D01*
X169814D01*
Y28996D01*
X169679D01*
Y28861D01*
X169544D01*
Y28726D01*
X169410D01*
Y28591D01*
X169275D01*
Y28457D01*
X169005D01*
Y28322D01*
X168870D01*
Y28187D01*
X168736D01*
Y28052D01*
X168601D01*
Y27918D01*
X168466D01*
Y27783D01*
X168197D01*
Y27648D01*
X168062D01*
Y27513D01*
X167927D01*
Y27378D01*
X167792D01*
Y27244D01*
X167657D01*
Y27109D01*
X167388D01*
Y26974D01*
X167253D01*
Y26839D01*
X167118D01*
Y26705D01*
X166984D01*
Y26570D01*
X166714D01*
Y26435D01*
X166579D01*
Y26300D01*
X166444D01*
Y26165D01*
X166310D01*
Y26031D01*
X166175D01*
Y25896D01*
X165905D01*
Y25761D01*
X165770D01*
Y25492D01*
X165905D01*
Y25222D01*
X166040D01*
Y24952D01*
X166175D01*
Y24683D01*
X166310D01*
Y24279D01*
X166444D01*
Y23874D01*
X166579D01*
Y21314D01*
X166444D01*
Y20909D01*
X166310D01*
Y20505D01*
X166175D01*
Y20235D01*
X166040D01*
Y19966D01*
X165905D01*
Y19696D01*
X165770D01*
Y19561D01*
X165636D01*
Y19292D01*
X165501D01*
Y19157D01*
X165366D01*
Y19022D01*
X165231D01*
Y18887D01*
X165097D01*
Y18753D01*
X164962D01*
Y18618D01*
X164827D01*
Y18483D01*
X164692D01*
Y18348D01*
X164557D01*
Y18214D01*
X164288D01*
Y18079D01*
X164153D01*
Y17944D01*
X163884D01*
Y17809D01*
X163614D01*
Y17674D01*
X163344D01*
Y17540D01*
X163075D01*
Y17405D01*
X162536D01*
Y17270D01*
X161862D01*
Y17135D01*
X160514D01*
Y17270D01*
X159840D01*
Y17405D01*
X159436D01*
Y17540D01*
X159032D01*
Y17674D01*
X158762D01*
Y17809D01*
X158492D01*
Y17944D01*
X158358D01*
Y18079D01*
X158088D01*
Y18214D01*
X157953D01*
Y18348D01*
X157684D01*
Y18483D01*
X157549D01*
Y18618D01*
X157414D01*
Y18753D01*
X157280D01*
Y18887D01*
X157145D01*
Y19022D01*
X157010D01*
Y19292D01*
X156875D01*
Y19427D01*
X156740D01*
Y19561D01*
X156606D01*
Y19831D01*
X156471D01*
Y20101D01*
X156336D01*
Y20370D01*
X156201D01*
Y20640D01*
X156067D01*
Y21044D01*
X155932D01*
Y21718D01*
X155797D01*
Y23470D01*
X155932D01*
Y24144D01*
X156067D01*
Y24548D01*
X156201D01*
Y24818D01*
X156336D01*
Y25087D01*
X156471D01*
Y25357D01*
X156606D01*
Y25626D01*
X156740D01*
Y25761D01*
X156875D01*
Y25896D01*
X157010D01*
Y26165D01*
X157145D01*
Y26300D01*
X157280D01*
Y26435D01*
X157414D01*
Y26570D01*
X157549D01*
Y26705D01*
X157684D01*
Y26839D01*
X157953D01*
Y26974D01*
X158088D01*
Y27109D01*
X158223D01*
Y27244D01*
X158492D01*
Y27378D01*
X158762D01*
Y27513D01*
X159032D01*
Y27648D01*
X159436D01*
Y27783D01*
X159840D01*
Y27918D01*
X160514D01*
Y28052D01*
X161862D01*
Y27918D01*
X162671D01*
Y27783D01*
X163075D01*
Y27648D01*
X163344D01*
Y27513D01*
X163614D01*
Y27378D01*
X163884D01*
Y27244D01*
X164153D01*
Y27109D01*
X164288D01*
Y26974D01*
X164557D01*
Y26839D01*
X164692D01*
Y26705D01*
X164827D01*
Y26570D01*
X164962D01*
Y26435D01*
X165097D01*
Y26570D01*
X165231D01*
Y26705D01*
X165501D01*
Y26839D01*
X165636D01*
Y26974D01*
X165770D01*
Y27109D01*
X165905D01*
Y27244D01*
X166040D01*
Y27378D01*
X166310D01*
Y27513D01*
X166444D01*
Y27648D01*
X166579D01*
Y27783D01*
X166714D01*
Y27918D01*
X166849D01*
Y28052D01*
X167118D01*
Y28187D01*
X167253D01*
Y28322D01*
X167388D01*
Y28457D01*
X167523D01*
Y28591D01*
X167792D01*
Y28726D01*
X167927D01*
Y28861D01*
X168062D01*
Y28996D01*
X168197D01*
Y29131D01*
X168331D01*
Y29265D01*
X168601D01*
Y29400D01*
X168736D01*
Y29535D01*
X168870D01*
Y29670D01*
X169005D01*
Y29804D01*
X169140D01*
Y29939D01*
X169410D01*
Y30074D01*
X169544D01*
Y30209D01*
X169679D01*
Y30344D01*
X169814D01*
Y30478D01*
X169949D01*
Y30613D01*
X170218D01*
Y30748D01*
X170353D01*
Y30883D01*
X170488D01*
Y31017D01*
X170623D01*
Y31152D01*
X170892D01*
Y31287D01*
X171027D01*
Y31422D01*
X171162D01*
Y31557D01*
X171296D01*
Y31691D01*
X171431D01*
Y31826D01*
X171701D01*
Y31961D01*
X171835D01*
Y32096D01*
X171970D01*
Y32231D01*
X172105D01*
Y32365D01*
X172240D01*
Y32500D01*
X172509D01*
Y32635D01*
X172644D01*
Y32770D01*
X172779D01*
Y32904D01*
X172914D01*
Y33039D01*
X173048D01*
Y33174D01*
X173318D01*
Y33309D01*
X173453D01*
Y33444D01*
X173588D01*
Y33578D01*
X173722D01*
Y33713D01*
X173992D01*
Y33848D01*
X174127D01*
Y33983D01*
X174261D01*
Y34117D01*
X174396D01*
Y34252D01*
X174531D01*
Y34387D01*
X174801D01*
Y34522D01*
X174935D01*
Y34656D01*
X175070D01*
Y34791D01*
X175205D01*
Y34926D01*
X175340D01*
Y35061D01*
X175609D01*
Y35196D01*
X175744D01*
Y35330D01*
X175879D01*
Y35465D01*
X176014D01*
Y35600D01*
X176148D01*
Y35735D01*
X176418D01*
Y35869D01*
X176553D01*
Y36004D01*
X176687D01*
Y36139D01*
X176822D01*
Y36274D01*
X177092D01*
Y36409D01*
X177227D01*
Y36543D01*
X177361D01*
Y36678D01*
X177496D01*
Y36813D01*
X177631D01*
Y36948D01*
X177900D01*
Y37083D01*
X178035D01*
Y37217D01*
X178170D01*
Y37352D01*
X178305D01*
Y37487D01*
X178440D01*
Y37622D01*
X178709D01*
Y37756D01*
X178844D01*
Y37891D01*
X178979D01*
Y38026D01*
X179113D01*
Y38161D01*
X179383D01*
Y38295D01*
X179518D01*
Y38430D01*
X179653D01*
Y38565D01*
X179787D01*
Y38700D01*
X179922D01*
Y38835D01*
X180192D01*
Y38969D01*
X180326D01*
Y39104D01*
X180461D01*
Y39374D01*
X180326D01*
Y39643D01*
X180192D01*
Y39778D01*
X180057D01*
Y40047D01*
X179922D01*
Y40182D01*
X179787D01*
Y40452D01*
X179653D01*
Y40587D01*
X179518D01*
Y40856D01*
X179383D01*
Y41126D01*
X179248D01*
Y41395D01*
X179113D01*
Y41665D01*
X178979D01*
Y41934D01*
X178844D01*
Y42204D01*
X178709D01*
Y42474D01*
X178574D01*
Y42878D01*
X178440D01*
Y43147D01*
X178305D01*
Y43552D01*
X178170D01*
Y44091D01*
X178035D01*
Y44495D01*
X177900D01*
Y45169D01*
X177766D01*
Y45843D01*
X177631D01*
Y47056D01*
X177496D01*
Y49752D01*
X177631D01*
Y50964D01*
X177766D01*
Y51773D01*
X177900D01*
Y52312D01*
X178035D01*
Y52851D01*
X178170D01*
Y53256D01*
X178305D01*
Y53660D01*
X178440D01*
Y54064D01*
X178574D01*
Y54334D01*
X178709D01*
Y54603D01*
X178844D01*
Y55008D01*
X178979D01*
Y55277D01*
X179113D01*
Y55547D01*
X179248D01*
Y55682D01*
X179383D01*
Y55951D01*
X179518D01*
Y56221D01*
X179653D01*
Y56490D01*
X179787D01*
Y56625D01*
X179922D01*
Y56895D01*
X180057D01*
Y57030D01*
X180192D01*
Y57299D01*
X180326D01*
Y57434D01*
X180461D01*
Y57568D01*
X180596D01*
Y57703D01*
X180731D01*
Y57973D01*
X180865D01*
Y58108D01*
X181000D01*
Y58242D01*
X181135D01*
Y58377D01*
X181270D01*
Y58512D01*
X181405D01*
Y58781D01*
X181539D01*
Y58916D01*
X181674D01*
Y59051D01*
X181809D01*
Y59186D01*
X181944D01*
Y59321D01*
X182078D01*
Y59455D01*
X182213D01*
Y59590D01*
X182348D01*
Y59725D01*
X182483D01*
Y59860D01*
X182752D01*
Y59995D01*
X182887D01*
Y60129D01*
X183022D01*
Y60264D01*
X183157D01*
Y60399D01*
X183291D01*
Y60534D01*
X183561D01*
Y60668D01*
X183696D01*
Y60803D01*
X183831D01*
Y60938D01*
X184100D01*
Y61073D01*
X184235D01*
Y61207D01*
X184370D01*
Y61342D01*
X184639D01*
Y61477D01*
X184774D01*
Y61612D01*
X185044D01*
Y61747D01*
X185313D01*
Y61881D01*
X185583D01*
Y62016D01*
X185718D01*
Y62151D01*
X185987D01*
Y62286D01*
X186122D01*
Y62555D01*
X185987D01*
Y62825D01*
X185852D01*
Y63229D01*
X185718D01*
Y63499D01*
X185583D01*
Y63768D01*
X185448D01*
Y64038D01*
X185313D01*
Y64307D01*
X185178D01*
Y64577D01*
X185044D01*
Y64847D01*
X184909D01*
Y65251D01*
X184774D01*
Y65520D01*
X184639D01*
Y65790D01*
X184505D01*
Y66059D01*
X184370D01*
Y66329D01*
X184235D01*
Y66599D01*
X184100D01*
Y67003D01*
X183965D01*
Y67273D01*
X183831D01*
Y67542D01*
X183696D01*
Y67812D01*
X183561D01*
Y68081D01*
X183426D01*
Y68351D01*
X183291D01*
Y68620D01*
X183157D01*
Y69025D01*
X183022D01*
Y69294D01*
X182887D01*
Y69564D01*
X182752D01*
Y69833D01*
X182618D01*
Y70103D01*
X182483D01*
Y70372D01*
X182348D01*
Y70777D01*
X182213D01*
Y71046D01*
X182078D01*
Y71316D01*
X181944D01*
Y71585D01*
X181809D01*
Y71855D01*
X181674D01*
Y72125D01*
X181539D01*
Y72394D01*
X181405D01*
Y72798D01*
X181270D01*
Y73068D01*
X181135D01*
Y73337D01*
X181000D01*
Y73607D01*
X180865D01*
Y73877D01*
X180731D01*
Y74146D01*
X180596D01*
Y74550D01*
X180461D01*
Y74820D01*
X180326D01*
Y75090D01*
X180192D01*
Y75359D01*
X180057D01*
Y75629D01*
X179922D01*
Y75898D01*
X179787D01*
Y76168D01*
X179653D01*
Y76572D01*
X179518D01*
Y76842D01*
X179383D01*
Y77111D01*
X179248D01*
Y77381D01*
X179113D01*
Y77650D01*
X178979D01*
Y77920D01*
X178844D01*
Y78324D01*
X178709D01*
Y78594D01*
X178574D01*
Y78863D01*
X178440D01*
Y79133D01*
X178305D01*
Y79402D01*
X178170D01*
Y79672D01*
X178035D01*
Y79942D01*
X177900D01*
Y80346D01*
X177766D01*
Y80615D01*
X177631D01*
Y80885D01*
X177496D01*
Y81154D01*
X177361D01*
Y81424D01*
X177227D01*
Y81694D01*
X177092D01*
Y82098D01*
X176957D01*
Y82367D01*
X176822D01*
Y82637D01*
X176687D01*
Y82907D01*
X176553D01*
Y83176D01*
X176418D01*
Y83446D01*
X176283D01*
Y83715D01*
X176148D01*
Y84120D01*
X176014D01*
Y84389D01*
X175879D01*
Y84659D01*
X175744D01*
Y84928D01*
X175609D01*
Y85198D01*
X175474D01*
Y85467D01*
X175340D01*
Y85872D01*
X175205D01*
Y86141D01*
X175070D01*
Y86411D01*
X174935D01*
Y86680D01*
X174801D01*
Y86950D01*
X174666D01*
Y87219D01*
X174531D01*
Y87489D01*
X174396D01*
Y87893D01*
X174261D01*
Y88163D01*
X174127D01*
Y88433D01*
X173992D01*
Y88702D01*
X173857D01*
Y88972D01*
X173722D01*
Y89241D01*
X173588D01*
Y89646D01*
X173453D01*
Y89915D01*
X173318D01*
Y90185D01*
X173183D01*
Y90454D01*
X173048D01*
Y90724D01*
X172914D01*
Y90993D01*
X172779D01*
Y91263D01*
X172644D01*
Y91667D01*
X172509D01*
Y91937D01*
X172375D01*
Y92206D01*
X172240D01*
Y92476D01*
X172105D01*
Y92745D01*
X171970D01*
Y93015D01*
X171835D01*
Y93150D01*
X171701D01*
Y93015D01*
X171431D01*
Y92880D01*
X171027D01*
Y92745D01*
X170623D01*
Y92611D01*
X169949D01*
Y92476D01*
X169140D01*
Y92341D01*
X167118D01*
Y92476D01*
X166310D01*
Y92611D01*
X165770D01*
Y92745D01*
X165231D01*
Y92880D01*
X164962D01*
Y93015D01*
X164557D01*
Y93150D01*
X164288D01*
Y93285D01*
X164018D01*
Y93419D01*
X163749D01*
Y93554D01*
X163479D01*
Y93689D01*
X163344D01*
Y93824D01*
X163075D01*
Y93958D01*
X162940D01*
Y94093D01*
X162671D01*
Y94228D01*
X162536D01*
Y94363D01*
X162401D01*
Y94497D01*
X162266D01*
Y94632D01*
X161997D01*
Y94767D01*
X161862D01*
Y94902D01*
X161727D01*
Y95037D01*
X161592D01*
Y95171D01*
X161458D01*
Y95306D01*
X161323D01*
Y95576D01*
X161188D01*
Y95710D01*
X161053D01*
Y95845D01*
X160919D01*
Y95980D01*
X160784D01*
Y96250D01*
X160649D01*
Y96384D01*
X160514D01*
Y96654D01*
X160379D01*
Y96789D01*
X160245D01*
Y97058D01*
X160110D01*
Y97328D01*
X159975D01*
Y97597D01*
X159840D01*
Y97867D01*
X159705D01*
Y98271D01*
X159571D01*
Y98675D01*
X159436D01*
Y99080D01*
X159301D01*
Y99619D01*
X159166D01*
Y100562D01*
X159032D01*
Y102315D01*
X159166D01*
Y103258D01*
X159301D01*
Y103797D01*
X159436D01*
Y104336D01*
X159571D01*
Y104740D01*
X159705D01*
Y105010D01*
X159840D01*
Y105280D01*
X159975D01*
Y105549D01*
X160110D01*
Y105819D01*
X160245D01*
Y106088D01*
X160379D01*
Y106358D01*
X160514D01*
Y106493D01*
X160649D01*
Y106762D01*
X160784D01*
Y106897D01*
X160919D01*
Y107032D01*
X161053D01*
Y107301D01*
X161188D01*
Y107436D01*
X161323D01*
Y107571D01*
X161458D01*
Y107706D01*
X161592D01*
Y107840D01*
X161727D01*
Y107975D01*
X161862D01*
Y108110D01*
X161997D01*
Y108245D01*
X162132D01*
Y108379D01*
X162266D01*
Y108514D01*
X162536D01*
Y108649D01*
X162671D01*
Y108784D01*
X162805D01*
Y108919D01*
X163075D01*
Y109053D01*
X163210D01*
Y109188D01*
X163479D01*
Y109323D01*
X163614D01*
Y109458D01*
X163884D01*
Y109593D01*
X164153D01*
Y109727D01*
X164423D01*
Y109862D01*
X164827D01*
Y109997D01*
X165231D01*
Y110132D01*
X165636D01*
Y110266D01*
X166175D01*
Y110401D01*
X166849D01*
Y110536D01*
X169410D01*
Y110401D01*
D02*
G37*
%LPC*%
G36*
X161862Y26435D02*
X160649D01*
Y26300D01*
X160110D01*
Y26165D01*
X159705D01*
Y26031D01*
X159436D01*
Y25896D01*
X159166D01*
Y25761D01*
X159032D01*
Y25626D01*
X158762D01*
Y25492D01*
X158627D01*
Y25357D01*
X158492D01*
Y25222D01*
X158358D01*
Y25087D01*
X158223D01*
Y24952D01*
Y24818D01*
X158088D01*
Y24683D01*
X157953D01*
Y24548D01*
Y24413D01*
X157819D01*
Y24279D01*
Y24144D01*
X157684D01*
Y24009D01*
Y23874D01*
X157549D01*
Y23740D01*
Y23605D01*
Y23470D01*
Y23335D01*
X157414D01*
Y23200D01*
Y23066D01*
Y22931D01*
Y22796D01*
Y22661D01*
Y22527D01*
Y22392D01*
Y22257D01*
Y22122D01*
Y21987D01*
Y21853D01*
X157549D01*
Y21718D01*
Y21583D01*
Y21448D01*
Y21314D01*
X157684D01*
Y21179D01*
Y21044D01*
X157819D01*
Y20909D01*
Y20774D01*
X157953D01*
Y20640D01*
Y20505D01*
X158088D01*
Y20370D01*
X158223D01*
Y20235D01*
Y20101D01*
X158358D01*
Y19966D01*
X158492D01*
Y19831D01*
X158627D01*
Y19696D01*
X158762D01*
Y19561D01*
X159032D01*
Y19427D01*
X159166D01*
Y19292D01*
X159436D01*
Y19157D01*
X159705D01*
Y19022D01*
X160110D01*
Y18887D01*
X160649D01*
Y18753D01*
X161862D01*
Y18887D01*
X162401D01*
Y19022D01*
X162671D01*
Y19157D01*
X163075D01*
Y19292D01*
X163210D01*
Y19427D01*
X163479D01*
Y19561D01*
X163614D01*
Y19696D01*
X163749D01*
Y19831D01*
X163884D01*
Y19966D01*
X164018D01*
Y20101D01*
X164153D01*
Y20235D01*
X164288D01*
Y20370D01*
X164423D01*
Y20505D01*
Y20640D01*
X164557D01*
Y20774D01*
Y20909D01*
X164692D01*
Y21044D01*
Y21179D01*
X164827D01*
Y21314D01*
Y21448D01*
Y21583D01*
X164962D01*
Y21718D01*
Y21853D01*
Y21987D01*
Y22122D01*
Y22257D01*
X165097D01*
Y22392D01*
Y22527D01*
Y22661D01*
Y22796D01*
Y22931D01*
X164962D01*
Y23066D01*
Y23200D01*
Y23335D01*
Y23470D01*
Y23605D01*
X164827D01*
Y23740D01*
Y23874D01*
Y24009D01*
X164692D01*
Y24144D01*
Y24279D01*
X164557D01*
Y24413D01*
Y24548D01*
X164423D01*
Y24683D01*
Y24818D01*
X164288D01*
Y24952D01*
X164153D01*
Y25087D01*
X164018D01*
Y25222D01*
X163884D01*
Y25357D01*
X163749D01*
Y25492D01*
X163614D01*
Y25626D01*
X163479D01*
Y25761D01*
X163210D01*
Y25896D01*
X163075D01*
Y26031D01*
X162671D01*
Y26165D01*
X162401D01*
Y26300D01*
X161862D01*
Y26435D01*
D02*
G37*
G36*
X182887Y2175D02*
X181539D01*
Y2040D01*
X181000D01*
Y1906D01*
X180596D01*
Y1771D01*
X180326D01*
Y1636D01*
X180192D01*
Y1501D01*
X179922D01*
Y1366D01*
X179787D01*
Y1232D01*
X179653D01*
Y1097D01*
X179518D01*
Y962D01*
X179383D01*
Y827D01*
X179248D01*
Y693D01*
X179113D01*
Y558D01*
Y423D01*
X178979D01*
Y288D01*
X178844D01*
Y154D01*
Y19D01*
X178709D01*
Y-116D01*
Y-251D01*
X178574D01*
Y-386D01*
Y-520D01*
Y-655D01*
X178440D01*
Y-790D01*
Y-925D01*
Y-1059D01*
Y-1194D01*
Y-1329D01*
Y-1464D01*
Y-1599D01*
Y-1733D01*
Y-1868D01*
Y-2003D01*
Y-2138D01*
Y-2272D01*
Y-2407D01*
Y-2542D01*
Y-2677D01*
X178574D01*
Y-2812D01*
Y-2946D01*
Y-3081D01*
X178709D01*
Y-3216D01*
Y-3351D01*
X178844D01*
Y-3485D01*
Y-3620D01*
X178979D01*
Y-3755D01*
X179113D01*
Y-3890D01*
Y-4025D01*
X179248D01*
Y-4159D01*
X179383D01*
Y-4294D01*
X179518D01*
Y-4429D01*
X179653D01*
Y-4564D01*
X179787D01*
Y-4698D01*
X180057D01*
Y-4833D01*
X180192D01*
Y-4968D01*
X180461D01*
Y-5103D01*
X180731D01*
Y-5238D01*
X181135D01*
Y-5372D01*
X181674D01*
Y-5507D01*
X182752D01*
Y-5372D01*
X183291D01*
Y-5238D01*
X183696D01*
Y-5103D01*
X183965D01*
Y-4968D01*
X184235D01*
Y-4833D01*
X184370D01*
Y-4698D01*
X184639D01*
Y-4564D01*
X184774D01*
Y-4429D01*
X184909D01*
Y-4294D01*
X185044D01*
Y-4159D01*
X185178D01*
Y-4025D01*
X185313D01*
Y-3890D01*
Y-3755D01*
X185448D01*
Y-3620D01*
X185583D01*
Y-3485D01*
Y-3351D01*
X185718D01*
Y-3216D01*
Y-3081D01*
Y-2946D01*
X185852D01*
Y-2812D01*
Y-2677D01*
Y-2542D01*
X185987D01*
Y-2407D01*
Y-2272D01*
Y-2138D01*
Y-2003D01*
Y-1868D01*
Y-1733D01*
Y-1599D01*
Y-1464D01*
Y-1329D01*
Y-1194D01*
Y-1059D01*
Y-925D01*
Y-790D01*
X185852D01*
Y-655D01*
Y-520D01*
Y-386D01*
Y-251D01*
X185718D01*
Y-116D01*
Y19D01*
X185583D01*
Y154D01*
Y288D01*
X185448D01*
Y423D01*
X185313D01*
Y558D01*
Y693D01*
X185178D01*
Y827D01*
X185044D01*
Y962D01*
X184909D01*
Y1097D01*
X184774D01*
Y1232D01*
X184639D01*
Y1366D01*
X184505D01*
Y1501D01*
X184235D01*
Y1636D01*
X183965D01*
Y1771D01*
X183696D01*
Y1906D01*
X183426D01*
Y2040D01*
X182887D01*
Y2175D01*
D02*
G37*
G36*
X218603Y3253D02*
X216177D01*
Y3119D01*
X215638D01*
Y2984D01*
X215099D01*
Y2849D01*
X214829D01*
Y2714D01*
X214425D01*
Y2580D01*
X214156D01*
Y2445D01*
X214021D01*
Y2310D01*
X213751D01*
Y2175D01*
X213482D01*
Y2040D01*
X213347D01*
Y1906D01*
X213212D01*
Y1771D01*
X212942D01*
Y1636D01*
X212808D01*
Y1501D01*
X212673D01*
Y1366D01*
X212538D01*
Y1232D01*
X212403D01*
Y1097D01*
X212269D01*
Y962D01*
X212134D01*
Y827D01*
X211999D01*
Y693D01*
X211864D01*
Y558D01*
Y423D01*
X211730D01*
Y288D01*
X211595D01*
Y154D01*
Y19D01*
X211460D01*
Y-116D01*
X211325D01*
Y-251D01*
Y-386D01*
X211190D01*
Y-520D01*
Y-655D01*
X211056D01*
Y-790D01*
Y-925D01*
X210921D01*
Y-1059D01*
Y-1194D01*
Y-1329D01*
X210786D01*
Y-1464D01*
Y-1599D01*
Y-1733D01*
X210651D01*
Y-1868D01*
Y-2003D01*
Y-2138D01*
Y-2272D01*
X210516D01*
Y-2407D01*
Y-2542D01*
Y-2677D01*
Y-2812D01*
Y-2946D01*
Y-3081D01*
Y-3216D01*
Y-3351D01*
X210382D01*
Y-3485D01*
Y-3620D01*
Y-3755D01*
Y-3890D01*
X210516D01*
Y-4025D01*
Y-4159D01*
Y-4294D01*
Y-4429D01*
Y-4564D01*
Y-4698D01*
Y-4833D01*
Y-4968D01*
X210651D01*
Y-5103D01*
Y-5238D01*
Y-5372D01*
Y-5507D01*
X210786D01*
Y-5642D01*
Y-5777D01*
Y-5911D01*
X210921D01*
Y-6046D01*
Y-6181D01*
Y-6316D01*
X211056D01*
Y-6450D01*
Y-6585D01*
X211190D01*
Y-6720D01*
Y-6855D01*
X211325D01*
Y-6990D01*
Y-7124D01*
X211460D01*
Y-7259D01*
Y-7394D01*
X211595D01*
Y-7529D01*
X211730D01*
Y-7663D01*
Y-7798D01*
X211864D01*
Y-7933D01*
X211999D01*
Y-8068D01*
X212134D01*
Y-8203D01*
X212269D01*
Y-8337D01*
X212403D01*
Y-8472D01*
X212538D01*
Y-8607D01*
X212673D01*
Y-8742D01*
X212808D01*
Y-8877D01*
X212942D01*
Y-9011D01*
X213077D01*
Y-9146D01*
X213212D01*
Y-9281D01*
X213482D01*
Y-9416D01*
X213616D01*
Y-9550D01*
X213886D01*
Y-9685D01*
X214156D01*
Y-9820D01*
X214425D01*
Y-9955D01*
X214695D01*
Y-10089D01*
X214964D01*
Y-10224D01*
X215368D01*
Y-10359D01*
X215908D01*
Y-10494D01*
X216851D01*
Y-10629D01*
X217794D01*
Y-10494D01*
X218873D01*
Y-10359D01*
X219412D01*
Y-10224D01*
X219816D01*
Y-10089D01*
X220086D01*
Y-9955D01*
X220355D01*
Y-9820D01*
X220625D01*
Y-9685D01*
X220894D01*
Y-9550D01*
X221164D01*
Y-9416D01*
X221299D01*
Y-9281D01*
X221433D01*
Y-9146D01*
X221703D01*
Y-9011D01*
X221838D01*
Y-8877D01*
X221973D01*
Y-8742D01*
X222107D01*
Y-8607D01*
X222242D01*
Y-8472D01*
X222377D01*
Y-8337D01*
X222512D01*
Y-8203D01*
X222646D01*
Y-8068D01*
X222781D01*
Y-7933D01*
X222916D01*
Y-7798D01*
Y-7663D01*
X223051D01*
Y-7529D01*
X223186D01*
Y-7394D01*
Y-7259D01*
X223320D01*
Y-7124D01*
X223455D01*
Y-6990D01*
Y-6855D01*
X223590D01*
Y-6720D01*
Y-6585D01*
X223725D01*
Y-6450D01*
Y-6316D01*
X223859D01*
Y-6181D01*
Y-6046D01*
Y-5911D01*
X223994D01*
Y-5777D01*
Y-5642D01*
Y-5507D01*
X224129D01*
Y-5372D01*
Y-5238D01*
Y-5103D01*
Y-4968D01*
X224264D01*
Y-4833D01*
Y-4698D01*
Y-4564D01*
Y-4429D01*
Y-4294D01*
Y-4159D01*
Y-4025D01*
Y-3890D01*
Y-3755D01*
Y-3620D01*
Y-3485D01*
Y-3351D01*
Y-3216D01*
Y-3081D01*
Y-2946D01*
Y-2812D01*
Y-2677D01*
Y-2542D01*
Y-2407D01*
X224129D01*
Y-2272D01*
Y-2138D01*
Y-2003D01*
Y-1868D01*
Y-1733D01*
X223994D01*
Y-1599D01*
Y-1464D01*
Y-1329D01*
X223859D01*
Y-1194D01*
Y-1059D01*
X223725D01*
Y-925D01*
Y-790D01*
Y-655D01*
X223590D01*
Y-520D01*
Y-386D01*
X223455D01*
Y-251D01*
X223320D01*
Y-116D01*
Y19D01*
X223186D01*
Y154D01*
Y288D01*
X223051D01*
Y423D01*
X222916D01*
Y558D01*
X222781D01*
Y693D01*
Y827D01*
X222646D01*
Y962D01*
X222512D01*
Y1097D01*
X222377D01*
Y1232D01*
X222242D01*
Y1366D01*
X222107D01*
Y1501D01*
X221973D01*
Y1636D01*
X221838D01*
Y1771D01*
X221568D01*
Y1906D01*
X221433D01*
Y2040D01*
X221299D01*
Y2175D01*
X221029D01*
Y2310D01*
X220760D01*
Y2445D01*
X220625D01*
Y2580D01*
X220355D01*
Y2714D01*
X219951D01*
Y2849D01*
X219681D01*
Y2984D01*
X219142D01*
Y3119D01*
X218603D01*
Y3253D01*
D02*
G37*
G36*
X193130Y59051D02*
X192456D01*
Y58916D01*
X191109D01*
Y58781D01*
X190435D01*
Y58647D01*
X189896D01*
Y58512D01*
X189491D01*
Y58377D01*
X189087D01*
Y58242D01*
X188683D01*
Y58108D01*
X188413D01*
Y57973D01*
X188144D01*
Y57838D01*
X187874D01*
Y57703D01*
X187604D01*
Y57568D01*
X187470D01*
Y57434D01*
X187200D01*
Y57299D01*
X187065D01*
Y57164D01*
X186796D01*
Y57030D01*
X186661D01*
Y56895D01*
X186391D01*
Y56760D01*
X186257D01*
Y56625D01*
X186122D01*
Y56490D01*
X185987D01*
Y56356D01*
X185852D01*
Y56221D01*
X185583D01*
Y56086D01*
X185448D01*
Y55951D01*
X185313D01*
Y55816D01*
X185178D01*
Y55682D01*
X185044D01*
Y55547D01*
Y55412D01*
X184909D01*
Y55277D01*
X184774D01*
Y55143D01*
X184639D01*
Y55008D01*
X184505D01*
Y54873D01*
X184370D01*
Y54738D01*
Y54603D01*
X184235D01*
Y54469D01*
X184100D01*
Y54334D01*
X183965D01*
Y54199D01*
Y54064D01*
X183831D01*
Y53930D01*
Y53795D01*
X183696D01*
Y53660D01*
X183561D01*
Y53525D01*
Y53390D01*
X183426D01*
Y53256D01*
Y53121D01*
X183291D01*
Y52986D01*
Y52851D01*
X183157D01*
Y52717D01*
Y52582D01*
X183022D01*
Y52447D01*
Y52312D01*
Y52178D01*
X182887D01*
Y52043D01*
Y51908D01*
X182752D01*
Y51773D01*
Y51638D01*
Y51504D01*
Y51369D01*
X182618D01*
Y51234D01*
Y51099D01*
Y50964D01*
Y50830D01*
X182483D01*
Y50695D01*
Y50560D01*
Y50425D01*
Y50291D01*
Y50156D01*
X182348D01*
Y50021D01*
Y49886D01*
Y49752D01*
Y49617D01*
Y49482D01*
Y49347D01*
Y49212D01*
Y49078D01*
Y48943D01*
Y48808D01*
Y48673D01*
X182213D01*
Y48538D01*
Y48404D01*
Y48269D01*
Y48134D01*
X182348D01*
Y47999D01*
Y47865D01*
Y47730D01*
Y47595D01*
Y47460D01*
Y47326D01*
Y47191D01*
Y47056D01*
Y46921D01*
Y46786D01*
Y46652D01*
X182483D01*
Y46517D01*
Y46382D01*
Y46247D01*
Y46112D01*
Y45978D01*
X182618D01*
Y45843D01*
Y45708D01*
Y45573D01*
Y45439D01*
X182752D01*
Y45304D01*
Y45169D01*
Y45034D01*
X182887D01*
Y44900D01*
Y44765D01*
Y44630D01*
X183022D01*
Y44495D01*
Y44360D01*
X183157D01*
Y44226D01*
Y44091D01*
Y43956D01*
X183291D01*
Y43821D01*
Y43686D01*
X183426D01*
Y43552D01*
Y43417D01*
X183561D01*
Y43282D01*
Y43147D01*
X183696D01*
Y43013D01*
X183831D01*
Y42878D01*
Y42743D01*
X183965D01*
Y42608D01*
X184100D01*
Y42474D01*
Y42339D01*
X184235D01*
Y42204D01*
X184370D01*
Y42069D01*
X184505D01*
Y41934D01*
Y41800D01*
X184639D01*
Y41665D01*
X184774D01*
Y41530D01*
X184909D01*
Y41395D01*
X185044D01*
Y41260D01*
X185178D01*
Y41126D01*
X185313D01*
Y40991D01*
X185448D01*
Y40856D01*
X185583D01*
Y40721D01*
X185718D01*
Y40587D01*
X185852D01*
Y40452D01*
X185987D01*
Y40317D01*
X186122D01*
Y40182D01*
X186257D01*
Y40047D01*
X186526D01*
Y39913D01*
X186661D01*
Y39778D01*
X186796D01*
Y39643D01*
X187065D01*
Y39508D01*
X187200D01*
Y39374D01*
X187470D01*
Y39239D01*
X187604D01*
Y39104D01*
X187874D01*
Y38969D01*
X188144D01*
Y38835D01*
X188413D01*
Y38700D01*
X188817D01*
Y38565D01*
X189087D01*
Y38430D01*
X189491D01*
Y38295D01*
X189896D01*
Y38161D01*
X190569D01*
Y38026D01*
X191243D01*
Y37891D01*
X194478D01*
Y38026D01*
X195287D01*
Y38161D01*
X195826D01*
Y38295D01*
X196230D01*
Y38430D01*
X196634D01*
Y38565D01*
X196904D01*
Y38700D01*
X197174D01*
Y38835D01*
X197578D01*
Y38969D01*
X197713D01*
Y39104D01*
X197982D01*
Y39239D01*
X198252D01*
Y39374D01*
X198521D01*
Y39508D01*
X198656D01*
Y39643D01*
X198926D01*
Y39778D01*
X199060D01*
Y39913D01*
X199195D01*
Y40047D01*
X199465D01*
Y40182D01*
X199599D01*
Y40317D01*
X199734D01*
Y40452D01*
X199869D01*
Y40587D01*
X200004D01*
Y40721D01*
X200139D01*
Y40856D01*
X200273D01*
Y40991D01*
X200408D01*
Y41126D01*
X200543D01*
Y41260D01*
X200678D01*
Y41395D01*
X200812D01*
Y41530D01*
X200947D01*
Y41665D01*
X201082D01*
Y41800D01*
X201217D01*
Y41934D01*
Y42069D01*
X201352D01*
Y42204D01*
X201486D01*
Y42339D01*
X201621D01*
Y42474D01*
Y42608D01*
X201756D01*
Y42743D01*
X201891D01*
Y42878D01*
Y43013D01*
X202026D01*
Y43147D01*
Y43282D01*
X202160D01*
Y43417D01*
X202295D01*
Y43552D01*
Y43686D01*
X202430D01*
Y43821D01*
Y43956D01*
X202565D01*
Y44091D01*
Y44226D01*
Y44360D01*
X202699D01*
Y44495D01*
Y44630D01*
X202834D01*
Y44765D01*
Y44900D01*
Y45034D01*
X202969D01*
Y45169D01*
Y45304D01*
Y45439D01*
X203104D01*
Y45573D01*
Y45708D01*
Y45843D01*
Y45978D01*
X203239D01*
Y46112D01*
Y46247D01*
Y46382D01*
Y46517D01*
Y46652D01*
Y46786D01*
X203373D01*
Y46921D01*
Y47056D01*
Y47191D01*
Y47326D01*
Y47460D01*
Y47595D01*
Y47730D01*
Y47865D01*
Y47999D01*
Y48134D01*
Y48269D01*
Y48404D01*
Y48538D01*
Y48673D01*
Y48808D01*
Y48943D01*
Y49078D01*
Y49212D01*
Y49347D01*
Y49482D01*
Y49617D01*
Y49752D01*
Y49886D01*
Y50021D01*
Y50156D01*
X203239D01*
Y50291D01*
Y50425D01*
Y50560D01*
Y50695D01*
Y50830D01*
X203104D01*
Y50964D01*
Y51099D01*
Y51234D01*
Y51369D01*
X202969D01*
Y51504D01*
Y51638D01*
Y51773D01*
X202834D01*
Y51908D01*
Y52043D01*
Y52178D01*
X202699D01*
Y52312D01*
Y52447D01*
X202565D01*
Y52582D01*
Y52717D01*
Y52851D01*
X202430D01*
Y52986D01*
Y53121D01*
X202295D01*
Y53256D01*
Y53390D01*
X202160D01*
Y53525D01*
X202026D01*
Y53660D01*
Y53795D01*
X201891D01*
Y53930D01*
Y54064D01*
X201756D01*
Y54199D01*
X201621D01*
Y54334D01*
Y54469D01*
X201486D01*
Y54603D01*
X201352D01*
Y54738D01*
X201217D01*
Y54873D01*
Y55008D01*
X201082D01*
Y55143D01*
X200947D01*
Y55277D01*
X200812D01*
Y55412D01*
X200678D01*
Y55547D01*
X200543D01*
Y55682D01*
X200408D01*
Y55816D01*
X200273D01*
Y55951D01*
X200139D01*
Y56086D01*
X200004D01*
Y56221D01*
X199869D01*
Y56356D01*
X199734D01*
Y56490D01*
X199599D01*
Y56625D01*
X199465D01*
Y56760D01*
X199330D01*
Y56895D01*
X199060D01*
Y57030D01*
X198926D01*
Y57164D01*
X198656D01*
Y57299D01*
X198521D01*
Y57434D01*
X198252D01*
Y57568D01*
X198117D01*
Y57703D01*
X197847D01*
Y57838D01*
X197578D01*
Y57973D01*
X197308D01*
Y58108D01*
X197039D01*
Y58242D01*
X196634D01*
Y58377D01*
X196230D01*
Y58512D01*
X195826D01*
Y58647D01*
X195287D01*
Y58781D01*
X194613D01*
Y58916D01*
X193130D01*
Y59051D01*
D02*
G37*
G36*
X201352Y92476D02*
X200408D01*
Y92341D01*
X199734D01*
Y92206D01*
X199465D01*
Y92072D01*
X199195D01*
Y91937D01*
X198926D01*
Y91802D01*
X198656D01*
Y91667D01*
X198521D01*
Y91532D01*
X198386D01*
Y91398D01*
X198252D01*
Y91263D01*
X198117D01*
Y91128D01*
X197982D01*
Y90993D01*
X197847D01*
Y90858D01*
X197713D01*
Y90724D01*
Y90589D01*
X197578D01*
Y90454D01*
X197443D01*
Y90319D01*
Y90185D01*
X197308D01*
Y90050D01*
Y89915D01*
Y89780D01*
X197174D01*
Y89646D01*
Y89511D01*
Y89376D01*
Y89241D01*
X197039D01*
Y89106D01*
Y88972D01*
Y88837D01*
Y88702D01*
Y88567D01*
Y88433D01*
Y88298D01*
Y88163D01*
Y88028D01*
X197174D01*
Y87893D01*
Y87759D01*
Y87624D01*
Y87489D01*
X197308D01*
Y87354D01*
Y87219D01*
Y87085D01*
X197443D01*
Y86950D01*
Y86815D01*
X197578D01*
Y86680D01*
Y86546D01*
X197713D01*
Y86411D01*
X197847D01*
Y86276D01*
Y86141D01*
X197982D01*
Y86006D01*
X198117D01*
Y85872D01*
X198252D01*
Y85737D01*
X198386D01*
Y85602D01*
X198656D01*
Y85467D01*
X198791D01*
Y85333D01*
X199060D01*
Y85198D01*
X199330D01*
Y85063D01*
X199599D01*
Y84928D01*
X200139D01*
Y84794D01*
X201621D01*
Y84928D01*
X202160D01*
Y85063D01*
X202430D01*
Y85198D01*
X202699D01*
Y85333D01*
X202969D01*
Y85467D01*
X203104D01*
Y85602D01*
X203373D01*
Y85737D01*
X203508D01*
Y85872D01*
X203643D01*
Y86006D01*
X203778D01*
Y86141D01*
X203912D01*
Y86276D01*
Y86411D01*
X204047D01*
Y86546D01*
X204182D01*
Y86680D01*
Y86815D01*
X204317D01*
Y86950D01*
Y87085D01*
X204452D01*
Y87219D01*
Y87354D01*
Y87489D01*
X204586D01*
Y87624D01*
Y87759D01*
Y87893D01*
Y88028D01*
X204721D01*
Y88163D01*
Y88298D01*
Y88433D01*
Y88567D01*
Y88702D01*
Y88837D01*
Y88972D01*
Y89106D01*
Y89241D01*
X204586D01*
Y89376D01*
Y89511D01*
Y89646D01*
Y89780D01*
X204452D01*
Y89915D01*
Y90050D01*
Y90185D01*
X204317D01*
Y90319D01*
Y90454D01*
X204182D01*
Y90589D01*
X204047D01*
Y90724D01*
Y90858D01*
X203912D01*
Y90993D01*
X203778D01*
Y91128D01*
X203643D01*
Y91263D01*
X203508D01*
Y91398D01*
X203373D01*
Y91532D01*
X203239D01*
Y91667D01*
X203104D01*
Y91802D01*
X202834D01*
Y91937D01*
X202565D01*
Y92072D01*
X202295D01*
Y92206D01*
X201891D01*
Y92341D01*
X201352D01*
Y92476D01*
D02*
G37*
G36*
X225881Y78998D02*
X223994D01*
Y78863D01*
X223590D01*
Y78728D01*
X223320D01*
Y78594D01*
X223051D01*
Y78459D01*
X222781D01*
Y78324D01*
X222646D01*
Y78189D01*
X222512D01*
Y78055D01*
X222377D01*
Y77920D01*
X222242D01*
Y77785D01*
X222107D01*
Y77650D01*
X221973D01*
Y77516D01*
X221838D01*
Y77381D01*
X221703D01*
Y77246D01*
Y77111D01*
X221568D01*
Y76976D01*
Y76842D01*
X221433D01*
Y76707D01*
Y76572D01*
X221299D01*
Y76437D01*
Y76303D01*
Y76168D01*
Y76033D01*
X221164D01*
Y75898D01*
Y75764D01*
Y75629D01*
Y75494D01*
Y75359D01*
Y75224D01*
Y75090D01*
Y74955D01*
Y74820D01*
Y74685D01*
Y74550D01*
Y74416D01*
X221299D01*
Y74281D01*
Y74146D01*
Y74011D01*
Y73877D01*
X221433D01*
Y73742D01*
Y73607D01*
X221568D01*
Y73472D01*
Y73337D01*
X221703D01*
Y73203D01*
X221838D01*
Y73068D01*
Y72933D01*
X221973D01*
Y72798D01*
X222107D01*
Y72664D01*
X222242D01*
Y72529D01*
X222377D01*
Y72394D01*
X222512D01*
Y72259D01*
X222646D01*
Y72125D01*
X222781D01*
Y71990D01*
X223051D01*
Y71855D01*
X223320D01*
Y71720D01*
X223590D01*
Y71585D01*
X223994D01*
Y71451D01*
X225881D01*
Y71585D01*
X226285D01*
Y71720D01*
X226555D01*
Y71855D01*
X226824D01*
Y71990D01*
X227094D01*
Y72125D01*
X227229D01*
Y72259D01*
X227498D01*
Y72394D01*
X227633D01*
Y72529D01*
X227768D01*
Y72664D01*
X227903D01*
Y72798D01*
Y72933D01*
X228037D01*
Y73068D01*
X228172D01*
Y73203D01*
Y73337D01*
X228307D01*
Y73472D01*
X228442D01*
Y73607D01*
Y73742D01*
Y73877D01*
X228577D01*
Y74011D01*
Y74146D01*
Y74281D01*
X228711D01*
Y74416D01*
Y74550D01*
Y74685D01*
Y74820D01*
Y74955D01*
Y75090D01*
X228846D01*
Y75224D01*
Y75359D01*
X228711D01*
Y75494D01*
Y75629D01*
Y75764D01*
Y75898D01*
Y76033D01*
Y76168D01*
Y76303D01*
X228577D01*
Y76437D01*
Y76572D01*
X228442D01*
Y76707D01*
Y76842D01*
Y76976D01*
X228307D01*
Y77111D01*
X228172D01*
Y77246D01*
Y77381D01*
X228037D01*
Y77516D01*
X227903D01*
Y77650D01*
Y77785D01*
X227768D01*
Y77920D01*
X227633D01*
Y78055D01*
X227498D01*
Y78189D01*
X227229D01*
Y78324D01*
X227094D01*
Y78459D01*
X226824D01*
Y78594D01*
X226690D01*
Y78728D01*
X226285D01*
Y78863D01*
X225881D01*
Y78998D01*
D02*
G37*
G36*
X169275Y108379D02*
X167118D01*
Y108245D01*
X166444D01*
Y108110D01*
X166040D01*
Y107975D01*
X165636D01*
Y107840D01*
X165366D01*
Y107706D01*
X164962D01*
Y107571D01*
X164827D01*
Y107436D01*
X164557D01*
Y107301D01*
X164288D01*
Y107167D01*
X164153D01*
Y107032D01*
X164018D01*
Y106897D01*
X163749D01*
Y106762D01*
X163614D01*
Y106627D01*
X163479D01*
Y106493D01*
X163344D01*
Y106358D01*
X163210D01*
Y106223D01*
X163075D01*
Y106088D01*
X162940D01*
Y105954D01*
X162805D01*
Y105819D01*
X162671D01*
Y105684D01*
Y105549D01*
X162536D01*
Y105414D01*
X162401D01*
Y105280D01*
Y105145D01*
X162266D01*
Y105010D01*
X162132D01*
Y104875D01*
Y104740D01*
X161997D01*
Y104606D01*
Y104471D01*
X161862D01*
Y104336D01*
Y104201D01*
X161727D01*
Y104067D01*
Y103932D01*
X161592D01*
Y103797D01*
Y103662D01*
Y103527D01*
X161458D01*
Y103393D01*
Y103258D01*
Y103123D01*
Y102988D01*
X161323D01*
Y102854D01*
Y102719D01*
Y102584D01*
Y102449D01*
Y102315D01*
Y102180D01*
X161188D01*
Y102045D01*
Y101910D01*
Y101775D01*
Y101641D01*
Y101506D01*
Y101371D01*
Y101236D01*
Y101102D01*
Y100967D01*
Y100832D01*
X161323D01*
Y100697D01*
Y100562D01*
Y100428D01*
Y100293D01*
Y100158D01*
Y100023D01*
Y99888D01*
X161458D01*
Y99754D01*
Y99619D01*
Y99484D01*
X161592D01*
Y99349D01*
Y99215D01*
Y99080D01*
X161727D01*
Y98945D01*
Y98810D01*
Y98675D01*
X161862D01*
Y98541D01*
Y98406D01*
X161997D01*
Y98271D01*
Y98136D01*
X162132D01*
Y98002D01*
Y97867D01*
X162266D01*
Y97732D01*
X162401D01*
Y97597D01*
Y97463D01*
X162536D01*
Y97328D01*
X162671D01*
Y97193D01*
X162805D01*
Y97058D01*
Y96924D01*
X162940D01*
Y96789D01*
X163075D01*
Y96654D01*
X163210D01*
Y96519D01*
X163344D01*
Y96384D01*
X163479D01*
Y96250D01*
X163614D01*
Y96115D01*
X163884D01*
Y95980D01*
X164018D01*
Y95845D01*
X164153D01*
Y95710D01*
X164423D01*
Y95576D01*
X164557D01*
Y95441D01*
X164827D01*
Y95306D01*
X165097D01*
Y95171D01*
X165366D01*
Y95037D01*
X165770D01*
Y94902D01*
X166175D01*
Y94767D01*
X166579D01*
Y94632D01*
X167388D01*
Y94497D01*
X168870D01*
Y94632D01*
X169679D01*
Y94767D01*
X170218D01*
Y94902D01*
X170623D01*
Y95037D01*
X170892D01*
Y95171D01*
X171162D01*
Y95306D01*
X171431D01*
Y95441D01*
X171701D01*
Y95576D01*
X171970D01*
Y95710D01*
X172105D01*
Y95845D01*
X172240D01*
Y95980D01*
X172509D01*
Y96115D01*
X172644D01*
Y96250D01*
X172779D01*
Y96384D01*
X172914D01*
Y96519D01*
X173048D01*
Y96654D01*
X173183D01*
Y96789D01*
X173318D01*
Y96924D01*
X173453D01*
Y97058D01*
X173588D01*
Y97193D01*
X173722D01*
Y97328D01*
Y97463D01*
X173857D01*
Y97597D01*
X173992D01*
Y97732D01*
Y97867D01*
X174127D01*
Y98002D01*
X174261D01*
Y98136D01*
Y98271D01*
X174396D01*
Y98406D01*
Y98541D01*
X174531D01*
Y98675D01*
Y98810D01*
Y98945D01*
X174666D01*
Y99080D01*
Y99215D01*
X174801D01*
Y99349D01*
Y99484D01*
Y99619D01*
Y99754D01*
X174935D01*
Y99888D01*
Y100023D01*
Y100158D01*
Y100293D01*
X175070D01*
Y100428D01*
Y100562D01*
Y100697D01*
Y100832D01*
Y100967D01*
Y101102D01*
Y101236D01*
Y101371D01*
Y101506D01*
Y101641D01*
Y101775D01*
Y101910D01*
Y102045D01*
Y102180D01*
Y102315D01*
Y102449D01*
Y102584D01*
X174935D01*
Y102719D01*
Y102854D01*
Y102988D01*
Y103123D01*
Y103258D01*
X174801D01*
Y103393D01*
Y103527D01*
Y103662D01*
X174666D01*
Y103797D01*
Y103932D01*
Y104067D01*
X174531D01*
Y104201D01*
Y104336D01*
X174396D01*
Y104471D01*
Y104606D01*
X174261D01*
Y104740D01*
Y104875D01*
X174127D01*
Y105010D01*
Y105145D01*
X173992D01*
Y105280D01*
X173857D01*
Y105414D01*
Y105549D01*
X173722D01*
Y105684D01*
X173588D01*
Y105819D01*
X173453D01*
Y105954D01*
X173318D01*
Y106088D01*
X173183D01*
Y106223D01*
Y106358D01*
X172914D01*
Y106493D01*
X172779D01*
Y106627D01*
X172644D01*
Y106762D01*
X172509D01*
Y106897D01*
X172375D01*
Y107032D01*
X172240D01*
Y107167D01*
X171970D01*
Y107301D01*
X171835D01*
Y107436D01*
X171566D01*
Y107571D01*
X171296D01*
Y107706D01*
X171027D01*
Y107840D01*
X170757D01*
Y107975D01*
X170353D01*
Y108110D01*
X169814D01*
Y108245D01*
X169275D01*
Y108379D01*
D02*
G37*
%LPD*%
D51*
X150250Y217300D02*
D03*
X124900D02*
D03*
X99500D02*
D03*
X74100D02*
D03*
X175700D02*
D03*
X201100D02*
D03*
X226500D02*
D03*
X251850D02*
D03*
X277300D02*
D03*
X302700D02*
D03*
X328100D02*
D03*
X353500D02*
D03*
Y242700D02*
D03*
X328100D02*
D03*
X302700D02*
D03*
X277300D02*
D03*
X251850D02*
D03*
X226500D02*
D03*
X201100D02*
D03*
X175700D02*
D03*
X74100D02*
D03*
X99500D02*
D03*
X124900D02*
D03*
X150250D02*
D03*
X48700D02*
D03*
X378900D02*
D03*
X404300D02*
D03*
X429650D02*
D03*
X455100D02*
D03*
X480500D02*
D03*
X505900D02*
D03*
X531300D02*
D03*
Y217300D02*
D03*
X505900D02*
D03*
X480500D02*
D03*
X455100D02*
D03*
X429650D02*
D03*
X404300D02*
D03*
X378900D02*
D03*
X-14500Y163850D02*
D03*
Y138500D02*
D03*
Y113100D02*
D03*
Y87700D02*
D03*
D52*
X48700Y217300D02*
D03*
D53*
X-14500Y62300D02*
D03*
D54*
X608050Y87000D02*
D03*
Y134500D02*
D03*
D55*
X594050Y68750D02*
D03*
Y152750D02*
D03*
D56*
X564050Y88750D02*
D03*
D57*
Y132750D02*
D03*
D58*
X0Y0D02*
D03*
Y230000D02*
D03*
X580000Y0D02*
D03*
Y230000D02*
D03*
D59*
X239750Y-19250D02*
D03*
X269250D02*
D03*
D60*
X342500Y-22000D02*
D03*
Y23000D02*
D03*
X433500D02*
D03*
Y-22000D02*
D03*
M02*
