G04 Layer_Color=8388736*
%FSLAX44Y44*%
%MOMM*%
G71*
G01*
G75*
%ADD22C,0.2500*%
%ADD24C,0.2000*%
%ADD37C,0.1000*%
G36*
X286000Y20000D02*
X281000Y25000D01*
X286000D01*
Y20000D01*
D02*
G37*
D22*
X491850Y87800D02*
G03*
X491850Y87800I-1250J0D01*
G01*
D24*
X488500Y83750D02*
X494750D01*
X494751Y83999D02*
Y90249D01*
X445249Y83749D02*
X451499D01*
X445250Y83998D02*
Y90248D01*
X494749Y127251D02*
Y133501D01*
X445249Y127001D02*
Y133251D01*
X445248Y133250D02*
X451498D01*
X488499Y133499D02*
X494749D01*
D37*
X-4999Y264999D02*
G03*
X-34999Y234999I0J-30000D01*
G01*
X614999Y234999D02*
G03*
X584999Y264999I-30000J0D01*
G01*
X584999Y-34999D02*
G03*
X614999Y-4999I0J30000D01*
G01*
X-34999Y-4999D02*
G03*
X-4999Y-34999I30000J0D01*
G01*
X87244Y197499D02*
X92244D01*
X87244Y188999D02*
X92244D01*
X87244D02*
Y197499D01*
X92244Y188999D02*
Y197499D01*
X74744Y188999D02*
Y197499D01*
Y188999D02*
X79744D01*
X79744D02*
Y197499D01*
X74744D02*
X79744D01*
X74999Y188949D02*
Y197549D01*
Y188949D02*
X91999D01*
X74999Y197549D02*
X91999D01*
Y188949D02*
Y197549D01*
X117249Y140756D02*
Y145756D01*
X108749Y140756D02*
Y145756D01*
X117249D01*
X108749Y140756D02*
X117249D01*
X108749Y158256D02*
X117249D01*
X108749Y153256D02*
Y158256D01*
Y153256D02*
X117249D01*
Y158256D01*
X108699Y158001D02*
X117299D01*
X108699Y141001D02*
Y158001D01*
X117299Y141001D02*
Y158001D01*
X108699Y141001D02*
X117299D01*
X125501Y152994D02*
Y157994D01*
X134001Y152994D02*
Y157994D01*
X125501Y152994D02*
X134001D01*
X125501Y157994D02*
X134001D01*
X125501Y140494D02*
X134001D01*
Y145494D01*
X125501Y145494D02*
X134001D01*
X125501Y140494D02*
Y145494D01*
X125451Y140749D02*
X134051D01*
Y157749D01*
X125451Y140749D02*
Y157749D01*
X134051D01*
X209751Y86244D02*
Y91244D01*
X218251Y86244D02*
Y91244D01*
X209751Y86244D02*
X218251D01*
X209751Y91244D02*
X218251D01*
X209751Y73744D02*
X218251D01*
Y78744D01*
X209751Y78744D02*
X218251D01*
X209751Y73744D02*
Y78744D01*
X209701Y73999D02*
X218301D01*
Y90999D01*
X209701Y73999D02*
Y90999D01*
X218301D01*
X240006Y-4499D02*
X245006D01*
X240006Y4001D02*
X245006D01*
Y-4499D02*
Y4001D01*
X240006Y-4499D02*
Y4001D01*
X257506Y-4499D02*
Y4001D01*
X252506D02*
X257506D01*
X252506Y-4499D02*
Y4001D01*
Y-4499D02*
X257506D01*
X257251Y-4549D02*
Y4051D01*
X240251D02*
X257251D01*
X240251Y-4549D02*
X257251D01*
X240251D02*
Y4051D01*
X239256Y37501D02*
X244256D01*
X239256Y46001D02*
X244256D01*
Y37501D02*
Y46001D01*
X239256Y37501D02*
Y46001D01*
X256756Y37501D02*
Y46001D01*
X251756D02*
X256756D01*
X251756Y37501D02*
Y46001D01*
Y37501D02*
X256756D01*
X256501Y37451D02*
Y46051D01*
X239501D02*
X256501D01*
X239501Y37451D02*
X256501D01*
X239501D02*
Y46051D01*
X252251Y175994D02*
Y180994D01*
X260751Y175994D02*
Y180994D01*
X252251Y175994D02*
X260751D01*
X252251Y180994D02*
X260751D01*
X252251Y163494D02*
X260751D01*
Y168494D01*
X252251Y168494D02*
X260751D01*
X252251Y163494D02*
Y168494D01*
X252201Y163749D02*
X260801D01*
Y180749D01*
X252201Y163749D02*
Y180749D01*
X260801D01*
X293994Y4749D02*
X298994D01*
X293994Y-3751D02*
X298994D01*
X293994D02*
Y4749D01*
X298994Y-3751D02*
Y4749D01*
X281494Y-3751D02*
Y4749D01*
Y-3751D02*
X286494D01*
X286494D02*
Y4749D01*
X281494D02*
X286494D01*
X281749Y-3801D02*
Y4799D01*
Y-3801D02*
X298749D01*
X281749Y4799D02*
X298749D01*
Y-3801D02*
Y4799D01*
X283756Y37001D02*
X288756D01*
X283756Y45501D02*
X288756D01*
Y37001D02*
Y45501D01*
X283756Y37001D02*
Y45501D01*
X301256Y37001D02*
Y45501D01*
X296256D02*
X301256D01*
X296256Y37001D02*
Y45501D01*
Y37001D02*
X301256D01*
X301001Y36951D02*
Y45551D01*
X284001D02*
X301001D01*
X284001Y36951D02*
X301001D01*
X284001D02*
Y45551D01*
X365244Y134249D02*
X370244D01*
X365244Y125749D02*
X370244D01*
X365244D02*
Y134249D01*
X370244Y125749D02*
Y134249D01*
X352744Y125749D02*
Y134249D01*
Y125749D02*
X357744D01*
X357744D02*
Y134249D01*
X352744D02*
X357744D01*
X352999Y125699D02*
Y134299D01*
Y125699D02*
X369999D01*
X352999Y134299D02*
X369999D01*
Y125699D02*
Y134299D01*
X499006Y146001D02*
X504006D01*
X499006Y154501D02*
X504006D01*
Y146001D02*
Y154501D01*
X499006Y146001D02*
Y154501D01*
X516506Y146001D02*
Y154501D01*
X511506D02*
X516506D01*
X511506Y146001D02*
Y154501D01*
Y146001D02*
X516506D01*
X516251Y145951D02*
Y154551D01*
X499251D02*
X516251D01*
X499251Y145951D02*
X516251D01*
X499251D02*
Y154551D01*
X11501Y89744D02*
Y94744D01*
X20001Y89744D02*
Y94744D01*
X11501Y89744D02*
X20001D01*
X11501Y94744D02*
X20001D01*
X11501Y77244D02*
X20001D01*
Y82244D01*
X11501Y82244D02*
X20001D01*
X11501Y77244D02*
Y82244D01*
X11451Y77499D02*
X20051D01*
Y94499D01*
X11451Y77499D02*
Y94499D01*
X20051D01*
X217751Y-9756D02*
Y-4756D01*
X226251Y-9756D02*
Y-4756D01*
X217751Y-9756D02*
X226251D01*
X217751Y-4756D02*
X226251D01*
X217751Y-22256D02*
X226251D01*
Y-17256D01*
X217751Y-17256D02*
X226251D01*
X217751Y-22256D02*
Y-17256D01*
X217701Y-22001D02*
X226301D01*
Y-5001D01*
X217701Y-22001D02*
Y-5001D01*
X226301D01*
X512999Y118506D02*
Y123506D01*
X504499Y118506D02*
Y123506D01*
X512999D01*
X504499Y118506D02*
X512999D01*
X504499Y136006D02*
X512999D01*
X504499Y131006D02*
Y136006D01*
Y131006D02*
X512999D01*
Y136006D01*
X504449Y135751D02*
X513049D01*
X504449Y118751D02*
Y135751D01*
X513049Y118751D02*
Y135751D01*
X504449Y118751D02*
X513049D01*
X530249Y118506D02*
Y123506D01*
X521749Y118506D02*
Y123506D01*
X530249D01*
X521749Y118506D02*
X530249D01*
X521749Y136006D02*
X530249D01*
X521749Y131006D02*
Y136006D01*
Y131006D02*
X530249D01*
Y136006D01*
X521699Y135751D02*
X530299D01*
X521699Y118751D02*
Y135751D01*
X530299Y118751D02*
Y135751D01*
X521699Y118751D02*
X530299D01*
X473999Y147006D02*
Y152006D01*
X465499Y147006D02*
Y152006D01*
X473999D01*
X465499Y147006D02*
X473999D01*
X465499Y164506D02*
X473999D01*
X465499Y159506D02*
Y164506D01*
Y159506D02*
X473999D01*
Y164506D01*
X465449Y164251D02*
X474049D01*
X465449Y147251D02*
Y164251D01*
X474049Y147251D02*
Y164251D01*
X465449Y147251D02*
X474049D01*
X548249Y126006D02*
Y131006D01*
X539749Y126006D02*
Y131006D01*
X548249D01*
X539749Y126006D02*
X548249D01*
X539749Y143506D02*
X548249D01*
X539749Y138506D02*
Y143506D01*
Y138506D02*
X548249D01*
Y143506D01*
X539699Y143251D02*
X548299D01*
X539699Y126251D02*
Y143251D01*
X548299Y126251D02*
Y143251D01*
X539699Y126251D02*
X548299D01*
X285500Y8500D02*
Y24500D01*
X255500Y8500D02*
Y24500D01*
Y8500D02*
X285500D01*
X255500Y24500D02*
X285500D01*
X237750Y-28000D02*
X271250D01*
X237750Y-10500D02*
X271250D01*
X237750Y-28000D02*
Y-10500D01*
X271250Y-28000D02*
Y-10500D01*
X245000Y-28000D02*
Y-10500D01*
X264000Y-28000D02*
Y-10500D01*
X616050Y67750D02*
Y153750D01*
X566050Y72750D02*
X621050D01*
X566050D02*
Y148750D01*
X621050D01*
Y72750D02*
Y148750D01*
X-4999Y265000D02*
X584999D01*
X615000Y-4999D02*
Y234999D01*
X-35000Y-4999D02*
Y234999D01*
X-5000Y-35000D02*
X584999D01*
M02*
